# Created by FreeCAD <https://www.freecad.org>
v -197.702774 35.500000 -210.000000
v -197.651550 34.261311 -210.000000
v -197.651550 36.738689 -210.000000
v -197.498199 33.031082 -210.000000
v -197.498199 37.968918 -210.000000
v -197.243790 31.817719 -210.000000
v -197.243790 39.182281 -210.000000
v -196.890045 30.629507 -210.000000
v -196.890045 40.370491 -210.000000
v -196.439377 29.474569 -210.000000
v -196.439377 41.525433 -210.000000
v -195.894882 28.360788 -210.000000
v -195.894882 42.639210 -210.000000
v -195.260284 27.295778 -210.000000
v -195.260284 43.704224 -210.000000
v -194.539886 26.286810 -210.000000
v -194.539886 44.713192 -210.000000
v -193.738632 25.340776 -210.000000
v -193.738632 45.659225 -210.000000
v -193.690323 34.976601 -213.500000
v -193.690323 34.976601 -210.000000
v -193.690323 36.023399 -213.500000
v -193.690323 36.023399 -210.000000
v -193.590820 33.934536 -213.500000
v -193.590820 33.934536 -210.000000
v -193.590820 37.065464 -213.500000
v -193.590820 37.065464 -210.000000
v -193.392715 32.906651 -213.500000
v -193.392715 32.906651 -210.000000
v -193.392715 38.093349 -213.500000
v -193.392715 38.093349 -210.000000
v -193.097794 31.902252 -213.500000
v -193.097794 31.902252 -210.000000
v -193.097794 39.097748 -213.500000
v -193.097794 39.097748 -210.000000
v -192.862000 24.464142 -210.000000
v -192.862000 46.535858 -210.000000
v -192.708740 30.930435 -213.500000
v -192.708740 30.930435 -210.000000
v -192.708740 40.069565 -213.500000
v -192.708740 40.069565 -210.000000
v -192.689941 34.993507 -215.000000
v -192.689941 36.006493 -215.000000
v -192.587463 33.985722 -215.000000
v -192.587463 37.014278 -215.000000
v -192.383545 32.993473 -215.000000
v -192.383545 38.006527 -215.000000
v -192.229065 30.000000 -213.500000
v -192.229065 30.000000 -210.000000
v -192.229065 41.000000 -213.500000
v -192.229065 41.000000 -210.000000
v -192.080307 32.026947 -215.000000
v -192.080307 38.973053 -215.000000
v -191.915970 23.662893 -210.000000
v -191.915970 47.337109 -210.000000
v -191.680832 31.096058 -215.000000
v -191.680832 39.903942 -215.000000
v -191.663116 29.119373 -213.500000
v -191.663116 29.119373 -210.000000
v -191.663116 41.880627 -213.500000
v -191.663116 41.880627 -210.000000
v -191.189224 30.210360 -215.000000
v -191.189224 40.789639 -215.000000
v -191.016022 28.296532 -213.500000
v -191.016022 28.296532 -210.000000
v -191.016022 42.703468 -213.500000
v -191.016022 42.703468 -210.000000
v -190.906998 22.942503 -210.000000
v -190.906998 48.057499 -210.000000
v -190.610535 29.378941 -215.000000
v -190.610535 41.621059 -215.000000
v -190.293655 27.538925 -213.500000
v -190.293655 27.538925 -210.000000
v -190.293655 43.461075 -213.500000
v -190.293655 43.461075 -210.000000
v -189.950714 28.610331 -215.000000
v -189.950714 42.389668 -215.000000
v -189.841995 22.307894 -210.000000
v -189.841995 48.692108 -210.000000
v -189.502533 26.853416 -213.500000
v -189.502533 26.853416 -210.000000
v -189.502533 44.146584 -213.500000
v -189.502533 44.146584 -210.000000
v -189.216507 27.912418 -215.000000
v -189.216507 43.087582 -215.000000
v -188.728210 21.763401 -210.000000
v -188.728210 49.236599 -210.000000
v -188.649826 26.246212 -213.500000
v -188.649826 26.246212 -210.000000
v -188.649826 44.753788 -213.500000
v -188.649826 44.753788 -210.000000
v -188.415466 27.292366 -215.000000
v -188.415466 43.707634 -215.000000
v -187.743271 25.722811 -213.500000
v -187.743271 25.722811 -210.000000
v -187.743271 45.277191 -213.500000
v -187.743271 45.277191 -210.000000
v -187.573273 21.312742 -210.000000
v -187.573273 49.687260 -210.000000
v -187.555801 26.756535 -215.000000
v -187.555801 44.243465 -215.000000
v -186.791061 25.287952 -213.500000
v -186.791061 25.287952 -210.000000
v -186.791061 45.712048 -213.500000
v -186.791061 45.712048 -210.000000
v -186.646347 26.310421 -215.000000
v -186.646347 44.689579 -215.000000
v -186.452774 35.500000 -215.000000
v -186.452774 35.500000 -213.500000
v -186.401642 34.882771 -215.000000
v -186.401642 34.882771 -213.500000
v -186.401642 36.117229 -215.000000
v -186.401642 36.117229 -213.500000
v -186.385071 20.958996 -210.000000
v -186.385071 50.041004 -210.000000
v -186.249603 34.282375 -215.000000
v -186.249603 34.282375 -213.500000
v -186.249603 36.717625 -215.000000
v -186.249603 36.717625 -213.500000
v -186.000809 33.715199 -215.000000
v -186.000809 33.715199 -213.500000
v -186.000809 37.284801 -215.000000
v -186.000809 37.284801 -213.500000
v -185.801834 24.945578 -213.500000
v -185.801834 24.945578 -210.000000
v -185.801834 46.054424 -213.500000
v -185.801834 46.054424 -210.000000
v -185.696411 25.958607 -215.000000
v -185.696411 45.041393 -215.000000
v -185.662064 33.196701 -215.000000
v -185.662064 33.196701 -213.500000
v -185.662064 37.803299 -215.000000
v -185.662064 37.803299 -213.500000
v -185.242584 32.741035 -215.000000
v -185.242584 32.741035 -213.500000
v -185.242584 38.258965 -215.000000
v -185.242584 38.258965 -213.500000
v -185.171707 20.704580 -210.000000
v -185.171707 50.295418 -210.000000
v -184.784546 24.698784 -213.500000
v -184.784546 24.698784 -210.000000
v -184.784546 46.301216 -213.500000
v -184.784546 46.301216 -210.000000
v -184.753830 32.360626 -215.000000
v -184.753830 32.360626 -213.500000
v -184.753830 38.639374 -215.000000
v -184.753830 38.639374 -213.500000
v -184.715759 25.704700 -215.000000
v -184.715759 45.295300 -215.000000
v -184.209137 32.065849 -215.000000
v -184.209137 32.065849 -213.500000
v -184.209137 38.934151 -215.000000
v -184.209137 38.934151 -213.500000
v -183.941467 20.551233 -210.000000
v -183.941467 50.448769 -210.000000
v -183.748398 24.549809 -213.500000
v -183.748398 24.549809 -210.000000
v -183.748398 46.450191 -213.500000
v -183.748398 46.450191 -210.000000
v -183.714462 25.551308 -215.000000
v -183.714462 45.448692 -215.000000
v -183.623352 31.864750 -215.000000
v -183.623352 31.864750 -213.500000
v -183.623352 39.135250 -215.000000
v -183.623352 39.135250 -213.500000
v -183.012451 31.762808 -215.000000
v -183.012451 31.762808 -213.500000
v -183.012451 39.237190 -215.000000
v -183.012451 39.237190 -213.500000
v -182.702774 20.500000 -210.000000
v -182.702774 24.500000 -213.500000
v -182.702774 24.500000 -210.000000
v -182.702774 25.500000 -215.000000
v -182.702774 45.500000 -215.000000
v -182.702774 46.500000 -213.500000
v -182.702774 46.500000 -210.000000
v -182.702774 50.500000 -210.000000
v -182.393112 31.762808 -215.000000
v -182.393112 31.762808 -213.500000
v -182.393112 39.237190 -215.000000
v -182.393112 39.237190 -213.500000
v -181.782211 31.864750 -215.000000
v -181.782211 31.864750 -213.500000
v -181.782211 39.135250 -215.000000
v -181.782211 39.135250 -213.500000
v -181.196426 32.065849 -215.000000
v -181.196426 32.065849 -213.500000
v -181.196426 38.934151 -215.000000
v -181.196426 38.934151 -213.500000
v -180.651718 32.360626 -215.000000
v -180.651718 32.360626 -213.500000
v -180.651718 38.639374 -215.000000
v -180.651718 38.639374 -213.500000
v -180.162979 32.741035 -215.000000
v -180.162979 32.741035 -213.500000
v -180.162979 38.258965 -215.000000
v -180.162979 38.258965 -213.500000
v -179.743500 33.196701 -215.000000
v -179.743500 33.196701 -213.500000
v -179.743500 37.803299 -215.000000
v -179.743500 37.803299 -213.500000
v -179.404755 33.715199 -215.000000
v -179.404755 33.715199 -213.500000
v -179.404755 37.284801 -215.000000
v -179.404755 37.284801 -213.500000
v -179.155960 34.282375 -215.000000
v -179.155960 34.282375 -213.500000
v -179.155960 36.717625 -215.000000
v -179.155960 36.717625 -213.500000
v -179.003922 34.882771 -215.000000
v -179.003922 34.882771 -213.500000
v -179.003922 36.117229 -215.000000
v -179.003922 36.117229 -213.500000
v -178.952774 35.500000 -215.000000
v -178.952774 35.500000 -213.500000
v -166.327774 35.500000 -215.000000
v -166.315109 35.282326 -213.500000
v -166.315109 35.717674 -213.500000
v -166.277237 35.067596 -215.000000
v -166.277237 35.932404 -215.000000
v -166.214706 34.858711 -213.500000
v -166.214706 36.141289 -213.500000
v -166.128342 34.658501 -215.000000
v -166.128342 36.341499 -215.000000
v -166.019318 34.469669 -213.500000
v -166.019318 36.530331 -213.500000
v -165.889114 34.294773 -215.000000
v -165.889114 36.705227 -215.000000
v -165.739487 34.136173 -213.500000
v -165.739487 36.863827 -213.500000
v -165.572449 33.996017 -215.000000
v -165.572449 37.003983 -215.000000
v -165.390274 33.876202 -213.500000
v -165.390274 37.123798 -213.500000
v -165.195435 33.778343 -215.000000
v -165.195435 37.221657 -215.000000
v -164.990540 33.703770 -213.500000
v -164.990540 37.296230 -213.500000
v -164.778366 33.653484 -215.000000
v -164.778366 37.346516 -215.000000
v -164.561798 33.628174 -213.500000
v -164.561798 37.371826 -213.500000
v -164.343765 33.628174 -215.000000
v -164.343765 37.371826 -215.000000
v -164.127197 33.653484 -213.500000
v -164.127197 37.346516 -213.500000
v -163.915024 33.703770 -215.000000
v -163.915024 37.296230 -215.000000
v -163.710129 33.778343 -213.500000
v -163.710129 37.221657 -213.500000
v -163.515274 33.876202 -215.000000
v -163.515274 37.123798 -215.000000
v -163.333115 33.996017 -213.500000
v -163.333115 37.003983 -213.500000
v -163.166077 34.136173 -215.000000
v -163.166077 36.863827 -215.000000
v -163.016449 34.294773 -213.500000
v -163.016449 36.705227 -213.500000
v -162.886246 34.469669 -215.000000
v -162.886246 36.530331 -215.000000
v -162.777222 34.658501 -213.500000
v -162.777222 36.341499 -213.500000
v -162.690857 34.858711 -215.000000
v -162.690857 36.141289 -215.000000
v -162.628326 35.067596 -213.500000
v -162.628326 35.932404 -213.500000
v -162.590454 35.282326 -215.000000
v -162.590454 35.717674 -215.000000
v -162.577774 35.500000 -213.500000
v -151.939941 35.115944 -213.500000
v -151.939941 35.884056 -213.500000
v -151.837555 34.354679 -213.500000
v -151.837555 36.645321 -213.500000
v -151.634628 33.613857 -213.500000
v -151.634628 37.386143 -213.500000
v -151.334763 32.906693 -213.500000
v -151.334763 38.093307 -213.500000
v -151.202774 35.500000 -214.250000
v -151.151886 34.788425 -214.250000
v -151.151886 36.211575 -214.250000
v -151.000244 34.091339 -214.250000
v -151.000244 36.908661 -214.250000
v -150.943314 32.245804 -213.500000
v -150.943314 38.754196 -213.500000
v -150.750946 33.422924 -214.250000
v -150.750946 37.577076 -214.250000
v -150.467285 31.642988 -213.500000
v -150.467285 39.357014 -213.500000
v -150.409042 32.796795 -214.250000
v -150.409042 38.203205 -214.250000
v -149.981522 32.225697 -214.250000
v -149.981522 38.774303 -214.250000
v -149.915146 31.108999 -213.500000
v -149.915146 39.890999 -213.500000
v -149.477081 31.721252 -214.250000
v -149.477081 39.278748 -214.250000
v -149.296753 30.653370 -213.500000
v -149.296753 40.346630 -213.500000
v -148.905991 31.293732 -214.250000
v -148.905991 39.706268 -214.250000
v -148.623154 30.284227 -213.500000
v -148.623154 40.715775 -213.500000
v -148.279861 30.951839 -214.250000
v -148.279861 40.048161 -214.250000
v -147.906372 30.008162 -213.500000
v -147.906372 40.991840 -213.500000
v -147.611450 30.702536 -214.250000
v -147.611450 40.297466 -214.250000
v -147.159180 29.830095 -213.500000
v -147.159180 41.169903 -213.500000
v -146.914352 30.550892 -214.250000
v -146.914352 40.449108 -214.250000
v -146.394913 29.753210 -213.500000
v -146.394913 41.246788 -213.500000
v -146.202774 24.500000 -213.500000
v -146.202774 24.500000 -210.000000
v -146.202774 30.500000 -214.250000
v -146.202774 40.500000 -214.250000
v -146.202774 46.500000 -213.500000
v -146.202774 46.500000 -210.000000
v -145.627228 29.778877 -213.500000
v -145.627228 41.221123 -213.500000
v -145.491211 30.550892 -214.250000
v -145.491211 40.449108 -214.250000
v -145.157166 24.549809 -213.500000
v -145.157166 24.549809 -210.000000
v -145.157166 46.450191 -213.500000
v -145.157166 46.450191 -210.000000
v -144.869812 29.906637 -213.500000
v -144.869812 41.093361 -213.500000
v -144.794113 30.702536 -214.250000
v -144.794113 40.297466 -214.250000
v -144.136185 30.134211 -213.500000
v -144.136185 40.865788 -213.500000
v -144.125702 30.951839 -214.250000
v -144.125702 40.048161 -214.250000
v -144.121017 24.698784 -213.500000
v -144.121017 24.698784 -210.000000
v -144.121017 46.301216 -213.500000
v -144.121017 46.301216 -210.000000
v -143.499573 31.293732 -214.250000
v -143.499573 39.706268 -214.250000
v -143.439438 30.457539 -213.500000
v -143.439438 40.542461 -213.500000
v -143.103729 24.945578 -213.500000
v -143.103729 24.945578 -210.000000
v -143.103729 46.054424 -213.500000
v -143.103729 46.054424 -210.000000
v -142.928482 31.721252 -214.250000
v -142.928482 39.278748 -214.250000
v -142.791992 30.870848 -213.500000
v -142.791992 40.129154 -213.500000
v -142.424026 32.225697 -214.250000
v -142.424026 38.774303 -214.250000
v -142.205429 31.366764 -213.500000
v -142.205429 39.633236 -213.500000
v -142.114487 25.287952 -213.500000
v -142.114487 25.287952 -210.000000
v -142.114487 45.712048 -213.500000
v -142.114487 45.712048 -210.000000
v -141.996521 32.796795 -214.250000
v -141.996521 38.203205 -214.250000
v -141.690186 31.936438 -213.500000
v -141.690186 39.063560 -213.500000
v -141.654617 33.422924 -214.250000
v -141.654617 37.577076 -214.250000
v -141.405319 34.091339 -214.250000
v -141.405319 36.908661 -214.250000
v -141.255478 32.569706 -213.500000
v -141.255478 38.430294 -213.500000
v -141.253677 34.788425 -214.250000
v -141.253677 36.211575 -214.250000
v -141.202774 35.500000 -214.250000
v -141.162292 25.722811 -213.500000
v -141.162292 25.722811 -210.000000
v -141.162292 45.277191 -213.500000
v -141.162292 45.277191 -210.000000
v -140.909042 33.255260 -213.500000
v -140.909042 37.744740 -213.500000
v -140.657089 33.980877 -213.500000
v -140.657089 37.019123 -213.500000
v -140.504089 34.733601 -213.500000
v -140.504089 36.266399 -213.500000
v -140.452774 35.500000 -213.500000
v -140.255737 26.246212 -213.500000
v -140.255737 26.246212 -210.000000
v -140.255737 44.753788 -213.500000
v -140.255737 44.753788 -210.000000
v -139.403030 26.853416 -213.500000
v -139.403030 26.853416 -210.000000
v -139.403030 44.146584 -213.500000
v -139.403030 44.146584 -210.000000
v -138.611908 27.538925 -213.500000
v -138.611908 27.538925 -210.000000
v -138.611908 43.461075 -213.500000
v -138.611908 43.461075 -210.000000
v -137.889542 28.296532 -213.500000
v -137.889542 28.296532 -210.000000
v -137.889542 42.703468 -213.500000
v -137.889542 42.703468 -210.000000
v -137.242447 29.119373 -213.500000
v -137.242447 29.119373 -210.000000
v -137.242447 41.880627 -213.500000
v -137.242447 41.880627 -210.000000
v -136.676498 30.000000 -213.500000
v -136.676498 30.000000 -210.000000
v -136.676498 41.000000 -213.500000
v -136.676498 41.000000 -210.000000
v -136.196823 30.930435 -213.500000
v -136.196823 30.930435 -210.000000
v -136.196823 40.069565 -213.500000
v -136.196823 40.069565 -210.000000
v -135.807770 31.902252 -213.500000
v -135.807770 31.902252 -210.000000
v -135.807770 39.097748 -213.500000
v -135.807770 39.097748 -210.000000
v -135.512848 32.906651 -213.500000
v -135.512848 32.906651 -210.000000
v -135.512848 38.093349 -213.500000
v -135.512848 38.093349 -210.000000
v -135.314743 33.934536 -213.500000
v -135.314743 33.934536 -210.000000
v -135.314743 37.065464 -213.500000
v -135.314743 37.065464 -210.000000
v -135.294647 20.500000 -210.000000
v -135.294647 25.500000 -215.000000
v -135.294647 45.500000 -215.000000
v -135.294647 50.500000 -210.000000
v -135.215240 34.976601 -213.500000
v -135.215240 34.976601 -210.000000
v -135.215240 36.023399 -213.500000
v -135.215240 36.023399 -210.000000
v -134.282959 25.551308 -215.000000
v -134.282959 45.448692 -215.000000
v -134.055954 20.551233 -210.000000
v -134.055954 50.448769 -210.000000
v -133.281662 25.704700 -215.000000
v -133.281662 45.295300 -215.000000
v -132.825729 20.704580 -210.000000
v -132.825729 50.295418 -210.000000
v -132.301010 25.958607 -215.000000
v -132.301010 45.041393 -215.000000
v -131.612366 20.958996 -210.000000
v -131.612366 50.041004 -210.000000
v -131.351089 26.310421 -215.000000
v -131.351089 44.689579 -215.000000
v -130.441620 26.756535 -215.000000
v -130.441620 44.243465 -215.000000
v -130.424149 21.312742 -210.000000
v -130.424149 49.687260 -210.000000
v -129.581955 27.292366 -215.000000
v -129.581955 43.707634 -215.000000
v -129.269211 21.763401 -210.000000
v -129.269211 49.236599 -210.000000
v -128.780914 27.912418 -215.000000
v -128.780914 43.087582 -215.000000
v -128.155426 22.307894 -210.000000
v -128.155426 48.692108 -210.000000
v -128.046722 28.610331 -215.000000
v -128.046722 42.389668 -215.000000
v -127.386887 29.378941 -215.000000
v -127.386887 41.621059 -215.000000
v -127.090424 22.942503 -210.000000
v -127.090424 48.057499 -210.000000
v -126.808197 30.210360 -215.000000
v -126.808197 40.789639 -215.000000
v -126.316597 31.096058 -215.000000
v -126.316597 39.903942 -215.000000
v -126.081451 23.662893 -210.000000
v -126.081451 47.337109 -210.000000
v -125.917122 32.026947 -215.000000
v -125.917122 38.973053 -215.000000
v -125.613869 32.993473 -215.000000
v -125.613869 38.006527 -215.000000
v -125.409958 33.985722 -215.000000
v -125.409958 37.014278 -215.000000
v -125.307480 34.993507 -215.000000
v -125.307480 36.006493 -215.000000
v -125.135422 24.464142 -210.000000
v -125.135422 46.535858 -210.000000
v -124.258781 25.340776 -210.000000
v -124.258781 45.659225 -210.000000
v -123.457535 26.286810 -210.000000
v -123.457535 44.713192 -210.000000
v -122.737144 27.295778 -210.000000
v -122.737144 43.704224 -210.000000
v -122.102539 28.360788 -210.000000
v -122.102539 42.639210 -210.000000
v -121.558044 29.474569 -210.000000
v -121.558044 41.525433 -210.000000
v -121.107384 30.629507 -210.000000
v -121.107384 40.370491 -210.000000
v -120.753639 31.817719 -210.000000
v -120.753639 39.182281 -210.000000
v -120.499222 33.031082 -210.000000
v -120.499222 37.968918 -210.000000
v -120.345879 34.261311 -210.000000
v -120.345879 36.738689 -210.000000
v -120.294640 35.500000 -210.000000
vn -0.704557 0.050401 0.707855
vn -0.706316 0.047292 0.706316
vn -0.706316 -0.047292 0.706316
vn -0.695025 0.141272 0.704970
vn -0.688826 0.149845 0.709270
vn -0.671080 0.233016 0.703815
vn -0.659371 0.245925 0.710458
vn -0.634877 0.320826 0.702852
vn -0.616802 0.336810 0.711417
vn -0.587078 0.403000 0.702090
vn -0.562006 0.420699 0.712152
vn -0.528537 0.478038 0.701519
vn -0.496032 0.496044 0.712666
vn -0.460343 0.544487 0.701155
vn -0.420220 0.561339 0.712961
vn -0.383744 0.601132 0.700985
vn -0.336017 0.615369 0.713031
vn -0.300189 0.646884 0.701019
vn -0.245071 0.657064 0.712887
vn -0.211218 0.680903 0.701254
vn -0.149146 0.685616 0.712521
vn -0.118507 0.702559 0.701689
vn -0.050098 0.700458 0.711933
vn -0.023787 0.711461 0.702322
vn 0.050155 0.701276 0.711123
vn 0.071171 0.707467 0.703153
vn 0.149669 0.688021 0.710089
vn 0.164599 0.690680 0.704179
vn 0.246506 0.660910 0.708825
vn 0.254755 0.661450 0.705396
vn 0.338774 0.620418 0.707329
vn 0.339968 0.620363 0.706804
vn 0.420186 0.570288 0.705844
vn 0.423008 0.565063 0.708356
vn 0.493335 0.510104 0.704567
vn 0.498164 0.498160 0.709696
vn 0.557776 0.440462 0.703477
vn 0.563093 0.421528 0.710803
vn 0.612266 0.362650 0.702577
vn 0.616563 0.336680 0.711686
vn 0.655779 0.278076 0.701875
vn 0.657577 0.245256 0.712349
vn 0.687466 0.188311 0.701377
vn 0.685351 0.149089 0.712788
vn 0.706724 0.095051 0.701075
vn 0.699366 0.050015 0.713011
vn 0.713182 0.000000 0.700979
vn 0.699366 -0.050015 0.713011
vn 0.706724 -0.095051 0.701075
vn 0.685351 -0.149089 0.712788
vn 0.687466 -0.188311 0.701377
vn 0.657577 -0.245256 0.712349
vn 0.655779 -0.278076 0.701875
vn 0.616563 -0.336680 0.711686
vn 0.612266 -0.362650 0.702577
vn 0.563093 -0.421528 0.710803
vn 0.557776 -0.440460 0.703477
vn 0.498164 -0.498160 0.709697
vn 0.493334 -0.510106 0.704567
vn 0.423009 -0.565064 0.708355
vn 0.420187 -0.570287 0.705844
vn 0.339969 -0.620362 0.706804
vn 0.338773 -0.620417 0.707330
vn 0.254755 -0.661449 0.705397
vn 0.246508 -0.660909 0.708825
vn 0.164595 -0.690681 0.704179
vn 0.149668 -0.688023 0.710088
vn 0.071171 -0.707468 0.703152
vn 0.050155 -0.701277 0.711123
vn -0.023786 -0.711462 0.702322
vn -0.050098 -0.700458 0.711933
vn -0.118508 -0.702559 0.701689
vn -0.149145 -0.685618 0.712519
vn -0.211219 -0.680905 0.701253
vn -0.245073 -0.657064 0.712886
vn -0.300188 -0.646885 0.701019
vn -0.336017 -0.615369 0.713031
vn -0.383743 -0.601133 0.700986
vn -0.420220 -0.561338 0.712962
vn -0.460343 -0.544486 0.701156
vn -0.496032 -0.496044 0.712666
vn -0.528538 -0.478037 0.701518
vn -0.562007 -0.420700 0.712152
vn -0.587078 -0.403001 0.702089
vn -0.616802 -0.336810 0.711417
vn -0.634877 -0.320826 0.702852
vn -0.659371 -0.245925 0.710458
vn -0.671080 -0.233016 0.703815
vn -0.688826 -0.149845 0.709270
vn -0.695025 -0.141272 0.704970
vn -0.704557 -0.050401 0.707855
vn 0.000000 0.000000 1.000000
vn 0.000000 0.000000 1.000000
vn 0.000000 0.000000 1.000000
vn 0.000000 0.000000 1.000000
vn 0.000000 0.000000 1.000000
vn 0.000000 0.000000 1.000000
vn 0.000000 0.000000 1.000000
vn 0.000000 0.000000 1.000000
vn 0.000000 0.000000 1.000000
vn 0.000000 0.000000 1.000000
vn 0.000000 0.000000 1.000000
vn 0.000000 0.000000 1.000000
vn 0.000000 0.000000 1.000000
vn 0.000000 0.000000 1.000000
vn 0.000000 0.000000 1.000000
vn 0.000000 0.000000 1.000000
vn 0.000000 0.000000 1.000000
vn 0.000000 0.000000 1.000000
vn 0.000000 0.000000 1.000000
vn 0.000000 0.000000 1.000000
vn 0.000000 0.000000 1.000000
vn 0.000000 0.000000 1.000000
vn 0.000000 0.000000 1.000000
vn 0.000000 0.000000 1.000000
vn 0.000000 0.000000 1.000000
vn 0.000000 0.000000 1.000000
vn 0.000000 0.000000 1.000000
vn 0.000000 0.000000 1.000000
vn 0.000000 0.000000 1.000000
vn 0.000000 0.000000 1.000000
vn 0.000000 0.000000 1.000000
vn 0.000000 0.000000 1.000000
vn 0.000000 0.000000 1.000000
vn 0.000000 0.000000 1.000000
vn 0.000000 0.000000 1.000000
vn 0.000000 0.000000 1.000000
vn 0.000000 0.000000 1.000000
vn -0.000000 0.000000 1.000000
vn 0.000000 0.000000 1.000000
vn -0.000000 0.000000 1.000000
vn 0.000000 0.000000 1.000000
vn 0.000000 0.000000 1.000000
vn -0.000000 0.000000 1.000000
vn 0.000000 0.000000 1.000000
vn -0.000000 0.000000 1.000000
vn 0.000000 0.000000 1.000000
vn -0.000000 0.000000 1.000000
vn -0.000000 0.000000 1.000000
vn 0.000000 0.000000 1.000000
vn -0.000000 0.000000 1.000000
vn 0.000000 0.000000 1.000000
vn -0.000000 0.000000 1.000000
vn 0.000000 0.000000 1.000000
vn -0.000000 0.000000 1.000000
vn 0.000000 0.000000 1.000000
vn 0.000000 0.000000 1.000000
vn -0.000000 0.000000 1.000000
vn 0.000000 0.000000 1.000000
vn 0.000000 0.000000 1.000000
vn 0.000000 0.000000 1.000000
vn 0.000000 0.000000 1.000000
vn 0.000000 0.000000 1.000000
vn 0.000000 0.000000 1.000000
vn 0.000000 0.000000 1.000000
vn 0.000000 -0.000000 1.000000
vn 0.000000 -0.000000 1.000000
vn 0.000000 0.000000 1.000000
vn 0.000000 0.000000 1.000000
vn 0.000000 0.000000 1.000000
vn 0.000000 0.000000 1.000000
vn 0.000000 0.000000 1.000000
vn 0.000000 0.000000 1.000000
vn -0.000000 0.000000 1.000000
vn -0.000000 0.000000 1.000000
vn 0.000000 -0.000000 1.000000
vn -0.000000 0.000000 1.000000
vn -0.000000 0.000000 1.000000
vn 0.000000 -0.000000 1.000000
vn -0.000000 0.000000 1.000000
vn 0.000000 -0.000000 1.000000
vn -0.000000 0.000000 1.000000
vn 0.000000 -0.000000 1.000000
vn -0.000000 0.000000 1.000000
vn 0.000000 -0.000000 1.000000
vn 0.000000 -0.000000 1.000000
vn -0.000000 0.000000 1.000000
vn 0.000000 -0.000000 1.000000
vn 0.000000 0.000000 1.000000
vn 0.000000 -0.000000 1.000000
vn 0.000000 -0.000000 1.000000
vn 0.000000 0.000000 1.000000
vn 0.000000 -0.000000 1.000000
vn 0.000000 0.000000 1.000000
vn 0.000000 0.000000 1.000000
vn 0.000000 -0.000000 1.000000
vn 0.000000 0.000000 1.000000
vn 0.000000 0.000000 1.000000
vn 0.000000 -0.000000 1.000000
vn 0.000000 0.000000 1.000000
vn 0.000000 -0.000000 1.000000
vn 0.000000 0.000000 1.000000
vn 0.000000 0.000000 1.000000
vn 0.000000 -0.000000 1.000000
vn 0.000000 0.000000 1.000000
vn 0.000000 -0.000000 1.000000
vn 0.000000 0.000000 1.000000
vn 0.000000 -0.000000 1.000000
vn 0.000000 0.000000 1.000000
vn 0.000000 -0.000000 1.000000
vn 0.000000 -0.000000 1.000000
vn 0.000000 0.000000 1.000000
vn 0.000000 -0.000000 1.000000
vn 0.000000 -0.000000 1.000000
vn 0.000000 -0.000000 1.000000
vn -0.000000 -0.000000 1.000000
vn -0.000000 -0.000000 1.000000
vn 0.000000 0.000000 1.000000
vn -0.000000 -0.000000 1.000000
vn -0.000000 -0.000000 1.000000
vn 0.000000 0.000000 1.000000
vn 0.000000 0.000000 1.000000
vn 0.000000 0.000000 1.000000
vn 0.000000 -0.000000 1.000000
vn -0.000000 -0.000000 1.000000
vn -0.000000 -0.000000 1.000000
vn 0.000000 -0.000000 1.000000
vn -0.000000 -0.000000 1.000000
vn 0.000000 -0.000000 1.000000
vn -0.000000 -0.000000 1.000000
vn 0.000000 -0.000000 1.000000
vn -0.000000 -0.000000 1.000000
vn 0.000000 -0.000000 1.000000
vn 0.000000 -0.000000 1.000000
vn 0.000000 -0.000000 1.000000
vn 0.000000 -0.000000 1.000000
vn 0.000000 -0.000000 1.000000
vn 0.000000 0.000000 1.000000
vn 0.000000 0.000000 1.000000
vn 0.000000 0.000000 1.000000
vn 0.000000 0.000000 1.000000
vn 0.000000 0.000000 1.000000
vn 0.000000 0.000000 1.000000
vn 0.000000 0.000000 1.000000
vn 0.000000 0.000000 1.000000
vn 0.000000 0.000000 1.000000
vn 0.000000 0.000000 1.000000
vn 0.000000 0.000000 1.000000
vn 0.000000 0.000000 1.000000
vn 0.000000 0.000000 1.000000
vn 0.000000 0.000000 1.000000
vn 0.000000 0.000000 1.000000
vn 0.000000 0.000000 1.000000
vn 0.000000 0.000000 1.000000
vn 0.000000 0.000000 1.000000
vn 0.000000 0.000000 1.000000
vn 0.000000 0.000000 1.000000
vn -0.000000 0.000000 1.000000
vn 0.000000 0.000000 1.000000
vn 0.000000 0.000000 1.000000
vn -0.000000 0.000000 1.000000
vn 0.000000 0.000000 1.000000
vn -0.000000 0.000000 1.000000
vn 0.000000 0.000000 1.000000
vn -0.000000 0.000000 1.000000
vn 0.000000 0.000000 1.000000
vn 0.000000 0.000000 1.000000
vn 0.000000 0.000000 1.000000
vn -0.000000 0.000000 1.000000
vn 0.000000 0.000000 1.000000
vn 0.000000 0.000000 1.000000
vn -0.000000 0.000000 1.000000
vn 0.000000 0.000000 1.000000
vn -0.000000 0.000000 1.000000
vn 0.000000 0.000000 1.000000
vn -0.000000 0.000000 1.000000
vn 0.000000 0.000000 1.000000
vn 0.000000 0.000000 1.000000
vn 0.000000 -0.000000 1.000000
vn 0.000000 -0.000000 1.000000
vn 0.000000 0.000000 1.000000
vn 0.000000 0.000000 1.000000
vn 0.000000 0.000000 1.000000
vn 0.000000 0.000000 1.000000
vn 0.000000 0.000000 1.000000
vn 0.000000 0.000000 1.000000
vn 0.000000 0.000000 1.000000
vn 0.000000 -0.000000 1.000000
vn 0.000000 -0.000000 1.000000
vn 0.000000 -0.000000 1.000000
vn 0.000000 -0.000000 1.000000
vn 0.000000 -0.000000 1.000000
vn 0.000000 -0.000000 1.000000
vn 0.000000 -0.000000 1.000000
vn 0.000000 -0.000000 1.000000
vn 0.000000 -0.000000 1.000000
vn 0.000000 -0.000000 1.000000
vn 0.000000 -0.000000 1.000000
vn 0.000000 -0.000000 1.000000
vn 0.000000 -0.000000 1.000000
vn 0.000000 -0.000000 1.000000
vn 0.000000 -0.000000 1.000000
vn 0.000000 -0.000000 1.000000
vn 0.000000 -0.000000 1.000000
vn 0.000000 -0.000000 1.000000
vn 0.000000 -0.000000 1.000000
vn 0.000000 -0.000000 1.000000
vn 0.000000 -0.000000 1.000000
vn 0.000000 0.000000 1.000000
vn 0.000000 0.000000 1.000000
vn 0.000000 0.000000 1.000000
vn 0.000000 0.000000 1.000000
vn 0.000000 0.000000 1.000000
vn 0.000000 0.000000 1.000000
vn 0.000000 0.000000 1.000000
vn 0.000000 0.000000 1.000000
vn 0.000000 0.000000 1.000000
vn 0.000000 0.000000 1.000000
vn 0.000000 0.000000 1.000000
vn 0.000000 0.000000 1.000000
vn 0.000000 0.000000 1.000000
vn 0.000000 0.000000 1.000000
vn 0.000000 0.000000 1.000000
vn 0.000000 0.000000 1.000000
vn 0.000000 0.000000 1.000000
vn 0.000000 0.000000 1.000000
vn 0.000000 0.000000 1.000000
vn -0.993200 -0.116115 -0.008454
vn -0.999964 0.000000 0.008453
vn -0.993200 0.116115 -0.008454
vn -0.973008 0.230617 0.008447
vn -0.939662 0.342001 -0.008454
vn -0.893597 0.448792 0.008452
vn -0.835458 0.549489 -0.008451
vn -0.766023 0.642757 0.008451
vn -0.686213 0.727351 -0.008454
vn -0.597143 0.802090 0.008448
vn -0.499991 0.865989 -0.008454
vn -0.396059 0.918186 0.008452
vn -0.286786 0.957957 -0.008451
vn -0.173636 0.984774 0.008453
vn -0.058138 0.998273 -0.008451
vn 0.058138 0.998273 0.008451
vn 0.173636 0.984774 -0.008453
vn 0.286786 0.957957 0.008451
vn 0.396072 0.918181 -0.008454
vn 0.499991 0.865990 0.008449
vn 0.597126 0.802103 -0.008451
vn 0.686213 0.727351 0.008454
vn 0.766023 0.642757 -0.008451
vn 0.835458 0.549489 0.008451
vn 0.893597 0.448792 -0.008452
vn 0.939662 0.342001 0.008454
vn 0.973008 0.230617 -0.008447
vn 0.993204 0.116081 0.008459
vn 0.999964 0.000000 -0.008443
vn 0.993204 -0.116081 0.008459
vn 0.973008 -0.230617 -0.008447
vn 0.939662 -0.342001 0.008454
vn 0.893597 -0.448792 -0.008452
vn 0.835458 -0.549489 0.008451
vn 0.766023 -0.642757 -0.008451
vn 0.686213 -0.727351 0.008454
vn 0.597126 -0.802103 -0.008451
vn 0.499991 -0.865990 0.008449
vn 0.396072 -0.918181 -0.008454
vn 0.286786 -0.957957 0.008451
vn 0.173636 -0.984774 -0.008453
vn 0.058138 -0.998273 0.008451
vn -0.058138 -0.998273 -0.008451
vn -0.173636 -0.984774 0.008453
vn -0.286786 -0.957957 -0.008451
vn -0.396059 -0.918186 0.008452
vn -0.499991 -0.865989 -0.008454
vn -0.597143 -0.802090 0.008448
vn -0.686213 -0.727351 -0.008454
vn -0.766023 -0.642757 0.008451
vn -0.835458 -0.549489 -0.008451
vn -0.893597 -0.448792 0.008452
vn -0.939662 -0.342001 -0.008454
vn -0.973008 -0.230617 0.008447
vn 0.000000 -1.000000 0.000000
vn 0.000000 -1.000000 0.000000
vn 0.047581 -0.998867 0.000000
vn 0.047581 -0.998867 0.000000
vn 0.142315 -0.989821 0.000000
vn 0.142315 -0.989821 0.000000
vn 0.235759 -0.971811 0.000000
vn 0.235759 -0.971811 0.000000
vn 0.327069 -0.945000 0.000000
vn 0.327069 -0.945000 0.000000
vn 0.415413 -0.909633 0.000000
vn 0.415413 -0.909633 0.000000
vn 0.500002 -0.866024 0.000000
vn 0.500002 -0.866024 0.000000
vn 0.580053 -0.814578 0.000000
vn 0.580053 -0.814578 0.000000
vn 0.654859 -0.755751 0.000000
vn 0.654859 -0.755751 0.000000
vn 0.723739 -0.690074 0.000000
vn 0.723739 -0.690074 0.000000
vn 0.786051 -0.618162 0.000000
vn 0.786051 -0.618162 0.000000
vn 0.841252 -0.540644 0.000000
vn 0.841252 -0.540644 0.000000
vn 0.888834 -0.458228 0.000000
vn 0.888834 -0.458228 0.000000
vn 0.928369 -0.371660 0.000000
vn 0.928369 -0.371660 0.000000
vn 0.959492 -0.281736 0.000000
vn 0.959492 -0.281736 0.000000
vn 0.981929 -0.189248 0.000000
vn 0.981929 -0.189248 0.000000
vn 0.995472 -0.095054 0.000000
vn 0.995472 -0.095054 0.000000
vn 1.000000 -0.000000 0.000000
vn 1.000000 0.000000 0.000000
vn 0.995472 0.095054 0.000000
vn 0.995472 0.095054 -0.000000
vn 0.981929 0.189248 0.000000
vn 0.981929 0.189248 -0.000000
vn 0.959492 0.281736 0.000000
vn 0.959492 0.281736 -0.000000
vn 0.928369 0.371660 0.000000
vn 0.928369 0.371660 -0.000000
vn 0.888834 0.458228 0.000000
vn 0.888834 0.458228 -0.000000
vn 0.841252 0.540644 0.000000
vn 0.841252 0.540644 -0.000000
vn 0.786051 0.618162 0.000000
vn 0.786051 0.618162 -0.000000
vn 0.723739 0.690074 0.000000
vn 0.723739 0.690074 -0.000000
vn 0.654859 0.755751 0.000000
vn 0.654859 0.755751 -0.000000
vn 0.580053 0.814578 0.000000
vn 0.580053 0.814578 -0.000000
vn 0.500001 0.866025 0.000000
vn 0.500001 0.866025 -0.000000
vn 0.415414 0.909632 0.000000
vn 0.415414 0.909632 -0.000000
vn 0.327068 0.945001 0.000000
vn 0.327068 0.945001 -0.000000
vn 0.235761 0.971811 0.000000
vn 0.235761 0.971811 -0.000000
vn 0.142315 0.989821 0.000000
vn 0.142315 0.989821 -0.000000
vn 0.047581 0.998867 0.000000
vn 0.047581 0.998867 0.000000
vn 0.000000 0.000000 -1.000000
vn 0.000000 0.000000 -1.000000
vn 0.000000 0.000000 -1.000000
vn 0.000000 0.000000 -1.000000
vn 0.000000 0.000000 -1.000000
vn -0.000000 0.000000 -1.000000
vn 0.000000 0.000000 -1.000000
vn -0.000000 0.000000 -1.000000
vn 0.000000 0.000000 -1.000000
vn -0.000000 0.000000 -1.000000
vn 0.000000 0.000000 -1.000000
vn -0.000000 0.000000 -1.000000
vn 0.000000 0.000000 -1.000000
vn 0.000000 0.000000 -1.000000
vn 0.000000 0.000000 -1.000000
vn 0.000000 0.000000 -1.000000
vn 0.000000 -0.000000 -1.000000
vn 0.000000 0.000000 -1.000000
vn 0.000000 0.000000 -1.000000
vn 0.000000 0.000000 -1.000000
vn 0.000000 0.000000 -1.000000
vn 0.000000 -0.000000 -1.000000
vn -0.000000 0.000000 -1.000000
vn 0.000000 -0.000000 -1.000000
vn -0.000000 0.000000 -1.000000
vn -0.000000 0.000000 -1.000000
vn -0.000000 0.000000 -1.000000
vn 0.000000 -0.000000 -1.000000
vn -0.000000 0.000000 -1.000000
vn 0.000000 -0.000000 -1.000000
vn -0.000000 0.000000 -1.000000
vn -0.000000 0.000000 -1.000000
vn 0.000000 -0.000000 -1.000000
vn 0.000000 0.000000 -1.000000
vn 0.000000 -0.000000 -1.000000
vn 0.000000 -0.000000 -1.000000
vn 0.000000 0.000000 -1.000000
vn 0.000000 0.000000 -1.000000
vn 0.000000 -0.000000 -1.000000
vn 0.000000 0.000000 -1.000000
vn 0.000000 -0.000000 -1.000000
vn 0.000000 -0.000000 -1.000000
vn 0.000000 0.000000 -1.000000
vn 0.000000 -0.000000 -1.000000
vn 0.000000 0.000000 -1.000000
vn 0.000000 -0.000000 -1.000000
vn 0.000000 -0.000000 -1.000000
vn 0.000000 -0.000000 -1.000000
vn 0.000000 0.000000 -1.000000
vn 0.000000 -0.000000 -1.000000
vn 0.000000 0.000000 -1.000000
vn 0.000000 0.000000 -1.000000
vn 0.000000 0.000000 -1.000000
vn 0.000000 0.000000 -1.000000
vn 0.000000 0.000000 -1.000000
vn 0.000000 0.000000 -1.000000
vn 0.000000 0.000000 -1.000000
vn 0.000000 0.000000 -1.000000
vn 0.000000 0.000000 -1.000000
vn 0.000000 0.000000 -1.000000
vn 0.000000 0.000000 -1.000000
vn 0.000000 0.000000 -1.000000
vn 0.000000 0.000000 -1.000000
vn 0.000000 0.000000 -1.000000
vn 0.000000 0.000000 -1.000000
vn 0.000000 0.000000 -1.000000
vn 0.000000 0.000000 -1.000000
vn 0.000000 -0.000000 -1.000000
vn 0.000000 0.000000 -1.000000
vn 0.000000 0.000000 -1.000000
vn 0.000000 -0.000000 -1.000000
vn -0.000000 0.000000 -1.000000
vn 0.000000 0.000000 -1.000000
vn 0.000000 -0.000000 -1.000000
vn -0.000000 0.000000 -1.000000
vn 0.000000 0.000000 -1.000000
vn 0.000000 -0.000000 -1.000000
vn -0.000000 0.000000 -1.000000
vn 0.000000 -0.000000 -1.000000
vn -0.000000 0.000000 -1.000000
vn -0.000000 0.000000 -1.000000
vn 0.000000 -0.000000 -1.000000
vn -0.000000 0.000000 -1.000000
vn 0.000000 -0.000000 -1.000000
vn 0.000000 -0.000000 -1.000000
vn 0.000000 0.000000 -1.000000
vn -0.000000 0.000000 -1.000000
vn 0.000000 0.000000 -1.000000
vn 0.000000 0.000000 -1.000000
vn -0.000000 0.000000 -1.000000
vn 0.000000 0.000000 -1.000000
vn 0.000000 0.000000 -1.000000
vn -0.000000 0.000000 -1.000000
vn 0.000000 0.000000 -1.000000
vn -0.000000 0.000000 -1.000000
vn -0.000000 0.000000 -1.000000
vn 0.000000 0.000000 -1.000000
vn -0.000000 0.000000 -1.000000
vn 0.000000 0.000000 -1.000000
vn 0.000000 0.000000 -1.000000
vn -0.000000 0.000000 -1.000000
vn 0.000000 0.000000 -1.000000
vn 0.000000 0.000000 -1.000000
vn 0.000000 0.000000 -1.000000
vn 0.000000 -0.000000 -1.000000
vn 0.000000 0.000000 -1.000000
vn 0.000000 -0.000000 -1.000000
vn 0.000000 -0.000000 -1.000000
vn 0.000000 0.000000 -1.000000
vn 0.000000 0.000000 -1.000000
vn 0.000000 0.000000 -1.000000
vn 0.000000 0.000000 -1.000000
vn 0.000000 0.000000 -1.000000
vn 0.000000 0.000000 -1.000000
vn 0.000000 0.000000 -1.000000
vn 0.000000 0.000000 -1.000000
vn -0.000000 0.000000 -1.000000
vn -0.000000 0.000000 -1.000000
vn 0.000000 0.000000 -1.000000
vn -0.000000 0.000000 -1.000000
vn -0.000000 0.000000 -1.000000
vn 0.000000 0.000000 -1.000000
vn 0.000000 0.000000 -1.000000
vn 0.000000 0.000000 -1.000000
vn 0.000000 0.000000 -1.000000
vn 0.000000 0.000000 -1.000000
vn 0.000000 0.000000 -1.000000
vn 0.000000 0.000000 -1.000000
vn 0.000000 -0.000000 -1.000000
vn 0.000000 -0.000000 -1.000000
vn 0.000000 0.000000 -1.000000
vn 0.000000 0.707107 -0.707107
vn 0.000000 0.707107 -0.707107
vn -0.029234 -0.706805 -0.706805
vn -0.035796 -0.705835 -0.707471
vn -0.087552 -0.702396 -0.706381
vn -0.106952 -0.698149 -0.707919
vn -0.145294 -0.692939 -0.706205
vn -0.177013 -0.683671 -0.707998
vn -0.202002 -0.678506 -0.706275
vn -0.245371 -0.662527 -0.707708
vn -0.257226 -0.659213 -0.706593
vn -0.310577 -0.635300 -0.707061
vn -0.311382 -0.634789 -0.707166
vn -0.362253 -0.607934 -0.706533
vn -0.373681 -0.599518 -0.707772
vn -0.411380 -0.576175 -0.706250
vn -0.432272 -0.558449 -0.708009
vn -0.457579 -0.540261 -0.706215
vn -0.486641 -0.511948 -0.707877
vn -0.500481 -0.500480 -0.706426
vn -0.536322 -0.460411 -0.707376
vn -0.539750 -0.457147 -0.706885
vn -0.575783 -0.411106 -0.706729
vn -0.579995 -0.403692 -0.707558
vn -0.608103 -0.362345 -0.706341
vn -0.617515 -0.342752 -0.707952
vn -0.636073 -0.310957 -0.706199
vn -0.649000 -0.278507 -0.707978
vn -0.659478 -0.257335 -0.706305
vn -0.674175 -0.211516 -0.707637
vn -0.678139 -0.201890 -0.706659
vn -0.692190 -0.145134 -0.706971
vn -0.692467 -0.142310 -0.707275
vn -0.702301 -0.087543 -0.706477
vn -0.702760 -0.071461 -0.707829
vn -0.707378 -0.029252 -0.706230
vn -0.706200 -0.000000 -0.708012
vn -0.707378 0.029252 -0.706230
vn -0.702760 0.071461 -0.707829
vn -0.702301 0.087543 -0.706477
vn -0.692467 0.142310 -0.707275
vn -0.692190 0.145134 -0.706971
vn -0.678139 0.201890 -0.706659
vn -0.674175 0.211516 -0.707637
vn -0.659478 0.257334 -0.706305
vn -0.649000 0.278507 -0.707978
vn -0.636072 0.310958 -0.706199
vn -0.617515 0.342753 -0.707952
vn -0.608103 0.362344 -0.706341
vn -0.579996 0.403691 -0.707558
vn -0.575783 0.411106 -0.706729
vn -0.539750 0.457147 -0.706885
vn -0.536321 0.460411 -0.707376
vn -0.500481 0.500481 -0.706426
vn -0.486641 0.511948 -0.707877
vn -0.457580 0.540261 -0.706215
vn -0.432272 0.558448 -0.708009
vn -0.411380 0.576175 -0.706250
vn -0.373681 0.599518 -0.707772
vn -0.362253 0.607934 -0.706533
vn -0.311382 0.634789 -0.707166
vn -0.310577 0.635301 -0.707061
vn -0.257227 0.659212 -0.706593
vn -0.245371 0.662527 -0.707708
vn -0.202001 0.678506 -0.706275
vn -0.177013 0.683671 -0.707998
vn -0.145293 0.692939 -0.706205
vn -0.106952 0.698149 -0.707919
vn -0.087554 0.702396 -0.706381
vn -0.035796 0.705835 -0.707471
vn -0.029233 0.706805 -0.706805
vn 0.000000 -0.707107 -0.707107
vn 0.000000 -0.707107 -0.707107
vn 0.029234 -0.706805 -0.706805
vn 0.035796 -0.705835 -0.707471
vn 0.087553 -0.702396 -0.706381
vn 0.106952 -0.698149 -0.707919
vn 0.145294 -0.692939 -0.706205
vn 0.177013 -0.683671 -0.707998
vn 0.202000 -0.678507 -0.706275
vn 0.245374 -0.662526 -0.707708
vn 0.257226 -0.659212 -0.706593
vn 0.310577 -0.635300 -0.707061
vn 0.311378 -0.634791 -0.707166
vn 0.362253 -0.607934 -0.706533
vn 0.373681 -0.599518 -0.707772
vn 0.411380 -0.576175 -0.706250
vn 0.432272 -0.558449 -0.708009
vn 0.457579 -0.540261 -0.706215
vn 0.486646 -0.511943 -0.707877
vn 0.500479 -0.500482 -0.706427
vn 0.536316 -0.460416 -0.707377
vn 0.539752 -0.457145 -0.706885
vn 0.575785 -0.411103 -0.706729
vn 0.579996 -0.403692 -0.707557
vn 0.608101 -0.362348 -0.706341
vn 0.617517 -0.342748 -0.707952
vn 0.636072 -0.310957 -0.706199
vn 0.648999 -0.278507 -0.707979
vn 0.659479 -0.257331 -0.706306
vn 0.674172 -0.211525 -0.707637
vn 0.678140 -0.201890 -0.706658
vn 0.692191 -0.145138 -0.706970
vn 0.692468 -0.142305 -0.707275
vn 0.702301 -0.087539 -0.706477
vn 0.702761 -0.071461 -0.707828
vn 0.707377 -0.029261 -0.706230
vn 0.706199 0.000000 -0.708013
vn 0.707377 0.029261 -0.706230
vn 0.702761 0.071461 -0.707828
vn 0.702301 0.087539 -0.706477
vn 0.692468 0.142305 -0.707275
vn 0.692191 0.145138 -0.706970
vn 0.678140 0.201891 -0.706658
vn 0.674172 0.211525 -0.707637
vn 0.659480 0.257330 -0.706306
vn 0.648999 0.278507 -0.707979
vn 0.636072 0.310958 -0.706199
vn 0.617517 0.342749 -0.707952
vn 0.608101 0.362347 -0.706341
vn 0.579996 0.403692 -0.707558
vn 0.575785 0.411103 -0.706729
vn 0.539752 0.457145 -0.706885
vn 0.536315 0.460416 -0.707377
vn 0.500478 0.500482 -0.706427
vn 0.486647 0.511943 -0.707877
vn 0.457580 0.540261 -0.706215
vn 0.432272 0.558448 -0.708009
vn 0.411380 0.576175 -0.706250
vn 0.373681 0.599518 -0.707772
vn 0.362253 0.607934 -0.706533
vn 0.311378 0.634791 -0.707166
vn 0.310576 0.635300 -0.707061
vn 0.257227 0.659212 -0.706593
vn 0.245374 0.662526 -0.707708
vn 0.201999 0.678507 -0.706275
vn 0.177013 0.683671 -0.707998
vn 0.145293 0.692939 -0.706205
vn 0.106952 0.698149 -0.707919
vn 0.087555 0.702395 -0.706381
vn 0.035796 0.705835 -0.707471
vn 0.029233 0.706805 -0.706805
vn 0.996586 0.082559 0.000000
vn 0.996586 0.082559 -0.000000
vn 0.996586 -0.082559 0.000000
vn 0.996586 -0.082559 0.000000
vn 0.969401 -0.245482 0.000000
vn 0.969401 -0.245482 0.000000
vn 0.915769 -0.401706 0.000000
vn 0.915769 -0.401706 0.000000
vn 0.837171 -0.546941 0.000000
vn 0.837171 -0.546941 0.000000
vn 0.735716 -0.677290 0.000000
vn 0.735716 -0.677290 0.000000
vn 0.614209 -0.789143 0.000000
vn 0.614209 -0.789143 0.000000
vn 0.475952 -0.879471 0.000000
vn 0.475952 -0.879471 0.000000
vn 0.324698 -0.945818 0.000000
vn 0.324698 -0.945818 0.000000
vn 0.164593 -0.986362 0.000000
vn 0.164593 -0.986362 0.000000
vn -0.000000 -1.000000 0.000000
vn 0.000000 -1.000000 0.000000
vn -0.164593 -0.986362 0.000000
vn -0.164593 -0.986362 0.000000
vn -0.324698 -0.945818 0.000000
vn -0.324698 -0.945818 0.000000
vn -0.475942 -0.879477 0.000000
vn -0.475942 -0.879477 0.000000
vn -0.614221 -0.789134 0.000000
vn -0.614221 -0.789134 0.000000
vn -0.735716 -0.677290 0.000000
vn -0.735716 -0.677290 0.000000
vn -0.837171 -0.546941 0.000000
vn -0.837171 -0.546941 0.000000
vn -0.915769 -0.401706 0.000000
vn -0.915769 -0.401706 0.000000
vn -0.969401 -0.245482 0.000000
vn -0.969401 -0.245482 0.000000
vn -0.996584 -0.082583 0.000000
vn -0.996584 -0.082583 0.000000
vn -0.996584 0.082583 0.000000
vn -0.996584 0.082583 0.000000
vn -0.969401 0.245482 0.000000
vn -0.969401 0.245482 0.000000
vn -0.915769 0.401706 0.000000
vn -0.915769 0.401706 0.000000
vn -0.837171 0.546941 0.000000
vn -0.837171 0.546941 0.000000
vn -0.735716 0.677290 0.000000
vn -0.735716 0.677290 0.000000
vn -0.614221 0.789134 0.000000
vn -0.614221 0.789134 0.000000
vn -0.475942 0.879477 0.000000
vn -0.475942 0.879477 0.000000
vn -0.324698 0.945818 0.000000
vn -0.324698 0.945818 0.000000
vn -0.164596 0.986361 0.000000
vn -0.164596 0.986361 0.000000
vn -0.000000 1.000000 0.000000
vn 0.000000 1.000000 0.000000
vn 0.164596 0.986361 0.000000
vn 0.164596 0.986361 -0.000000
vn 0.324698 0.945818 0.000000
vn 0.324698 0.945818 -0.000000
vn 0.475952 0.879471 0.000000
vn 0.475952 0.879471 -0.000000
vn 0.614209 0.789143 0.000000
vn 0.614209 0.789143 -0.000000
vn 0.735716 0.677290 0.000000
vn 0.735716 0.677290 -0.000000
vn 0.837171 0.546941 0.000000
vn 0.837171 0.546941 -0.000000
vn 0.915769 0.401706 0.000000
vn 0.915769 0.401706 -0.000000
vn 0.969401 0.245482 0.000000
vn 0.969401 0.245482 -0.000000
vn -0.047582 0.998867 0.000000
vn -0.047582 0.998867 0.000000
vn -0.142315 0.989821 0.000000
vn -0.142315 0.989821 0.000000
vn -0.235761 0.971811 0.000000
vn -0.235761 0.971811 0.000000
vn -0.327063 0.945002 0.000000
vn -0.327063 0.945002 0.000000
vn -0.415420 0.909630 0.000000
vn -0.415420 0.909630 0.000000
vn -0.500001 0.866025 0.000000
vn -0.500001 0.866025 0.000000
vn -0.580053 0.814578 0.000000
vn -0.580053 0.814578 0.000000
vn -0.654859 0.755751 0.000000
vn -0.654859 0.755751 0.000000
vn -0.723739 0.690074 0.000000
vn -0.723739 0.690074 0.000000
vn -0.786051 0.618162 0.000000
vn -0.786051 0.618162 0.000000
vn -0.841252 0.540644 0.000000
vn -0.841252 0.540644 0.000000
vn -0.888834 0.458228 0.000000
vn -0.888834 0.458228 0.000000
vn -0.928369 0.371660 0.000000
vn -0.928369 0.371660 0.000000
vn -0.959492 0.281736 0.000000
vn -0.959492 0.281736 0.000000
vn -0.981929 0.189248 0.000000
vn -0.981929 0.189248 0.000000
vn -0.995472 0.095054 0.000000
vn -0.995472 0.095054 0.000000
vn -1.000000 -0.000000 0.000000
vn -1.000000 0.000000 0.000000
vn -0.995472 -0.095054 0.000000
vn -0.995472 -0.095054 0.000000
vn -0.981929 -0.189248 0.000000
vn -0.981929 -0.189248 0.000000
vn -0.959492 -0.281736 0.000000
vn -0.959492 -0.281736 0.000000
vn -0.928369 -0.371660 0.000000
vn -0.928369 -0.371660 0.000000
vn -0.888834 -0.458228 0.000000
vn -0.888834 -0.458228 0.000000
vn -0.841252 -0.540644 0.000000
vn -0.841252 -0.540644 0.000000
vn -0.786051 -0.618162 0.000000
vn -0.786051 -0.618162 0.000000
vn -0.723739 -0.690074 0.000000
vn -0.723739 -0.690074 0.000000
vn -0.654859 -0.755751 0.000000
vn -0.654859 -0.755751 0.000000
vn -0.580053 -0.814578 0.000000
vn -0.580053 -0.814578 0.000000
vn -0.500002 -0.866024 0.000000
vn -0.500002 -0.866024 0.000000
vn -0.415418 -0.909631 0.000000
vn -0.415418 -0.909631 0.000000
vn -0.327065 -0.945002 0.000000
vn -0.327065 -0.945002 0.000000
vn -0.235759 -0.971811 0.000000
vn -0.235759 -0.971811 0.000000
vn -0.142315 -0.989821 0.000000
vn -0.142315 -0.989821 0.000000
vn -0.047582 -0.998867 0.000000
vn -0.047582 -0.998867 -0.000000
vn -0.000000 1.000000 0.000000
vn 0.000000 1.000000 0.000000
vn -0.000000 0.000000 1.000000
vn -0.000000 0.000000 1.000000
vn 0.000000 0.000000 1.000000
vn -0.000000 0.000000 1.000000
vn -0.000000 0.000000 1.000000
vn 0.000000 0.000000 1.000000
vn 0.000000 -0.000000 1.000000
vn 0.000000 -0.000000 1.000000
vn -0.000000 0.000000 1.000000
vn 0.000000 0.000000 1.000000
vn 0.000000 0.000000 1.000000
vn -0.000000 0.000000 1.000000
vn 0.000000 0.000000 1.000000
vn 0.000000 0.000000 1.000000
vn 0.000000 0.000000 1.000000
vn 0.000000 -0.000000 1.000000
vn 0.000000 0.000000 1.000000
vn 0.000000 -0.000000 1.000000
vn 0.000000 0.000000 1.000000
vn 0.000000 0.000000 1.000000
vn 0.000000 -0.000000 1.000000
vn 0.000000 0.000000 1.000000
vn 0.000000 -0.000000 1.000000
vn 0.000000 0.000000 1.000000
vn 0.000000 -0.000000 1.000000
vn 0.000000 0.000000 1.000000
vn 0.000000 -0.000000 1.000000
vn 0.000000 0.000000 1.000000
vn 0.000000 -0.000000 1.000000
vn 0.000000 0.000000 1.000000
vn 0.000000 -0.000000 1.000000
vn 0.000000 0.000000 1.000000
vn 0.000000 -0.000000 1.000000
vn 0.000000 0.000000 1.000000
vn 0.000000 -0.000000 1.000000
vn 0.000000 0.000000 1.000000
vn 0.000000 0.000000 1.000000
vn 0.000000 -0.000000 1.000000
vn 0.000000 0.000000 1.000000
vn 0.000000 -0.000000 1.000000
vn 0.000000 0.000000 1.000000
vn 0.000000 -0.000000 1.000000
vn -0.000000 0.000000 1.000000
vn 0.000000 -0.000000 1.000000
vn -0.000000 0.000000 1.000000
vn 0.000000 -0.000000 1.000000
vn -0.000000 0.000000 1.000000
vn 0.000000 -0.000000 1.000000
vn -0.000000 0.000000 1.000000
vn 0.000000 -0.000000 1.000000
vn -0.000000 0.000000 1.000000
vn 0.000000 -0.000000 1.000000
vn -0.000000 0.000000 1.000000
vn 0.000000 -0.000000 1.000000
vn 0.000000 -0.000000 1.000000
vn -0.000000 0.000000 1.000000
vn 0.000000 -0.000000 1.000000
vn -0.000000 0.000000 1.000000
vn 0.000000 -0.000000 1.000000
vn -0.000000 0.000000 1.000000
vn 0.000000 -0.000000 1.000000
vn 0.000000 -0.000000 1.000000
vn 0.000000 -0.000000 1.000000
vn -0.000000 0.000000 1.000000
vn 0.000000 -0.000000 1.000000
vn 0.000000 -0.000000 1.000000
vn 0.000000 -0.000000 1.000000
vn 0.000000 -0.000000 1.000000
vn -0.000000 0.000000 1.000000
vn -0.000000 0.000000 1.000000
vn 0.000000 0.000000 1.000000
vn -0.000000 0.000000 1.000000
vn 0.000000 0.000000 1.000000
vn -0.000000 0.000000 1.000000
vn -0.000000 0.000000 1.000000
vn -0.000000 0.000000 1.000000
vn -0.000000 0.000000 1.000000
vn 0.000000 0.000000 1.000000
vn -0.000000 0.000000 1.000000
vn -0.000000 0.000000 1.000000
vn 0.000000 0.000000 1.000000
vn -0.000000 0.000000 1.000000
vn -0.000000 0.000000 1.000000
vn 0.000000 0.000000 1.000000
vn -0.000000 0.000000 1.000000
vn 0.000000 0.000000 1.000000
vn -0.000000 0.000000 1.000000
vn 0.000000 0.000000 1.000000
vn -0.000000 0.000000 1.000000
vn 0.000000 0.000000 1.000000
vn 0.000000 0.000000 1.000000
vn -0.000000 0.000000 1.000000
vn 0.000000 0.000000 1.000000
vn -0.000000 0.000000 1.000000
vn 0.000000 0.000000 1.000000
vn 0.000000 0.000000 1.000000
vn 0.000000 0.000000 1.000000
vn 0.000000 0.000000 1.000000
vn 0.000000 0.000000 1.000000
vn 0.000000 0.000000 1.000000
vn 0.000000 0.000000 1.000000
vn 0.000000 0.000000 1.000000
vn -0.000000 0.000000 1.000000
vn 0.000000 0.000000 1.000000
vn 0.000000 0.000000 1.000000
vn 0.000000 0.000000 1.000000
vn 0.000000 0.000000 1.000000
vn 0.000000 0.000000 1.000000
vn 0.000000 0.000000 1.000000
vn 0.000000 0.000000 1.000000
vn 0.000000 0.000000 1.000000
vn 0.000000 0.000000 1.000000
vn 0.000000 0.000000 1.000000
vn 0.000000 0.000000 1.000000
vn 0.000000 0.000000 1.000000
vn 0.000000 0.000000 1.000000
vn 0.000000 0.000000 1.000000
vn 0.000000 0.000000 1.000000
vn 0.000000 0.000000 1.000000
vn 0.000000 0.000000 1.000000
vn 0.000000 0.000000 1.000000
vn 0.000000 0.000000 1.000000
vn 0.000000 0.000000 1.000000
vn 0.000000 0.000000 1.000000
vn 0.000000 0.000000 1.000000
vn 0.000000 0.000000 1.000000
vn 0.000000 0.000000 1.000000
vn 0.000000 0.000000 1.000000
vn 0.000000 0.000000 1.000000
vn 0.000000 0.000000 1.000000
vn 0.000000 0.000000 1.000000
vn 0.000000 0.000000 1.000000
vn 0.000000 0.000000 1.000000
vn 0.000000 0.000000 1.000000
vn 0.000000 0.000000 1.000000
vn 0.000000 0.000000 1.000000
vn 0.000000 0.000000 1.000000
vn 0.000000 0.000000 1.000000
vn 0.000000 0.000000 1.000000
vn 0.000000 0.000000 1.000000
vn 0.000000 0.000000 1.000000
vn 0.000000 0.000000 1.000000
vn 0.000000 0.000000 1.000000
vn 0.000000 0.000000 1.000000
vn 0.000000 0.000000 1.000000
vn 0.000000 0.000000 1.000000
f 373//1 371//1 382//1
f 384//2 373//2 382//2
f 383//3 373//3 384//3
f 380//4 382//4 371//4
f 367//5 380//5 371//5
f 378//6 380//6 367//6
f 365//7 378//7 367//7
f 369//8 378//8 365//8
f 361//9 369//9 365//9
f 363//10 369//10 361//10
f 353//11 363//11 361//11
f 355//12 363//12 353//12
f 349//13 355//13 353//13
f 351//14 355//14 349//14
f 341//15 351//15 349//15
f 343//16 351//16 341//16
f 335//17 343//17 341//17
f 333//18 343//18 335//18
f 331//19 333//19 335//19
f 329//20 333//20 331//20
f 323//21 329//21 331//21
f 321//22 329//22 323//22
f 317//23 321//23 323//23
f 313//24 321//24 317//24
f 311//25 313//25 317//25
f 309//26 313//26 311//26
f 307//27 309//27 311//27
f 305//28 309//28 307//28
f 303//29 305//29 307//29
f 301//30 305//30 303//30
f 299//31 301//31 303//31
f 297//32 301//32 299//32
f 293//33 297//33 299//33
f 295//34 293//34 299//34
f 287//35 293//35 295//35
f 291//36 287//36 295//36
f 283//37 287//37 291//37
f 289//38 283//38 291//38
f 276//39 283//39 289//39
f 285//40 276//40 289//40
f 274//41 276//41 285//41
f 281//42 274//42 285//42
f 272//43 274//43 281//43
f 279//44 272//44 281//44
f 270//45 272//45 279//45
f 278//46 270//46 279//46
f 271//47 270//47 278//47
f 280//48 271//48 278//48
f 273//49 271//49 280//49
f 282//50 273//50 280//50
f 275//51 273//51 282//51
f 286//52 275//52 282//52
f 277//53 275//53 286//53
f 290//54 277//54 286//54
f 284//55 277//55 290//55
f 292//56 284//56 290//56
f 288//57 284//57 292//57
f 296//58 288//58 292//58
f 294//59 288//59 296//59
f 300//60 294//60 296//60
f 298//61 294//61 300//61
f 302//62 298//62 300//62
f 304//63 302//63 300//63
f 306//64 302//64 304//64
f 308//65 306//65 304//65
f 310//66 306//66 308//66
f 312//67 310//67 308//67
f 314//68 310//68 312//68
f 318//69 314//69 312//69
f 322//70 314//70 318//70
f 324//71 322//71 318//71
f 330//72 322//72 324//72
f 332//73 330//73 324//73
f 334//74 330//74 332//74
f 336//75 334//75 332//75
f 344//76 334//76 336//76
f 342//77 344//77 336//77
f 352//78 344//78 342//78
f 350//79 352//79 342//79
f 356//80 352//80 350//80
f 354//81 356//81 350//81
f 364//82 356//82 354//82
f 362//83 364//83 354//83
f 370//84 364//84 362//84
f 366//85 370//85 362//85
f 379//86 370//86 366//86
f 368//87 379//87 366//87
f 381//88 379//88 368//88
f 372//89 381//89 368//89
f 383//90 381//90 372//90
f 373//91 383//91 372//91
f 171//92 315//92 301//92
f 297//93 171//93 301//93
f 241//94 171//94 297//94
f 245//95 241//95 297//95
f 293//96 245//96 297//96
f 287//97 245//97 293//97
f 315//98 325//98 337//98
f 345//99 315//99 337//99
f 357//100 315//100 345//100
f 313//101 315//101 357//101
f 374//102 313//102 357//102
f 385//103 313//103 374//103
f 321//104 313//104 385//104
f 389//105 321//105 385//105
f 393//106 321//106 389//106
f 329//107 321//107 393//107
f 397//108 329//108 393//108
f 333//109 329//109 397//109
f 401//110 333//110 397//110
f 343//111 333//111 401//111
f 405//112 343//112 401//112
f 351//113 343//113 405//113
f 355//114 351//114 405//114
f 409//115 355//115 405//115
f 363//116 355//116 409//116
f 413//117 363//117 409//117
f 369//118 363//118 413//118
f 417//119 369//119 413//119
f 378//120 369//120 417//120
f 380//121 378//121 417//121
f 421//122 380//122 417//122
f 382//123 380//123 421//123
f 429//124 382//124 421//124
f 384//125 382//125 429//125
f 431//126 384//126 429//126
f 383//127 384//127 431//127
f 423//128 383//128 431//128
f 381//129 383//129 423//129
f 419//130 381//130 423//130
f 379//131 381//131 419//131
f 370//132 379//132 419//132
f 415//133 370//133 419//133
f 364//134 370//134 415//134
f 411//135 364//135 415//135
f 356//136 364//136 411//136
f 407//137 356//137 411//137
f 352//138 356//138 407//138
f 344//139 352//139 407//139
f 403//140 344//140 407//140
f 334//141 344//141 403//141
f 399//142 334//142 403//142
f 330//143 334//143 399//143
f 395//144 330//144 399//144
f 322//145 330//145 395//145
f 391//146 322//146 395//146
f 387//147 322//147 391//147
f 314//148 322//148 387//148
f 376//149 314//149 387//149
f 359//150 314//150 376//150
f 319//151 314//151 359//151
f 347//152 319//152 359//152
f 339//153 319//153 347//153
f 319//154 339//154 327//154
f 319//155 175//155 302//155
f 306//156 319//156 302//156
f 310//157 319//157 306//157
f 175//158 158//158 142//158
f 126//159 175//159 142//159
f 104//160 175//160 126//160
f 175//161 104//161 96//161
f 90//162 175//162 96//162
f 181//163 175//163 90//163
f 82//164 181//164 90//164
f 74//165 181//165 82//165
f 169//166 181//166 74//166
f 66//167 169//167 74//167
f 60//168 169//168 66//168
f 165//169 169//169 60//169
f 50//170 165//170 60//170
f 153//171 165//171 50//171
f 40//172 153//172 50//172
f 147//173 153//173 40//173
f 34//174 147//174 40//174
f 137//175 147//175 34//175
f 133//176 137//176 34//176
f 30//177 133//177 34//177
f 123//178 133//178 30//178
f 26//179 123//179 30//179
f 119//180 123//180 26//180
f 113//181 119//181 26//181
f 22//182 113//182 26//182
f 109//183 113//183 22//183
f 20//184 109//184 22//184
f 111//185 109//185 20//185
f 24//186 111//186 20//186
f 117//187 111//187 24//187
f 121//188 117//188 24//188
f 28//189 121//189 24//189
f 131//190 121//190 28//190
f 32//191 131//191 28//191
f 135//192 131//192 32//192
f 145//193 135//193 32//193
f 38//194 145//194 32//194
f 151//195 145//195 38//195
f 48//196 151//196 38//196
f 163//197 151//197 48//197
f 58//198 163//198 48//198
f 167//199 163//199 58//199
f 64//200 167//200 58//200
f 72//201 167//201 64//201
f 179//202 167//202 72//202
f 80//203 179//203 72//203
f 88//204 179//204 80//204
f 171//205 179//205 88//205
f 94//206 171//206 88//206
f 102//207 171//207 94//207
f 171//208 102//208 124//208
f 140//209 171//209 124//209
f 156//210 171//210 140//210
f 175//211 181//211 185//211
f 189//212 175//212 185//212
f 242//213 175//213 189//213
f 238//214 242//214 189//214
f 193//215 238//215 189//215
f 197//216 238//216 193//216
f 234//217 238//217 197//217
f 201//218 234//218 197//218
f 230//219 234//219 201//219
f 205//220 230//220 201//220
f 226//221 230//221 205//221
f 209//222 226//222 205//222
f 222//223 226//223 209//223
f 213//224 222//224 209//224
f 218//225 222//225 213//225
f 215//226 218//226 213//226
f 217//227 218//227 215//227
f 211//228 217//228 215//228
f 221//229 217//229 211//229
f 207//230 221//230 211//230
f 225//231 221//231 207//231
f 203//232 225//232 207//232
f 229//233 225//233 203//233
f 199//234 229//234 203//234
f 233//235 229//235 199//235
f 195//236 233//236 199//236
f 237//237 233//237 195//237
f 191//238 237//238 195//238
f 187//239 237//239 191//239
f 187//240 183//240 171//240
f 241//241 187//241 171//241
f 237//242 187//242 241//242
f 171//243 183//243 179//243
f 269//244 265//244 270//244
f 271//245 269//245 270//245
f 266//246 269//246 271//246
f 273//247 266//247 271//247
f 262//248 266//248 273//248
f 258//249 262//249 273//249
f 275//250 258//250 273//250
f 254//251 258//251 275//251
f 277//252 254//252 275//252
f 250//253 254//253 277//253
f 284//254 250//254 277//254
f 246//255 250//255 284//255
f 288//256 246//256 284//256
f 294//257 246//257 288//257
f 272//258 270//258 265//258
f 261//259 272//259 265//259
f 257//260 272//260 261//260
f 274//261 272//261 257//261
f 253//262 274//262 257//262
f 276//263 274//263 253//263
f 249//264 276//264 253//264
f 283//265 276//265 249//265
f 245//266 283//266 249//266
f 287//267 283//267 245//267
f 298//268 175//268 242//268
f 246//269 298//269 242//269
f 294//270 298//270 246//270
f 315//271 313//271 309//271
f 305//272 315//272 309//272
f 301//273 315//273 305//273
f 175//274 298//274 302//274
f 319//275 310//275 314//275
f 373//276 372//276 280//276
f 278//277 373//277 280//277
f 371//278 373//278 278//278
f 279//279 371//279 278//279
f 367//280 371//280 279//280
f 281//281 367//281 279//281
f 365//282 367//282 281//282
f 285//283 365//283 281//283
f 361//284 365//284 285//284
f 289//285 361//285 285//285
f 353//286 361//286 289//286
f 291//287 353//287 289//287
f 349//288 353//288 291//288
f 295//289 349//289 291//289
f 341//290 349//290 295//290
f 299//291 341//291 295//291
f 335//292 341//292 299//292
f 303//293 335//293 299//293
f 331//294 335//294 303//294
f 307//295 331//295 303//295
f 323//296 331//296 307//296
f 311//297 323//297 307//297
f 317//298 323//298 311//298
f 282//299 280//299 372//299
f 368//300 282//300 372//300
f 286//301 282//301 368//301
f 366//302 286//302 368//302
f 290//303 286//303 366//303
f 362//304 290//304 366//304
f 292//305 290//305 362//305
f 354//306 292//306 362//306
f 296//307 292//307 354//307
f 350//308 296//308 354//308
f 300//309 296//309 350//309
f 342//310 300//310 350//310
f 304//311 300//311 342//311
f 336//312 304//312 342//312
f 308//313 304//313 336//313
f 332//314 308//314 336//314
f 312//315 308//315 332//315
f 324//316 312//316 332//316
f 318//317 312//317 324//317
f 269//318 266//318 268//318
f 267//319 269//319 268//319
f 265//320 269//320 267//320
f 263//321 265//321 267//321
f 261//322 265//322 263//322
f 259//323 261//323 263//323
f 257//324 261//324 259//324
f 255//325 257//325 259//325
f 253//326 257//326 255//326
f 251//327 253//327 255//327
f 249//328 253//328 251//328
f 247//329 249//329 251//329
f 245//330 249//330 247//330
f 243//331 245//331 247//331
f 241//332 245//332 243//332
f 239//333 241//333 243//333
f 237//334 241//334 239//334
f 235//335 237//335 239//335
f 233//336 237//336 235//336
f 231//337 233//337 235//337
f 229//338 233//338 231//338
f 227//339 229//339 231//339
f 225//340 229//340 227//340
f 223//341 225//341 227//341
f 221//342 225//342 223//342
f 219//343 221//343 223//343
f 217//344 221//344 219//344
f 216//345 217//345 219//345
f 218//346 217//346 216//346
f 220//347 218//347 216//347
f 222//348 218//348 220//348
f 224//349 222//349 220//349
f 226//350 222//350 224//350
f 228//351 226//351 224//351
f 230//352 226//352 228//352
f 232//353 230//353 228//353
f 234//354 230//354 232//354
f 236//355 234//355 232//355
f 238//356 234//356 236//356
f 240//357 238//357 236//357
f 242//358 238//358 240//358
f 244//359 242//359 240//359
f 246//360 242//360 244//360
f 248//361 246//361 244//361
f 250//362 246//362 248//362
f 252//363 250//363 248//363
f 254//364 250//364 252//364
f 256//365 254//365 252//365
f 258//366 254//366 256//366
f 260//367 258//367 256//367
f 262//368 258//368 260//368
f 264//369 262//369 260//369
f 266//370 262//370 264//370
f 268//371 266//371 264//371
f 319//372 320//372 176//372
f 175//373 319//373 176//373
f 158//374 175//374 176//374
f 159//375 158//375 176//375
f 143//376 158//376 159//376
f 142//377 158//377 143//377
f 127//378 142//378 143//378
f 126//379 142//379 127//379
f 105//380 126//380 127//380
f 104//381 126//381 105//381
f 97//382 104//382 105//382
f 96//383 104//383 97//383
f 91//384 96//384 97//384
f 90//385 96//385 91//385
f 83//386 90//386 91//386
f 82//387 90//387 83//387
f 75//388 82//388 83//388
f 74//389 82//389 75//389
f 67//390 74//390 75//390
f 66//391 74//391 67//391
f 61//392 66//392 67//392
f 60//393 66//393 61//393
f 51//394 60//394 61//394
f 50//395 60//395 51//395
f 41//396 50//396 51//396
f 40//397 50//397 41//397
f 35//398 40//398 41//398
f 34//399 40//399 35//399
f 31//400 34//400 35//400
f 30//401 34//401 31//401
f 27//402 30//402 31//402
f 26//403 30//403 27//403
f 23//404 26//404 27//404
f 22//405 26//405 23//405
f 21//406 22//406 23//406
f 20//407 22//407 21//407
f 25//408 20//408 21//408
f 24//409 20//409 25//409
f 29//410 24//410 25//410
f 28//411 24//411 29//411
f 33//412 28//412 29//412
f 32//413 28//413 33//413
f 39//414 32//414 33//414
f 38//415 32//415 39//415
f 49//416 38//416 39//416
f 48//417 38//417 49//417
f 59//418 48//418 49//418
f 58//419 48//419 59//419
f 65//420 58//420 59//420
f 64//421 58//421 65//421
f 73//422 64//422 65//422
f 72//423 64//423 73//423
f 81//424 72//424 73//424
f 80//425 72//425 81//425
f 89//426 80//426 81//426
f 88//427 80//427 89//427
f 95//428 88//428 89//428
f 94//429 88//429 95//429
f 103//430 94//430 95//430
f 102//431 94//431 103//431
f 125//432 102//432 103//432
f 124//433 102//433 125//433
f 141//434 124//434 125//434
f 140//435 124//435 141//435
f 157//436 140//436 141//436
f 156//437 140//437 157//437
f 171//438 156//438 157//438
f 172//439 171//439 157//439
f 214//440 220//440 216//440
f 219//441 214//441 216//441
f 210//442 214//442 219//442
f 223//443 210//443 219//443
f 206//444 210//444 223//444
f 227//445 206//445 223//445
f 202//446 206//446 227//446
f 231//447 202//447 227//447
f 198//448 202//448 231//448
f 235//449 198//449 231//449
f 194//450 198//450 235//450
f 239//451 194//451 235//451
f 190//452 194//452 239//452
f 186//453 190//453 239//453
f 182//454 186//454 239//454
f 173//455 182//455 239//455
f 178//456 182//456 173//456
f 92//457 178//457 173//457
f 84//458 178//458 92//458
f 173//459 239//459 243//459
f 426//460 173//460 243//460
f 247//461 426//461 243//461
f 459//462 426//462 247//462
f 251//463 459//463 247//463
f 461//464 459//464 251//464
f 465//465 461//465 251//465
f 467//466 465//466 251//466
f 255//467 467//467 251//467
f 471//468 467//468 255//468
f 259//469 471//469 255//469
f 473//470 471//470 259//470
f 475//471 473//471 259//471
f 263//472 475//472 259//472
f 477//473 475//473 263//473
f 267//474 477//474 263//474
f 478//475 477//475 267//475
f 268//476 478//476 267//476
f 264//477 478//477 268//477
f 476//478 478//478 264//478
f 260//479 476//479 264//479
f 474//480 476//480 260//480
f 472//481 474//481 260//481
f 256//482 472//482 260//482
f 468//483 472//483 256//483
f 252//484 468//484 256//484
f 466//485 468//485 252//485
f 462//486 466//486 252//486
f 460//487 462//487 252//487
f 248//488 460//488 252//488
f 427//489 460//489 248//489
f 244//490 427//490 248//490
f 174//491 427//491 244//491
f 240//492 174//492 244//492
f 184//493 174//493 240//493
f 188//494 184//494 240//494
f 192//495 188//495 240//495
f 196//496 192//496 240//496
f 236//497 196//497 240//497
f 200//498 196//498 236//498
f 232//499 200//499 236//499
f 204//500 200//500 232//500
f 228//501 204//501 232//501
f 208//502 204//502 228//502
f 224//503 208//503 228//503
f 212//504 208//504 224//504
f 220//505 212//505 224//505
f 214//506 212//506 220//506
f 108//507 110//507 42//507
f 43//508 108//508 42//508
f 112//509 108//509 43//509
f 45//510 112//510 43//510
f 118//511 112//511 45//511
f 122//512 118//512 45//512
f 47//513 122//513 45//513
f 132//514 122//514 47//514
f 136//515 132//515 47//515
f 53//516 136//516 47//516
f 146//517 136//517 53//517
f 57//518 146//518 53//518
f 152//519 146//519 57//519
f 164//520 152//520 57//520
f 63//521 164//521 57//521
f 168//522 164//522 63//522
f 71//523 168//523 63//523
f 77//524 168//524 71//524
f 44//525 42//525 110//525
f 116//526 44//526 110//526
f 120//527 44//527 116//527
f 46//528 44//528 120//528
f 130//529 46//529 120//529
f 134//530 46//530 130//530
f 52//531 46//531 134//531
f 144//532 52//532 134//532
f 56//533 52//533 144//533
f 150//534 56//534 144//534
f 162//535 56//535 150//535
f 62//536 56//536 162//536
f 166//537 62//537 162//537
f 70//538 62//538 166//538
f 76//539 70//539 166//539
f 178//540 76//540 166//540
f 84//541 76//541 178//541
f 174//542 184//542 180//542
f 93//543 174//543 180//543
f 101//544 174//544 93//544
f 180//545 168//545 77//545
f 85//546 180//546 77//546
f 93//547 180//547 85//547
f 427//548 434//548 438//548
f 442//549 427//549 438//549
f 446//550 427//550 442//550
f 427//551 446//551 448//551
f 452//552 427//552 448//552
f 456//553 427//553 452//553
f 427//554 456//554 460//554
f 426//555 459//555 455//555
f 451//556 426//556 455//556
f 447//557 426//557 451//557
f 426//558 447//558 445//558
f 441//559 426//559 445//559
f 437//560 426//560 441//560
f 426//561 437//561 433//561
f 173//562 160//562 148//562
f 128//563 173//563 148//563
f 106//564 173//564 128//564
f 173//565 106//565 100//565
f 92//566 173//566 100//566
f 174//567 101//567 107//567
f 129//568 174//568 107//568
f 149//569 174//569 129//569
f 174//570 149//570 161//570
f 428//571 427//571 174//571
f 177//572 428//572 174//572
f 173//573 170//573 154//573
f 160//574 173//574 154//574
f 138//575 160//575 154//575
f 148//576 160//576 138//576
f 114//577 148//577 138//577
f 128//578 148//578 114//578
f 98//579 128//579 114//579
f 106//580 128//580 98//580
f 86//581 106//581 98//581
f 78//582 106//582 86//582
f 100//583 106//583 78//583
f 68//584 100//584 78//584
f 92//585 100//585 68//585
f 54//586 92//586 68//586
f 84//587 92//587 54//587
f 36//588 84//588 54//588
f 76//589 84//589 36//589
f 18//590 76//590 36//590
f 70//591 76//591 18//591
f 16//592 70//592 18//592
f 14//593 70//593 16//593
f 62//594 70//594 14//594
f 12//595 62//595 14//595
f 56//596 62//596 12//596
f 10//597 56//597 12//597
f 52//598 56//598 10//598
f 8//599 52//599 10//599
f 46//600 52//600 8//600
f 6//601 46//601 8//601
f 4//602 46//602 6//602
f 44//603 46//603 4//603
f 2//604 44//604 4//604
f 42//605 44//605 2//605
f 1//606 42//606 2//606
f 43//607 42//607 1//607
f 3//608 43//608 1//608
f 45//609 43//609 3//609
f 5//610 45//610 3//610
f 47//611 45//611 5//611
f 7//612 47//612 5//612
f 9//613 47//613 7//613
f 53//614 47//614 9//614
f 11//615 53//615 9//615
f 57//616 53//616 11//616
f 13//617 57//617 11//617
f 63//618 57//618 13//618
f 15//619 63//619 13//619
f 71//620 63//620 15//620
f 17//621 71//621 15//621
f 19//622 71//622 17//622
f 77//623 71//623 19//623
f 37//624 77//624 19//624
f 85//625 77//625 37//625
f 55//626 85//626 37//626
f 93//627 85//627 55//627
f 69//628 93//628 55//628
f 101//629 93//629 69//629
f 79//630 101//630 69//630
f 107//631 101//631 79//631
f 87//632 107//632 79//632
f 99//633 107//633 87//633
f 129//634 107//634 99//634
f 115//635 129//635 99//635
f 149//636 129//636 115//636
f 139//637 149//637 115//637
f 161//638 149//638 139//638
f 155//639 161//639 139//639
f 174//640 161//640 155//640
f 177//641 174//641 155//641
f 426//642 425//642 170//642
f 173//643 426//643 170//643
f 435//644 425//644 426//644
f 433//645 435//645 426//645
f 439//646 435//646 433//646
f 437//647 439//647 433//647
f 443//648 439//648 437//648
f 441//649 443//649 437//649
f 449//650 443//650 441//650
f 445//651 449//651 441//651
f 453//652 449//652 445//652
f 457//653 453//653 445//653
f 447//654 457//654 445//654
f 463//655 457//655 447//655
f 451//656 463//656 447//656
f 469//657 463//657 451//657
f 455//658 469//658 451//658
f 479//659 469//659 455//659
f 459//660 479//660 455//660
f 481//661 479//661 459//661
f 461//662 481//662 459//662
f 483//663 481//663 461//663
f 485//664 483//664 461//664
f 465//665 485//665 461//665
f 487//666 485//666 465//666
f 467//667 487//667 465//667
f 489//668 487//668 467//668
f 471//669 489//669 467//669
f 491//670 489//670 471//670
f 473//671 491//671 471//671
f 493//672 491//672 473//672
f 495//673 493//673 473//673
f 475//674 495//674 473//674
f 497//675 495//675 475//675
f 477//676 497//676 475//676
f 499//677 497//677 477//677
f 478//678 499//678 477//678
f 498//679 499//679 478//679
f 476//680 498//680 478//680
f 496//681 498//681 476//681
f 474//682 496//682 476//682
f 494//683 496//683 474//683
f 492//684 494//684 474//684
f 472//685 492//685 474//685
f 490//686 492//686 472//686
f 468//687 490//687 472//687
f 488//688 490//688 468//688
f 466//689 488//689 468//689
f 486//690 488//690 466//690
f 462//691 486//691 466//691
f 484//692 486//692 462//692
f 482//693 484//693 462//693
f 460//694 482//694 462//694
f 480//695 482//695 460//695
f 456//696 480//696 460//696
f 470//697 480//697 456//697
f 452//698 470//698 456//698
f 464//699 470//699 452//699
f 448//700 464//700 452//700
f 458//701 464//701 448//701
f 446//702 458//702 448//702
f 454//703 458//703 446//703
f 450//704 454//704 446//704
f 442//705 450//705 446//705
f 444//706 450//706 442//706
f 438//707 444//707 442//707
f 440//708 444//708 438//708
f 434//709 440//709 438//709
f 436//710 440//710 434//710
f 427//711 436//711 434//711
f 428//712 436//712 427//712
f 109//713 111//713 110//713
f 108//714 109//714 110//714
f 113//715 109//715 108//715
f 112//716 113//716 108//716
f 119//717 113//717 112//717
f 118//718 119//718 112//718
f 123//719 119//719 118//719
f 122//720 123//720 118//720
f 133//721 123//721 122//721
f 132//722 133//722 122//722
f 137//723 133//723 132//723
f 136//724 137//724 132//724
f 147//725 137//725 136//725
f 146//726 147//726 136//726
f 153//727 147//727 146//727
f 152//728 153//728 146//728
f 165//729 153//729 152//729
f 164//730 165//730 152//730
f 169//731 165//731 164//731
f 168//732 169//732 164//732
f 181//733 169//733 168//733
f 180//734 181//734 168//734
f 185//735 181//735 180//735
f 184//736 185//736 180//736
f 189//737 185//737 184//737
f 188//738 189//738 184//738
f 193//739 189//739 188//739
f 192//740 193//740 188//740
f 197//741 193//741 192//741
f 196//742 197//742 192//742
f 201//743 197//743 196//743
f 200//744 201//744 196//744
f 205//745 201//745 200//745
f 204//746 205//746 200//746
f 209//747 205//747 204//747
f 208//748 209//748 204//748
f 213//749 209//749 208//749
f 212//750 213//750 208//750
f 215//751 213//751 212//751
f 214//752 215//752 212//752
f 211//753 215//753 214//753
f 210//754 211//754 214//754
f 207//755 211//755 210//755
f 206//756 207//756 210//756
f 203//757 207//757 206//757
f 202//758 203//758 206//758
f 199//759 203//759 202//759
f 198//760 199//760 202//760
f 195//761 199//761 198//761
f 194//762 195//762 198//762
f 191//763 195//763 194//763
f 190//764 191//764 194//764
f 187//765 191//765 190//765
f 186//766 187//766 190//766
f 183//767 187//767 186//767
f 182//768 183//768 186//768
f 179//769 183//769 182//769
f 178//770 179//770 182//770
f 167//771 179//771 178//771
f 166//772 167//772 178//772
f 163//773 167//773 166//773
f 162//774 163//774 166//774
f 151//775 163//775 162//775
f 150//776 151//776 162//776
f 145//777 151//777 150//777
f 144//778 145//778 150//778
f 135//779 145//779 144//779
f 134//780 135//780 144//780
f 131//781 135//781 134//781
f 130//782 131//782 134//782
f 121//783 131//783 130//783
f 120//784 121//784 130//784
f 117//785 121//785 120//785
f 116//786 117//786 120//786
f 111//787 117//787 116//787
f 110//788 111//788 116//788
f 325//789 315//789 316//789
f 326//790 325//790 316//790
f 338//791 325//791 326//791
f 337//792 325//792 338//792
f 346//793 337//793 338//793
f 345//794 337//794 346//794
f 358//795 345//795 346//795
f 357//796 345//796 358//796
f 375//797 357//797 358//797
f 374//798 357//798 375//798
f 386//799 374//799 375//799
f 385//800 374//800 386//800
f 390//801 385//801 386//801
f 389//802 385//802 390//802
f 394//803 389//803 390//803
f 393//804 389//804 394//804
f 398//805 393//805 394//805
f 397//806 393//806 398//806
f 402//807 397//807 398//807
f 401//808 397//808 402//808
f 406//809 401//809 402//809
f 405//810 401//810 406//810
f 410//811 405//811 406//811
f 409//812 405//812 410//812
f 414//813 409//813 410//813
f 413//814 409//814 414//814
f 418//815 413//815 414//815
f 417//816 413//816 418//816
f 422//817 417//817 418//817
f 421//818 417//818 422//818
f 430//819 421//819 422//819
f 429//820 421//820 430//820
f 432//821 429//821 430//821
f 431//822 429//822 432//822
f 424//823 431//823 432//823
f 423//824 431//824 424//824
f 420//825 423//825 424//825
f 419//826 423//826 420//826
f 416//827 419//827 420//827
f 415//828 419//828 416//828
f 412//829 415//829 416//829
f 411//830 415//830 412//830
f 408//831 411//831 412//831
f 407//832 411//832 408//832
f 404//833 407//833 408//833
f 403//834 407//834 404//834
f 400//835 403//835 404//835
f 399//836 403//836 400//836
f 396//837 399//837 400//837
f 395//838 399//838 396//838
f 392//839 395//839 396//839
f 391//840 395//840 392//840
f 388//841 391//841 392//841
f 387//842 391//842 388//842
f 377//843 387//843 388//843
f 376//844 387//844 377//844
f 360//845 376//845 377//845
f 359//846 376//846 360//846
f 348//847 359//847 360//847
f 347//848 359//848 348//848
f 340//849 347//849 348//849
f 339//850 347//850 340//850
f 328//851 339//851 340//851
f 327//852 339//852 328//852
f 319//853 327//853 328//853
f 320//854 319//854 328//854
f 172//855 316//855 315//855
f 171//856 172//856 315//856
f 320//857 328//857 428//857
f 177//858 320//858 428//858
f 176//859 320//859 177//859
f 155//860 176//860 177//860
f 139//861 176//861 155//861
f 428//862 328//862 340//862
f 348//863 428//863 340//863
f 360//864 428//864 348//864
f 360//865 377//865 450//865
f 444//866 360//866 450//866
f 440//867 360//867 444//867
f 377//868 388//868 464//868
f 458//869 377//869 464//869
f 454//870 377//870 458//870
f 470//871 464//871 388//871
f 392//872 470//872 388//872
f 480//873 470//873 392//873
f 396//874 480//874 392//874
f 482//875 480//875 396//875
f 484//876 482//876 396//876
f 400//877 484//877 396//877
f 486//878 484//878 400//878
f 404//879 486//879 400//879
f 488//880 486//880 404//880
f 408//881 488//881 404//881
f 490//882 488//882 408//882
f 412//883 490//883 408//883
f 492//884 490//884 412//884
f 416//885 492//885 412//885
f 494//886 492//886 416//886
f 420//887 494//887 416//887
f 496//888 494//888 420//888
f 424//889 496//889 420//889
f 498//890 496//890 424//890
f 432//891 498//891 424//891
f 499//892 498//892 432//892
f 430//893 499//893 432//893
f 497//894 499//894 430//894
f 422//895 497//895 430//895
f 495//896 497//896 422//896
f 418//897 495//897 422//897
f 493//898 495//898 418//898
f 414//899 493//899 418//899
f 491//900 493//900 414//900
f 410//901 491//901 414//901
f 489//902 491//902 410//902
f 406//903 489//903 410//903
f 487//904 489//904 406//904
f 402//905 487//905 406//905
f 485//906 487//906 402//906
f 398//907 485//907 402//907
f 483//908 485//908 398//908
f 394//909 483//909 398//909
f 481//910 483//910 394//910
f 479//911 481//911 394//911
f 390//912 479//912 394//912
f 469//913 479//913 390//913
f 386//914 469//914 390//914
f 463//915 469//915 386//915
f 375//916 463//916 386//916
f 457//917 463//917 375//917
f 453//918 457//918 375//918
f 449//919 453//919 375//919
f 358//920 449//920 375//920
f 443//921 449//921 358//921
f 439//922 443//922 358//922
f 435//923 439//923 358//923
f 425//924 435//924 358//924
f 346//925 425//925 358//925
f 338//926 425//926 346//926
f 425//927 338//927 326//927
f 316//928 425//928 326//928
f 170//929 425//929 316//929
f 172//930 170//930 316//930
f 154//931 170//931 172//931
f 138//932 154//932 172//932
f 114//933 138//933 172//933
f 157//934 114//934 172//934
f 98//935 114//935 157//935
f 86//936 98//936 157//936
f 141//937 86//937 157//937
f 78//938 86//938 141//938
f 68//939 78//939 141//939
f 125//940 68//940 141//940
f 54//941 68//941 125//941
f 103//942 54//942 125//942
f 36//943 54//943 103//943
f 95//944 36//944 103//944
f 18//945 36//945 95//945
f 89//946 18//946 95//946
f 81//947 18//947 89//947
f 16//948 18//948 81//948
f 73//949 16//949 81//949
f 14//950 16//950 73//950
f 65//951 14//951 73//951
f 12//952 14//952 65//952
f 59//953 12//953 65//953
f 10//954 12//954 59//954
f 49//955 10//955 59//955
f 8//956 10//956 49//956
f 39//957 8//957 49//957
f 33//958 8//958 39//958
f 6//959 8//959 33//959
f 29//960 6//960 33//960
f 4//961 6//961 29//961
f 25//962 4//962 29//962
f 2//963 4//963 25//963
f 21//964 2//964 25//964
f 1//965 2//965 21//965
f 23//966 1//966 21//966
f 3//967 1//967 23//967
f 27//968 3//968 23//968
f 5//969 3//969 27//969
f 31//970 5//970 27//970
f 7//971 5//971 31//971
f 35//972 7//972 31//972
f 9//973 7//973 35//973
f 41//974 9//974 35//974
f 51//975 9//975 41//975
f 11//976 9//976 51//976
f 61//977 11//977 51//977
f 13//978 11//978 61//978
f 67//979 13//979 61//979
f 15//980 13//980 67//980
f 75//981 15//981 67//981
f 17//982 15//982 75//982
f 83//983 17//983 75//983
f 19//984 17//984 83//984
f 91//985 19//985 83//985
f 97//986 19//986 91//986
f 37//987 19//987 97//987
f 105//988 37//988 97//988
f 55//989 37//989 105//989
f 127//990 55//990 105//990
f 69//991 55//991 127//991
f 143//992 69//992 127//992
f 79//993 69//993 143//993
f 87//994 79//994 143//994
f 159//995 87//995 143//995
f 99//996 87//996 159//996
f 115//997 99//997 159//997
f 176//998 115//998 159//998
f 139//999 115//999 176//999
f 377//1000 454//1000 450//1000
f 360//1001 440//1001 436//1001
f 428//1002 360//1002 436//1002
