# Created by FreeCAD <https://www.freecad.org>
v -201.750000 23.616648 -203.864075
v -201.750000 23.616648 -160.864075
v -201.750000 25.624533 -182.489410
v -201.750000 25.624533 -182.238739
v -201.750000 25.686871 -182.732208
v -201.750000 25.686871 -181.995956
v -201.750000 25.807631 -182.951859
v -201.750000 25.807631 -181.776291
v -201.750000 25.979223 -183.134598
v -201.750000 25.979223 -181.593567
v -201.750000 26.190868 -183.268906
v -201.750000 26.190868 -181.459259
v -201.750000 26.429266 -183.346359
v -201.750000 26.429266 -181.381790
v -201.750000 26.679438 -183.362106
v -201.750000 26.679438 -181.366058
v -201.750000 26.925665 -183.315140
v -201.750000 26.925665 -181.413025
v -201.750000 27.152473 -183.208405
v -201.750000 27.152473 -181.519745
v -201.750000 27.345615 -183.048630
v -201.750000 27.345615 -181.679535
v -201.750000 27.492954 -182.845825
v -201.750000 27.492954 -181.882324
v -201.750000 27.585230 -182.612762
v -201.750000 27.585230 -182.115387
v -201.750000 27.616648 -182.364075
v -201.750000 31.624866 -182.620361
v -201.750000 31.624866 -182.107803
v -201.750000 31.690411 -183.128708
v -201.750000 31.690411 -181.599442
v -201.750000 31.820425 -183.624512
v -201.750000 31.820425 -181.103653
v -201.750000 32.012772 -184.099609
v -201.750000 32.012772 -180.628540
v -201.750000 32.264294 -184.546219
v -201.750000 32.264294 -180.181946
v -201.750000 32.570866 -184.956985
v -201.750000 32.570866 -179.771164
v -201.750000 32.927444 -185.325195
v -201.750000 32.927444 -179.402969
v -201.750000 33.328182 -185.644775
v -201.750000 33.328182 -179.083389
v -201.750000 33.766495 -185.910477
v -201.750000 33.766495 -178.817688
v -201.750000 34.235188 -186.117950
v -201.750000 34.235188 -178.610199
v -201.750000 34.726562 -186.263794
v -201.750000 34.726562 -178.464371
v -201.750000 35.232555 -186.345596
v -201.750000 35.232555 -178.382568
v -201.750000 35.744854 -186.362030
v -201.750000 35.744854 -178.366135
v -201.750000 36.255047 -186.312805
v -201.750000 36.255047 -178.415344
v -201.750000 36.754757 -186.198746
v -201.750000 36.754757 -178.529404
v -201.750000 37.235783 -186.021729
v -201.750000 37.235783 -178.706421
v -201.750000 37.690216 -185.784653
v -201.750000 37.690216 -178.943512
v -201.750000 38.110607 -185.491409
v -201.750000 38.110607 -179.236755
v -201.750000 38.490044 -185.146805
v -201.750000 38.490044 -179.581345
v -201.750000 38.822304 -184.756516
v -201.750000 38.822304 -179.971634
v -201.750000 39.101921 -184.326950
v -201.750000 39.101921 -180.401215
v -201.750000 39.324314 -183.865143
v -201.750000 39.324314 -180.863007
v -201.750000 39.485828 -183.378693
v -201.750000 39.485828 -181.349457
v -201.750000 39.583809 -182.875580
v -201.750000 39.583809 -181.852570
v -201.750000 39.616646 -182.364075
v -201.750000 43.624535 -182.489410
v -201.750000 43.624535 -182.238739
v -201.750000 43.686871 -182.732208
v -201.750000 43.686871 -181.995956
v -201.750000 43.807632 -182.951859
v -201.750000 43.807632 -181.776291
v -201.750000 43.979225 -183.134598
v -201.750000 43.979225 -181.593567
v -201.750000 44.190868 -183.268906
v -201.750000 44.190868 -181.459259
v -201.750000 44.429268 -183.346359
v -201.750000 44.429268 -181.381790
v -201.750000 44.679440 -183.362106
v -201.750000 44.679440 -181.366058
v -201.750000 44.925663 -183.315140
v -201.750000 44.925663 -181.413025
v -201.750000 45.152473 -183.208405
v -201.750000 45.152473 -181.519745
v -201.750000 45.345615 -183.048630
v -201.750000 45.345615 -181.679535
v -201.750000 45.492954 -182.845825
v -201.750000 45.492954 -181.882324
v -201.750000 45.585232 -182.612762
v -201.750000 45.585232 -182.115387
v -201.750000 45.616646 -182.364075
v -201.750000 47.616646 -203.864075
v -201.750000 47.616646 -160.864075
v -200.750000 22.616648 -203.864075
v -200.750000 22.616648 -160.864075
v -200.750000 23.616648 -204.864075
v -200.750000 23.616648 -159.864075
v -200.750000 47.616646 -204.864075
v -200.750000 47.616646 -159.864075
v -200.750000 48.616646 -203.864075
v -200.750000 48.616646 -160.864075
v -200.250000 22.616648 -203.864075
v -200.250000 22.616648 -160.864075
v -200.250000 23.616648 -204.864075
v -200.250000 23.616648 -159.864075
v -200.250000 25.624533 -182.489410
v -200.250000 25.624533 -182.238739
v -200.250000 25.686871 -182.732208
v -200.250000 25.686871 -181.995956
v -200.250000 25.807631 -182.951859
v -200.250000 25.807631 -181.776291
v -200.250000 25.979223 -183.134598
v -200.250000 25.979223 -181.593567
v -200.250000 26.190868 -183.268906
v -200.250000 26.190868 -181.459259
v -200.250000 26.429266 -183.346359
v -200.250000 26.429266 -181.381790
v -200.250000 26.679438 -183.362106
v -200.250000 26.679438 -181.366058
v -200.250000 26.925665 -183.315140
v -200.250000 26.925665 -181.413025
v -200.250000 27.152473 -183.208405
v -200.250000 27.152473 -181.519745
v -200.250000 27.345615 -183.048630
v -200.250000 27.345615 -181.679535
v -200.250000 27.492954 -182.845825
v -200.250000 27.492954 -181.882324
v -200.250000 27.585230 -182.612762
v -200.250000 27.585230 -182.115387
v -200.250000 27.616648 -182.364075
v -200.250000 31.624866 -182.620361
v -200.250000 31.624866 -182.107803
v -200.250000 31.690411 -183.128708
v -200.250000 31.690411 -181.599442
v -200.250000 31.820425 -183.624512
v -200.250000 31.820425 -181.103653
v -200.250000 32.012772 -184.099609
v -200.250000 32.012772 -180.628540
v -200.250000 32.264294 -184.546219
v -200.250000 32.264294 -180.181946
v -200.250000 32.570866 -184.956985
v -200.250000 32.570866 -179.771164
v -200.250000 32.927444 -185.325195
v -200.250000 32.927444 -179.402969
v -200.250000 33.328182 -185.644775
v -200.250000 33.328182 -179.083389
v -200.250000 33.766495 -185.910477
v -200.250000 33.766495 -178.817688
v -200.250000 34.235188 -186.117950
v -200.250000 34.235188 -178.610199
v -200.250000 34.726562 -186.263794
v -200.250000 34.726562 -178.464371
v -200.250000 35.232555 -186.345596
v -200.250000 35.232555 -178.382568
v -200.250000 35.744854 -186.362030
v -200.250000 35.744854 -178.366135
v -200.250000 36.255047 -186.312805
v -200.250000 36.255047 -178.415344
v -200.250000 36.754757 -186.198746
v -200.250000 36.754757 -178.529404
v -200.250000 37.235783 -186.021729
v -200.250000 37.235783 -178.706421
v -200.250000 37.690216 -185.784653
v -200.250000 37.690216 -178.943512
v -200.250000 38.110607 -185.491409
v -200.250000 38.110607 -179.236755
v -200.250000 38.490044 -185.146805
v -200.250000 38.490044 -179.581345
v -200.250000 38.822304 -184.756516
v -200.250000 38.822304 -179.971634
v -200.250000 39.101921 -184.326950
v -200.250000 39.101921 -180.401215
v -200.250000 39.324314 -183.865143
v -200.250000 39.324314 -180.863007
v -200.250000 39.485828 -183.378693
v -200.250000 39.485828 -181.349457
v -200.250000 39.583809 -182.875580
v -200.250000 39.583809 -181.852570
v -200.250000 39.616646 -182.364075
v -200.250000 43.624535 -182.489410
v -200.250000 43.624535 -182.238739
v -200.250000 43.686871 -182.732208
v -200.250000 43.686871 -181.995956
v -200.250000 43.807632 -182.951859
v -200.250000 43.807632 -181.776291
v -200.250000 43.979225 -183.134598
v -200.250000 43.979225 -181.593567
v -200.250000 44.190868 -183.268906
v -200.250000 44.190868 -181.459259
v -200.250000 44.429268 -183.346359
v -200.250000 44.429268 -181.381790
v -200.250000 44.679440 -183.362106
v -200.250000 44.679440 -181.366058
v -200.250000 44.925663 -183.315140
v -200.250000 44.925663 -181.413025
v -200.250000 45.152473 -183.208405
v -200.250000 45.152473 -181.519745
v -200.250000 45.345615 -183.048630
v -200.250000 45.345615 -181.679535
v -200.250000 45.492954 -182.845825
v -200.250000 45.492954 -181.882324
v -200.250000 45.585232 -182.612762
v -200.250000 45.585232 -182.115387
v -200.250000 45.616646 -182.364075
v -200.250000 47.616646 -204.864075
v -200.250000 47.616646 -159.864075
v -200.250000 48.616646 -203.864075
v -200.250000 48.616646 -160.864075
vn -0.577350 -0.577350 -0.577350
vn -0.577350 0.577350 -0.577350
vn 0.000000 0.707107 -0.707107
vn 0.000000 0.707107 -0.707107
vn -0.707107 0.000000 -0.707107
vn -0.707107 0.000000 -0.707107
vn -0.577350 -0.577350 0.577350
vn -0.707107 -0.707107 0.000000
vn -0.707107 -0.707107 0.000000
vn 0.000000 -0.707107 0.707107
vn 0.000000 -0.707107 0.707107
vn -0.577350 0.577350 0.577350
vn -0.707107 0.000000 0.707107
vn -0.707107 0.000000 0.707107
vn 0.000000 0.707107 0.707107
vn -0.000000 0.707107 0.707107
vn -0.707107 0.707107 0.000000
vn -0.707107 0.707107 0.000000
vn 0.000000 -0.707107 -0.707107
vn 0.000000 -0.707107 -0.707107
vn 0.000000 0.000000 -1.000000
vn -0.000000 -0.000000 -1.000000
vn 0.000000 1.000000 0.000000
vn 0.000000 1.000000 0.000000
vn 1.000000 0.000000 0.000000
vn 1.000000 0.000000 0.000000
vn 1.000000 0.000000 0.000000
vn 1.000000 0.000000 0.000000
vn 1.000000 0.000000 0.000000
vn 1.000000 0.000000 0.000000
vn 1.000000 0.000000 0.000000
vn 1.000000 0.000000 0.000000
vn 1.000000 0.000000 0.000000
vn 1.000000 0.000000 0.000000
vn 1.000000 0.000000 0.000000
vn 1.000000 0.000000 0.000000
vn 1.000000 0.000000 0.000000
vn 1.000000 -0.000000 0.000000
vn 1.000000 -0.000000 0.000000
vn 1.000000 -0.000000 0.000000
vn 1.000000 -0.000000 0.000000
vn 1.000000 -0.000000 0.000000
vn 1.000000 -0.000000 0.000000
vn 1.000000 -0.000000 0.000000
vn 1.000000 0.000000 -0.000000
vn 1.000000 0.000000 -0.000000
vn 1.000000 0.000000 -0.000000
vn 1.000000 0.000000 -0.000000
vn 1.000000 0.000000 -0.000000
vn 1.000000 0.000000 -0.000000
vn 1.000000 0.000000 -0.000000
vn 1.000000 0.000000 -0.000000
vn 1.000000 0.000000 -0.000000
vn 1.000000 0.000000 0.000000
vn 1.000000 0.000000 0.000000
vn 1.000000 0.000000 0.000000
vn 1.000000 0.000000 0.000000
vn 1.000000 0.000000 0.000000
vn 1.000000 0.000000 0.000000
vn 1.000000 0.000000 0.000000
vn 1.000000 0.000000 0.000000
vn 1.000000 0.000000 0.000000
vn 1.000000 0.000000 0.000000
vn 1.000000 -0.000000 0.000000
vn 1.000000 -0.000000 0.000000
vn 1.000000 0.000000 0.000000
vn 1.000000 -0.000000 0.000000
vn 1.000000 -0.000000 0.000000
vn 1.000000 0.000000 0.000000
vn 1.000000 0.000000 0.000000
vn 1.000000 0.000000 0.000000
vn 1.000000 0.000000 0.000000
vn 1.000000 0.000000 0.000000
vn 1.000000 0.000000 0.000000
vn 1.000000 0.000000 0.000000
vn 1.000000 0.000000 0.000000
vn 1.000000 0.000000 0.000000
vn 1.000000 0.000000 0.000000
vn 1.000000 0.000000 0.000000
vn 1.000000 0.000000 0.000000
vn 1.000000 0.000000 0.000000
vn 1.000000 0.000000 0.000000
vn 1.000000 0.000000 0.000000
vn 1.000000 0.000000 0.000000
vn 1.000000 0.000000 0.000000
vn 1.000000 0.000000 0.000000
vn 1.000000 0.000000 0.000000
vn 1.000000 0.000000 0.000000
vn 1.000000 0.000000 0.000000
vn 1.000000 -0.000000 0.000000
vn 1.000000 0.000000 0.000000
vn 1.000000 -0.000000 0.000000
vn 1.000000 0.000000 0.000000
vn 1.000000 0.000000 0.000000
vn 1.000000 -0.000000 0.000000
vn 1.000000 0.000000 0.000000
vn 1.000000 -0.000000 0.000000
vn 1.000000 0.000000 0.000000
vn 1.000000 0.000000 0.000000
vn 1.000000 0.000000 0.000000
vn 1.000000 -0.000000 0.000000
vn 1.000000 -0.000000 0.000000
vn 1.000000 -0.000000 0.000000
vn 1.000000 -0.000000 0.000000
vn 1.000000 -0.000000 0.000000
vn 1.000000 -0.000000 0.000000
vn 1.000000 0.000000 0.000000
vn 1.000000 0.000000 0.000000
vn 1.000000 0.000000 0.000000
vn 1.000000 0.000000 0.000000
vn 1.000000 -0.000000 0.000000
vn 1.000000 -0.000000 0.000000
vn 1.000000 0.000000 0.000000
vn 1.000000 -0.000000 0.000000
vn 1.000000 0.000000 -0.000000
vn 1.000000 0.000000 0.000000
vn 1.000000 0.000000 0.000000
vn 1.000000 0.000000 0.000000
vn 1.000000 -0.000000 0.000000
vn 1.000000 0.000000 0.000000
vn 1.000000 0.000000 0.000000
vn 1.000000 0.000000 0.000000
vn 1.000000 0.000000 0.000000
vn 1.000000 0.000000 0.000000
vn 1.000000 0.000000 0.000000
vn 1.000000 0.000000 0.000000
vn 1.000000 0.000000 0.000000
vn 1.000000 0.000000 0.000000
vn 1.000000 0.000000 0.000000
vn 1.000000 0.000000 0.000000
vn 1.000000 0.000000 0.000000
vn 1.000000 0.000000 0.000000
vn 1.000000 0.000000 0.000000
vn 1.000000 0.000000 0.000000
vn 1.000000 0.000000 0.000000
vn -1.000000 0.000000 0.000000
vn -1.000000 0.000000 0.000000
vn -1.000000 0.000000 0.000000
vn -1.000000 -0.000000 0.000000
vn -1.000000 0.000000 0.000000
vn -1.000000 0.000000 0.000000
vn -1.000000 -0.000000 0.000000
vn -1.000000 0.000000 0.000000
vn -1.000000 -0.000000 0.000000
vn -1.000000 0.000000 0.000000
vn -1.000000 -0.000000 0.000000
vn -1.000000 0.000000 0.000000
vn -1.000000 -0.000000 -0.000000
vn -1.000000 -0.000000 -0.000000
vn -1.000000 -0.000000 0.000000
vn -1.000000 0.000000 0.000000
vn -1.000000 0.000000 0.000000
vn -1.000000 -0.000000 0.000000
vn -1.000000 0.000000 0.000000
vn -1.000000 -0.000000 0.000000
vn -1.000000 0.000000 0.000000
vn -1.000000 -0.000000 0.000000
vn -1.000000 0.000000 0.000000
vn -1.000000 -0.000000 0.000000
vn -1.000000 -0.000000 0.000000
vn -1.000000 0.000000 0.000000
vn -1.000000 0.000000 0.000000
vn -1.000000 0.000000 0.000000
vn -1.000000 0.000000 0.000000
vn -1.000000 0.000000 0.000000
vn -1.000000 0.000000 0.000000
vn -1.000000 0.000000 0.000000
vn -1.000000 0.000000 0.000000
vn -1.000000 0.000000 0.000000
vn -1.000000 0.000000 0.000000
vn -1.000000 0.000000 0.000000
vn -1.000000 0.000000 0.000000
vn -1.000000 0.000000 0.000000
vn -1.000000 0.000000 0.000000
vn -1.000000 0.000000 0.000000
vn -1.000000 0.000000 0.000000
vn -1.000000 0.000000 0.000000
vn -1.000000 0.000000 0.000000
vn -1.000000 0.000000 0.000000
vn -1.000000 0.000000 0.000000
vn -1.000000 0.000000 0.000000
vn -1.000000 0.000000 0.000000
vn -1.000000 0.000000 0.000000
vn -1.000000 0.000000 0.000000
vn -1.000000 0.000000 0.000000
vn -1.000000 0.000000 0.000000
vn -1.000000 0.000000 0.000000
vn -1.000000 0.000000 0.000000
vn -1.000000 0.000000 0.000000
vn -1.000000 0.000000 0.000000
vn -1.000000 -0.000000 0.000000
vn -1.000000 0.000000 0.000000
vn -1.000000 -0.000000 0.000000
vn -1.000000 0.000000 0.000000
vn -1.000000 -0.000000 0.000000
vn -1.000000 0.000000 0.000000
vn -1.000000 -0.000000 0.000000
vn -1.000000 -0.000000 0.000000
vn -1.000000 0.000000 0.000000
vn -1.000000 0.000000 0.000000
vn -1.000000 0.000000 0.000000
vn -1.000000 0.000000 0.000000
vn -1.000000 0.000000 0.000000
vn -1.000000 0.000000 0.000000
vn -1.000000 0.000000 0.000000
vn -1.000000 0.000000 0.000000
vn -1.000000 0.000000 0.000000
vn -1.000000 0.000000 0.000000
vn -1.000000 0.000000 0.000000
vn -1.000000 0.000000 0.000000
vn -1.000000 0.000000 0.000000
vn -1.000000 0.000000 -0.000000
vn -1.000000 0.000000 -0.000000
vn -1.000000 0.000000 -0.000000
vn -1.000000 0.000000 -0.000000
vn -1.000000 0.000000 -0.000000
vn -1.000000 0.000000 -0.000000
vn -1.000000 0.000000 -0.000000
vn -1.000000 0.000000 -0.000000
vn -1.000000 0.000000 0.000000
vn -1.000000 -0.000000 0.000000
vn -1.000000 -0.000000 0.000000
vn -1.000000 -0.000000 0.000000
vn -1.000000 -0.000000 0.000000
vn -1.000000 -0.000000 0.000000
vn -1.000000 -0.000000 0.000000
vn -1.000000 0.000000 0.000000
vn -1.000000 0.000000 0.000000
vn -1.000000 -0.000000 0.000000
vn -1.000000 -0.000000 0.000000
vn -1.000000 0.000000 0.000000
vn -1.000000 -0.000000 0.000000
vn -1.000000 -0.000000 0.000000
vn -1.000000 0.000000 0.000000
vn -1.000000 0.000000 0.000000
vn -1.000000 0.000000 -0.000000
vn -1.000000 0.000000 -0.000000
vn -1.000000 0.000000 0.000000
vn -1.000000 0.000000 -0.000000
vn -1.000000 0.000000 -0.000000
vn -1.000000 0.000000 0.000000
vn -1.000000 0.000000 -0.000000
vn 0.000000 0.000000 1.000000
vn -0.000000 0.000000 1.000000
vn 0.000000 -1.000000 0.000000
vn 0.000000 -1.000000 0.000000
vn 0.000000 -0.997946 0.064065
vn 0.000000 -0.997946 0.064065
vn 0.000000 -0.997946 -0.064065
vn -0.000000 -0.997946 -0.064065
vn 0.000000 -0.981559 -0.191157
vn -0.000000 -0.981559 -0.191157
vn 0.000000 -0.949055 -0.315111
vn -0.000000 -0.949055 -0.315111
vn 0.000000 -0.900964 -0.433893
vn -0.000000 -0.900964 -0.433893
vn 0.000000 -0.838096 -0.545523
vn -0.000000 -0.838096 -0.545523
vn 0.000000 -0.761444 -0.648231
vn -0.000000 -0.761444 -0.648231
vn 0.000000 -0.672296 -0.740283
vn -0.000000 -0.672296 -0.740283
vn 0.000000 -0.572113 -0.820175
vn -0.000000 -0.572113 -0.820175
vn 0.000000 -0.462559 -0.886589
vn -0.000000 -0.462559 -0.886589
vn 0.000000 -0.345357 -0.938471
vn -0.000000 -0.345357 -0.938471
vn 0.000000 -0.222528 -0.974926
vn -0.000000 -0.222528 -0.974926
vn 0.000000 -0.096007 -0.995381
vn -0.000000 -0.096007 -0.995381
vn 0.000000 0.032062 -0.999486
vn 0.000000 0.032062 -0.999486
vn 0.000000 0.159595 -0.987183
vn 0.000000 0.159595 -0.987183
vn 0.000000 0.284511 -0.958673
vn 0.000000 0.284511 -0.958673
vn 0.000000 0.404804 -0.914403
vn 0.000000 0.404804 -0.914403
vn 0.000000 0.518384 -0.855148
vn 0.000000 0.518384 -0.855148
vn 0.000000 0.623493 -0.781829
vn 0.000000 0.623493 -0.781829
vn 0.000000 0.718347 -0.695685
vn 0.000000 0.718347 -0.695685
vn 0.000000 0.801416 -0.598107
vn 0.000000 0.801416 -0.598107
vn 0.000000 0.871315 -0.490725
vn 0.000000 0.871315 -0.490725
vn 0.000000 0.926920 -0.375258
vn 0.000000 0.926920 -0.375258
vn 0.000000 0.967293 -0.253661
vn 0.000000 0.967293 -0.253661
vn 0.000000 0.991791 -0.127874
vn 0.000000 0.991791 -0.127874
vn 0.000000 1.000000 0.000000
vn 0.000000 1.000000 -0.000000
vn 0.000000 0.991790 0.127877
vn 0.000000 0.991790 0.127877
vn 0.000000 0.967295 0.253653
vn 0.000000 0.967295 0.253653
vn 0.000000 0.926916 0.375268
vn 0.000000 0.926916 0.375268
vn 0.000000 0.871322 0.490712
vn 0.000000 0.871322 0.490712
vn 0.000000 0.801405 0.598122
vn 0.000000 0.801405 0.598122
vn 0.000000 0.718362 0.695670
vn 0.000000 0.718362 0.695670
vn 0.000000 0.623493 0.781829
vn 0.000000 0.623493 0.781829
vn 0.000000 0.518384 0.855148
vn 0.000000 0.518384 0.855148
vn 0.000000 0.404779 0.914415
vn 0.000000 0.404779 0.914415
vn 0.000000 0.284538 0.958665
vn 0.000000 0.284538 0.958665
vn 0.000000 0.159595 0.987183
vn 0.000000 0.159595 0.987183
vn 0.000000 0.032062 0.999486
vn 0.000000 0.032062 0.999486
vn 0.000000 -0.096037 0.995378
vn 0.000000 -0.096037 0.995378
vn 0.000000 -0.222528 0.974926
vn 0.000000 -0.222528 0.974926
vn 0.000000 -0.345357 0.938471
vn 0.000000 -0.345357 0.938471
vn 0.000000 -0.462536 0.886601
vn 0.000000 -0.462536 0.886601
vn 0.000000 -0.572113 0.820175
vn 0.000000 -0.572113 0.820175
vn 0.000000 -0.672312 0.740268
vn 0.000000 -0.672312 0.740268
vn 0.000000 -0.761444 0.648231
vn 0.000000 -0.761444 0.648231
vn 0.000000 -0.838087 0.545537
vn 0.000000 -0.838087 0.545537
vn 0.000000 -0.900970 0.433881
vn 0.000000 -0.900970 0.433881
vn 0.000000 -0.949055 0.315111
vn 0.000000 -0.949055 0.315111
vn 0.000000 -0.981559 0.191157
vn 0.000000 -0.981559 0.191157
vn 0.000000 -0.992116 0.125323
vn 0.000000 -0.992116 0.125323
vn 0.000000 -0.992116 -0.125323
vn -0.000000 -0.992116 -0.125323
vn 0.000000 -0.929774 -0.368130
vn -0.000000 -0.929774 -0.368130
vn 0.000000 -0.809010 -0.587795
vn -0.000000 -0.809010 -0.587795
vn 0.000000 -0.637446 -0.770495
vn -0.000000 -0.637446 -0.770495
vn 0.000000 -0.425750 -0.904841
vn -0.000000 -0.425750 -0.904841
vn 0.000000 -0.187369 -0.982290
vn -0.000000 -0.187369 -0.982290
vn 0.000000 0.062760 -0.998029
vn 0.000000 0.062760 -0.998029
vn 0.000000 0.309046 -0.951047
vn 0.000000 0.309046 -0.951047
vn 0.000000 0.535813 -0.844337
vn 0.000000 0.535813 -0.844337
vn 0.000000 0.728962 -0.684554
vn 0.000000 0.728962 -0.684554
vn 0.000000 0.876307 -0.481753
vn 0.000000 0.876307 -0.481753
vn 0.000000 0.968583 -0.248690
vn 0.000000 0.968583 -0.248690
vn 0.000000 1.000000 0.000000
vn 0.000000 1.000000 -0.000000
vn 0.000000 0.968587 0.248675
vn 0.000000 0.968587 0.248675
vn 0.000000 0.876293 0.481779
vn 0.000000 0.876293 0.481779
vn 0.000000 0.728990 0.684524
vn 0.000000 0.728990 0.684524
vn 0.000000 0.535813 0.844337
vn 0.000000 0.535813 0.844337
vn 0.000000 0.308991 0.951065
vn 0.000000 0.308991 0.951065
vn 0.000000 0.062821 0.998025
vn 0.000000 0.062821 0.998025
vn 0.000000 -0.187369 0.982290
vn 0.000000 -0.187369 0.982290
vn 0.000000 -0.425800 0.904817
vn 0.000000 -0.425800 0.904817
vn 0.000000 -0.637410 0.770525
vn 0.000000 -0.637410 0.770525
vn 0.000000 -0.809031 0.587766
vn 0.000000 -0.809031 0.587766
vn 0.000000 -0.929774 0.368130
vn 0.000000 -0.929774 0.368130
vn 0.000000 -0.992114 0.125338
vn 0.000000 -0.992114 0.125338
vn 0.000000 -0.992114 -0.125338
vn -0.000000 -0.992114 -0.125338
vn 0.000000 -0.929777 -0.368123
vn -0.000000 -0.929777 -0.368123
vn 0.000000 -0.809010 -0.587795
vn -0.000000 -0.809010 -0.587795
vn 0.000000 -0.637446 -0.770495
vn -0.000000 -0.637446 -0.770495
vn 0.000000 -0.425753 -0.904839
vn -0.000000 -0.425753 -0.904839
vn 0.000000 -0.187367 -0.982290
vn -0.000000 -0.187367 -0.982290
vn 0.000000 0.062760 -0.998029
vn 0.000000 0.062760 -0.998029
vn 0.000000 0.309049 -0.951046
vn 0.000000 0.309049 -0.951046
vn 0.000000 0.535809 -0.844339
vn 0.000000 0.535809 -0.844339
vn 0.000000 0.728962 -0.684554
vn 0.000000 0.728962 -0.684554
vn 0.000000 0.876310 -0.481747
vn 0.000000 0.876310 -0.481747
vn 0.000000 0.968581 -0.248697
vn 0.000000 0.968581 -0.248697
vn 0.000000 1.000000 0.000000
vn 0.000000 1.000000 -0.000000
vn 0.000000 0.968585 0.248682
vn 0.000000 0.968585 0.248682
vn 0.000000 0.876296 0.481773
vn 0.000000 0.876296 0.481773
vn 0.000000 0.728990 0.684524
vn 0.000000 0.728990 0.684524
vn 0.000000 0.535809 0.844339
vn 0.000000 0.535809 0.844339
vn 0.000000 0.308994 0.951064
vn 0.000000 0.308994 0.951064
vn 0.000000 0.062821 0.998025
vn 0.000000 0.062821 0.998025
vn 0.000000 -0.187367 0.982290
vn 0.000000 -0.187367 0.982290
vn 0.000000 -0.425803 0.904816
vn 0.000000 -0.425803 0.904816
vn 0.000000 -0.637410 0.770525
vn 0.000000 -0.637410 0.770525
vn 0.000000 -0.809031 0.587766
vn 0.000000 -0.809031 0.587766
vn 0.000000 -0.929777 0.368123
vn 0.000000 -0.929777 0.368123
f 106//1 104//1 1//1
f 108//2 102//2 110//2
f 217//3 215//3 108//3
f 110//4 217//4 108//4
f 1//5 102//5 108//5
f 106//6 1//6 108//6
f 105//7 107//7 2//7
f 105//8 2//8 1//8
f 104//9 105//9 1//9
f 113//10 115//10 107//10
f 105//11 113//11 107//11
f 109//12 111//12 103//12
f 103//13 2//13 107//13
f 109//14 103//14 107//14
f 216//15 218//15 111//15
f 109//16 216//16 111//16
f 110//17 102//17 103//17
f 111//18 110//18 103//18
f 114//19 112//19 104//19
f 106//20 114//20 104//20
f 114//21 106//21 108//21
f 215//22 114//22 108//22
f 217//23 110//23 111//23
f 218//24 217//24 111//24
f 189//25 187//25 190//25
f 191//26 189//26 190//26
f 188//27 189//27 191//27
f 193//28 188//28 191//28
f 186//29 188//29 193//29
f 184//30 186//30 193//30
f 195//31 184//31 193//31
f 182//32 184//32 195//32
f 197//33 182//33 195//33
f 180//34 182//34 197//34
f 199//35 180//35 197//35
f 178//36 180//36 199//36
f 216//37 178//37 199//37
f 176//38 178//38 216//38
f 174//39 176//39 216//39
f 172//40 174//40 216//40
f 170//41 172//41 216//41
f 168//42 170//42 216//42
f 166//43 168//43 216//43
f 115//44 166//44 216//44
f 164//45 166//45 115//45
f 162//46 164//46 115//46
f 160//47 162//47 115//47
f 158//48 160//48 115//48
f 156//49 158//49 115//49
f 154//50 156//50 115//50
f 152//51 154//51 115//51
f 131//52 152//52 115//52
f 133//53 152//53 131//53
f 192//54 190//54 187//54
f 185//55 192//55 187//55
f 183//56 192//56 185//56
f 194//57 192//57 183//57
f 181//58 194//58 183//58
f 196//59 194//59 181//59
f 179//60 196//60 181//60
f 198//61 196//61 179//61
f 177//62 198//62 179//62
f 215//63 198//63 177//63
f 175//64 215//64 177//64
f 173//65 215//65 175//65
f 215//66 173//66 171//66
f 169//67 215//67 171//67
f 167//68 215//68 169//68
f 215//69 167//69 165//69
f 114//70 215//70 165//70
f 163//71 114//71 165//71
f 161//72 114//72 163//72
f 114//73 161//73 159//73
f 157//74 114//74 159//74
f 155//75 114//75 157//75
f 114//76 155//76 153//76
f 151//77 114//77 153//77
f 130//78 114//78 151//78
f 132//79 130//79 151//79
f 149//80 132//80 151//80
f 134//81 132//81 149//81
f 147//82 134//82 149//82
f 136//83 134//83 147//83
f 145//84 136//84 147//84
f 143//85 136//85 145//85
f 138//86 136//86 143//86
f 141//87 138//87 143//87
f 140//88 138//88 141//88
f 142//89 140//89 141//89
f 139//90 140//90 142//90
f 144//91 139//91 142//91
f 137//92 139//92 144//92
f 146//93 137//93 144//93
f 148//94 137//94 146//94
f 135//95 137//95 148//95
f 150//96 135//96 148//96
f 133//97 135//97 150//97
f 152//98 133//98 150//98
f 214//99 212//99 217//99
f 218//100 214//100 217//100
f 213//101 214//101 218//101
f 211//102 213//102 218//102
f 209//103 211//103 218//103
f 207//104 209//104 218//104
f 205//105 207//105 218//105
f 203//106 205//106 218//106
f 216//107 203//107 218//107
f 201//108 203//108 216//108
f 199//109 201//109 216//109
f 217//110 212//110 210//110
f 208//111 217//111 210//111
f 206//112 217//112 208//112
f 217//113 206//113 204//113
f 202//114 217//114 204//114
f 215//115 217//115 202//115
f 200//116 215//116 202//116
f 198//117 215//117 200//117
f 114//118 130//118 128//118
f 112//119 114//119 128//119
f 126//120 112//120 128//120
f 124//121 112//121 126//121
f 112//122 124//122 122//122
f 120//123 112//123 122//123
f 118//124 112//124 120//124
f 112//125 118//125 116//125
f 117//126 112//126 116//126
f 113//127 112//127 117//127
f 119//128 113//128 117//128
f 121//129 113//129 119//129
f 113//130 121//130 123//130
f 125//131 113//131 123//131
f 127//132 113//132 125//132
f 113//133 127//133 129//133
f 115//134 113//134 129//134
f 131//135 115//135 129//135
f 76//136 75//136 78//136
f 77//137 76//137 78//137
f 74//138 76//138 77//138
f 79//139 74//139 77//139
f 72//140 74//140 79//140
f 70//141 72//141 79//141
f 81//142 70//142 79//142
f 68//143 70//143 81//143
f 83//144 68//144 81//144
f 66//145 68//145 83//145
f 85//146 66//146 83//146
f 102//147 66//147 85//147
f 87//148 102//148 85//148
f 89//149 102//149 87//149
f 80//150 78//150 75//150
f 73//151 80//151 75//151
f 71//152 80//152 73//152
f 82//153 80//153 71//153
f 69//154 82//154 71//154
f 84//155 82//155 69//155
f 67//156 84//156 69//156
f 86//157 84//157 67//157
f 103//158 86//158 67//158
f 88//159 86//159 103//159
f 90//160 88//160 103//160
f 92//161 90//161 103//161
f 94//162 92//162 103//162
f 96//163 94//163 103//163
f 98//164 96//164 103//164
f 100//165 98//165 103//165
f 101//166 100//166 103//166
f 102//167 101//167 103//167
f 99//168 101//168 102//168
f 97//169 99//169 102//169
f 95//170 97//170 102//170
f 93//171 95//171 102//171
f 91//172 93//172 102//172
f 89//173 91//173 102//173
f 103//174 67//174 65//174
f 63//175 103//175 65//175
f 61//176 103//176 63//176
f 103//177 61//177 59//177
f 57//178 103//178 59//178
f 55//179 103//179 57//179
f 103//180 55//180 53//180
f 2//181 103//181 53//181
f 51//182 2//182 53//182
f 49//183 2//183 51//183
f 2//184 49//184 47//184
f 45//185 2//185 47//185
f 43//186 2//186 45//186
f 2//187 43//187 41//187
f 39//188 2//188 41//188
f 18//189 2//189 39//189
f 20//190 18//190 39//190
f 37//191 20//191 39//191
f 22//192 20//192 37//192
f 35//193 22//193 37//193
f 24//194 22//194 35//194
f 33//195 24//195 35//195
f 26//196 24//196 33//196
f 31//197 26//197 33//197
f 29//198 26//198 31//198
f 27//199 26//199 29//199
f 28//200 27//200 29//200
f 25//201 27//201 28//201
f 30//202 25//202 28//202
f 32//203 25//203 30//203
f 23//204 25//204 32//204
f 34//205 23//205 32//205
f 21//206 23//206 34//206
f 36//207 21//207 34//207
f 19//208 21//208 36//208
f 38//209 19//209 36//209
f 17//210 19//210 38//210
f 1//211 17//211 38//211
f 15//212 17//212 1//212
f 13//213 15//213 1//213
f 11//214 13//214 1//214
f 9//215 11//215 1//215
f 7//216 9//216 1//216
f 5//217 7//217 1//217
f 3//218 5//218 1//218
f 4//219 3//219 1//219
f 2//220 4//220 1//220
f 6//221 4//221 2//221
f 8//222 6//222 2//222
f 10//223 8//223 2//223
f 12//224 10//224 2//224
f 14//225 12//225 2//225
f 16//226 14//226 2//226
f 18//227 16//227 2//227
f 1//228 38//228 40//228
f 42//229 1//229 40//229
f 44//230 1//230 42//230
f 1//231 44//231 46//231
f 48//232 1//232 46//232
f 50//233 1//233 48//233
f 1//234 50//234 52//234
f 102//235 1//235 52//235
f 54//236 102//236 52//236
f 56//237 102//237 54//237
f 102//238 56//238 58//238
f 60//239 102//239 58//239
f 62//240 102//240 60//240
f 102//241 62//241 64//241
f 66//242 102//242 64//242
f 107//243 115//243 216//243
f 109//244 107//244 216//244
f 104//245 112//245 113//245
f 105//246 104//246 113//246
f 76//247 74//247 187//247
f 189//248 76//248 187//248
f 75//249 76//249 189//249
f 188//250 75//250 189//250
f 73//251 75//251 188//251
f 186//252 73//252 188//252
f 71//253 73//253 186//253
f 184//254 71//254 186//254
f 69//255 71//255 184//255
f 182//256 69//256 184//256
f 67//257 69//257 182//257
f 180//258 67//258 182//258
f 65//259 67//259 180//259
f 178//260 65//260 180//260
f 63//261 65//261 178//261
f 176//262 63//262 178//262
f 61//263 63//263 176//263
f 174//264 61//264 176//264
f 59//265 61//265 174//265
f 172//266 59//266 174//266
f 57//267 59//267 172//267
f 170//268 57//268 172//268
f 55//269 57//269 170//269
f 168//270 55//270 170//270
f 53//271 55//271 168//271
f 166//272 53//272 168//272
f 51//273 53//273 166//273
f 164//274 51//274 166//274
f 49//275 51//275 164//275
f 162//276 49//276 164//276
f 47//277 49//277 162//277
f 160//278 47//278 162//278
f 45//279 47//279 160//279
f 158//280 45//280 160//280
f 43//281 45//281 158//281
f 156//282 43//282 158//282
f 41//283 43//283 156//283
f 154//284 41//284 156//284
f 39//285 41//285 154//285
f 152//286 39//286 154//286
f 37//287 39//287 152//287
f 150//288 37//288 152//288
f 35//289 37//289 150//289
f 148//290 35//290 150//290
f 33//291 35//291 148//291
f 146//292 33//292 148//292
f 31//293 33//293 146//293
f 144//294 31//294 146//294
f 29//295 31//295 144//295
f 142//296 29//296 144//296
f 28//297 29//297 142//297
f 141//298 28//298 142//298
f 30//299 28//299 141//299
f 143//300 30//300 141//300
f 32//301 30//301 143//301
f 145//302 32//302 143//302
f 34//303 32//303 145//303
f 147//304 34//304 145//304
f 36//305 34//305 147//305
f 149//306 36//306 147//306
f 38//307 36//307 149//307
f 151//308 38//308 149//308
f 40//309 38//309 151//309
f 153//310 40//310 151//310
f 42//311 40//311 153//311
f 155//312 42//312 153//312
f 44//313 42//313 155//313
f 157//314 44//314 155//314
f 46//315 44//315 157//315
f 159//316 46//316 157//316
f 48//317 46//317 159//317
f 161//318 48//318 159//318
f 50//319 48//319 161//319
f 163//320 50//320 161//320
f 52//321 50//321 163//321
f 165//322 52//322 163//322
f 54//323 52//323 165//323
f 167//324 54//324 165//324
f 56//325 54//325 167//325
f 169//326 56//326 167//326
f 58//327 56//327 169//327
f 171//328 58//328 169//328
f 60//329 58//329 171//329
f 173//330 60//330 171//330
f 62//331 60//331 173//331
f 175//332 62//332 173//332
f 64//333 62//333 175//333
f 177//334 64//334 175//334
f 66//335 64//335 177//335
f 179//336 66//336 177//336
f 68//337 66//337 179//337
f 181//338 68//338 179//338
f 70//339 68//339 181//339
f 183//340 70//340 181//340
f 72//341 70//341 183//341
f 185//342 72//342 183//342
f 74//343 72//343 185//343
f 187//344 74//344 185//344
f 101//345 99//345 212//345
f 214//346 101//346 212//346
f 100//347 101//347 214//347
f 213//348 100//348 214//348
f 98//349 100//349 213//349
f 211//350 98//350 213//350
f 96//351 98//351 211//351
f 209//352 96//352 211//352
f 94//353 96//353 209//353
f 207//354 94//354 209//354
f 92//355 94//355 207//355
f 205//356 92//356 207//356
f 90//357 92//357 205//357
f 203//358 90//358 205//358
f 88//359 90//359 203//359
f 201//360 88//360 203//360
f 86//361 88//361 201//361
f 199//362 86//362 201//362
f 84//363 86//363 199//363
f 197//364 84//364 199//364
f 82//365 84//365 197//365
f 195//366 82//366 197//366
f 80//367 82//367 195//367
f 193//368 80//368 195//368
f 78//369 80//369 193//369
f 191//370 78//370 193//370
f 77//371 78//371 191//371
f 190//372 77//372 191//372
f 79//373 77//373 190//373
f 192//374 79//374 190//374
f 81//375 79//375 192//375
f 194//376 81//376 192//376
f 83//377 81//377 194//377
f 196//378 83//378 194//378
f 85//379 83//379 196//379
f 198//380 85//380 196//380
f 87//381 85//381 198//381
f 200//382 87//382 198//382
f 89//383 87//383 200//383
f 202//384 89//384 200//384
f 91//385 89//385 202//385
f 204//386 91//386 202//386
f 93//387 91//387 204//387
f 206//388 93//388 204//388
f 95//389 93//389 206//389
f 208//390 95//390 206//390
f 97//391 95//391 208//391
f 210//392 97//392 208//392
f 99//393 97//393 210//393
f 212//394 99//394 210//394
f 27//395 25//395 138//395
f 140//396 27//396 138//396
f 26//397 27//397 140//397
f 139//398 26//398 140//398
f 24//399 26//399 139//399
f 137//400 24//400 139//400
f 22//401 24//401 137//401
f 135//402 22//402 137//402
f 20//403 22//403 135//403
f 133//404 20//404 135//404
f 18//405 20//405 133//405
f 131//406 18//406 133//406
f 16//407 18//407 131//407
f 129//408 16//408 131//408
f 14//409 16//409 129//409
f 127//410 14//410 129//410
f 12//411 14//411 127//411
f 125//412 12//412 127//412
f 10//413 12//413 125//413
f 123//414 10//414 125//414
f 8//415 10//415 123//415
f 121//416 8//416 123//416
f 6//417 8//417 121//417
f 119//418 6//418 121//418
f 4//419 6//419 119//419
f 117//420 4//420 119//420
f 3//421 4//421 117//421
f 116//422 3//422 117//422
f 5//423 3//423 116//423
f 118//424 5//424 116//424
f 7//425 5//425 118//425
f 120//426 7//426 118//426
f 9//427 7//427 120//427
f 122//428 9//428 120//428
f 11//429 9//429 122//429
f 124//430 11//430 122//430
f 13//431 11//431 124//431
f 126//432 13//432 124//432
f 15//433 13//433 126//433
f 128//434 15//434 126//434
f 17//435 15//435 128//435
f 130//436 17//436 128//436
f 19//437 17//437 130//437
f 132//438 19//438 130//438
f 21//439 19//439 132//439
f 134//440 21//440 132//440
f 23//441 21//441 134//441
f 136//442 23//442 134//442
f 25//443 23//443 136//443
f 138//444 25//444 136//444
