# Created by FreeCAD <https://www.freecad.org>
v -220.000000 20.616648 -178.864075
v -220.000000 20.616648 -175.864075
v -220.000000 50.616646 -178.864075
v -220.000000 50.616646 -175.864075
v -217.000000 20.616648 -172.864075
v -217.000000 50.616646 -172.864075
v -213.000000 24.616648 -168.864075
v -213.000000 46.616646 -168.864075
v -211.000000 24.616648 -168.864075
v -211.000000 46.616646 -168.864075
v -210.000000 20.616648 -177.364075
v -210.000000 20.616648 -172.864075
v -210.000000 20.641298 -176.893707
v -210.000000 20.714983 -176.428482
v -210.000000 20.836893 -175.973495
v -210.000000 21.005693 -175.533768
v -210.000000 21.219534 -175.114075
v -210.000000 21.476070 -174.719040
v -210.000000 21.772495 -174.352997
v -210.000000 22.105560 -174.019928
v -210.000000 22.471615 -173.723495
v -210.000000 22.866648 -173.466965
v -210.000000 23.286333 -173.253128
v -210.000000 23.616648 -169.864075
v -210.000000 23.726070 -173.084320
v -210.000000 24.181046 -172.962418
v -210.000000 24.646269 -172.888733
v -210.000000 25.116648 -172.864075
v -210.000000 46.116646 -172.864075
v -210.000000 46.587025 -172.888733
v -210.000000 47.052250 -172.962418
v -210.000000 47.507225 -173.084320
v -210.000000 47.616646 -169.864075
v -210.000000 47.946964 -173.253128
v -210.000000 48.366646 -173.466965
v -210.000000 48.761681 -173.723495
v -210.000000 49.127735 -174.019928
v -210.000000 49.460800 -174.352997
v -210.000000 49.757225 -174.719040
v -210.000000 50.013763 -175.114075
v -210.000000 50.227604 -175.533768
v -210.000000 50.396400 -175.973495
v -210.000000 50.518311 -176.428482
v -210.000000 50.591995 -176.893707
v -210.000000 50.616646 -177.364075
v -210.000000 50.616646 -172.864075
v -206.000000 20.616648 -177.364075
v -206.000000 20.616648 -169.864075
v -206.000000 20.641298 -176.893707
v -206.000000 20.714983 -176.428482
v -206.000000 20.836893 -175.973495
v -206.000000 21.005693 -175.533768
v -206.000000 21.219534 -175.114075
v -206.000000 21.476070 -174.719040
v -206.000000 21.772495 -174.352997
v -206.000000 22.105560 -174.019928
v -206.000000 22.471615 -173.723495
v -206.000000 22.866648 -173.466965
v -206.000000 23.286333 -173.253128
v -206.000000 23.726070 -173.084320
v -206.000000 24.181046 -172.962418
v -206.000000 24.646269 -172.888733
v -206.000000 25.116648 -172.864075
v -206.000000 46.116646 -172.864075
v -206.000000 46.587025 -172.888733
v -206.000000 47.052250 -172.962418
v -206.000000 47.507225 -173.084320
v -206.000000 47.946964 -173.253128
v -206.000000 48.366646 -173.466965
v -206.000000 48.761681 -173.723495
v -206.000000 49.127735 -174.019928
v -206.000000 49.460800 -174.352997
v -206.000000 49.757225 -174.719040
v -206.000000 50.013763 -175.114075
v -206.000000 50.227604 -175.533768
v -206.000000 50.396400 -175.973495
v -206.000000 50.518311 -176.428482
v -206.000000 50.591995 -176.893707
v -206.000000 50.616646 -177.364075
v -206.000000 50.616646 -169.864075
v -205.000000 20.616648 -168.864075
v -205.000000 50.616646 -168.864075
v -203.000000 21.366648 -168.864075
v -203.000000 22.366648 -178.864075
v -203.000000 48.866646 -178.864075
v -203.000000 49.866646 -168.864075
v -202.000000 20.616648 -182.114075
v -202.000000 20.616648 -178.864075
v -202.000000 21.366648 -182.114075
v -202.000000 22.366648 -181.114075
v -202.000000 22.366648 -178.864075
v -202.000000 22.366648 -177.864075
v -202.000000 22.366648 -169.864075
v -202.000000 48.866646 -181.114075
v -202.000000 48.866646 -178.864075
v -202.000000 48.866646 -177.864075
v -202.000000 48.866646 -169.864075
v -202.000000 49.866646 -182.114075
v -202.000000 50.616646 -182.114075
v -202.000000 50.616646 -178.864075
v -197.600006 21.866648 -181.614075
v -197.600006 21.866648 -169.364075
v -197.600006 49.366646 -181.614075
v -197.600006 49.366646 -169.364075
v -197.392899 21.366648 -182.114075
v -197.392899 21.366648 -168.864075
v -197.392899 49.866646 -182.114075
v -197.392899 49.866646 -168.864075
v -197.100006 22.366648 -181.114075
v -197.100006 22.366648 -169.864075
v -197.100006 48.866646 -181.114075
v -197.100006 48.866646 -169.864075
v -195.103546 24.363094 -181.614075
v -195.103546 24.363094 -169.364075
v -195.103546 46.870201 -181.614075
v -195.103546 46.870201 -169.364075
v -194.750000 24.009541 -182.114075
v -194.750000 24.009541 -168.864075
v -194.750000 47.223755 -182.114075
v -194.750000 47.223755 -168.864075
v -194.396454 24.363094 -181.614075
v -194.396454 24.363094 -169.364075
v -194.396454 46.870201 -181.614075
v -194.396454 46.870201 -169.364075
v -193.600006 20.616648 -182.114075
v -193.600006 20.616648 -168.864075
v -193.600006 22.859541 -182.114075
v -193.600006 22.859541 -168.864075
v -193.600006 48.373753 -182.114075
v -193.600006 48.373753 -168.864075
v -193.600006 50.616646 -182.114075
v -193.600006 50.616646 -168.864075
v -193.100006 23.066648 -181.614075
v -193.100006 23.066648 -169.364075
v -193.100006 48.166649 -181.614075
v -193.100006 48.166649 -169.364075
v -192.600006 20.616648 -181.114075
v -192.600006 20.616648 -169.864075
v -192.600006 22.566648 -181.114075
v -192.600006 22.566648 -169.864075
v -192.600006 48.666649 -181.114075
v -192.600006 48.666649 -169.864075
v -192.600006 50.616646 -181.114075
v -192.600006 50.616646 -169.864075
vn 0.707107 0.000000 -0.707107
vn 0.707107 0.000000 -0.707107
vn 1.000000 0.000000 0.000000
vn 1.000000 -0.000000 0.000000
vn 0.707107 0.000000 0.707107
vn 0.707107 0.000000 0.707107
vn 0.707107 0.000000 0.707107
vn 0.707107 0.000000 0.707107
vn 1.000000 0.000000 0.000000
vn 1.000000 0.000000 -0.000000
vn 1.000000 0.000000 -0.000000
vn 1.000000 0.000000 -0.000000
vn 1.000000 -0.000000 0.000000
vn 1.000000 0.000000 -0.000000
vn 1.000000 0.000000 -0.000000
vn 1.000000 0.000000 -0.000000
vn 1.000000 0.000000 -0.000000
vn 1.000000 0.000000 -0.000000
vn 1.000000 0.000000 -0.000000
vn 1.000000 0.000000 -0.000000
vn 1.000000 0.000000 -0.000000
vn 1.000000 0.000000 -0.000000
vn 1.000000 0.000000 -0.000000
vn 1.000000 0.000000 -0.000000
vn 1.000000 0.000000 -0.000000
vn 1.000000 0.000000 -0.000000
vn 1.000000 0.000000 0.000000
vn 1.000000 0.000000 0.000000
vn 1.000000 0.000000 -0.000000
vn 1.000000 0.000000 -0.000000
vn 1.000000 0.000000 0.000000
vn 1.000000 0.000000 -0.000000
vn 1.000000 0.000000 -0.000000
vn 1.000000 0.000000 0.000000
vn 1.000000 0.000000 -0.000000
vn 1.000000 0.000000 -0.000000
vn 1.000000 0.000000 0.000000
vn 1.000000 0.000000 -0.000000
vn 1.000000 0.000000 -0.000000
vn 1.000000 0.000000 0.000000
vn 1.000000 0.000000 -0.000000
vn 1.000000 0.000000 -0.000000
vn 0.000000 -0.707107 0.707107
vn 0.000000 -0.707107 0.707107
vn 0.000000 -0.707107 0.707107
vn -0.707107 0.000000 0.707107
vn -0.707107 0.000000 0.707107
vn 0.000000 1.000000 0.000000
vn 0.000000 1.000000 0.000000
vn 0.000000 1.000000 0.000000
vn 0.000000 1.000000 -0.000000
vn -0.000000 1.000000 0.000000
vn 0.000000 1.000000 0.000000
vn 0.000000 1.000000 0.000000
vn -0.000000 1.000000 0.000000
vn 0.000000 1.000000 -0.000000
vn 0.000000 1.000000 0.000000
vn 0.000000 1.000000 0.000000
vn 0.000000 1.000000 0.000000
vn 0.000000 -0.000000 1.000000
vn 0.000000 0.000000 1.000000
vn 0.000000 -0.000000 1.000000
vn 0.000000 0.000000 1.000000
vn 0.000000 0.000000 1.000000
vn 0.000000 0.000000 1.000000
vn 0.000000 0.000000 1.000000
vn 0.000000 0.000000 1.000000
vn 0.000000 -0.000000 1.000000
vn 0.000000 -0.000000 1.000000
vn -0.707107 0.000000 0.707107
vn -0.707107 0.000000 0.707107
vn -0.707107 0.000000 0.707107
vn -0.707107 0.000000 0.707107
vn 0.000000 -0.000000 1.000000
vn 0.000000 0.000000 1.000000
vn -0.000000 0.707107 0.707107
vn 0.000000 0.707107 0.707107
vn 0.000000 0.707107 0.707107
vn 0.707107 0.000000 -0.707107
vn 0.707107 0.000000 -0.707107
vn 0.707107 0.000000 -0.707107
vn 0.707107 0.707107 0.000000
vn 0.707107 0.707107 0.000000
vn 0.707106 0.707107 0.000000
vn 0.707106 0.707107 -0.000000
vn 0.499999 0.500000 -0.707107
vn 0.500004 0.500001 -0.707103
vn 0.000000 0.000000 -1.000000
vn 0.000000 0.000000 -1.000000
vn 0.000000 0.000000 -1.000000
vn -0.000000 0.000000 -1.000000
vn 0.707107 0.000000 0.707107
vn 0.707107 0.000000 0.707107
vn 0.707107 0.000000 0.707107
vn 0.499999 0.500000 0.707107
vn 0.500004 0.500001 0.707103
vn 1.000000 0.000000 0.000000
vn 1.000000 -0.000000 0.000000
vn 0.000000 0.707107 0.707107
vn 0.000000 0.707107 0.707107
vn 0.000000 0.707107 0.707107
vn 0.000000 0.707107 -0.707107
vn 0.000000 0.707107 -0.707107
vn 0.000000 0.707107 -0.707107
vn -1.000000 0.000000 0.000000
vn -1.000000 0.000000 0.000000
vn -1.000000 0.000000 0.000000
vn 0.000000 -0.707107 -0.707107
vn 0.000000 -0.707107 -0.707107
vn -0.000000 -0.707107 -0.707107
vn 0.707107 0.000000 -0.707107
vn 0.707107 0.000000 -0.707107
vn 0.707107 0.000000 -0.707107
vn 0.000000 0.000000 -1.000000
vn -0.000000 0.000000 -1.000000
vn 0.000000 0.000000 -1.000000
vn 0.000000 0.000000 -1.000000
vn 0.500001 -0.500001 -0.707105
vn 0.500003 -0.500002 -0.707103
vn 0.707107 -0.707107 0.000000
vn 0.707107 -0.707107 0.000000
vn 0.707107 -0.707107 0.000000
vn 0.707107 -0.707107 0.000000
vn 0.000000 -0.707107 0.707107
vn 0.000000 -0.707107 0.707107
vn 0.000000 -0.707107 0.707107
vn 0.000000 -1.000000 0.000000
vn 0.000000 -1.000000 0.000000
vn 0.000000 -1.000000 0.000000
vn 0.000000 -1.000000 0.000000
vn 0.000000 -1.000000 0.000000
vn 0.707107 -0.000000 0.707107
vn 0.707107 0.000000 0.707107
vn 0.707107 -0.000000 0.707107
vn 0.500001 -0.500001 0.707105
vn 0.500003 -0.500002 0.707103
vn 0.000000 0.816496 -0.577351
vn 0.000000 0.816496 0.577351
vn 0.000000 1.000000 0.000000
vn 0.000000 1.000000 0.000000
vn -0.500002 0.500003 0.707103
vn -0.499998 0.500001 0.707108
vn -0.499998 0.500001 -0.707108
vn -0.500002 0.500003 -0.707103
vn -0.707105 0.707109 0.000004
vn -0.707104 0.707109 0.000000
vn -0.707104 0.707109 0.000000
vn -0.707105 0.707109 -0.000004
vn 0.000000 -0.816496 -0.577351
vn 0.000000 -0.816496 0.577351
vn -0.499998 -0.500001 0.707108
vn -0.500002 -0.500003 0.707103
vn 0.000000 -1.000000 0.000000
vn 0.000000 -1.000000 0.000000
vn -0.500002 -0.500003 -0.707103
vn -0.499998 -0.500001 -0.707108
vn 1.000000 0.000000 0.000000
vn 1.000000 -0.000000 0.000000
vn 0.000000 -0.998630 0.052335
vn 0.000000 -0.998630 0.052335
vn 0.000000 -0.987688 0.156435
vn 0.000000 -0.987688 0.156435
vn 0.000000 -0.965927 0.258813
vn 0.000000 -0.965927 0.258813
vn 0.000000 -0.933577 0.358377
vn 0.000000 -0.933577 0.358377
vn 0.000000 -0.891010 0.453984
vn 0.000000 -0.891010 0.453984
vn 0.000000 -0.838673 0.544636
vn 0.000000 -0.838673 0.544636
vn 0.000000 -0.777137 0.629332
vn 0.000000 -0.777137 0.629332
vn 0.000000 -0.707111 0.707103
vn 0.000000 -0.707111 0.707103
vn 0.000000 -0.629330 0.777138
vn 0.000000 -0.629330 0.777138
vn 0.000000 -0.544629 0.838677
vn 0.000000 -0.544629 0.838677
vn 0.000000 -0.453984 0.891010
vn 0.000000 -0.453984 0.891010
vn 0.000000 -0.358384 0.933574
vn 0.000000 -0.358384 0.933574
vn 0.000000 -0.258804 0.965930
vn 0.000000 -0.258804 0.965930
vn 0.000000 -0.156436 0.987688
vn 0.000000 -0.156436 0.987688
vn 0.000000 -0.052350 0.998629
vn 0.000000 -0.052350 0.998629
vn 0.000000 0.000000 1.000000
vn 0.000000 0.000000 1.000000
vn 0.000000 0.998630 0.052335
vn -0.000000 0.998630 0.052335
vn 0.000000 0.987688 0.156435
vn -0.000000 0.987688 0.156435
vn 0.000000 0.965927 0.258813
vn -0.000000 0.965927 0.258813
vn 0.000000 0.933580 0.358370
vn -0.000000 0.933580 0.358370
vn 0.000000 0.891010 0.453984
vn -0.000000 0.891010 0.453984
vn 0.000000 0.838671 0.544639
vn -0.000000 0.838671 0.544639
vn 0.000000 0.777137 0.629332
vn -0.000000 0.777137 0.629332
vn 0.000000 0.707111 0.707103
vn -0.000000 0.707111 0.707103
vn 0.000000 0.629330 0.777138
vn -0.000000 0.629330 0.777138
vn 0.000000 0.544627 0.838678
vn -0.000000 0.544627 0.838678
vn 0.000000 0.453988 0.891008
vn -0.000000 0.453988 0.891008
vn 0.000000 0.358383 0.933575
vn -0.000000 0.358383 0.933575
vn 0.000000 0.258804 0.965930
vn -0.000000 0.258804 0.965930
vn 0.000000 0.156435 0.987688
vn -0.000000 0.156435 0.987688
vn 0.000000 0.052350 0.998629
vn -0.000000 0.052350 0.998629
vn -0.707105 -0.707109 0.000004
vn -0.707104 -0.707110 0.000000
vn -0.707104 -0.707109 0.000000
vn -0.707105 -0.707109 -0.000004
vn 0.000000 1.000000 0.000000
vn 0.000000 1.000000 -0.000000
vn -0.000000 1.000000 0.000000
vn 0.000000 1.000000 0.000000
vn 0.000000 1.000000 0.000000
vn -1.000000 0.000000 -0.000000
vn -1.000000 0.000000 0.000000
vn -1.000000 0.000000 0.000000
vn -1.000000 0.000000 0.000000
vn -1.000000 0.000000 0.000000
vn 0.000000 -1.000000 0.000000
vn 0.000000 -1.000000 0.000000
vn 0.000000 -1.000000 0.000000
vn 0.000000 -1.000000 0.000000
vn 0.000000 -1.000000 0.000000
vn 0.000000 -1.000000 0.000000
vn 0.000000 -1.000000 0.000000
vn 0.000000 -1.000000 -0.000000
vn -0.000000 -1.000000 -0.000000
vn 0.000000 -1.000000 0.000000
vn -0.000000 -1.000000 0.000000
vn 0.000000 -1.000000 -0.000000
vn 0.000000 0.000000 -1.000000
vn 0.000000 0.000000 -1.000000
vn 0.000000 0.000000 -1.000000
vn -0.000000 -0.000000 -1.000000
vn -0.000000 0.000000 -1.000000
vn 0.000000 0.000000 -1.000000
vn -1.000000 0.000000 0.000000
vn -1.000000 0.000000 0.000000
vn -1.000000 0.000000 0.000000
vn -1.000000 0.000000 -0.000000
vn -1.000000 0.000000 0.000000
vn -1.000000 0.000000 0.000000
vn -1.000000 0.000000 0.000000
vn -1.000000 0.000000 0.000000
vn -1.000000 0.000000 0.000000
vn -1.000000 0.000000 0.000000
vn -1.000000 0.000000 0.000000
vn -1.000000 0.000000 0.000000
vn -1.000000 0.000000 0.000000
vn -1.000000 0.000000 0.000000
vn -1.000000 0.000000 0.000000
vn -1.000000 0.000000 0.000000
vn -1.000000 0.000000 0.000000
vn -1.000000 0.000000 0.000000
vn -1.000000 0.000000 0.000000
vn -1.000000 0.000000 0.000000
vn -1.000000 0.000000 0.000000
vn -1.000000 0.000000 0.000000
vn -1.000000 0.000000 0.000000
vn -1.000000 0.000000 0.000000
vn -1.000000 0.000000 0.000000
vn -1.000000 0.000000 0.000000
vn -1.000000 0.000000 0.000000
vn -1.000000 0.000000 0.000000
vn -1.000000 0.000000 0.000000
vn -1.000000 0.000000 0.000000
vn -1.000000 0.000000 0.000000
vn -1.000000 0.000000 0.000000
f 96//1 92//1 84//1
f 85//2 96//2 84//2
f 92//3 96//3 97//3
f 93//4 92//4 97//4
f 83//5 93//5 97//5
f 86//6 83//6 97//6
f 10//7 9//7 24//7
f 33//8 10//8 24//8
f 33//9 24//9 28//9
f 29//10 33//10 28//10
f 30//11 33//11 29//11
f 27//12 28//12 24//12
f 12//13 27//13 24//13
f 26//14 27//14 12//14
f 25//15 26//15 12//15
f 23//16 25//16 12//16
f 22//17 23//17 12//17
f 21//18 22//18 12//18
f 20//19 21//19 12//19
f 19//20 20//20 12//20
f 18//21 19//21 12//21
f 17//22 18//22 12//22
f 16//23 17//23 12//23
f 15//24 16//24 12//24
f 14//25 15//25 12//25
f 13//26 14//26 12//26
f 11//27 13//27 12//27
f 46//28 33//28 30//28
f 31//29 46//29 30//29
f 32//30 46//30 31//30
f 46//31 32//31 34//31
f 35//32 46//32 34//32
f 36//33 46//33 35//33
f 46//34 36//34 37//34
f 38//35 46//35 37//35
f 39//36 46//36 38//36
f 46//37 39//37 40//37
f 41//38 46//38 40//38
f 42//39 46//39 41//39
f 46//40 42//40 43//40
f 44//41 46//41 43//41
f 45//42 46//42 44//42
f 24//43 9//43 7//43
f 5//44 24//44 7//44
f 12//45 24//45 5//45
f 81//46 82//46 80//46
f 48//47 81//47 80//47
f 80//48 82//48 132//48
f 144//49 80//49 132//49
f 79//50 80//50 144//50
f 100//51 79//51 144//51
f 45//52 79//52 100//52
f 3//53 45//53 100//53
f 4//54 45//54 3//54
f 100//55 144//55 143//55
f 131//56 100//56 143//56
f 99//57 100//57 131//57
f 45//58 4//58 6//58
f 46//59 45//59 6//59
f 86//60 108//60 82//60
f 81//61 86//61 82//61
f 83//62 86//62 81//62
f 106//63 83//63 81//63
f 126//64 106//64 81//64
f 118//65 106//65 126//65
f 128//66 118//66 126//66
f 132//67 82//67 108//67
f 120//68 132//68 108//68
f 130//69 132//69 120//69
f 5//70 7//70 8//70
f 6//71 5//71 8//71
f 4//72 5//72 6//72
f 5//73 4//73 2//73
f 9//74 10//74 8//74
f 7//75 9//75 8//75
f 8//76 10//76 33//76
f 6//77 8//77 33//77
f 46//78 6//78 33//78
f 125//79 127//79 133//79
f 139//80 125//80 133//80
f 137//81 125//81 139//81
f 140//82 139//82 133//82
f 134//83 140//83 133//83
f 122//84 134//84 133//84
f 121//85 122//85 133//85
f 121//86 133//86 127//86
f 117//87 121//87 127//87
f 105//88 117//88 127//88
f 125//89 105//89 127//89
f 87//90 105//90 125//90
f 105//91 87//91 89//91
f 126//92 138//92 140//92
f 134//93 126//93 140//93
f 128//94 126//94 134//94
f 128//95 134//95 122//95
f 118//96 128//96 122//96
f 137//97 139//97 140//97
f 138//98 137//98 140//98
f 102//99 110//99 93//99
f 83//100 102//100 93//100
f 106//101 102//101 83//101
f 101//102 105//102 89//102
f 90//103 101//103 89//103
f 109//104 101//104 90//104
f 88//105 91//105 90//105
f 89//106 88//106 90//106
f 87//107 88//107 89//107
f 103//108 111//108 94//108
f 98//109 103//109 94//109
f 107//110 103//110 98//110
f 135//111 129//111 131//111
f 141//112 135//112 131//112
f 143//113 141//113 131//113
f 107//114 98//114 99//114
f 131//115 107//115 99//115
f 129//116 107//116 131//116
f 107//117 129//117 119//117
f 129//118 135//118 123//118
f 119//119 129//119 123//119
f 135//120 141//120 142//120
f 136//121 135//121 142//121
f 124//122 135//122 136//122
f 135//123 124//123 123//123
f 104//124 108//124 86//124
f 97//125 104//125 86//125
f 112//126 104//126 97//126
f 95//127 94//127 111//127
f 96//128 95//128 111//128
f 85//129 95//129 96//129
f 96//130 111//130 112//130
f 97//131 96//131 112//131
f 142//132 144//132 132//132
f 136//133 142//133 132//133
f 130//134 136//134 132//134
f 124//135 136//135 130//135
f 120//136 124//136 130//136
f 121//137 117//137 113//137
f 122//138 114//138 118//138
f 121//139 113//139 114//139
f 122//140 121//140 114//140
f 106//141 118//141 114//141
f 102//142 106//142 114//142
f 105//143 101//143 113//143
f 117//144 105//144 113//144
f 110//145 102//145 114//145
f 109//146 110//146 114//146
f 113//147 109//147 114//147
f 101//148 109//148 113//148
f 115//149 119//149 123//149
f 116//150 124//150 120//150
f 108//151 104//151 116//151
f 120//152 108//152 116//152
f 115//153 123//153 124//153
f 116//154 115//154 124//154
f 107//155 119//155 115//155
f 103//156 107//156 115//156
f 141//157 143//157 144//157
f 142//158 141//158 144//158
f 13//159 11//159 47//159
f 49//160 13//160 47//160
f 14//161 13//161 49//161
f 50//162 14//162 49//162
f 15//163 14//163 50//163
f 51//164 15//164 50//164
f 16//165 15//165 51//165
f 52//166 16//166 51//166
f 17//167 16//167 52//167
f 53//168 17//168 52//168
f 18//169 17//169 53//169
f 54//170 18//170 53//170
f 19//171 18//171 54//171
f 55//172 19//172 54//172
f 20//173 19//173 55//173
f 56//174 20//174 55//174
f 21//175 20//175 56//175
f 57//176 21//176 56//176
f 22//177 21//177 57//177
f 58//178 22//178 57//178
f 23//179 22//179 58//179
f 59//180 23//180 58//180
f 25//181 23//181 59//181
f 60//182 25//182 59//182
f 26//183 25//183 60//183
f 61//184 26//184 60//184
f 27//185 26//185 61//185
f 62//186 27//186 61//186
f 28//187 27//187 62//187
f 63//188 28//188 62//188
f 29//189 28//189 63//189
f 64//190 29//190 63//190
f 78//191 79//191 45//191
f 44//192 78//192 45//192
f 77//193 78//193 44//193
f 43//194 77//194 44//194
f 76//195 77//195 43//195
f 42//196 76//196 43//196
f 75//197 76//197 42//197
f 41//198 75//198 42//198
f 74//199 75//199 41//199
f 40//200 74//200 41//200
f 73//201 74//201 40//201
f 39//202 73//202 40//202
f 72//203 73//203 39//203
f 38//204 72//204 39//204
f 71//205 72//205 38//205
f 37//206 71//206 38//206
f 70//207 71//207 37//207
f 36//208 70//208 37//208
f 69//209 70//209 36//209
f 35//210 69//210 36//210
f 68//211 69//211 35//211
f 34//212 68//212 35//212
f 67//213 68//213 34//213
f 32//214 67//214 34//214
f 66//215 67//215 32//215
f 31//216 66//216 32//216
f 65//217 66//217 31//217
f 30//218 65//218 31//218
f 64//219 65//219 30//219
f 29//220 64//220 30//220
f 116//221 104//221 112//221
f 111//222 116//222 112//222
f 115//223 116//223 111//223
f 103//224 115//224 111//224
f 92//225 93//225 110//225
f 109//226 92//226 110//226
f 91//227 92//227 109//227
f 90//228 91//228 109//228
f 92//229 91//229 84//229
f 100//230 99//230 98//230
f 94//231 100//231 98//231
f 95//232 100//232 94//232
f 2//233 4//233 3//233
f 1//234 2//234 3//234
f 138//235 126//235 81//235
f 48//236 138//236 81//236
f 47//237 138//237 48//237
f 88//238 138//238 47//238
f 11//239 88//239 47//239
f 1//240 88//240 11//240
f 2//241 1//241 11//241
f 5//242 2//242 11//242
f 12//243 5//243 11//243
f 88//244 87//244 125//244
f 137//245 88//245 125//245
f 138//246 88//246 137//246
f 84//247 91//247 88//247
f 1//248 84//248 88//248
f 3//249 84//249 1//249
f 85//250 84//250 3//250
f 100//251 85//251 3//251
f 95//252 85//252 100//252
f 48//253 80//253 64//253
f 63//254 48//254 64//254
f 62//255 48//255 63//255
f 80//256 79//256 78//256
f 77//257 80//257 78//257
f 76//258 80//258 77//258
f 80//259 76//259 75//259
f 74//260 80//260 75//260
f 73//261 80//261 74//261
f 80//262 73//262 72//262
f 71//263 80//263 72//263
f 70//264 80//264 71//264
f 80//265 70//265 69//265
f 68//266 80//266 69//266
f 67//267 80//267 68//267
f 80//268 67//268 66//268
f 65//269 80//269 66//269
f 64//270 80//270 65//270
f 48//271 62//271 61//271
f 60//272 48//272 61//272
f 59//273 48//273 60//273
f 48//274 59//274 58//274
f 57//275 48//275 58//275
f 56//276 48//276 57//276
f 48//277 56//277 55//277
f 54//278 48//278 55//278
f 53//279 48//279 54//279
f 48//280 53//280 52//280
f 51//281 48//281 52//281
f 50//282 48//282 51//282
f 48//283 50//283 49//283
f 47//284 48//284 49//284
