# Created by FreeCAD <https://www.freecad.org>
v -220.000000 20.616648 -188.864075
v -220.000000 20.616648 -185.864075
v -220.000000 50.616646 -188.864075
v -220.000000 50.616646 -185.864075
v -217.000000 20.616648 -191.864075
v -217.000000 50.616646 -191.864075
v -213.000000 24.616648 -195.864075
v -213.000000 46.616646 -195.864075
v -211.000000 24.616648 -195.864075
v -211.000000 46.616646 -195.864075
v -210.000000 20.616648 -191.864075
v -210.000000 20.616648 -187.364075
v -210.000000 20.641298 -187.834457
v -210.000000 20.714983 -188.299683
v -210.000000 20.836893 -188.754654
v -210.000000 21.005693 -189.194397
v -210.000000 21.219534 -189.614075
v -210.000000 21.476070 -190.009109
v -210.000000 21.772495 -190.375168
v -210.000000 22.105560 -190.708237
v -210.000000 22.471615 -191.004654
v -210.000000 22.866648 -191.261200
v -210.000000 23.286333 -191.475037
v -210.000000 23.616648 -194.864075
v -210.000000 23.726070 -191.643829
v -210.000000 24.181046 -191.765747
v -210.000000 24.646269 -191.839432
v -210.000000 25.116648 -191.864075
v -210.000000 46.116646 -191.864075
v -210.000000 46.587025 -191.839432
v -210.000000 47.052250 -191.765747
v -210.000000 47.507225 -191.643829
v -210.000000 47.616646 -194.864075
v -210.000000 47.946964 -191.475037
v -210.000000 48.366646 -191.261200
v -210.000000 48.761681 -191.004654
v -210.000000 49.127735 -190.708237
v -210.000000 49.460800 -190.375168
v -210.000000 49.757225 -190.009109
v -210.000000 50.013763 -189.614075
v -210.000000 50.227604 -189.194397
v -210.000000 50.396400 -188.754654
v -210.000000 50.518311 -188.299683
v -210.000000 50.591995 -187.834457
v -210.000000 50.616646 -191.864075
v -210.000000 50.616646 -187.364075
v -206.000000 20.616648 -194.864075
v -206.000000 20.616648 -187.364075
v -206.000000 20.641298 -187.834457
v -206.000000 20.714983 -188.299683
v -206.000000 20.836893 -188.754654
v -206.000000 21.005693 -189.194397
v -206.000000 21.219534 -189.614075
v -206.000000 21.476070 -190.009109
v -206.000000 21.772495 -190.375168
v -206.000000 22.105560 -190.708237
v -206.000000 22.471615 -191.004654
v -206.000000 22.866648 -191.261200
v -206.000000 23.286333 -191.475037
v -206.000000 23.726070 -191.643829
v -206.000000 24.181046 -191.765747
v -206.000000 24.646269 -191.839432
v -206.000000 25.116648 -191.864075
v -206.000000 46.116646 -191.864075
v -206.000000 46.587025 -191.839432
v -206.000000 47.052250 -191.765747
v -206.000000 47.507225 -191.643829
v -206.000000 47.946964 -191.475037
v -206.000000 48.366646 -191.261200
v -206.000000 48.761681 -191.004654
v -206.000000 49.127735 -190.708237
v -206.000000 49.460800 -190.375168
v -206.000000 49.757225 -190.009109
v -206.000000 50.013763 -189.614075
v -206.000000 50.227604 -189.194397
v -206.000000 50.396400 -188.754654
v -206.000000 50.518311 -188.299683
v -206.000000 50.591995 -187.834457
v -206.000000 50.616646 -194.864075
v -206.000000 50.616646 -187.364075
v -205.000000 20.616648 -195.864075
v -205.000000 50.616646 -195.864075
v -203.000000 21.366648 -195.864075
v -203.000000 22.366648 -185.864075
v -203.000000 48.866646 -185.864075
v -203.000000 49.866646 -195.864075
v -202.000000 20.616648 -185.864075
v -202.000000 20.616648 -182.614075
v -202.000000 21.366648 -182.614075
v -202.000000 22.366648 -194.864075
v -202.000000 22.366648 -186.864075
v -202.000000 22.366648 -185.864075
v -202.000000 22.366648 -183.614075
v -202.000000 48.866646 -194.864075
v -202.000000 48.866646 -186.864075
v -202.000000 48.866646 -185.864075
v -202.000000 48.866646 -183.614075
v -202.000000 49.866646 -182.614075
v -202.000000 50.616646 -185.864075
v -202.000000 50.616646 -182.614075
v -197.600006 21.866648 -195.364075
v -197.600006 21.866648 -183.114075
v -197.600006 49.366646 -195.364075
v -197.600006 49.366646 -183.114075
v -197.392899 21.366648 -195.864075
v -197.392899 21.366648 -182.614075
v -197.392899 49.866646 -195.864075
v -197.392899 49.866646 -182.614075
v -197.100006 22.366648 -194.864075
v -197.100006 22.366648 -183.614075
v -197.100006 48.866646 -194.864075
v -197.100006 48.866646 -183.614075
v -195.103546 24.363094 -195.364075
v -195.103546 24.363094 -183.114075
v -195.103546 46.870201 -195.364075
v -195.103546 46.870201 -183.114075
v -194.750000 24.009541 -195.864075
v -194.750000 24.009541 -182.614075
v -194.750000 47.223755 -195.864075
v -194.750000 47.223755 -182.614075
v -194.396454 24.363094 -195.364075
v -194.396454 24.363094 -183.114075
v -194.396454 46.870201 -195.364075
v -194.396454 46.870201 -183.114075
v -193.600006 20.616648 -195.864075
v -193.600006 20.616648 -182.614075
v -193.600006 22.859541 -195.864075
v -193.600006 22.859541 -182.614075
v -193.600006 48.373753 -195.864075
v -193.600006 48.373753 -182.614075
v -193.600006 50.616646 -195.864075
v -193.600006 50.616646 -182.614075
v -193.100006 23.066648 -195.364075
v -193.100006 23.066648 -183.114075
v -193.100006 48.166649 -195.364075
v -193.100006 48.166649 -183.114075
v -192.600006 20.616648 -194.864075
v -192.600006 20.616648 -183.614075
v -192.600006 22.566648 -194.864075
v -192.600006 22.566648 -183.614075
v -192.600006 48.666649 -194.864075
v -192.600006 48.666649 -183.614075
v -192.600006 50.616646 -194.864075
v -192.600006 50.616646 -183.614075
vn 0.707107 0.000000 -0.707107
vn 0.707107 0.000000 -0.707107
vn 1.000000 0.000000 0.000000
vn 1.000000 -0.000000 0.000000
vn 0.707107 -0.000000 0.707107
vn 0.707107 -0.000000 0.707107
vn 0.707107 0.000000 -0.707107
vn 0.707107 0.000000 -0.707107
vn 0.000000 -0.000000 -1.000000
vn 0.000000 0.000000 -1.000000
vn 0.000000 -0.707107 -0.707107
vn 0.000000 -0.707107 -0.707107
vn -0.000000 -0.707107 -0.707107
vn -0.707107 -0.000000 -0.707107
vn -0.707107 -0.000000 -0.707107
vn 0.000000 -0.000000 -1.000000
vn 0.000000 0.000000 -1.000000
vn -0.000000 -0.000000 -1.000000
vn 0.000000 0.000000 -1.000000
vn -0.000000 0.000000 -1.000000
vn 0.000000 0.000000 -1.000000
vn -0.000000 0.000000 -1.000000
vn 0.000000 0.000000 -1.000000
vn 0.000000 -0.000000 -1.000000
vn -0.000000 -0.000000 -1.000000
vn 0.000000 1.000000 0.000000
vn -0.000000 1.000000 0.000000
vn 0.000000 1.000000 0.000000
vn 0.000000 1.000000 0.000000
vn 0.000000 1.000000 0.000000
vn -0.000000 1.000000 0.000000
vn 0.000000 1.000000 0.000000
vn 0.000000 1.000000 -0.000000
vn 0.000000 1.000000 -0.000000
vn 0.000000 1.000000 0.000000
vn 0.000000 1.000000 0.000000
vn 0.000000 1.000000 -0.000000
vn 0.000000 -1.000000 0.000000
vn -0.000000 -1.000000 0.000000
vn 0.000000 -1.000000 0.000000
vn 0.000000 -1.000000 -0.000000
vn 0.000000 -1.000000 0.000000
vn 0.000000 -1.000000 0.000000
vn 0.000000 -1.000000 0.000000
vn 0.000000 -1.000000 0.000000
vn 0.000000 -1.000000 -0.000000
vn 0.000000 -1.000000 0.000000
vn 0.000000 -1.000000 0.000000
vn 0.000000 -1.000000 0.000000
vn 1.000000 0.000000 0.000000
vn 1.000000 0.000000 0.000000
vn 1.000000 -0.000000 0.000000
vn 1.000000 0.000000 0.000000
vn 1.000000 0.000000 0.000000
vn 1.000000 0.000000 -0.000000
vn 1.000000 -0.000000 0.000000
vn 1.000000 -0.000000 0.000000
vn 1.000000 0.000000 -0.000000
vn 1.000000 -0.000000 0.000000
vn 1.000000 -0.000000 0.000000
vn 1.000000 0.000000 0.000000
vn 1.000000 -0.000000 0.000000
vn 1.000000 -0.000000 0.000000
vn 1.000000 0.000000 0.000000
vn 1.000000 -0.000000 0.000000
vn 1.000000 -0.000000 0.000000
vn 1.000000 0.000000 0.000000
vn 1.000000 -0.000000 0.000000
vn 1.000000 -0.000000 0.000000
vn 1.000000 0.000000 0.000000
vn 1.000000 -0.000000 0.000000
vn 1.000000 0.000000 0.000000
vn 1.000000 0.000000 0.000000
vn 1.000000 0.000000 0.000000
vn 1.000000 0.000000 0.000000
vn 1.000000 0.000000 0.000000
vn 1.000000 0.000000 0.000000
vn 1.000000 0.000000 0.000000
vn 1.000000 0.000000 0.000000
vn 1.000000 0.000000 0.000000
vn 1.000000 0.000000 0.000000
vn 1.000000 0.000000 0.000000
vn 1.000000 0.000000 0.000000
vn 0.000000 0.707107 -0.707107
vn 0.000000 0.707107 -0.707107
vn 0.000000 0.707107 -0.707107
vn 0.707107 0.000000 0.707107
vn 0.707107 0.000000 0.707107
vn 0.707107 0.000000 0.707107
vn 0.000000 0.000000 1.000000
vn 0.000000 0.000000 1.000000
vn 0.000000 0.000000 1.000000
vn 0.000000 0.000000 1.000000
vn 0.499999 0.500000 0.707107
vn 0.500004 0.500001 0.707103
vn 0.707106 0.707107 -0.000000
vn 0.707107 0.707107 0.000000
vn 0.707107 0.707107 -0.000000
vn 0.707106 0.707107 0.000000
vn 0.000000 0.707107 0.707107
vn 0.000000 0.707107 0.707107
vn 0.000000 0.707107 0.707107
vn -1.000000 0.000000 0.000000
vn -1.000000 -0.000000 0.000000
vn -1.000000 0.000000 0.000000
vn 0.000000 1.000000 0.000000
vn 0.000000 1.000000 0.000000
vn -0.000000 1.000000 0.000000
vn -0.000000 1.000000 0.000000
vn 0.000000 1.000000 0.000000
vn 0.707107 0.000000 -0.707107
vn 0.707107 0.000000 -0.707107
vn 0.707107 0.000000 -0.707107
vn 0.499999 0.500000 -0.707107
vn 0.500004 0.500001 -0.707103
vn 0.000000 0.707107 -0.707107
vn 0.000000 0.707107 -0.707107
vn 0.000000 0.707107 -0.707107
vn 0.000000 -0.707107 0.707107
vn 0.000000 -0.707107 0.707107
vn 0.000000 -0.707107 0.707107
vn -1.000000 0.000000 0.000000
vn -1.000000 0.000000 -0.000000
vn -1.000000 -0.000000 -0.000000
vn 0.000000 0.000000 1.000000
vn 0.000000 0.000000 1.000000
vn 0.000000 -0.000000 1.000000
vn 0.000000 -0.000000 1.000000
vn 0.707107 0.000000 0.707107
vn 0.707107 0.000000 0.707107
vn 0.707107 0.000000 0.707107
vn 1.000000 0.000000 0.000000
vn 1.000000 0.000000 -0.000000
vn 0.707107 -0.707107 0.000000
vn 0.707107 -0.707107 0.000000
vn 0.707107 -0.707107 0.000000
vn 0.707107 -0.707107 0.000000
vn 0.000000 -0.707107 -0.707107
vn 0.000000 -0.707107 -0.707107
vn -0.000000 -0.707107 -0.707107
vn 0.707107 0.000000 -0.707107
vn 0.707107 0.000000 -0.707107
vn 0.707107 0.000000 -0.707107
vn 0.500001 -0.500001 -0.707105
vn 0.500003 -0.500002 -0.707103
vn 0.000000 0.816496 -0.577351
vn -0.000000 0.816496 0.577351
vn 0.000000 1.000000 0.000000
vn 0.000000 1.000000 0.000000
vn -0.500002 0.500003 0.707103
vn -0.499998 0.500001 0.707108
vn -0.499998 0.500001 -0.707108
vn -0.500002 0.500003 -0.707103
vn -0.707105 0.707109 0.000004
vn -0.707104 0.707109 0.000000
vn -0.707104 0.707109 0.000000
vn -0.707105 0.707109 -0.000004
vn 0.000000 -0.816496 0.577351
vn 0.000000 -0.816496 -0.577351
vn 0.000000 -1.000000 0.000000
vn 0.000000 -1.000000 0.000000
vn -0.500002 -0.500003 -0.707103
vn -0.499998 -0.500001 -0.707108
vn 0.500001 -0.500001 0.707105
vn 0.500003 -0.500002 0.707103
vn -0.499998 -0.500001 0.707108
vn -0.500002 -0.500003 0.707103
vn -0.707105 -0.707109 -0.000004
vn -0.707104 -0.707109 -0.000000
vn -0.707104 -0.707110 -0.000000
vn -0.707105 -0.707109 0.000004
vn 0.000000 -0.998630 -0.052334
vn 0.000000 -0.998630 -0.052334
vn 0.000000 -0.987688 -0.156435
vn 0.000000 -0.987688 -0.156435
vn 0.000000 -0.965925 -0.258821
vn 0.000000 -0.965925 -0.258821
vn 0.000000 -0.933581 -0.358366
vn 0.000000 -0.933581 -0.358366
vn 0.000000 -0.891003 -0.453997
vn 0.000000 -0.891003 -0.453997
vn 0.000000 -0.838673 -0.544636
vn 0.000000 -0.838673 -0.544636
vn 0.000000 -0.777149 -0.629316
vn 0.000000 -0.777149 -0.629316
vn 0.000000 -0.707111 -0.707103
vn 0.000000 -0.707111 -0.707103
vn 0.000000 -0.629310 -0.777154
vn 0.000000 -0.629310 -0.777154
vn 0.000000 -0.544652 -0.838662
vn 0.000000 -0.544652 -0.838662
vn 0.000000 -0.453984 -0.891010
vn 0.000000 -0.453984 -0.891010
vn 0.000000 -0.358356 -0.933585
vn 0.000000 -0.358356 -0.933585
vn 0.000000 -0.258834 -0.965922
vn 0.000000 -0.258834 -0.965922
vn 0.000000 -0.156436 -0.987688
vn 0.000000 -0.156436 -0.987688
vn 0.000000 -0.052318 -0.998630
vn 0.000000 -0.052318 -0.998630
vn 0.000000 -0.000000 -1.000000
vn 0.000000 0.000000 -1.000000
vn 0.000000 0.052318 -0.998630
vn 0.000000 0.052318 -0.998630
vn 0.000000 0.156435 -0.987688
vn 0.000000 0.156435 -0.987688
vn 0.000000 0.258834 -0.965922
vn 0.000000 0.258834 -0.965922
vn 0.000000 0.358354 -0.933586
vn 0.000000 0.358354 -0.933586
vn 0.000000 0.453988 -0.891008
vn 0.000000 0.453988 -0.891008
vn 0.000000 0.544650 -0.838663
vn 0.000000 0.544650 -0.838663
vn 0.000000 0.629310 -0.777154
vn 0.000000 0.629310 -0.777154
vn 0.000000 0.707111 -0.707103
vn 0.000000 0.707111 -0.707103
vn 0.000000 0.777149 -0.629316
vn 0.000000 0.777149 -0.629316
vn 0.000000 0.838671 -0.544639
vn 0.000000 0.838671 -0.544639
vn 0.000000 0.891003 -0.453997
vn 0.000000 0.891003 -0.453997
vn 0.000000 0.933584 -0.358359
vn 0.000000 0.933584 -0.358359
vn 0.000000 0.965925 -0.258821
vn 0.000000 0.965925 -0.258821
vn 0.000000 0.987688 -0.156435
vn 0.000000 0.987688 -0.156435
vn 0.000000 0.998630 -0.052334
vn 0.000000 0.998630 -0.052334
vn -0.000000 -1.000000 0.000000
vn 0.000000 -1.000000 0.000000
vn 0.000000 -1.000000 0.000000
vn 0.000000 -1.000000 0.000000
vn 0.000000 -1.000000 0.000000
vn 1.000000 0.000000 0.000000
vn 1.000000 0.000000 -0.000000
vn -0.707107 -0.000000 -0.707107
vn -0.707107 -0.000000 -0.707107
vn -0.707107 0.000000 -0.707107
vn -0.707107 0.000000 -0.707107
vn -1.000000 0.000000 0.000000
vn -1.000000 0.000000 0.000000
vn -1.000000 0.000000 0.000000
vn -1.000000 0.000000 -0.000000
vn -1.000000 0.000000 -0.000000
vn -1.000000 0.000000 0.000000
vn -1.000000 -0.000000 0.000000
vn -1.000000 -0.000000 0.000000
vn -1.000000 0.000000 0.000000
vn -1.000000 -0.000000 0.000000
vn -1.000000 -0.000000 0.000000
vn -1.000000 0.000000 0.000000
vn -1.000000 -0.000000 0.000000
vn -1.000000 -0.000000 0.000000
vn -1.000000 0.000000 0.000000
vn -1.000000 -0.000000 0.000000
vn -1.000000 -0.000000 0.000000
vn -1.000000 0.000000 0.000000
vn -1.000000 -0.000000 0.000000
vn -1.000000 -0.000000 0.000000
vn -1.000000 0.000000 0.000000
vn -1.000000 0.000000 0.000000
vn -1.000000 0.000000 -0.000000
vn -1.000000 0.000000 -0.000000
vn -1.000000 0.000000 0.000000
vn -1.000000 0.000000 -0.000000
vn -1.000000 0.000000 -0.000000
vn -1.000000 0.000000 0.000000
vn -1.000000 0.000000 -0.000000
vn -1.000000 0.000000 -0.000000
vn -1.000000 0.000000 0.000000
vn -1.000000 0.000000 -0.000000
vn -1.000000 0.000000 -0.000000
vn -1.000000 0.000000 0.000000
vn 0.000000 0.000000 1.000000
vn -0.000000 0.000000 1.000000
vn 0.000000 0.000000 1.000000
vn 0.000000 -0.000000 1.000000
vn 0.000000 0.000000 1.000000
vn 0.000000 0.000000 1.000000
f 83//1 86//1 94//1
f 90//2 83//2 94//2
f 90//3 94//3 95//3
f 91//4 90//4 95//4
f 91//5 95//5 85//5
f 84//6 91//6 85//6
f 24//7 9//7 10//7
f 33//8 24//8 10//8
f 10//9 9//9 7//9
f 8//10 10//10 7//10
f 7//11 9//11 24//11
f 5//12 7//12 24//12
f 11//13 5//13 24//13
f 82//14 81//14 47//14
f 79//15 82//15 47//15
f 83//16 105//16 81//16
f 82//17 83//17 81//17
f 86//18 83//18 82//18
f 107//19 86//19 82//19
f 131//20 107//20 82//20
f 119//21 107//21 131//21
f 129//22 119//22 131//22
f 125//23 81//23 105//23
f 117//24 125//24 105//24
f 127//25 125//25 117//25
f 143//26 131//26 82//26
f 79//27 143//27 82//27
f 80//28 143//28 79//28
f 99//29 143//29 80//29
f 46//30 99//30 80//30
f 4//31 99//31 46//31
f 3//32 4//32 46//32
f 6//33 3//33 46//33
f 45//34 6//34 46//34
f 99//35 100//35 132//35
f 144//36 99//36 132//36
f 143//37 99//37 144//37
f 47//38 81//38 125//38
f 137//39 47//39 125//39
f 48//40 47//40 137//40
f 87//41 48//41 137//41
f 12//42 48//42 87//42
f 2//43 12//43 87//43
f 1//44 12//44 2//44
f 87//45 137//45 138//45
f 126//46 87//46 138//46
f 88//47 87//47 126//47
f 12//48 1//48 5//48
f 11//49 12//49 5//49
f 24//50 33//50 28//50
f 27//51 24//51 28//51
f 11//52 24//52 27//52
f 26//53 11//53 27//53
f 25//54 11//54 26//54
f 33//55 45//55 30//55
f 29//56 33//56 30//56
f 28//57 33//57 29//57
f 45//58 46//58 44//58
f 43//59 45//59 44//59
f 42//60 45//60 43//60
f 45//61 42//61 41//61
f 40//62 45//62 41//62
f 39//63 45//63 40//63
f 45//64 39//64 38//64
f 37//65 45//65 38//65
f 36//66 45//66 37//66
f 45//67 36//67 35//67
f 34//68 45//68 35//68
f 32//69 45//69 34//69
f 45//70 32//70 31//70
f 30//71 45//71 31//71
f 11//72 25//72 23//72
f 22//73 11//73 23//73
f 21//74 11//74 22//74
f 11//75 21//75 20//75
f 19//76 11//76 20//76
f 18//77 11//77 19//77
f 11//78 18//78 17//78
f 16//79 11//79 17//79
f 15//80 11//80 16//80
f 11//81 15//81 14//81
f 13//82 11//82 14//82
f 12//83 11//83 13//83
f 33//84 10//84 8//84
f 6//85 33//85 8//85
f 45//86 33//86 6//86
f 126//87 138//87 140//87
f 134//88 126//88 140//88
f 128//89 126//89 134//89
f 106//90 88//90 126//90
f 128//91 106//91 126//91
f 118//92 106//92 128//92
f 88//93 106//93 89//93
f 128//94 134//94 122//94
f 118//95 128//95 122//95
f 133//96 122//96 134//96
f 140//97 133//97 134//97
f 139//98 133//98 140//98
f 122//99 133//99 121//99
f 102//100 110//100 93//100
f 89//101 102//101 93//101
f 106//102 102//102 89//102
f 87//103 88//103 89//103
f 93//104 87//104 89//104
f 92//105 87//105 93//105
f 92//106 93//106 110//106
f 91//107 92//107 110//107
f 84//108 92//108 91//108
f 91//109 110//109 109//109
f 90//110 91//110 109//110
f 139//111 137//111 125//111
f 133//112 139//112 125//112
f 127//113 133//113 125//113
f 121//114 133//114 127//114
f 117//115 121//115 127//115
f 101//116 105//116 83//116
f 90//117 101//117 83//117
f 109//118 101//118 90//118
f 104//119 108//119 98//119
f 97//120 104//120 98//120
f 112//121 104//121 97//121
f 99//122 96//122 97//122
f 98//123 99//123 97//123
f 100//124 99//124 98//124
f 100//125 98//125 108//125
f 132//126 100//126 108//126
f 130//127 132//127 108//127
f 120//128 130//128 108//128
f 132//129 130//129 136//129
f 142//130 132//130 136//130
f 144//131 132//131 142//131
f 144//132 142//132 141//132
f 143//133 144//133 141//133
f 135//134 141//134 142//134
f 136//135 135//135 142//135
f 124//136 135//136 136//136
f 135//137 124//137 123//137
f 103//138 111//138 94//138
f 86//139 103//139 94//139
f 107//140 103//140 86//140
f 131//141 143//141 141//141
f 135//142 131//142 141//142
f 129//143 131//143 135//143
f 129//144 135//144 123//144
f 119//145 129//145 123//145
f 121//146 117//146 113//146
f 114//147 118//147 122//147
f 121//148 113//148 114//148
f 122//149 121//149 114//149
f 106//150 118//150 114//150
f 102//151 106//151 114//151
f 105//152 101//152 113//152
f 117//153 105//153 113//153
f 110//154 102//154 114//154
f 109//155 110//155 114//155
f 113//156 109//156 114//156
f 101//157 109//157 113//157
f 124//158 120//158 116//158
f 115//159 119//159 123//159
f 115//160 123//160 124//160
f 116//161 115//161 124//161
f 107//162 119//162 115//162
f 103//163 107//163 115//163
f 124//164 136//164 130//164
f 120//165 124//165 130//165
f 108//166 104//166 116//166
f 120//167 108//167 116//167
f 111//168 103//168 115//168
f 116//169 111//169 115//169
f 112//170 111//170 116//170
f 104//171 112//171 116//171
f 49//172 48//172 12//172
f 13//173 49//173 12//173
f 50//174 49//174 13//174
f 14//175 50//175 13//175
f 51//176 50//176 14//176
f 15//177 51//177 14//177
f 52//178 51//178 15//178
f 16//179 52//179 15//179
f 53//180 52//180 16//180
f 17//181 53//181 16//181
f 54//182 53//182 17//182
f 18//183 54//183 17//183
f 55//184 54//184 18//184
f 19//185 55//185 18//185
f 56//186 55//186 19//186
f 20//187 56//187 19//187
f 57//188 56//188 20//188
f 21//189 57//189 20//189
f 58//190 57//190 21//190
f 22//191 58//191 21//191
f 59//192 58//192 22//192
f 23//193 59//193 22//193
f 60//194 59//194 23//194
f 25//195 60//195 23//195
f 61//196 60//196 25//196
f 26//197 61//197 25//197
f 62//198 61//198 26//198
f 27//199 62//199 26//199
f 63//200 62//200 27//200
f 28//201 63//201 27//201
f 64//202 63//202 28//202
f 29//203 64//203 28//203
f 65//204 64//204 29//204
f 30//205 65//205 29//205
f 66//206 65//206 30//206
f 31//207 66//207 30//207
f 67//208 66//208 31//208
f 32//209 67//209 31//209
f 68//210 67//210 32//210
f 34//211 68//211 32//211
f 69//212 68//212 34//212
f 35//213 69//213 34//213
f 70//214 69//214 35//214
f 36//215 70//215 35//215
f 71//216 70//216 36//216
f 37//217 71//217 36//217
f 72//218 71//218 37//218
f 38//219 72//219 37//219
f 73//220 72//220 38//220
f 39//221 73//221 38//221
f 74//222 73//222 39//222
f 40//223 74//223 39//223
f 75//224 74//224 40//224
f 41//225 75//225 40//225
f 76//226 75//226 41//226
f 42//227 76//227 41//227
f 77//228 76//228 42//228
f 43//229 77//229 42//229
f 78//230 77//230 43//230
f 44//231 78//231 43//231
f 80//232 78//232 44//232
f 46//233 80//233 44//233
f 112//234 97//234 96//234
f 95//235 112//235 96//235
f 111//236 112//236 95//236
f 94//237 111//237 95//237
f 95//238 96//238 85//238
f 140//239 138//239 137//239
f 139//240 140//240 137//240
f 8//241 7//241 5//241
f 6//242 8//242 5//242
f 3//243 6//243 5//243
f 1//244 3//244 5//244
f 2//245 4//245 3//245
f 1//246 2//246 3//246
f 79//247 47//247 64//247
f 65//248 79//248 64//248
f 66//249 79//249 65//249
f 47//250 48//250 49//250
f 50//251 47//251 49//251
f 51//252 47//252 50//252
f 47//253 51//253 52//253
f 53//254 47//254 52//254
f 54//255 47//255 53//255
f 47//256 54//256 55//256
f 56//257 47//257 55//257
f 57//258 47//258 56//258
f 47//259 57//259 58//259
f 59//260 47//260 58//260
f 60//261 47//261 59//261
f 47//262 60//262 61//262
f 62//263 47//263 61//263
f 63//264 47//264 62//264
f 47//265 63//265 64//265
f 79//266 66//266 67//266
f 68//267 79//267 67//267
f 69//268 79//268 68//268
f 79//269 69//269 70//269
f 71//270 79//270 70//270
f 72//271 79//271 71//271
f 79//272 72//272 73//272
f 74//273 79//273 73//273
f 75//274 79//274 74//274
f 79//275 75//275 76//275
f 77//276 79//276 76//276
f 78//277 79//277 77//277
f 79//278 78//278 80//278
f 85//279 96//279 99//279
f 4//280 85//280 99//280
f 2//281 85//281 4//281
f 84//282 85//282 2//282
f 87//283 84//283 2//283
f 92//284 84//284 87//284
