# Created by FreeCAD <https://www.freecad.org>
v -229.581284 -76.000000 -151.793152
v -229.581284 -73.000000 -151.793152
v -229.471695 -72.832848 -151.665955
v -229.345108 -72.659294 -151.542969
v -229.206223 -72.485580 -151.428513
v -229.059769 -72.317963 -151.326889
v -228.908966 -72.161133 -151.241592
v -228.878403 -76.000000 -150.910645
v -228.878403 -73.000000 -150.910645
v -228.868652 -72.776070 -150.918579
v -228.839539 -72.554955 -150.942322
v -228.791397 -72.339439 -150.981552
v -228.741058 -72.002907 -151.166718
v -228.724869 -72.132233 -151.035767
v -228.640778 -71.935936 -151.104309
v -228.558258 -71.845108 -151.102921
v -228.368393 -71.695175 -151.053802
v -228.273239 -71.625488 -151.035858
v -228.178604 -71.560112 -151.022842
v -228.155792 -76.000000 -150.044205
v -228.155792 -73.000000 -150.044205
v -228.146225 -72.776070 -150.052368
v -228.117645 -72.554955 -150.076752
v -228.079361 -71.495781 -151.014374
v -228.070419 -72.339439 -150.117065
v -228.005127 -72.132233 -150.172775
v -227.975327 -71.432396 -151.010468
v -227.922592 -71.935936 -150.243195
v -227.823868 -71.753021 -150.327438
v -227.758179 -71.312050 -151.016983
v -227.710190 -71.585785 -150.424454
v -227.647720 -71.256897 -151.027725
v -227.582977 -71.436340 -150.533005
v -227.537796 -71.206291 -151.043671
v -227.443832 -71.306549 -150.651733
v -227.429718 -71.161148 -151.064987
v -227.413803 -76.000000 -149.194305
v -227.413803 -73.000000 -149.194305
v -227.404434 -72.776070 -149.202682
v -227.376404 -72.554955 -149.227707
v -227.330093 -72.339439 -149.269073
v -227.324142 -71.122131 -151.092056
v -227.294510 -71.198059 -150.779160
v -227.266083 -72.132233 -149.326233
v -227.215576 -71.087715 -151.126877
v -227.185165 -71.935936 -149.398499
v -227.136887 -71.112236 -150.913666
v -227.104446 -71.057999 -151.169281
v -227.088364 -71.753021 -149.484955
v -226.993134 -71.033669 -151.218430
v -226.976898 -71.585785 -149.584503
v -226.972946 -71.050140 -151.053558
v -226.884003 -71.015427 -151.273483
v -226.852173 -71.436340 -149.695908
v -226.804749 -71.012573 -151.197083
v -226.779434 -71.003975 -151.333633
v -226.715744 -71.306549 -149.817749
v -226.681778 -71.000000 -151.398041
v -226.652847 -76.000000 -148.361359
v -226.652847 -73.000000 -148.361359
v -226.643661 -72.776070 -148.369949
v -226.616211 -72.554955 -148.395599
v -226.570847 -72.339439 -148.437988
v -226.569336 -71.198059 -149.948502
v -226.508133 -72.132233 -148.496597
v -226.428864 -71.935936 -148.570663
v -226.414780 -71.112236 -150.086533
v -226.334045 -71.753021 -148.659271
v -226.254044 -71.050140 -150.230087
v -226.224854 -71.585785 -148.761322
v -226.102661 -71.436340 -148.875504
v -226.089127 -71.012573 -150.377365
v -225.969025 -71.306549 -149.000397
v -225.956848 -71.000000 -150.565475
v -225.873276 -76.000000 -147.545792
v -225.873276 -73.000000 -147.545792
v -225.864838 -72.776070 -147.555145
v -225.838516 -72.554955 -147.581955
v -225.825607 -71.198059 -149.134415
v -225.794647 -72.339439 -147.625916
v -225.733826 -72.132233 -147.686462
v -225.674210 -71.112236 -149.275894
v -225.656784 -71.935936 -147.762863
v -225.564514 -71.753021 -147.854126
v -225.516739 -71.050140 -149.423050
v -225.458176 -71.585785 -147.959152
v -225.355194 -71.012573 -149.574005
v -225.339111 -71.436340 -148.076599
v -225.212952 -71.000000 -149.749786
v -225.208847 -71.306549 -148.205002
v -225.075516 -76.000000 -146.748032
v -225.075516 -73.000000 -146.748032
v -225.069000 -71.198059 -148.342743
v -225.066162 -72.776070 -146.756470
v -225.039352 -72.554955 -146.782791
v -224.995392 -72.339439 -146.826660
v -224.934845 -72.132233 -146.887482
v -224.921341 -71.112236 -148.488129
v -224.858444 -71.935936 -146.964523
v -224.767731 -71.050140 -148.639297
v -224.767181 -71.753021 -147.056793
v -224.662155 -71.585785 -147.163132
v -224.610123 -71.012573 -148.794373
v -224.544708 -71.436340 -147.282196
v -224.450500 -71.000000 -148.951431
v -224.416306 -71.306549 -147.412460
v -224.278564 -71.198059 -147.552307
v -224.259949 -76.000000 -145.968460
v -224.259949 -73.000000 -145.968460
v -224.251358 -72.776070 -145.977646
v -224.225708 -72.554955 -146.005096
v -224.183319 -72.339439 -146.050461
v -224.133179 -71.112236 -147.699966
v -224.124710 -72.132233 -146.113174
v -224.050644 -71.935936 -146.192444
v -223.982010 -71.050140 -147.853577
v -223.962036 -71.753021 -146.287262
v -223.859985 -71.585785 -146.396454
v -223.826935 -71.012573 -148.011185
v -223.745804 -71.436340 -146.518646
v -223.669876 -71.000000 -148.170807
v -223.620911 -71.306549 -146.652283
v -223.554352 -76.000000 -152.066956
v -223.554352 -72.250000 -152.066956
v -223.541550 -76.000000 -152.343765
v -223.541550 -76.000000 -151.790146
v -223.541550 -72.250000 -152.343765
v -223.541550 -72.250000 -151.790146
v -223.503265 -76.000000 -152.618210
v -223.503265 -76.000000 -151.515701
v -223.503265 -72.250000 -152.618210
v -223.503265 -72.250000 -151.515701
v -223.486893 -71.198059 -146.795700
v -223.447540 -76.000000 -156.144882
v -223.447540 -73.000000 -156.144882
v -223.439819 -76.000000 -152.887939
v -223.439819 -76.000000 -151.245972
v -223.439819 -72.250000 -152.887939
v -223.439819 -72.250000 -151.245972
v -223.427002 -76.000000 -145.207504
v -223.427002 -73.000000 -145.207504
v -223.418625 -72.776070 -145.216873
v -223.393600 -72.554955 -145.244904
v -223.352234 -72.339439 -145.291214
v -223.351761 -76.000000 -153.150681
v -223.351761 -76.000000 -150.983231
v -223.351761 -72.250000 -153.150681
v -223.351761 -72.250000 -150.983231
v -223.345413 -71.112236 -146.947098
v -223.295074 -72.132233 -145.355225
v -223.239838 -76.000000 -153.404175
v -223.239838 -76.000000 -150.729736
v -223.239838 -72.250000 -153.404175
v -223.239838 -72.250000 -150.729736
v -223.222809 -71.935936 -145.436142
v -223.206467 -72.991608 -156.305618
v -223.198257 -71.050140 -147.104568
v -223.147018 -76.000000 -156.342239
v -223.136353 -71.753021 -145.532944
v -223.104996 -76.000000 -153.646255
v -223.104996 -76.000000 -150.487656
v -223.104996 -72.250000 -153.646255
v -223.104996 -72.250000 -150.487656
v -223.047302 -71.012573 -147.266113
v -223.036804 -71.585785 -145.644409
v -222.956497 -72.966446 -156.452118
v -222.948395 -76.000000 -153.874863
v -222.948395 -76.000000 -150.259048
v -222.948395 -72.250000 -153.874863
v -222.948395 -72.250000 -150.259048
v -222.925400 -71.436340 -145.769135
v -222.871521 -71.000000 -147.408356
v -222.833099 -76.000000 -156.517502
v -222.803558 -71.306549 -145.905563
v -222.771378 -76.000000 -154.088043
v -222.771378 -76.000000 -150.045868
v -222.771378 -72.250000 -154.088043
v -222.771378 -72.250000 -150.045868
v -222.698456 -72.924614 -156.583908
v -222.672806 -71.198059 -146.051971
v -222.577103 -76.000000 -144.465515
v -222.577103 -73.000000 -144.465515
v -222.575439 -76.000000 -154.283981
v -222.575439 -76.000000 -149.849930
v -222.575439 -72.250000 -154.283981
v -222.575439 -72.250000 -149.849930
v -222.568939 -72.776070 -144.475082
v -222.544556 -72.554955 -144.503662
v -222.534775 -71.112236 -146.206528
v -222.507401 -76.000000 -156.669739
v -222.504242 -72.339439 -144.550888
v -222.448532 -72.132233 -144.616180
v -222.433228 -72.866241 -156.700516
v -222.391220 -71.050140 -146.367264
v -222.378113 -71.935936 -144.698715
v -222.362259 -76.000000 -154.461014
v -222.362259 -76.000000 -149.672913
v -222.362259 -72.250000 -154.461014
v -222.362259 -72.250000 -149.672913
v -222.293869 -71.753021 -144.797440
v -222.243942 -71.012573 -146.532181
v -222.204346 -72.250000 -152.066956
v -222.204346 -71.000000 -152.066956
v -222.196854 -71.585785 -144.911118
v -222.191849 -72.250000 -152.269730
v -222.191849 -72.250000 -151.864197
v -222.191849 -71.000000 -152.269730
v -222.191849 -71.000000 -151.864197
v -222.171600 -76.000000 -156.798187
v -222.161682 -72.791534 -156.801559
v -222.154510 -72.250000 -152.469421
v -222.154510 -72.250000 -151.664505
v -222.154510 -71.000000 -152.469421
v -222.154510 -71.000000 -151.664505
v -222.133652 -76.000000 -154.617615
v -222.133652 -76.000000 -149.516312
v -222.133652 -72.250000 -154.617615
v -222.133652 -72.250000 -149.516312
v -222.092926 -72.250000 -152.663010
v -222.092926 -72.250000 -151.470901
v -222.092926 -71.000000 -152.663010
v -222.092926 -71.000000 -151.470901
v -222.088303 -71.436340 -145.038330
v -222.055832 -71.000000 -146.664459
v -222.008026 -72.250000 -152.847565
v -222.008026 -72.250000 -151.286346
v -222.008026 -71.000000 -152.847565
v -222.008026 -71.000000 -151.286346
v -221.969574 -71.306549 -145.177475
v -221.901077 -72.250000 -153.020279
v -221.901077 -72.250000 -151.113632
v -221.901077 -71.000000 -153.020279
v -221.901077 -71.000000 -151.113632
v -221.891571 -76.000000 -154.752441
v -221.891571 -76.000000 -149.381470
v -221.891571 -72.250000 -154.752441
v -221.891571 -72.250000 -149.381470
v -221.884735 -72.700737 -156.886719
v -221.842148 -71.198059 -145.326797
v -221.827438 -76.000000 -156.902161
v -221.773712 -72.250000 -153.178558
v -221.773712 -72.250000 -150.955353
v -221.773712 -71.000000 -153.178558
v -221.773712 -71.000000 -150.955353
v -221.710663 -76.000000 -143.742905
v -221.710663 -73.000000 -143.742905
v -221.707642 -71.112236 -145.484421
v -221.702728 -72.776070 -143.752655
v -221.678986 -72.554955 -143.781769
v -221.639755 -72.339439 -143.829910
v -221.638077 -76.000000 -154.864380
v -221.638077 -76.000000 -149.269547
v -221.638077 -72.250000 -154.864380
v -221.638077 -72.250000 -149.269547
v -221.627869 -72.250000 -153.319977
v -221.627869 -72.250000 -150.813934
v -221.627869 -71.000000 -153.319977
v -221.627869 -71.000000 -150.813934
v -221.611877 -71.432495 -144.644348
v -221.610962 -71.372162 -144.749908
v -221.604980 -71.313843 -144.859100
v -221.603317 -72.594147 -156.955688
v -221.598740 -71.557312 -144.447144
v -221.593872 -71.258575 -144.970291
v -221.585541 -72.132233 -143.896439
v -221.577530 -71.207382 -145.081802
v -221.567749 -71.050140 -145.648361
v -221.566193 -71.697060 -144.251511
v -221.555862 -71.161301 -145.191971
v -221.528793 -71.121376 -145.299133
v -221.517014 -71.848305 -144.059448
v -221.516998 -71.935936 -143.980530
v -221.494980 -71.087311 -145.405640
v -221.476700 -76.000000 -156.981155
v -221.465759 -72.250000 -153.442398
v -221.465759 -72.250000 -150.691513
v -221.465759 -71.000000 -153.442398
v -221.465759 -71.000000 -150.691513
v -221.454269 -72.004410 -143.878098
v -221.452957 -71.057823 -145.515839
v -221.424225 -71.012573 -145.816559
v -221.403732 -71.033623 -145.627060
v -221.381042 -72.158768 -143.714554
v -221.375336 -76.000000 -154.952438
v -221.375336 -76.000000 -149.181488
v -221.375336 -72.250000 -154.952438
v -221.375336 -72.250000 -149.181488
v -221.348328 -71.015434 -145.736572
v -221.318390 -72.472137 -157.008240
v -221.294098 -72.317825 -143.562210
v -221.289825 -72.250000 -153.543976
v -221.289825 -72.250000 -150.589935
v -221.289825 -71.000000 -153.543976
v -221.289825 -71.000000 -150.589935
v -221.287827 -71.003983 -145.841644
v -221.223267 -71.000000 -145.939529
v -221.191666 -72.486847 -143.414505
v -221.121185 -76.000000 -157.034729
v -221.105606 -76.000000 -155.015869
v -221.105606 -76.000000 -149.118042
v -221.105606 -72.250000 -155.015869
v -221.105606 -72.250000 -149.118042
v -221.102737 -72.250000 -153.623169
v -221.102737 -72.250000 -150.510757
v -221.102737 -71.000000 -153.623169
v -221.102737 -71.000000 -150.510757
v -221.077408 -72.660461 -143.275513
v -221.030884 -72.335106 -157.044189
v -220.955002 -72.833298 -143.149323
v -220.907333 -72.250000 -153.678757
v -220.907333 -72.250000 -150.455154
v -220.907333 -71.000000 -153.678757
v -220.907333 -71.000000 -150.455154
v -220.831161 -76.000000 -155.054153
v -220.831161 -76.000000 -149.079758
v -220.831161 -72.250000 -155.054153
v -220.831161 -72.250000 -149.079758
v -220.828156 -76.000000 -143.040024
v -220.828156 -73.000000 -143.040024
v -220.762741 -76.000000 -157.062607
v -220.741791 -72.183517 -157.063446
v -220.706589 -72.250000 -153.709915
v -220.706589 -72.250000 -150.423996
v -220.706589 -71.000000 -153.709915
v -220.706589 -71.000000 -150.423996
v -220.554352 -76.000000 -155.066956
v -220.554352 -76.000000 -149.066956
v -220.554352 -72.250000 -155.066956
v -220.554352 -72.250000 -149.066956
v -220.503540 -72.250000 -153.716171
v -220.503540 -72.250000 -150.417740
v -220.503540 -71.000000 -153.716171
v -220.503540 -71.000000 -150.417740
v -220.452057 -72.017883 -157.065918
v -220.403214 -76.000000 -157.064667
v -220.301254 -72.250000 -153.697433
v -220.301254 -72.250000 -150.436478
v -220.301254 -71.000000 -153.697433
v -220.301254 -71.000000 -150.436478
v -220.277542 -76.000000 -155.054153
v -220.277542 -76.000000 -149.079758
v -220.277542 -72.250000 -155.054153
v -220.277542 -72.250000 -149.079758
v -220.162674 -71.838760 -157.051590
v -220.102798 -72.250000 -153.653976
v -220.102798 -72.250000 -150.479950
v -220.102798 -71.000000 -153.653976
v -220.102798 -71.000000 -150.479950
v -220.044479 -76.000000 -157.040894
v -220.003098 -76.000000 -155.015869
v -220.003098 -76.000000 -149.118042
v -220.003098 -72.250000 -155.015869
v -220.003098 -72.250000 -149.118042
v -219.911209 -72.250000 -153.586456
v -219.911209 -72.250000 -150.547470
v -219.911209 -71.000000 -153.586456
v -219.911209 -71.000000 -150.547470
v -219.874603 -71.646744 -157.020538
v -219.733368 -76.000000 -154.952438
v -219.733368 -76.000000 -149.181488
v -219.733368 -72.250000 -154.952438
v -219.733368 -72.250000 -149.181488
v -219.729355 -72.250000 -153.495895
v -219.729355 -72.250000 -150.638016
v -219.729355 -71.000000 -153.495895
v -219.729355 -71.000000 -150.638016
v -219.688385 -76.000000 -156.991394
v -219.588821 -71.442482 -156.972839
v -219.559998 -72.250000 -153.383682
v -219.559998 -72.250000 -150.750229
v -219.559998 -71.000000 -153.383682
v -219.559998 -71.000000 -150.750229
v -219.470627 -76.000000 -154.864380
v -219.470627 -76.000000 -149.269547
v -219.470627 -72.250000 -154.864380
v -219.470627 -72.250000 -149.269547
v -219.405731 -72.250000 -153.251511
v -219.405731 -72.250000 -150.882401
v -219.405731 -71.000000 -153.251511
v -219.405731 -71.000000 -150.882401
v -219.336761 -76.000000 -156.916443
v -219.306274 -71.226654 -156.908676
v -219.268860 -72.250000 -153.101379
v -219.268860 -72.250000 -151.032532
v -219.268860 -71.000000 -153.101379
v -219.268860 -71.000000 -151.032532
v -219.217133 -76.000000 -154.752441
v -219.217133 -76.000000 -149.381470
v -219.217133 -72.250000 -154.752441
v -219.217133 -72.250000 -149.381470
v -219.151489 -72.250000 -152.935577
v -219.151489 -72.250000 -151.198349
v -219.151489 -71.000000 -152.935577
v -219.151489 -71.000000 -151.198349
v -219.055389 -72.250000 -152.756592
v -219.055389 -72.250000 -151.377319
v -219.055389 -71.000000 -152.756592
v -219.055389 -71.000000 -151.377319
v -219.027924 -71.000000 -156.828262
v -218.991425 -76.000000 -156.816406
v -218.981995 -72.250000 -152.567154
v -218.981995 -72.250000 -151.566757
v -218.981995 -71.000000 -152.567154
v -218.981995 -71.000000 -151.566757
v -218.975052 -76.000000 -154.617615
v -218.975052 -76.000000 -149.516312
v -218.975052 -72.250000 -154.617615
v -218.975052 -72.250000 -149.516312
v -218.932449 -72.250000 -152.370148
v -218.932449 -72.250000 -151.763763
v -218.932449 -71.000000 -152.370148
v -218.932449 -71.000000 -151.763763
v -218.907486 -72.250000 -152.168533
v -218.907486 -72.250000 -151.965378
v -218.907486 -71.000000 -152.168533
v -218.907486 -71.000000 -151.965378
v -218.746445 -76.000000 -154.461014
v -218.746445 -76.000000 -149.672913
v -218.746445 -72.250000 -154.461014
v -218.746445 -72.250000 -149.672913
v -218.708481 -71.000000 -156.713760
v -218.654175 -76.000000 -156.691818
v -218.533264 -76.000000 -154.283981
v -218.533264 -76.000000 -149.849930
v -218.533264 -72.250000 -154.283981
v -218.533264 -72.250000 -149.849930
v -218.397552 -71.000000 -156.577866
v -218.337326 -76.000000 -154.088043
v -218.337326 -76.000000 -150.045868
v -218.337326 -72.250000 -154.088043
v -218.337326 -72.250000 -150.045868
v -218.326752 -76.000000 -156.543320
v -218.160294 -76.000000 -153.874863
v -218.160294 -76.000000 -150.259048
v -218.160294 -72.250000 -153.874863
v -218.160294 -72.250000 -150.259048
v -218.096558 -71.000000 -156.421173
v -218.010849 -76.000000 -156.371674
v -218.003693 -76.000000 -153.646255
v -218.003693 -76.000000 -150.487656
v -218.003693 -72.250000 -153.646255
v -218.003693 -72.250000 -150.487656
v -217.868866 -76.000000 -153.404175
v -217.868866 -76.000000 -150.729736
v -217.868866 -72.250000 -153.404175
v -217.868866 -72.250000 -150.729736
v -217.806885 -71.000000 -156.244446
v -217.756927 -76.000000 -153.150681
v -217.756927 -76.000000 -150.983231
v -217.756927 -72.250000 -153.150681
v -217.756927 -72.250000 -150.983231
v -217.708084 -76.000000 -156.177765
v -217.668869 -76.000000 -152.887939
v -217.668869 -76.000000 -151.245972
v -217.668869 -72.250000 -152.887939
v -217.668869 -72.250000 -151.245972
v -217.605438 -76.000000 -152.618210
v -217.605438 -76.000000 -151.515701
v -217.605438 -72.250000 -152.618210
v -217.605438 -72.250000 -151.515701
v -217.567154 -76.000000 -152.343765
v -217.567154 -76.000000 -151.790146
v -217.567154 -72.250000 -152.343765
v -217.567154 -72.250000 -151.790146
v -217.554352 -76.000000 -152.066956
v -217.554352 -72.250000 -152.066956
v -217.529861 -71.000000 -156.048477
v -217.420044 -76.000000 -155.962616
v -217.266769 -71.000000 -155.834152
v -217.148209 -76.000000 -155.727310
v -217.018814 -71.000000 -155.602493
v -216.893997 -76.000000 -155.473099
v -216.787155 -71.000000 -155.354538
v -216.658691 -76.000000 -155.201263
v -216.572830 -71.000000 -155.091446
v -216.476425 -76.000000 -149.173767
v -216.476425 -73.000000 -149.173767
v -216.443542 -76.000000 -154.913223
v -216.376862 -71.000000 -154.814423
v -216.315689 -72.991608 -149.414841
v -216.279068 -76.000000 -149.474289
v -216.249634 -76.000000 -154.610458
v -216.200134 -71.000000 -154.524750
v -216.169189 -72.966446 -149.664810
v -216.103806 -76.000000 -149.788208
v -216.077988 -76.000000 -154.294556
v -216.043442 -71.000000 -154.223755
v -216.037399 -72.924614 -149.922852
v -215.951569 -76.000000 -150.113907
v -215.929489 -76.000000 -153.967133
v -215.920792 -72.866241 -150.188080
v -215.907547 -71.000000 -153.912827
v -215.823120 -76.000000 -150.449707
v -215.819748 -72.791534 -150.459625
v -215.804901 -76.000000 -153.629883
v -215.793045 -71.000000 -153.593384
v -215.734589 -72.700737 -150.736572
v -215.719147 -76.000000 -150.793869
v -215.712631 -71.226654 -153.315033
v -215.704865 -76.000000 -153.284546
v -215.665619 -72.594147 -151.017990
v -215.648468 -71.442482 -153.032486
v -215.640152 -76.000000 -151.144608
v -215.629913 -76.000000 -152.932922
v -215.613068 -72.472137 -151.302917
v -215.600769 -71.646744 -152.746704
v -215.586578 -76.000000 -151.500122
v -215.580414 -76.000000 -152.576828
v -215.577118 -72.335106 -151.590424
v -215.569717 -71.838760 -152.458633
v -215.558701 -76.000000 -151.858566
v -215.557861 -72.183517 -151.879517
v -215.556641 -76.000000 -152.218094
v -215.555389 -72.017883 -152.169250
vn 0.576911 0.706878 0.409264
vn 0.576810 0.706993 0.409209
vn 0.576751 0.707057 0.409181
vn 0.576617 0.707198 0.409126
vn 0.576713 0.707100 0.409159
vn 0.576723 0.707091 0.409162
vn 0.576706 0.707107 0.409158
vn 0.576706 0.707107 0.409158
vn 0.576711 0.707101 0.409162
vn 0.576688 0.707130 0.409142
vn 0.576699 0.707116 0.409151
vn 0.576729 0.707076 0.409178
vn 0.576707 0.707105 0.409160
vn 0.576705 0.707108 0.409158
vn 0.576710 0.707101 0.409162
vn 0.576691 0.707126 0.409145
vn 0.576690 0.707128 0.409144
vn 0.576701 0.707113 0.409154
vn 0.576707 0.707105 0.409159
vn 0.576915 0.706928 0.409172
vn 0.576553 0.707245 0.409135
vn 0.576664 0.707145 0.409151
vn 0.576798 0.707021 0.409177
vn 0.576595 0.707215 0.409128
vn 0.577031 0.706785 0.409255
vn 0.576656 0.707166 0.409126
vn 0.576460 0.707371 0.409048
vn 0.577054 0.706728 0.409322
vn 0.576732 0.707090 0.409151
vn 0.576710 0.707102 0.409162
vn 0.576700 0.707114 0.409153
vn 0.576712 0.707098 0.409163
vn 0.576712 0.707098 0.409163
vn 0.576699 0.707117 0.409150
vn 0.576723 0.707083 0.409175
vn 0.576708 0.707104 0.409160
vn 0.576683 0.707136 0.409140
vn 0.576713 0.707098 0.409163
vn 0.960667 -0.000211 -0.277702
vn 0.960512 -0.000246 -0.278239
vn 0.941354 0.000231 -0.337421
vn 0.938038 -0.000353 -0.346533
vn 0.916305 0.000329 -0.400481
vn 0.910712 -0.000444 -0.413042
vn 0.887005 0.000410 -0.461759
vn 0.878671 -0.000515 -0.477427
vn 0.853668 0.000476 -0.520817
vn 0.842095 -0.000573 -0.539328
vn 0.816380 0.000524 -0.577514
vn 0.801175 -0.000614 -0.598430
vn 0.775302 0.000558 -0.631591
vn 0.756081 -0.000637 -0.654478
vn 0.730711 0.000574 -0.682687
vn 0.707107 -0.000647 -0.707107
vn 0.682687 0.000574 -0.730711
vn 0.654478 -0.000637 -0.756081
vn 0.631591 0.000558 -0.775302
vn 0.598430 -0.000614 -0.801175
vn 0.577514 0.000524 -0.816380
vn 0.539328 -0.000573 -0.842095
vn 0.520817 0.000476 -0.853668
vn 0.477427 -0.000515 -0.878671
vn 0.461759 0.000410 -0.887005
vn 0.413042 -0.000444 -0.910712
vn 0.400481 0.000329 -0.916305
vn 0.346533 -0.000353 -0.938038
vn 0.337421 0.000231 -0.941354
vn 0.277732 -0.000251 -0.960658
vn 0.278239 -0.000214 -0.960512
vn 0.221325 0.000173 -0.975200
vn 0.208474 -0.000573 -0.978028
vn 0.164333 0.000426 -0.986405
vn 0.137683 -0.000741 -0.990476
vn 0.106855 0.000479 -0.994274
vn 0.066125 -0.000687 -0.997811
vn 0.049272 0.000291 -0.998785
vn -0.005729 -0.000384 -0.999984
vn -0.008432 -0.000174 -0.999964
vn -0.066539 0.000146 -0.997784
vn -0.077540 -0.000663 -0.996989
vn -0.124309 0.000502 -0.992243
vn -0.149011 -0.000905 -0.988835
vn -0.181627 0.000601 -0.983367
vn -0.219720 -0.000874 -0.975563
vn -0.238181 0.000409 -0.971221
vn -0.289197 -0.000542 -0.957270
vn -0.293883 -0.000096 -0.955841
vn -0.348767 0.000093 -0.937209
vn -0.357269 -0.000717 -0.934001
vn -0.402570 0.000538 -0.915389
vn -0.423443 -0.001023 -0.905922
vn -0.454932 0.000688 -0.890526
vn -0.487476 -0.001010 -0.873136
vn -0.505670 0.000510 -0.862727
vn -0.548928 -0.000672 -0.835869
vn -0.554749 -0.000000 -0.832018
vn 0.975200 0.000173 -0.221325
vn 0.978028 -0.000573 -0.208474
vn 0.986405 0.000426 -0.164333
vn 0.990476 -0.000741 -0.137683
vn 0.994274 0.000479 -0.106855
vn 0.997811 -0.000687 -0.066125
vn 0.998785 0.000291 -0.049272
vn 0.999984 -0.000384 0.005729
vn 0.999964 -0.000174 0.008432
vn 0.997784 0.000146 0.066539
vn 0.996989 -0.000663 0.077540
vn 0.992243 0.000502 0.124309
vn 0.988835 -0.000905 0.149011
vn 0.983367 0.000601 0.181627
vn 0.975563 -0.000874 0.219720
vn 0.971221 0.000409 0.238181
vn 0.957270 -0.000542 0.289197
vn 0.955841 -0.000096 0.293883
vn 0.937209 0.000093 0.348767
vn 0.934001 -0.000717 0.357269
vn 0.915389 0.000538 0.402570
vn 0.905922 -0.001023 0.423443
vn 0.890526 0.000688 0.454932
vn 0.873136 -0.001010 0.487476
vn 0.862727 0.000510 0.505670
vn 0.835869 -0.000672 0.548928
vn 0.832018 0.000000 0.554749
vn 0.000000 1.000000 0.000000
vn 0.000000 1.000000 0.000000
vn 0.000000 1.000000 0.000000
vn -0.000000 1.000000 0.000000
vn 0.000000 1.000000 -0.000000
vn 0.000000 1.000000 -0.000000
vn -0.000000 1.000000 0.000000
vn 0.000000 1.000000 -0.000000
vn 0.000000 1.000000 -0.000000
vn -0.000000 1.000000 0.000000
vn 0.000000 1.000000 -0.000000
vn -0.000000 1.000000 0.000000
vn 0.000000 1.000000 -0.000000
vn 0.000000 1.000000 -0.000000
vn -0.000000 1.000000 0.000000
vn 0.000000 1.000000 -0.000000
vn 0.000000 1.000000 -0.000000
vn -0.000000 1.000000 0.000000
vn 0.000000 1.000000 -0.000000
vn 0.000000 1.000000 -0.000000
vn -0.000000 1.000000 0.000000
vn 0.000000 1.000000 -0.000000
vn 0.000000 1.000000 -0.000000
vn 0.000000 1.000000 0.000000
vn 0.000000 1.000000 0.000000
vn 0.000000 1.000000 0.000000
vn -0.000000 1.000000 0.000000
vn 0.000000 1.000000 0.000000
vn 0.000000 1.000000 0.000000
vn -0.000000 1.000000 0.000000
vn 0.000000 1.000000 -0.000000
vn 0.000000 1.000000 0.000000
vn -0.000000 1.000000 0.000000
vn 0.000000 1.000000 -0.000000
vn 0.000000 1.000000 -0.000000
vn -0.000000 1.000000 0.000000
vn 0.000000 1.000000 -0.000000
vn 0.000000 1.000000 -0.000000
vn -0.000000 1.000000 0.000000
vn 0.000000 1.000000 -0.000000
vn 0.000000 1.000000 -0.000000
vn -0.000000 1.000000 0.000000
vn 0.000000 1.000000 -0.000000
vn 0.000000 1.000000 -0.000000
vn -0.000000 1.000000 0.000000
vn -0.000000 1.000000 -0.000000
vn 0.000000 1.000000 -0.000000
vn 0.000000 1.000000 0.000000
vn -0.000000 1.000000 -0.000000
vn -0.000000 1.000000 -0.000000
vn 0.000000 1.000000 0.000000
vn 0.000000 1.000000 0.000000
vn 0.000000 1.000000 0.000000
vn 0.000000 1.000000 0.000000
vn 0.000000 1.000000 0.000000
vn 0.000000 1.000000 0.000000
vn 0.000000 1.000000 0.000000
vn 0.000000 1.000000 0.000000
vn 0.000000 1.000000 0.000000
vn 0.000000 1.000000 0.000000
vn 0.000000 1.000000 0.000000
vn 0.000000 1.000000 0.000000
vn 0.000000 1.000000 0.000000
vn 0.000000 1.000000 0.000000
vn 0.000000 1.000000 0.000000
vn 0.000000 1.000000 0.000000
vn 0.000000 1.000000 0.000000
vn 0.000000 1.000000 0.000000
vn -0.000000 1.000000 -0.000000
vn -0.000000 1.000000 -0.000000
vn 0.000000 1.000000 0.000000
vn 0.000000 1.000000 0.000000
vn 0.000000 1.000000 0.000000
vn 0.000000 1.000000 0.000000
vn -0.622536 0.038780 0.781630
vn -0.624370 0.056048 0.779115
vn -0.639480 0.056045 0.766763
vn -0.639483 0.056072 0.766758
vn -0.656630 0.056072 0.752126
vn -0.656625 0.056032 0.752133
vn -0.673422 0.056033 0.737132
vn -0.673426 0.056072 0.737125
vn -0.689879 0.056073 0.721750
vn -0.681212 0.167433 0.712683
vn -0.697116 0.167508 0.697116
vn -0.679458 0.276902 0.679458
vn -0.694645 0.276830 0.663953
vn -0.694646 0.276810 0.663960
vn -0.709441 0.276810 0.648128
vn -0.709438 0.276847 0.648115
vn -0.723868 0.276846 0.631958
vn -0.723869 0.276835 0.631962
vn -0.737952 0.276834 0.615459
vn -0.737949 0.276872 0.615446
vn -0.747767 0.276886 0.603473
vn -0.746910 0.289764 0.598467
vn -0.720359 0.375502 0.583165
vn -0.714677 0.382656 0.585501
vn -0.689323 0.471038 0.550414
vn -0.672006 0.483686 0.560764
vn -0.671095 0.603116 0.431140
vn -0.632708 0.566765 0.527691
vn -0.625373 0.578647 0.523522
vn -0.614392 0.578640 0.536376
vn -0.561727 0.666312 0.490399
vn -0.550521 0.666312 0.502947
vn -0.491958 0.745639 0.449444
vn -0.481719 0.745639 0.460401
vn -0.418388 0.815508 0.399873
vn -0.409210 0.815533 0.409210
vn -0.409210 0.815533 0.409210
vn -0.399873 0.815508 0.418388
vn -0.399849 0.815527 0.418373
vn -0.390338 0.815527 0.427261
vn -0.326282 0.875207 0.357145
vn -0.318140 0.875207 0.364417
vn -0.251670 0.923882 0.288278
vn -0.253606 0.923869 0.286618
vn -0.246029 0.926965 0.283205
vn -0.616552 0.130254 0.776465
vn -0.617428 0.167496 0.768589
vn -0.631443 0.167491 0.757118
vn -0.631443 0.167492 0.757117
vn -0.648368 0.167492 0.742675
vn -0.648369 0.167525 0.742666
vn -0.664956 0.167524 0.727853
vn -0.664955 0.167498 0.727860
vn -0.681195 0.167498 0.712684
vn -0.663953 0.276830 0.694645
vn -0.679458 0.276902 0.679458
vn -0.653290 0.382655 0.653290
vn -0.667895 0.382589 0.638391
vn -0.667878 0.382698 0.638342
vn -0.682091 0.382698 0.623132
vn -0.682104 0.382621 0.623166
vn -0.695987 0.382622 0.607620
vn -0.695979 0.382668 0.607600
vn -0.709518 0.382669 0.591734
vn -0.709524 0.382636 0.591748
vn -0.606834 0.213560 0.765601
vn -0.602709 0.276884 0.748383
vn -0.615452 0.276872 0.737944
vn -0.615453 0.276834 0.737957
vn -0.631960 0.276835 0.723870
vn -0.631960 0.276846 0.723866
vn -0.648121 0.276847 0.709433
vn -0.648122 0.276810 0.709446
vn -0.663960 0.276810 0.694646
vn -0.638390 0.382589 0.667895
vn -0.653290 0.382655 0.653290
vn -0.618862 0.483756 0.618862
vn -0.632718 0.483696 0.604737
vn -0.632720 0.483687 0.604741
vn -0.646176 0.483688 0.590342
vn -0.646174 0.483695 0.590338
vn -0.659331 0.483695 0.575606
vn -0.659327 0.483710 0.575598
vn -0.672146 0.483710 0.560575
vn -0.672152 0.483687 0.560587
vn -0.597071 0.291317 0.747423
vn -0.582554 0.373155 0.722071
vn -0.585787 0.382656 0.714443
vn -0.552451 0.468424 0.689475
vn -0.564418 0.483657 0.668961
vn -0.434951 0.602543 0.669149
vn -0.526810 0.568759 0.631652
vn -0.523296 0.578646 0.625564
vn -0.536372 0.578640 0.614395
vn -0.536366 0.578660 0.614381
vn -0.550093 0.578660 0.602122
vn -0.550104 0.578620 0.602149
vn -0.563527 0.578621 0.589607
vn -0.515210 0.666319 0.539054
vn -0.527239 0.666361 0.527239
vn -0.471162 0.745662 0.471162
vn -0.481725 0.745629 0.460411
vn -0.504727 0.610704 0.610156
vn -0.479598 0.666326 0.570960
vn -0.490397 0.666314 0.561726
vn -0.490398 0.666312 0.561728
vn -0.502942 0.666312 0.550525
vn -0.502933 0.666335 0.550505
vn -0.515196 0.666336 0.539046
vn -0.460411 0.745629 0.481725
vn -0.471162 0.745662 0.471162
vn -0.469550 0.679620 0.563595
vn -0.430222 0.745644 0.508845
vn -0.438240 0.745627 0.501983
vn -0.438237 0.745633 0.501977
vn -0.449449 0.745633 0.491963
vn -0.449446 0.745639 0.491956
vn -0.460401 0.745639 0.481719
vn -0.423275 0.752539 0.504504
vn -0.383402 0.803279 0.455791
vn -0.375634 0.815548 0.440206
vn -0.354716 0.832651 0.425286
vn -0.327061 0.858851 0.394217
vn -0.314450 0.875228 0.367556
vn -0.302801 0.882191 0.360625
vn -0.269832 0.906071 0.325924
vn -0.200309 0.949831 0.240202
vn -0.194493 0.955270 0.222781
vn -0.251664 0.923887 0.288267
vn -0.258101 0.923887 0.282518
vn -0.326287 0.875201 0.357155
vn -0.334237 0.875201 0.349727
vn -0.334251 0.875192 0.349736
vn -0.342059 0.875209 0.342059
vn -0.342059 0.875209 0.342059
vn -0.349736 0.875192 0.334251
vn -0.418373 0.815527 0.399849
vn -0.427260 0.815527 0.390340
vn -0.491961 0.745633 0.449450
vn -0.501978 0.745633 0.438236
vn -0.561726 0.666314 0.490397
vn -0.570187 0.666330 0.480511
vn -0.611229 0.608046 0.506636
vn -0.177778 0.963360 0.200828
vn -0.162458 0.966895 0.196776
vn -0.119493 0.979807 0.160309
vn -0.088582 0.988884 0.119424
vn -0.105691 0.987002 0.121066
vn -0.110715 0.985871 0.125702
vn -0.112987 0.985870 0.123673
vn -0.186744 0.960909 0.204405
vn -0.191287 0.960909 0.200160
vn -0.191305 0.960902 0.200172
vn -0.195775 0.960908 0.195775
vn -0.195775 0.960908 0.195775
vn -0.200172 0.960902 0.191305
vn -0.276650 0.923883 0.264394
vn -0.282525 0.923883 0.258107
vn -0.357147 0.875207 0.326280
vn -0.364415 0.875207 0.318143
vn -0.435954 0.815530 0.380598
vn -0.443792 0.815535 0.371418
vn -0.486524 0.773504 0.406185
vn -0.047811 0.995569 0.080977
vn -0.051861 0.996886 0.059405
vn -0.022490 0.999413 0.025829
vn -0.038239 0.998447 0.040525
vn -0.037681 0.998435 0.041317
vn -0.037871 0.998423 0.041453
vn -0.112991 0.985868 0.123679
vn -0.115741 0.985868 0.121109
vn -0.115740 0.985869 0.121109
vn -0.118447 0.985871 0.118447
vn -0.118447 0.985870 0.118447
vn -0.121109 0.985869 0.115740
vn -0.200160 0.960909 0.191287
vn -0.204408 0.960909 0.186740
vn -0.282519 0.923887 0.258099
vn -0.288269 0.923887 0.251662
vn -0.364406 0.875215 0.318130
vn -0.367297 0.875228 0.314753
vn -0.396253 0.857510 0.328115
vn -0.038659 0.998432 0.040480
vn -0.038735 0.998427 0.040532
vn -0.039641 0.998427 0.039641
vn -0.039641 0.998427 0.039641
vn -0.040532 0.998427 0.038735
vn -0.040480 0.998432 0.038659
vn -0.041453 0.998423 0.037871
vn -0.041317 0.998435 0.037681
vn -0.040530 0.998447 0.038235
vn -0.025840 0.999413 0.022499
vn -0.059309 0.996896 0.051778
vn -0.081675 0.995524 0.047545
vn -0.120727 0.988750 0.088308
vn -0.162156 0.979716 0.117736
vn -0.131078 0.984746 0.114433
vn -0.125854 0.985870 0.110545
vn -0.123674 0.985870 0.112986
vn -0.197892 0.967211 0.159193
vn -0.202608 0.963153 0.176880
vn -0.213867 0.958375 0.189152
vn -0.238191 0.950971 0.197278
vn -0.280761 0.928451 0.243213
vn -0.285836 0.923861 0.254517
vn -0.325062 0.906098 0.270779
vn -0.361402 0.881122 0.304980
vn -0.442202 0.817829 0.368257
vn -0.507748 0.745647 0.431511
vn -0.515569 0.738069 0.435250
vn -0.547000 0.700574 0.458244
vn -0.574187 0.658881 0.485989
vn -0.765526 0.211730 0.607569
vn -0.768395 0.167496 0.617668
vn -0.757117 0.167491 0.631443
vn -0.757117 0.167492 0.631442
vn -0.742670 0.167492 0.648373
vn -0.742670 0.167525 0.648364
vn -0.727856 0.167524 0.664952
vn -0.727856 0.167498 0.664959
vn -0.712684 0.167498 0.681195
vn -0.712683 0.167433 0.681212
vn -0.697116 0.167508 0.697116
vn -0.705993 0.056093 0.705993
vn -0.689890 0.056014 0.721744
vn -0.776492 0.129338 0.616710
vn -0.779103 0.056048 0.624385
vn -0.766759 0.056045 0.639484
vn -0.766761 0.056072 0.639479
vn -0.752131 0.056072 0.656624
vn -0.752128 0.056032 0.656631
vn -0.737126 0.056033 0.673428
vn -0.737130 0.056072 0.673420
vn -0.721750 0.056073 0.689879
vn -0.721744 0.056014 0.689890
vn -0.705993 0.056093 0.705993
vn -0.781631 0.038724 0.622537
vn -0.591743 0.382636 0.709528
vn -0.560583 0.483687 0.672156
vn -0.560579 0.483710 0.672142
vn -0.575600 0.483710 0.659325
vn -0.575603 0.483695 0.659333
vn -0.590339 0.483695 0.646172
vn -0.590341 0.483688 0.646177
vn -0.604741 0.483687 0.632720
vn -0.563542 0.578598 0.589614
vn -0.576700 0.578648 0.576700
vn -0.527239 0.666361 0.527239
vn -0.539053 0.666319 0.515210
vn -0.539046 0.666336 0.515196
vn -0.550510 0.666335 0.502928
vn -0.182097 0.960902 0.208584
vn -0.116438 0.984202 0.133374
vn -0.380598 0.815530 0.435954
vn -0.380597 0.815532 0.435952
vn -0.318133 0.875215 0.364403
vn -0.607608 0.382668 0.695973
vn -0.591740 0.382669 0.709513
vn -0.607613 0.382622 0.695994
vn -0.258106 0.923883 0.282526
vn -0.186755 0.960902 0.204424
vn -0.390335 0.815532 0.427255
vn -0.623153 0.382621 0.682115
vn -0.623144 0.382698 0.682080
vn -0.264399 0.923881 0.276653
vn -0.264394 0.923883 0.276650
vn -0.638342 0.382698 0.667878
vn -0.604736 0.483696 0.632718
vn -0.121109 0.985868 0.115741
vn -0.270577 0.923892 0.270577
vn -0.270577 0.923892 0.270577
vn -0.276653 0.923881 0.264399
vn -0.349727 0.875201 0.334237
vn -0.357153 0.875201 0.326289
vn -0.427256 0.815532 0.390334
vn -0.435952 0.815532 0.380596
vn -0.501982 0.745627 0.438241
vn -0.618862 0.483756 0.618862
vn -0.576700 0.578648 0.576700
vn -0.589614 0.578598 0.563542
vn -0.589607 0.578621 0.563527
vn -0.602143 0.578620 0.550112
vn -0.602128 0.578660 0.550085
vn -0.614384 0.578660 0.536363
vn -0.204421 0.960902 0.186758
vn -0.123678 0.985868 0.112992
vn -0.122616 0.986664 0.107045
vn -0.288276 0.923882 0.251672
vn -0.208583 0.960902 0.182098
vn -0.623005 0.000000 0.782218
vn -0.623005 0.000000 0.782218
vn -0.640486 0.000000 0.767970
vn -0.640486 0.000000 0.767970
vn -0.657664 0.000000 0.753311
vn -0.657664 0.000000 0.753311
vn -0.674482 0.000000 0.738292
vn -0.674482 0.000000 0.738292
vn -0.690974 0.000000 0.722879
vn -0.690974 0.000000 0.722879
vn -0.707107 0.000000 0.707107
vn -0.707107 0.000000 0.707107
vn -0.722879 0.000000 0.690974
vn -0.722879 0.000000 0.690974
vn -0.738292 0.000000 0.674482
vn -0.738292 0.000000 0.674482
vn -0.753311 0.000000 0.657664
vn -0.753311 0.000000 0.657664
vn -0.767970 0.000000 0.640486
vn -0.767970 0.000000 0.640486
vn -0.782218 0.000000 0.623005
vn -0.782218 0.000000 0.623005
vn 0.815585 0.000000 0.578637
vn 0.815585 0.000000 0.578637
vn 0.000000 -1.000000 -0.000000
vn 0.000000 -1.000000 0.000000
vn 0.000000 -1.000000 0.000000
vn 0.000000 -1.000000 -0.000000
vn 0.000000 -1.000000 0.000000
vn 0.000000 -1.000000 0.000000
vn 0.000000 -1.000000 -0.000000
vn -0.000000 -1.000000 0.000000
vn -0.000000 -1.000000 0.000000
vn 0.000000 -1.000000 -0.000000
vn -0.000000 -1.000000 0.000000
vn -0.000000 -1.000000 0.000000
vn 0.000000 -1.000000 -0.000000
vn -0.000000 -1.000000 0.000000
vn -0.000000 -1.000000 0.000000
vn 0.000000 -1.000000 -0.000000
vn -0.000000 -1.000000 0.000000
vn -0.000000 -1.000000 0.000000
vn 0.000000 -1.000000 -0.000000
vn -0.000000 -1.000000 0.000000
vn -0.000000 -1.000000 0.000000
vn 0.000000 -1.000000 -0.000000
vn -0.000000 -1.000000 0.000000
vn -0.000000 -1.000000 0.000000
vn 0.000000 -1.000000 -0.000000
vn -0.000000 -1.000000 0.000000
vn -0.000000 -1.000000 0.000000
vn 0.000000 -1.000000 -0.000000
vn -0.000000 -1.000000 0.000000
vn -0.000000 -1.000000 0.000000
vn 0.000000 -1.000000 -0.000000
vn -0.000000 -1.000000 -0.000000
vn -0.000000 -1.000000 -0.000000
vn 0.000000 -1.000000 0.000000
vn -0.000000 -1.000000 -0.000000
vn -0.000000 -1.000000 -0.000000
vn 0.000000 -1.000000 0.000000
vn 0.000000 -1.000000 -0.000000
vn 0.000000 -1.000000 -0.000000
vn 0.000000 -1.000000 0.000000
vn -0.000000 -1.000000 0.000000
vn 0.000000 -1.000000 0.000000
vn -0.000000 -1.000000 0.000000
vn 0.000000 -1.000000 0.000000
vn -0.000000 -1.000000 0.000000
vn 0.000000 -1.000000 0.000000
vn -0.000000 -1.000000 0.000000
vn 0.000000 -1.000000 0.000000
vn 0.000000 -1.000000 0.000000
vn -0.000000 -1.000000 0.000000
vn 0.000000 -1.000000 0.000000
vn -0.000000 -1.000000 0.000000
vn 0.000000 -1.000000 0.000000
vn 0.000000 -1.000000 0.000000
vn -0.000000 -1.000000 0.000000
vn -0.000000 -1.000000 0.000000
vn 0.000000 -1.000000 -0.000000
vn -0.000000 -1.000000 0.000000
vn 0.000000 -1.000000 -0.000000
vn -0.000000 -1.000000 0.000000
vn 0.000000 -1.000000 -0.000000
vn -0.000000 -1.000000 0.000000
vn 0.000000 -1.000000 -0.000000
vn -0.000000 -1.000000 0.000000
vn -0.000000 -1.000000 0.000000
vn 0.000000 -1.000000 -0.000000
vn -0.000000 -1.000000 0.000000
vn 0.000000 -1.000000 -0.000000
vn -0.000000 -1.000000 0.000000
vn 0.000000 -1.000000 -0.000000
vn -0.000000 -1.000000 0.000000
vn -0.000000 -1.000000 0.000000
vn 0.000000 -1.000000 -0.000000
vn -0.000000 -1.000000 0.000000
vn 0.000000 -1.000000 -0.000000
vn -0.000000 -1.000000 0.000000
vn 0.000000 -1.000000 -0.000000
vn -0.000000 -1.000000 0.000000
vn 0.000000 -1.000000 -0.000000
vn -0.000000 -1.000000 0.000000
vn -0.000000 -1.000000 0.000000
vn 0.000000 -1.000000 -0.000000
vn -0.000000 -1.000000 0.000000
vn 0.000000 -1.000000 -0.000000
vn -0.000000 -1.000000 0.000000
vn 0.000000 -1.000000 -0.000000
vn -0.000000 -1.000000 0.000000
vn 0.000000 -1.000000 -0.000000
vn -0.000000 -1.000000 0.000000
vn 0.000000 -1.000000 0.000000
vn 0.000000 -1.000000 -0.000000
vn 0.000000 -1.000000 -0.000000
vn 0.000000 -1.000000 0.000000
vn 0.000000 -1.000000 -0.000000
vn 0.000000 -1.000000 0.000000
vn 0.000000 -1.000000 -0.000000
vn 0.000000 -1.000000 -0.000000
vn 0.000000 -1.000000 0.000000
vn 0.000000 -1.000000 -0.000000
vn 0.000000 -1.000000 0.000000
vn 0.000000 -1.000000 -0.000000
vn 0.000000 -1.000000 0.000000
vn 0.000000 -1.000000 -0.000000
vn 0.000000 -1.000000 0.000000
vn 0.000000 -1.000000 -0.000000
vn 0.000000 -1.000000 -0.000000
vn -0.000000 -1.000000 0.000000
vn 0.000000 -1.000000 0.000000
vn 0.000000 -1.000000 0.000000
vn 0.000000 -1.000000 0.000000
vn 0.000000 -1.000000 0.000000
vn 0.000000 -1.000000 0.000000
vn 0.000000 -1.000000 0.000000
vn 0.000000 -1.000000 0.000000
vn 0.000000 -1.000000 0.000000
vn 0.000000 -1.000000 0.000000
vn 0.000000 -1.000000 -0.000000
vn 0.000000 -1.000000 -0.000000
vn 0.000000 -1.000000 0.000000
vn 0.000000 -1.000000 -0.000000
vn -0.578637 0.000000 -0.815585
vn -0.578637 0.000000 -0.815585
vn -0.409163 0.707098 -0.576712
vn -0.409163 0.707098 -0.576712
vn -0.409153 0.707114 -0.576700
vn -0.409162 0.707102 -0.576710
vn -0.409152 0.707115 -0.576700
vn -0.409152 0.707111 -0.576705
vn -0.409146 0.707126 -0.576691
vn -0.409153 0.707115 -0.576700
vn -0.409161 0.707101 -0.576710
vn -0.409157 0.707108 -0.576705
vn -0.409134 0.707145 -0.576676
vn -0.409163 0.707099 -0.576711
vn -0.409173 0.707084 -0.576723
vn -0.409178 0.707077 -0.576729
vn -0.409146 0.707124 -0.576693
vn -0.409142 0.707130 -0.576688
vn -0.409160 0.707103 -0.576708
vn -0.409158 0.707107 -0.576706
vn -0.409158 0.707107 -0.576705
vn -0.409162 0.707091 -0.576723
vn -0.409159 0.707100 -0.576713
vn -0.409126 0.707198 -0.576617
vn -0.409181 0.707057 -0.576751
vn -0.409209 0.706993 -0.576810
vn -0.409264 0.706878 -0.576911
vn -0.409158 0.707106 -0.576706
vn -0.409158 0.707106 -0.576706
vn -0.409159 0.707105 -0.576707
vn -0.409146 0.707124 -0.576693
vn -0.409163 0.707100 -0.576710
vn -0.409177 0.707077 -0.576729
vn -0.409165 0.707033 -0.576791
vn -0.409124 0.707232 -0.576577
vn -0.409177 0.707022 -0.576797
vn -0.409125 0.707196 -0.576620
vn -0.409132 0.707177 -0.576639
vn -0.409229 0.706920 -0.576884
vn -0.409094 0.707238 -0.576590
vn -0.409272 0.706862 -0.576925
vn 0.998932 0.000000 -0.046199
vn 0.998932 0.000000 -0.046199
vn 0.998932 0.000000 0.046199
vn 0.998932 -0.000000 0.046199
vn 0.990410 0.000000 0.138160
vn 0.990410 -0.000000 0.138160
vn 0.973433 0.000000 0.228972
vn 0.973433 -0.000000 0.228972
vn 0.948164 0.000000 0.317780
vn 0.948164 -0.000000 0.317780
vn 0.914801 0.000000 0.403905
vn 0.914801 -0.000000 0.403905
vn 0.873617 0.000000 0.486615
vn 0.873617 -0.000000 0.486615
vn 0.824995 0.000000 0.565140
vn 0.824995 -0.000000 0.565140
vn 0.769344 0.000000 0.638835
vn 0.769344 -0.000000 0.638835
vn 0.707107 0.000000 0.707107
vn 0.707107 -0.000000 0.707107
vn 0.638867 0.000000 0.769317
vn 0.638867 -0.000000 0.769317
vn 0.565140 0.000000 0.824995
vn 0.565140 -0.000000 0.824995
vn 0.486573 0.000000 0.873640
vn 0.486573 -0.000000 0.873640
vn 0.403951 0.000000 0.914781
vn 0.403951 -0.000000 0.914781
vn 0.317780 0.000000 0.948164
vn 0.317780 -0.000000 0.948164
vn 0.228920 0.000000 0.973445
vn 0.228920 -0.000000 0.973445
vn 0.138160 0.000000 0.990410
vn 0.138160 -0.000000 0.990410
vn 0.046199 0.000000 0.998932
vn 0.046199 -0.000000 0.998932
vn -0.046199 0.000000 0.998932
vn -0.046199 0.000000 0.998932
vn -0.138160 0.000000 0.990410
vn -0.138160 0.000000 0.990410
vn -0.228920 0.000000 0.973445
vn -0.228920 0.000000 0.973445
vn -0.317780 0.000000 0.948164
vn -0.317780 0.000000 0.948164
vn -0.403951 0.000000 0.914781
vn -0.403951 0.000000 0.914781
vn -0.486573 0.000000 0.873640
vn -0.486573 0.000000 0.873640
vn -0.565140 0.000000 0.824995
vn -0.565140 0.000000 0.824995
vn -0.638867 0.000000 0.769317
vn -0.638867 0.000000 0.769317
vn -0.707107 0.000000 0.707107
vn -0.707107 0.000000 0.707107
vn -0.769317 0.000000 0.638867
vn -0.769317 0.000000 0.638867
vn -0.824995 0.000000 0.565140
vn -0.824995 0.000000 0.565140
vn -0.873640 0.000000 0.486573
vn -0.873640 0.000000 0.486573
vn -0.914781 0.000000 0.403951
vn -0.914781 0.000000 0.403951
vn -0.948164 0.000000 0.317780
vn -0.948164 0.000000 0.317780
vn -0.973445 0.000000 0.228920
vn -0.973445 0.000000 0.228920
vn -0.990410 0.000000 0.138160
vn -0.990410 0.000000 0.138160
vn -0.998932 0.000000 0.046199
vn -0.998932 0.000000 0.046199
vn -0.998932 0.000000 -0.046199
vn -0.998932 0.000000 -0.046199
vn -0.990410 0.000000 -0.138160
vn -0.990410 0.000000 -0.138160
vn -0.973445 0.000000 -0.228920
vn -0.973445 0.000000 -0.228920
vn -0.948164 0.000000 -0.317780
vn -0.948164 0.000000 -0.317780
vn -0.914781 0.000000 -0.403951
vn -0.914781 0.000000 -0.403951
vn -0.873640 0.000000 -0.486573
vn -0.873640 0.000000 -0.486573
vn -0.824995 0.000000 -0.565140
vn -0.824995 0.000000 -0.565140
vn -0.769317 0.000000 -0.638867
vn -0.769317 0.000000 -0.638867
vn -0.707107 0.000000 -0.707107
vn -0.707107 0.000000 -0.707107
vn -0.638835 0.000000 -0.769344
vn -0.638835 0.000000 -0.769344
vn -0.565140 0.000000 -0.824995
vn -0.565140 0.000000 -0.824995
vn -0.486615 0.000000 -0.873617
vn -0.486615 0.000000 -0.873617
vn -0.403905 0.000000 -0.914801
vn -0.403905 0.000000 -0.914801
vn -0.317780 0.000000 -0.948164
vn -0.317780 0.000000 -0.948164
vn -0.228972 0.000000 -0.973433
vn -0.228972 0.000000 -0.973433
vn -0.138160 0.000000 -0.990410
vn -0.138160 0.000000 -0.990410
vn -0.046199 0.000000 -0.998932
vn -0.046199 0.000000 -0.998932
vn 0.046199 0.000000 -0.998932
vn 0.046199 0.000000 -0.998932
vn 0.138160 0.000000 -0.990410
vn 0.138160 0.000000 -0.990410
vn 0.228972 0.000000 -0.973433
vn 0.228972 0.000000 -0.973433
vn 0.317780 0.000000 -0.948164
vn 0.317780 0.000000 -0.948164
vn 0.403905 0.000000 -0.914801
vn 0.403905 0.000000 -0.914801
vn 0.486615 0.000000 -0.873617
vn 0.486615 0.000000 -0.873617
vn 0.565140 0.000000 -0.824995
vn 0.565140 0.000000 -0.824995
vn 0.638835 0.000000 -0.769344
vn 0.638835 0.000000 -0.769344
vn 0.707107 0.000000 -0.707107
vn 0.707107 0.000000 -0.707107
vn 0.769344 0.000000 -0.638835
vn 0.769344 0.000000 -0.638835
vn 0.824995 0.000000 -0.565140
vn 0.824995 0.000000 -0.565140
vn 0.873617 0.000000 -0.486615
vn 0.873617 0.000000 -0.486615
vn 0.914801 0.000000 -0.403905
vn 0.914801 0.000000 -0.403905
vn 0.948164 0.000000 -0.317780
vn 0.948164 0.000000 -0.317780
vn 0.973433 0.000000 -0.228972
vn 0.973433 0.000000 -0.228972
vn 0.990410 0.000000 -0.138160
vn 0.990410 0.000000 -0.138160
vn 0.000000 -1.000000 0.000000
vn 0.000000 -1.000000 0.000000
vn 0.000000 -1.000000 0.000000
vn 0.000000 -1.000000 -0.000000
vn -0.000000 -1.000000 0.000000
vn 0.000000 -1.000000 -0.000000
vn -0.000000 -1.000000 0.000000
vn 0.000000 -1.000000 -0.000000
vn 0.000000 -1.000000 -0.000000
vn -0.000000 -1.000000 0.000000
vn 0.000000 -1.000000 -0.000000
vn -0.000000 -1.000000 0.000000
vn 0.000000 -1.000000 -0.000000
vn -0.000000 -1.000000 0.000000
vn 0.000000 -1.000000 -0.000000
vn 0.000000 -1.000000 -0.000000
vn -0.000000 -1.000000 0.000000
vn 0.000000 -1.000000 -0.000000
vn -0.000000 -1.000000 0.000000
vn 0.000000 -1.000000 -0.000000
vn -0.000000 -1.000000 0.000000
vn 0.000000 -1.000000 -0.000000
vn 0.000000 -1.000000 -0.000000
vn -0.000000 -1.000000 0.000000
vn 0.000000 -1.000000 -0.000000
vn -0.000000 -1.000000 0.000000
vn 0.000000 -1.000000 -0.000000
vn -0.000000 -1.000000 0.000000
vn 0.000000 -1.000000 -0.000000
vn 0.000000 -1.000000 0.000000
vn -0.000000 -1.000000 0.000000
vn -0.000000 -1.000000 0.000000
vn 0.000000 -1.000000 0.000000
vn -0.000000 -1.000000 0.000000
vn 0.000000 -1.000000 0.000000
vn -0.000000 -1.000000 0.000000
vn -0.000000 -1.000000 0.000000
vn 0.000000 -1.000000 0.000000
vn -0.000000 -1.000000 0.000000
vn 0.000000 -1.000000 0.000000
vn -0.000000 -1.000000 0.000000
vn 0.000000 -1.000000 0.000000
vn -0.000000 -1.000000 0.000000
vn -0.000000 -1.000000 0.000000
vn 0.000000 -1.000000 0.000000
vn -0.000000 -1.000000 0.000000
vn 0.000000 -1.000000 0.000000
vn -0.000000 -1.000000 0.000000
vn 0.000000 -1.000000 0.000000
vn -0.000000 -1.000000 0.000000
vn -0.000000 -1.000000 0.000000
vn 0.000000 -1.000000 0.000000
vn -0.000000 -1.000000 0.000000
vn 0.000000 -1.000000 0.000000
vn -0.000000 -1.000000 0.000000
vn 0.000000 -1.000000 0.000000
vn -0.000000 -1.000000 0.000000
vn 0.000000 -1.000000 0.000000
vn 0.000000 -1.000000 0.000000
vn 0.000000 -1.000000 0.000000
vn 0.000000 -1.000000 0.000000
vn 0.000000 -1.000000 0.000000
vn 0.000000 -1.000000 0.000000
vn 0.000000 -1.000000 0.000000
vn 0.000000 -1.000000 0.000000
vn 0.000000 -1.000000 0.000000
vn 0.000000 -1.000000 0.000000
vn 0.000000 -1.000000 0.000000
vn 0.000000 -1.000000 0.000000
vn 0.000000 -1.000000 0.000000
vn 0.000000 -1.000000 0.000000
vn 0.000000 -1.000000 0.000000
vn 0.000000 -1.000000 0.000000
vn 0.000000 -1.000000 0.000000
vn 0.000000 -1.000000 0.000000
vn 0.000000 -1.000000 0.000000
vn 0.000000 -1.000000 0.000000
vn 0.000000 -1.000000 0.000000
vn 0.000000 -1.000000 0.000000
vn 0.000000 -1.000000 0.000000
vn 0.000000 -1.000000 0.000000
vn 0.000000 -1.000000 0.000000
vn 0.000000 -1.000000 0.000000
vn 0.000000 -1.000000 0.000000
vn 0.000000 -1.000000 0.000000
vn 0.000000 -1.000000 0.000000
vn 0.000000 -1.000000 0.000000
vn 0.000000 -1.000000 0.000000
vn 0.000000 -1.000000 0.000000
vn 0.000000 -1.000000 0.000000
vn 0.000000 -1.000000 0.000000
vn 0.000000 -1.000000 0.000000
vn 0.000000 -1.000000 0.000000
vn 0.000000 -1.000000 -0.000000
vn 0.000000 -1.000000 0.000000
vn 0.000000 -1.000000 -0.000000
vn 0.000000 -1.000000 0.000000
vn 0.000000 -1.000000 -0.000000
vn 0.000000 -1.000000 0.000000
vn 0.000000 -1.000000 0.000000
vn 0.000000 -1.000000 -0.000000
vn 0.000000 -1.000000 0.000000
vn 0.000000 -1.000000 -0.000000
vn 0.000000 -1.000000 0.000000
vn 0.000000 -1.000000 -0.000000
vn 0.000000 -1.000000 0.000000
vn 0.000000 -1.000000 0.000000
vn 0.000000 -1.000000 -0.000000
vn 0.000000 -1.000000 0.000000
vn 0.000000 -1.000000 -0.000000
vn 0.000000 -1.000000 0.000000
vn 0.000000 -1.000000 -0.000000
vn 0.000000 -1.000000 0.000000
vn 0.000000 -1.000000 0.000000
vn 0.000000 -1.000000 -0.000000
vn 0.000000 -1.000000 0.000000
vn 0.000000 -1.000000 -0.000000
vn 0.000000 -1.000000 0.000000
vn 0.000000 -1.000000 -0.000000
vn 0.998106 0.000000 0.061513
vn 0.998106 0.000000 0.061513
vn 0.998106 0.000000 -0.061518
vn 0.998106 0.000000 -0.061518
vn 0.982965 0.000000 -0.183794
vn 0.982965 0.000000 0.183794
vn 0.982965 0.000000 0.183794
vn 0.952943 0.000000 0.303151
vn 0.952943 0.000000 0.303151
vn 0.908482 0.000000 0.417924
vn 0.908482 0.000000 0.417924
vn 0.850198 0.000000 0.526463
vn 0.850198 0.000000 0.526463
vn 0.779085 0.000000 0.626918
vn 0.779085 0.000000 0.626918
vn 0.696132 0.000000 0.717914
vn 0.696132 0.000000 0.717914
vn 0.602641 0.000000 0.798013
vn 0.602641 0.000000 0.798013
vn 0.500009 0.000000 0.866020
vn 0.500009 0.000000 0.866020
vn 0.389809 0.000000 0.920896
vn 0.389809 0.000000 0.920896
vn 0.273620 0.000000 0.961838
vn 0.273620 0.000000 0.961838
vn 0.153378 0.000000 0.988168
vn 0.153378 0.000000 0.988168
vn 0.030796 0.000000 0.999526
vn 0.030796 0.000000 0.999526
vn -0.092235 0.000000 0.995737
vn -0.092235 0.000000 0.995737
vn -0.213907 0.000000 0.976854
vn -0.213907 0.000000 0.976854
vn -0.332384 0.000000 0.943144
vn -0.332384 0.000000 0.943144
vn -0.445771 0.000000 0.895147
vn -0.445771 0.000000 0.895147
vn -0.552341 0.000000 0.833618
vn -0.552341 0.000000 0.833618
vn -0.650631 0.000000 0.759394
vn -0.650631 0.000000 0.759394
vn -0.738988 0.000000 0.673719
vn -0.738988 0.000000 0.673719
vn -0.816193 0.000000 0.577780
vn -0.816193 0.000000 0.577780
vn -0.881040 0.000000 0.473042
vn -0.881040 0.000000 0.473042
vn -0.932462 0.000000 0.361268
vn -0.932462 0.000000 0.361268
vn -0.969801 0.000000 0.243896
vn -0.969801 0.000000 0.243896
vn -0.992422 0.000000 0.122879
vn -0.992422 0.000000 0.122879
vn -1.000000 0.000000 0.000000
vn -1.000000 -0.000000 -0.000000
vn -0.992422 0.000000 -0.122879
vn -0.992422 -0.000000 -0.122879
vn -0.969801 0.000000 -0.243896
vn -0.969801 -0.000000 -0.243896
vn -0.932462 0.000000 -0.361268
vn -0.932462 -0.000000 -0.361268
vn -0.881023 0.000000 -0.473074
vn -0.881023 -0.000000 -0.473074
vn -0.816218 0.000000 -0.577744
vn -0.816218 -0.000000 -0.577744
vn -0.738988 0.000000 -0.673719
vn -0.738988 -0.000000 -0.673719
vn -0.650631 0.000000 -0.759394
vn -0.650631 -0.000000 -0.759394
vn -0.552341 0.000000 -0.833618
vn -0.552341 -0.000000 -0.833618
vn -0.445711 0.000000 -0.895177
vn -0.445711 -0.000000 -0.895177
vn -0.332384 0.000000 -0.943144
vn -0.332384 -0.000000 -0.943144
vn -0.213979 0.000000 -0.976838
vn -0.213979 -0.000000 -0.976838
vn -0.092235 0.000000 -0.995737
vn -0.092235 -0.000000 -0.995737
vn 0.030796 0.000000 -0.999526
vn 0.030796 0.000000 -0.999526
vn 0.153378 0.000000 -0.988168
vn 0.153378 0.000000 -0.988168
vn 0.273689 0.000000 -0.961818
vn 0.273689 0.000000 -0.961818
vn 0.389745 0.000000 -0.920923
vn 0.389745 0.000000 -0.920923
vn 0.500009 0.000000 -0.866020
vn 0.500009 0.000000 -0.866020
vn 0.602641 0.000000 -0.798013
vn 0.602641 0.000000 -0.798013
vn 0.696132 0.000000 -0.717914
vn 0.696132 0.000000 -0.717914
vn 0.779085 0.000000 -0.626918
vn 0.779085 0.000000 -0.626918
vn 0.850198 0.000000 -0.526463
vn 0.850198 0.000000 -0.526463
vn 0.908482 0.000000 -0.417924
vn 0.908482 0.000000 -0.417924
vn 0.952950 0.000000 -0.303129
vn 0.952950 0.000000 -0.303129
vn 0.982965 0.000000 -0.183794
f 477//1 480//1 484//1
f 488//2 477//2 484//2
f 491//3 477//3 488//3
f 477//4 491//4 494//4
f 497//5 477//5 494//5
f 501//6 477//6 497//6
f 283//7 477//7 501//7
f 505//8 283//8 501//8
f 279//9 283//9 505//9
f 509//10 279//10 505//10
f 271//11 279//11 509//11
f 512//12 271//12 509//12
f 268//13 271//13 512//13
f 514//14 268//14 512//14
f 263//15 268//15 514//15
f 510//16 263//16 514//16
f 259//17 263//17 510//17
f 260//18 259//18 510//18
f 296//19 260//19 510//19
f 261//20 260//20 296//20
f 264//21 261//21 296//21
f 266//22 264//22 296//22
f 269//23 266//23 296//23
f 270//24 269//24 296//24
f 273//25 270//25 296//25
f 280//26 273//26 296//26
f 282//27 280//27 296//27
f 288//28 282//28 296//28
f 295//29 288//29 296//29
f 296//30 510//30 506//30
f 502//31 296//31 506//31
f 499//32 296//32 502//32
f 296//33 499//33 496//33
f 477//34 283//34 290//34
f 297//35 477//35 290//35
f 307//36 477//36 297//36
f 477//37 307//37 309//37
f 319//38 477//38 309//38
f 496//39 499//39 500//39
f 495//40 496//40 500//40
f 492//41 496//41 495//41
f 490//42 492//42 495//42
f 487//43 492//43 490//43
f 486//44 487//44 490//44
f 483//45 487//45 486//45
f 482//46 483//46 486//46
f 479//47 483//47 482//47
f 478//48 479//48 482//48
f 475//49 479//49 478//49
f 474//50 475//50 478//50
f 473//51 475//51 474//51
f 472//52 473//52 474//52
f 471//53 473//53 472//53
f 470//54 471//54 472//54
f 469//55 471//55 470//55
f 468//56 469//56 470//56
f 467//57 469//57 468//57
f 452//58 467//58 468//58
f 447//59 467//59 452//59
f 438//60 447//60 452//60
f 437//61 447//61 438//61
f 432//62 437//62 438//62
f 427//63 437//63 432//63
f 422//64 427//64 432//64
f 421//65 427//65 422//65
f 400//66 421//66 422//66
f 399//67 421//67 400//67
f 382//68 399//68 400//68
f 381//69 382//69 400//69
f 368//70 382//70 381//70
f 367//71 368//71 381//71
f 358//72 368//72 367//72
f 349//73 358//73 367//73
f 344//74 358//74 349//74
f 335//75 344//75 349//75
f 334//76 344//76 335//76
f 320//77 334//77 335//77
f 321//78 334//78 320//78
f 308//79 321//79 320//79
f 298//80 308//80 320//80
f 289//81 308//81 298//81
f 274//82 289//82 298//82
f 262//83 289//83 274//83
f 240//84 262//84 274//84
f 238//85 262//85 240//85
f 209//86 238//86 240//86
f 210//87 238//87 209//87
f 193//88 210//88 209//88
f 190//89 193//89 209//89
f 179//90 193//90 190//90
f 173//91 179//91 190//91
f 166//92 179//92 173//92
f 158//93 166//93 173//93
f 156//94 166//94 158//94
f 134//95 156//95 158//95
f 135//96 156//96 134//96
f 500//97 499//97 502//97
f 504//98 500//98 502//98
f 506//99 504//99 502//99
f 508//100 504//100 506//100
f 510//101 508//101 506//101
f 513//102 508//102 510//102
f 514//103 513//103 510//103
f 511//104 513//104 514//104
f 512//105 511//105 514//105
f 509//106 511//106 512//106
f 507//107 511//107 509//107
f 505//108 507//108 509//108
f 503//109 507//109 505//109
f 501//110 503//110 505//110
f 498//111 503//111 501//111
f 497//112 498//112 501//112
f 493//113 498//113 497//113
f 494//114 493//114 497//114
f 491//115 493//115 494//115
f 489//116 493//116 491//116
f 488//117 489//117 491//117
f 485//118 489//118 488//118
f 484//119 485//119 488//119
f 481//120 485//120 484//120
f 480//121 481//121 484//121
f 476//122 481//122 480//122
f 477//123 476//123 480//123
f 496//124 492//124 403//124
f 411//125 496//125 403//125
f 415//126 496//126 411//126
f 397//127 403//127 492//127
f 487//128 397//128 492//128
f 483//129 397//129 487//129
f 393//130 397//130 483//130
f 479//131 393//131 483//131
f 475//132 393//132 479//132
f 385//133 393//133 475//133
f 473//134 385//134 475//134
f 379//135 385//135 473//135
f 471//136 379//136 473//136
f 469//137 379//137 471//137
f 371//138 379//138 469//138
f 467//139 371//139 469//139
f 447//140 371//140 467//140
f 365//141 371//141 447//141
f 437//142 365//142 447//142
f 427//143 365//143 437//143
f 356//144 365//144 427//144
f 421//145 356//145 427//145
f 399//146 356//146 421//146
f 399//147 58//147 257//147
f 277//148 399//148 257//148
f 293//149 399//149 277//149
f 58//150 74//150 207//150
f 213//151 58//151 207//151
f 221//152 58//152 213//152
f 74//153 89//153 208//153
f 203//154 74//154 208//154
f 207//155 74//155 203//155
f 89//156 105//156 228//156
f 222//157 89//157 228//157
f 214//158 89//158 222//158
f 105//159 121//159 244//159
f 233//160 105//160 244//160
f 228//161 105//161 233//161
f 121//162 172//162 294//162
f 278//163 121//163 294//163
f 258//164 121//164 278//164
f 172//165 224//165 313//165
f 306//166 172//166 313//166
f 294//167 172//167 306//167
f 224//168 296//168 339//168
f 333//169 224//169 339//169
f 325//170 224//170 333//170
f 296//171 496//171 386//171
f 380//172 296//172 386//172
f 372//173 296//173 380//173
f 58//174 221//174 227//174
f 232//175 58//175 227//175
f 243//176 58//176 232//176
f 58//177 243//177 257//177
f 399//178 293//178 305//178
f 312//179 399//179 305//179
f 324//180 399//180 312//180
f 399//181 324//181 332//181
f 338//182 399//182 332//182
f 347//183 399//183 338//183
f 399//184 347//184 356//184
f 496//185 415//185 416//185
f 412//186 496//186 416//186
f 404//187 496//187 412//187
f 496//188 404//188 398//188
f 394//189 496//189 398//189
f 386//190 496//190 394//190
f 296//191 372//191 366//191
f 357//192 296//192 366//192
f 348//193 296//193 357//193
f 296//194 348//194 339//194
f 224//195 325//195 313//195
f 121//196 258//196 244//196
f 89//197 214//197 208//197
f 246//198 319//198 309//198
f 248//199 246//199 309//199
f 182//200 246//200 248//200
f 187//201 182//201 248//201
f 141//202 182//202 187//202
f 142//203 141//203 187//203
f 109//204 141//204 142//204
f 110//205 109//205 142//205
f 94//206 109//206 110//206
f 95//207 94//207 110//207
f 78//208 94//208 95//208
f 80//209 78//209 95//209
f 62//210 78//210 80//210
f 63//211 62//211 80//211
f 40//212 62//212 63//212
f 41//213 40//213 63//213
f 23//214 40//214 41//214
f 25//215 23//215 41//215
f 11//216 23//216 25//216
f 12//217 11//217 25//217
f 5//218 11//218 12//218
f 6//219 5//219 12//219
f 7//220 6//220 12//220
f 14//221 7//221 12//221
f 13//222 7//222 14//222
f 15//223 13//223 14//223
f 16//224 13//224 15//224
f 28//225 16//225 15//225
f 29//226 16//226 28//226
f 49//227 29//227 28//227
f 51//228 29//228 49//228
f 70//229 51//229 49//229
f 71//230 51//230 70//230
f 88//231 71//231 70//231
f 90//232 71//232 88//232
f 104//233 90//233 88//233
f 106//234 90//234 104//234
f 120//235 106//235 104//235
f 122//236 106//236 120//236
f 174//237 122//237 120//237
f 180//238 122//238 174//238
f 239//239 180//239 174//239
f 247//240 180//240 239//240
f 269//241 247//241 239//241
f 270//242 247//242 269//242
f 248//243 309//243 307//243
f 249//244 248//244 307//244
f 187//245 248//245 249//245
f 188//246 187//246 249//246
f 142//247 187//247 188//247
f 143//248 142//248 188//248
f 110//249 142//249 143//249
f 111//250 110//250 143//250
f 95//251 110//251 111//251
f 96//252 95//252 111//252
f 80//253 95//253 96//253
f 81//254 80//254 96//254
f 63//255 80//255 81//255
f 65//256 63//256 81//256
f 41//257 63//257 65//257
f 44//258 41//258 65//258
f 25//259 41//259 44//259
f 26//260 25//260 44//260
f 12//261 25//261 26//261
f 14//262 12//262 26//262
f 249//263 307//263 297//263
f 250//264 249//264 297//264
f 188//265 249//265 250//265
f 191//266 188//266 250//266
f 143//267 188//267 191//267
f 144//268 143//268 191//268
f 111//269 143//269 144//269
f 112//270 111//270 144//270
f 96//271 111//271 112//271
f 97//272 96//272 112//272
f 81//273 96//273 97//273
f 83//274 81//274 97//274
f 65//275 81//275 83//275
f 66//276 65//276 83//276
f 44//277 65//277 66//277
f 46//278 44//278 66//278
f 26//279 44//279 46//279
f 28//280 26//280 46//280
f 14//281 26//281 28//281
f 15//282 14//282 28//282
f 250//283 297//283 290//283
f 283//284 250//284 290//284
f 265//285 250//285 283//285
f 279//286 265//286 283//286
f 272//287 265//287 279//287
f 271//288 272//288 279//288
f 195//289 272//289 271//289
f 200//290 195//290 271//290
f 155//291 195//291 200//291
f 159//292 155//292 200//292
f 115//293 155//293 159//293
f 117//294 115//294 159//294
f 101//295 115//295 117//295
f 102//296 101//296 117//296
f 86//297 101//297 102//297
f 88//298 86//298 102//298
f 70//299 86//299 88//299
f 200//300 271//300 268//300
f 204//301 200//301 268//301
f 159//302 200//302 204//302
f 165//303 159//303 204//303
f 117//304 159//304 165//304
f 118//305 117//305 165//305
f 102//306 117//306 118//306
f 104//307 102//307 118//307
f 88//308 102//308 104//308
f 204//309 268//309 263//309
f 223//310 204//310 263//310
f 165//311 204//311 223//311
f 171//312 165//312 223//312
f 118//313 165//313 171//313
f 120//314 118//314 171//314
f 104//315 118//315 120//315
f 223//316 263//316 259//316
f 260//317 223//317 259//317
f 229//318 223//318 260//318
f 261//319 229//319 260//319
f 264//320 229//320 261//320
f 239//321 229//321 264//321
f 266//322 239//322 264//322
f 269//323 239//323 266//323
f 247//324 270//324 273//324
f 189//325 247//325 273//325
f 180//326 247//326 189//326
f 133//327 180//327 189//327
f 122//328 180//328 133//328
f 107//329 122//329 133//329
f 106//330 122//330 107//330
f 93//331 106//331 107//331
f 90//332 106//332 93//332
f 73//333 90//333 93//333
f 71//334 90//334 73//334
f 54//335 71//335 73//335
f 51//336 71//336 54//336
f 31//337 51//337 54//337
f 29//338 51//338 31//338
f 17//339 29//339 31//339
f 16//340 29//340 17//340
f 267//341 189//341 273//341
f 280//342 267//342 273//342
f 282//343 267//343 280//343
f 282//344 288//344 281//344
f 201//345 282//345 281//345
f 194//346 282//346 201//346
f 157//347 194//347 201//347
f 149//348 194//348 157//348
f 116//349 149//349 157//349
f 113//350 149//350 116//350
f 100//351 113//351 116//351
f 98//352 113//352 100//352
f 82//353 98//353 100//353
f 79//354 98//354 82//354
f 64//355 79//355 82//355
f 57//356 79//356 64//356
f 35//357 57//357 64//357
f 33//358 57//358 35//358
f 27//359 33//359 35//359
f 24//360 33//360 27//360
f 281//361 288//361 295//361
f 201//362 281//362 295//362
f 295//363 296//363 224//363
f 201//364 295//364 224//364
f 201//365 224//365 172//365
f 164//366 201//366 172//366
f 157//367 201//367 164//367
f 119//368 157//368 164//368
f 116//369 157//369 119//369
f 103//370 116//370 119//370
f 100//371 116//371 103//371
f 85//372 100//372 103//372
f 82//373 100//373 85//373
f 67//374 82//374 85//374
f 64//375 82//375 67//375
f 43//376 64//376 67//376
f 35//377 64//377 43//377
f 32//378 35//378 43//378
f 30//379 35//379 32//379
f 164//380 172//380 121//380
f 119//381 164//381 121//381
f 119//382 121//382 105//382
f 103//383 119//383 105//383
f 87//384 103//384 105//384
f 89//385 87//385 105//385
f 72//386 87//386 89//386
f 74//387 72//387 89//387
f 56//388 72//388 74//388
f 58//389 56//389 74//389
f 55//390 72//390 56//390
f 53//391 55//391 56//391
f 50//392 55//392 53//392
f 50//393 48//393 52//393
f 69//394 50//394 52//394
f 72//395 50//395 69//395
f 87//396 72//396 69//396
f 52//397 48//397 45//397
f 69//398 52//398 45//398
f 47//399 69//399 45//399
f 42//400 47//400 45//400
f 36//401 47//401 42//401
f 43//402 47//402 36//402
f 34//403 43//403 36//403
f 32//404 43//404 34//404
f 35//405 30//405 27//405
f 31//406 33//406 24//406
f 19//407 31//407 24//407
f 18//408 31//408 19//408
f 31//409 18//409 17//409
f 11//410 5//410 4//410
f 10//411 11//411 4//411
f 23//412 11//412 10//412
f 22//413 23//413 10//413
f 40//414 23//414 22//414
f 39//415 40//415 22//415
f 62//416 40//416 39//416
f 61//417 62//417 39//417
f 78//418 62//418 61//418
f 77//419 78//419 61//419
f 94//420 78//420 77//420
f 92//421 94//421 77//421
f 109//422 94//422 92//422
f 10//423 4//423 3//423
f 9//424 10//424 3//424
f 22//425 10//425 9//425
f 21//426 22//426 9//426
f 39//427 22//427 21//427
f 38//428 39//428 21//428
f 61//429 39//429 38//429
f 60//430 61//430 38//430
f 77//431 61//431 60//431
f 76//432 77//432 60//432
f 92//433 77//433 76//433
f 9//434 3//434 2//434
f 265//435 191//435 250//435
f 192//436 265//436 272//436
f 195//437 192//437 272//437
f 150//438 192//438 195//438
f 155//439 150//439 195//439
f 114//440 150//440 155//440
f 115//441 114//441 155//441
f 99//442 114//442 115//442
f 101//443 99//443 115//443
f 84//444 99//444 101//444
f 86//445 84//445 101//445
f 68//446 84//446 86//446
f 70//447 68//447 86//447
f 49//448 68//448 70//448
f 194//449 189//449 267//449
f 282//450 194//450 267//450
f 229//451 171//451 223//451
f 174//452 171//452 229//452
f 239//453 174//453 229//453
f 192//454 144//454 191//454
f 265//455 192//455 191//455
f 150//456 144//456 192//456
f 149//457 133//457 189//457
f 194//458 149//458 189//458
f 174//459 120//459 171//459
f 150//460 112//460 144//460
f 114//461 112//461 150//461
f 113//462 107//462 133//462
f 149//463 113//463 133//463
f 114//464 97//464 112//464
f 99//465 97//465 114//465
f 87//466 85//466 103//466
f 98//467 107//467 113//467
f 93//468 107//468 98//468
f 79//469 93//469 98//469
f 73//470 93//470 79//470
f 57//471 73//471 79//471
f 54//472 73//472 57//472
f 33//473 54//473 57//473
f 31//474 54//474 33//474
f 83//475 97//475 99//475
f 84//476 83//476 99//476
f 66//477 83//477 84//477
f 68//478 66//478 84//478
f 46//479 66//479 68//479
f 49//480 46//480 68//480
f 28//481 46//481 49//481
f 69//482 67//482 85//482
f 87//483 69//483 85//483
f 72//484 55//484 50//484
f 47//485 43//485 67//485
f 69//486 47//486 67//486
f 245//487 318//487 319//487
f 246//488 245//488 319//488
f 181//489 245//489 246//489
f 182//490 181//490 246//490
f 140//491 181//491 182//491
f 141//492 140//492 182//492
f 108//493 140//493 141//493
f 109//494 108//494 141//494
f 91//495 108//495 109//495
f 92//496 91//496 109//496
f 75//497 91//497 92//497
f 76//498 75//498 92//498
f 59//499 75//499 76//499
f 60//500 59//500 76//500
f 37//501 59//501 60//501
f 38//502 37//502 60//502
f 20//503 37//503 38//503
f 21//504 20//504 38//504
f 8//505 20//505 21//505
f 9//506 8//506 21//506
f 1//507 8//507 9//507
f 2//508 1//508 9//508
f 319//509 318//509 476//509
f 477//510 319//510 476//510
f 318//511 245//511 351//511
f 360//512 318//512 351//512
f 374//513 318//513 360//513
f 245//514 181//514 327//514
f 341//515 245//515 327//515
f 351//516 245//516 341//516
f 181//517 140//517 300//517
f 315//518 181//518 300//518
f 327//519 181//519 315//519
f 140//520 108//520 252//520
f 285//521 140//521 252//521
f 300//522 140//522 285//522
f 108//523 91//523 216//523
f 235//524 108//524 216//524
f 252//525 108//525 235//525
f 91//526 75//526 184//526
f 197//527 91//527 184//527
f 216//528 91//528 197//528
f 75//529 59//529 161//529
f 168//530 75//530 161//530
f 176//531 75//531 168//531
f 59//532 37//532 146//532
f 152//533 59//533 146//533
f 161//534 59//534 152//534
f 37//535 20//535 130//535
f 137//536 37//536 130//536
f 146//537 37//537 137//537
f 20//538 8//538 123//538
f 126//539 20//539 123//539
f 130//540 20//540 126//540
f 8//541 1//541 129//541
f 125//542 8//542 129//542
f 123//543 8//543 125//543
f 1//544 134//544 145//544
f 136//545 1//545 145//545
f 129//546 1//546 136//546
f 134//547 158//547 215//547
f 196//548 134//548 215//548
f 183//549 134//549 196//549
f 215//550 158//550 173//550
f 234//551 215//551 173//551
f 190//552 234//552 173//552
f 251//553 234//553 190//553
f 209//554 251//554 190//554
f 284//555 251//555 209//555
f 240//556 284//556 209//556
f 299//557 284//557 240//557
f 274//558 299//558 240//558
f 298//559 299//559 274//559
f 314//560 299//560 298//560
f 320//561 314//561 298//561
f 326//562 314//562 320//562
f 335//563 326//563 320//563
f 340//564 326//564 335//564
f 349//565 340//565 335//565
f 367//566 340//566 349//566
f 350//567 340//567 367//567
f 381//568 350//568 367//568
f 359//569 350//569 381//569
f 400//570 359//570 381//570
f 373//571 359//571 400//571
f 422//572 373//572 400//572
f 387//573 373//573 422//573
f 432//574 387//574 422//574
f 438//575 387//575 432//575
f 405//576 387//576 438//576
f 452//577 405//577 438//577
f 417//578 405//578 452//578
f 468//579 417//579 452//579
f 423//580 417//580 468//580
f 470//581 423//581 468//581
f 472//582 423//582 470//582
f 428//583 423//583 472//583
f 474//584 428//584 472//584
f 433//585 428//585 474//585
f 478//586 433//586 474//586
f 439//587 433//587 478//587
f 482//588 439//588 478//588
f 443//589 439//589 482//589
f 486//590 443//590 482//590
f 490//591 443//591 486//591
f 448//592 443//592 490//592
f 495//593 448//593 490//593
f 453//594 448//594 495//594
f 500//595 453//595 495//595
f 457//596 453//596 500//596
f 504//597 457//597 500//597
f 461//598 457//598 504//598
f 508//599 461//599 504//599
f 513//600 461//600 508//600
f 465//601 461//601 513//601
f 511//602 465//602 513//602
f 462//603 465//603 511//603
f 507//604 462//604 511//604
f 458//605 462//605 507//605
f 503//606 458//606 507//606
f 498//607 458//607 503//607
f 454//608 458//608 498//608
f 493//609 454//609 498//609
f 449//610 454//610 493//610
f 489//611 449//611 493//611
f 444//612 449//612 489//612
f 485//613 444//613 489//613
f 440//614 444//614 485//614
f 481//615 440//615 485//615
f 476//616 440//616 481//616
f 476//617 318//617 374//617
f 388//618 476//618 374//618
f 406//619 476//619 388//619
f 75//620 176//620 184//620
f 476//621 406//621 418//621
f 424//622 476//622 418//622
f 429//623 476//623 424//623
f 476//624 429//624 434//624
f 440//625 476//625 434//625
f 134//626 183//626 175//626
f 167//627 134//627 175//627
f 160//628 134//628 167//628
f 134//629 160//629 151//629
f 145//630 134//630 151//630
f 1//631 2//631 135//631
f 134//632 1//632 135//632
f 58//633 399//633 382//633
f 368//634 58//634 382//634
f 358//635 58//635 368//635
f 58//636 358//636 344//636
f 30//637 58//637 344//637
f 32//638 58//638 30//638
f 344//639 334//639 19//639
f 24//640 344//640 19//640
f 27//641 344//641 24//641
f 334//642 321//642 17//642
f 18//643 334//643 17//643
f 19//644 334//644 18//644
f 16//645 17//645 321//645
f 308//646 16//646 321//646
f 13//647 16//647 308//647
f 289//648 13//648 308//648
f 7//649 13//649 289//649
f 262//650 7//650 289//650
f 135//651 7//651 262//651
f 238//652 135//652 262//652
f 210//653 135//653 238//653
f 135//654 210//654 193//654
f 179//655 135//655 193//655
f 166//656 135//656 179//656
f 135//657 166//657 156//657
f 135//658 2//658 3//658
f 4//659 135//659 3//659
f 5//660 135//660 4//660
f 135//661 5//661 6//661
f 7//662 135//662 6//662
f 344//663 27//663 30//663
f 58//664 32//664 34//664
f 36//665 58//665 34//665
f 42//666 58//666 36//666
f 58//667 42//667 45//667
f 48//668 58//668 45//668
f 50//669 58//669 48//669
f 58//670 50//670 53//670
f 56//671 58//671 53//671
f 124//672 128//672 126//672
f 123//673 124//673 126//673
f 127//674 124//674 123//674
f 125//675 127//675 123//675
f 131//676 127//676 125//676
f 129//677 131//677 125//677
f 138//678 131//678 129//678
f 136//679 138//679 129//679
f 147//680 138//680 136//680
f 145//681 147//681 136//681
f 153//682 147//682 145//682
f 151//683 153//683 145//683
f 162//684 153//684 151//684
f 160//685 162//685 151//685
f 169//686 162//686 160//686
f 167//687 169//687 160//687
f 177//688 169//688 167//688
f 175//689 177//689 167//689
f 185//690 177//690 175//690
f 183//691 185//691 175//691
f 198//692 185//692 183//692
f 196//693 198//693 183//693
f 217//694 198//694 196//694
f 215//695 217//695 196//695
f 236//696 217//696 215//696
f 234//697 236//697 215//697
f 253//698 236//698 234//698
f 251//699 253//699 234//699
f 286//700 253//700 251//700
f 284//701 286//701 251//701
f 301//702 286//702 284//702
f 299//703 301//703 284//703
f 316//704 301//704 299//704
f 314//705 316//705 299//705
f 328//706 316//706 314//706
f 326//707 328//707 314//707
f 342//708 328//708 326//708
f 340//709 342//709 326//709
f 352//710 342//710 340//710
f 350//711 352//711 340//711
f 361//712 352//712 350//712
f 359//713 361//713 350//713
f 375//714 361//714 359//714
f 373//715 375//715 359//715
f 389//716 375//716 373//716
f 387//717 389//717 373//717
f 407//718 389//718 387//718
f 405//719 407//719 387//719
f 419//720 407//720 405//720
f 417//721 419//721 405//721
f 425//722 419//722 417//722
f 423//723 425//723 417//723
f 430//724 425//724 423//724
f 428//725 430//725 423//725
f 435//726 430//726 428//726
f 433//727 435//727 428//727
f 441//728 435//728 433//728
f 439//729 441//729 433//729
f 445//730 441//730 439//730
f 443//731 445//731 439//731
f 450//732 445//732 443//732
f 448//733 450//733 443//733
f 455//734 450//734 448//734
f 453//735 455//735 448//735
f 459//736 455//736 453//736
f 457//737 459//737 453//737
f 463//738 459//738 457//738
f 461//739 463//739 457//739
f 466//740 463//740 461//740
f 465//741 466//741 461//741
f 464//742 466//742 465//742
f 462//743 464//743 465//743
f 460//744 464//744 462//744
f 458//745 460//745 462//745
f 456//746 460//746 458//746
f 454//747 456//747 458//747
f 451//748 456//748 454//748
f 449//749 451//749 454//749
f 446//750 451//750 449//750
f 444//751 446//751 449//751
f 442//752 446//752 444//752
f 440//753 442//753 444//753
f 436//754 442//754 440//754
f 434//755 436//755 440//755
f 431//756 436//756 434//756
f 429//757 431//757 434//757
f 426//758 431//758 429//758
f 424//759 426//759 429//759
f 420//760 426//760 424//760
f 418//761 420//761 424//761
f 408//762 420//762 418//762
f 406//763 408//763 418//763
f 390//764 408//764 406//764
f 388//765 390//765 406//765
f 376//766 390//766 388//766
f 374//767 376//767 388//767
f 362//768 376//768 374//768
f 360//769 362//769 374//769
f 353//770 362//770 360//770
f 351//771 353//771 360//771
f 343//772 353//772 351//772
f 341//773 343//773 351//773
f 329//774 343//774 341//774
f 327//775 329//775 341//775
f 317//776 329//776 327//776
f 315//777 317//777 327//777
f 302//778 317//778 315//778
f 300//779 302//779 315//779
f 287//780 302//780 300//780
f 285//781 287//781 300//781
f 254//782 287//782 285//782
f 252//783 254//783 285//783
f 237//784 254//784 252//784
f 235//785 237//785 252//785
f 218//786 237//786 235//786
f 216//787 218//787 235//787
f 199//788 218//788 216//788
f 197//789 199//789 216//789
f 186//790 199//790 197//790
f 184//791 186//791 197//791
f 178//792 186//792 184//792
f 176//793 178//793 184//793
f 170//794 178//794 176//794
f 168//795 170//795 176//795
f 163//796 170//796 168//796
f 161//797 163//797 168//797
f 154//798 163//798 161//798
f 152//799 154//799 161//799
f 148//800 154//800 152//800
f 146//801 148//801 152//801
f 139//802 148//802 146//802
f 137//803 139//803 146//803
f 132//804 139//804 137//804
f 130//805 132//805 137//805
f 128//806 132//806 130//806
f 126//807 128//807 130//807
f 202//808 206//808 128//808
f 124//809 202//809 128//809
f 127//810 202//810 124//810
f 132//811 128//811 206//811
f 212//812 132//812 206//812
f 139//813 132//813 212//813
f 220//814 139//814 212//814
f 148//815 139//815 220//815
f 154//816 148//816 220//816
f 226//817 154//817 220//817
f 163//818 154//818 226//818
f 231//819 163//819 226//819
f 170//820 163//820 231//820
f 242//821 170//821 231//821
f 178//822 170//822 242//822
f 186//823 178//823 242//823
f 256//824 186//824 242//824
f 199//825 186//825 256//825
f 276//826 199//826 256//826
f 218//827 199//827 276//827
f 292//828 218//828 276//828
f 237//829 218//829 292//829
f 254//830 237//830 292//830
f 304//831 254//831 292//831
f 287//832 254//832 304//832
f 311//833 287//833 304//833
f 302//834 287//834 311//834
f 323//835 302//835 311//835
f 317//836 302//836 323//836
f 329//837 317//837 323//837
f 331//838 329//838 323//838
f 343//839 329//839 331//839
f 337//840 343//840 331//840
f 353//841 343//841 337//841
f 346//842 353//842 337//842
f 362//843 353//843 346//843
f 376//844 362//844 346//844
f 355//845 376//845 346//845
f 390//846 376//846 355//846
f 364//847 390//847 355//847
f 408//848 390//848 364//848
f 370//849 408//849 364//849
f 420//850 408//850 370//850
f 426//851 420//851 370//851
f 378//852 426//852 370//852
f 431//853 426//853 378//853
f 384//854 431//854 378//854
f 436//855 431//855 384//855
f 392//856 436//856 384//856
f 442//857 436//857 392//857
f 446//858 442//858 392//858
f 396//859 446//859 392//859
f 451//860 446//860 396//860
f 402//861 451//861 396//861
f 456//862 451//862 402//862
f 410//863 456//863 402//863
f 460//864 456//864 410//864
f 464//865 460//865 410//865
f 414//866 464//866 410//866
f 466//867 464//867 414//867
f 413//868 466//868 414//868
f 463//869 466//869 413//869
f 409//870 463//870 413//870
f 459//871 463//871 409//871
f 455//872 459//872 409//872
f 401//873 455//873 409//873
f 450//874 455//874 401//874
f 395//875 450//875 401//875
f 445//876 450//876 395//876
f 391//877 445//877 395//877
f 441//878 445//878 391//878
f 435//879 441//879 391//879
f 383//880 435//880 391//880
f 430//881 435//881 383//881
f 377//882 430//882 383//882
f 425//883 430//883 377//883
f 369//884 425//884 377//884
f 419//885 425//885 369//885
f 407//886 419//886 369//886
f 363//887 407//887 369//887
f 389//888 407//888 363//888
f 354//889 389//889 363//889
f 375//890 389//890 354//890
f 345//891 375//891 354//891
f 361//892 375//892 345//892
f 352//893 361//893 345//893
f 336//894 352//894 345//894
f 342//895 352//895 336//895
f 330//896 342//896 336//896
f 328//897 342//897 330//897
f 322//898 328//898 330//898
f 316//899 328//899 322//899
f 301//900 316//900 322//900
f 310//901 301//901 322//901
f 286//902 301//902 310//902
f 303//903 286//903 310//903
f 253//904 286//904 303//904
f 291//905 253//905 303//905
f 236//906 253//906 291//906
f 217//907 236//907 291//907
f 275//908 217//908 291//908
f 198//909 217//909 275//909
f 255//910 198//910 275//910
f 185//911 198//911 255//911
f 241//912 185//912 255//912
f 177//913 185//913 241//913
f 169//914 177//914 241//914
f 230//915 169//915 241//915
f 162//916 169//916 230//916
f 225//917 162//917 230//917
f 153//918 162//918 225//918
f 219//919 153//919 225//919
f 147//920 153//920 219//920
f 138//921 147//921 219//921
f 211//922 138//922 219//922
f 131//923 138//923 211//923
f 205//924 131//924 211//924
f 127//925 131//925 205//925
f 202//926 127//926 205//926
f 202//927 205//927 207//927
f 203//928 202//928 207//928
f 206//929 202//929 203//929
f 208//930 206//930 203//930
f 214//931 206//931 208//931
f 207//932 205//932 211//932
f 213//933 207//933 211//933
f 219//934 213//934 211//934
f 221//935 213//935 219//935
f 225//936 221//936 219//936
f 227//937 221//937 225//937
f 230//938 227//938 225//938
f 232//939 227//939 230//939
f 241//940 232//940 230//940
f 243//941 232//941 241//941
f 255//942 243//942 241//942
f 257//943 243//943 255//943
f 275//944 257//944 255//944
f 277//945 257//945 275//945
f 291//946 277//946 275//946
f 293//947 277//947 291//947
f 303//948 293//948 291//948
f 305//949 293//949 303//949
f 310//950 305//950 303//950
f 312//951 305//951 310//951
f 322//952 312//952 310//952
f 324//953 312//953 322//953
f 330//954 324//954 322//954
f 332//955 324//955 330//955
f 336//956 332//956 330//956
f 338//957 332//957 336//957
f 345//958 338//958 336//958
f 347//959 338//959 345//959
f 354//960 347//960 345//960
f 356//961 347//961 354//961
f 363//962 356//962 354//962
f 365//963 356//963 363//963
f 369//964 365//964 363//964
f 371//965 365//965 369//965
f 377//966 371//966 369//966
f 379//967 371//967 377//967
f 383//968 379//968 377//968
f 385//969 379//969 383//969
f 391//970 385//970 383//970
f 393//971 385//971 391//971
f 395//972 393//972 391//972
f 397//973 393//973 395//973
f 401//974 397//974 395//974
f 403//975 397//975 401//975
f 409//976 403//976 401//976
f 411//977 403//977 409//977
f 413//978 411//978 409//978
f 415//979 411//979 413//979
f 414//980 415//980 413//980
f 416//981 415//981 414//981
f 410//982 416//982 414//982
f 412//983 416//983 410//983
f 402//984 412//984 410//984
f 404//985 412//985 402//985
f 396//986 404//986 402//986
f 398//987 404//987 396//987
f 392//988 398//988 396//988
f 394//989 398//989 392//989
f 384//990 394//990 392//990
f 386//991 394//991 384//991
f 378//992 386//992 384//992
f 380//993 386//993 378//993
f 370//994 380//994 378//994
f 372//995 380//995 370//995
f 364//996 372//996 370//996
f 366//997 372//997 364//997
f 355//998 366//998 364//998
f 357//999 366//999 355//999
f 346//1000 357//1000 355//1000
f 348//1001 357//1001 346//1001
f 337//1002 348//1002 346//1002
f 339//1003 348//1003 337//1003
f 331//1004 339//1004 337//1004
f 333//1005 339//1005 331//1005
f 323//1006 333//1006 331//1006
f 325//1007 333//1007 323//1007
f 311//1008 325//1008 323//1008
f 313//1009 325//1009 311//1009
f 304//1010 313//1010 311//1010
f 306//1011 313//1011 304//1011
f 292//1012 306//1012 304//1012
f 294//1013 306//1013 292//1013
f 276//1014 294//1014 292//1014
f 278//1015 294//1015 276//1015
f 256//1016 278//1016 276//1016
f 258//1017 278//1017 256//1017
f 242//1018 258//1018 256//1018
f 244//1019 258//1019 242//1019
f 231//1020 244//1020 242//1020
f 233//1021 244//1021 231//1021
f 226//1022 233//1022 231//1022
f 228//1023 233//1023 226//1023
f 220//1024 228//1024 226//1024
f 222//1025 228//1025 220//1025
f 212//1026 222//1026 220//1026
f 214//1027 222//1027 212//1027
f 206//1028 214//1028 212//1028
