# Created by FreeCAD <https://www.freecad.org>
v -10.750000 -30.192677 33.953426
v -10.750000 -30.192677 40.296574
v -10.750000 -30.180565 33.639076
v -10.750000 -30.180565 40.610928
v -10.750000 -30.144281 33.338181
v -10.750000 -30.144281 40.911819
v -10.750000 -30.083982 33.052032
v -10.750000 -30.083982 41.197968
v -10.750000 -29.999924 32.781853
v -10.750000 -29.999924 41.468147
v -10.750000 -29.892467 32.528805
v -10.750000 -29.892467 41.721195
v -10.750000 -29.762074 32.293972
v -10.750000 -29.762074 41.956032
v -10.750000 -29.609301 32.078354
v -10.750000 -29.609301 42.171650
v -10.750000 -29.434803 31.882875
v -10.750000 -29.434803 42.367126
v -10.750000 -29.239325 31.708376
v -10.750000 -29.239325 42.541626
v -10.750000 -29.023706 31.555603
v -10.750000 -29.023706 42.694397
v -10.750000 -28.788870 31.425209
v -10.750000 -28.788870 42.824791
v -10.750000 -28.535822 31.317753
v -10.750000 -28.535822 42.932247
v -10.750000 -28.265646 31.233696
v -10.750000 -28.265646 43.016304
v -10.750000 -27.979498 31.173395
v -10.750000 -27.979498 43.076607
v -10.750000 -27.678602 31.137112
v -10.750000 -27.678602 43.112888
v -10.750000 -27.364250 31.125000
v -10.750000 -27.364250 43.125000
v -10.750000 0.000000 43.125000
v -10.750000 0.000000 31.125000
v -10.750000 0.723220 31.168747
v -10.750000 0.723220 43.081253
v -10.750000 1.435894 31.299349
v -10.750000 1.435894 42.950649
v -10.750000 2.127629 31.514902
v -10.750000 2.127629 42.735096
v -10.750000 2.788339 31.812263
v -10.750000 2.788339 42.437737
v -10.750000 3.408388 32.187096
v -10.750000 3.408388 42.062904
v -10.750000 3.978736 32.633934
v -10.750000 3.978736 41.616066
v -10.750000 4.491065 33.146263
v -10.750000 4.491065 41.103737
v -10.750000 4.937903 33.716610
v -10.750000 4.937903 40.533390
v -10.750000 5.312736 34.336662
v -10.750000 5.312736 39.913338
v -10.750000 5.610097 34.997372
v -10.750000 5.610097 39.252628
v -10.750000 5.825651 35.689106
v -10.750000 5.825651 38.560894
v -10.750000 5.956253 36.401779
v -10.750000 5.956253 37.848221
v -10.750000 6.000000 37.125000
v -8.250000 -3.166954 36.395000
v -8.250000 -3.166954 37.855000
v -8.250000 -3.012467 35.905350
v -8.250000 -3.012467 38.344650
v -8.250000 -2.782793 35.446144
v -8.250000 -2.782793 38.803856
v -8.250000 -2.483666 35.028835
v -8.250000 -2.483666 39.221165
v -8.250000 -2.122550 34.663845
v -8.250000 -2.122550 39.586155
v -8.250000 -1.708459 34.360283
v -8.250000 -1.708459 39.889717
v -8.250000 -1.251728 34.125721
v -8.250000 -1.251728 40.124279
v -8.250000 -0.763755 33.966015
v -8.250000 -0.763755 40.283985
v -8.250000 -0.256721 33.885155
v -8.250000 -0.256721 40.364845
v -8.250000 0.256721 33.885155
v -8.250000 0.256721 40.364845
v -8.250000 0.763755 33.966015
v -8.250000 0.763755 40.283985
v -8.250000 1.251728 34.125721
v -8.250000 1.251728 40.124279
v -8.250000 1.708459 34.360283
v -8.250000 1.708459 39.889717
v -8.250000 2.122550 34.663845
v -8.250000 2.122550 39.586155
v -8.250000 2.483666 35.028835
v -8.250000 2.483666 39.221165
v -8.250000 2.782793 35.446144
v -8.250000 2.782793 38.803856
v -8.250000 3.012467 35.905350
v -8.250000 3.012467 38.344650
v -8.250000 3.166954 36.395000
v -8.250000 3.166954 37.855000
v -7.163698 -33.021103 28.296574
v -7.163698 -33.021103 45.953426
v -7.145984 -33.366089 28.689955
v -7.145984 -33.366089 45.560047
v -7.145984 -32.627724 27.951588
v -7.145984 -32.627724 46.298412
v -7.093146 -33.656780 29.125000
v -7.093146 -33.656780 45.125000
v -7.093146 -32.192677 27.660898
v -7.093146 -32.192677 46.589104
v -7.006087 -33.888195 29.594267
v -7.006087 -33.888195 44.655735
v -7.006087 -31.723410 27.429482
v -7.006087 -31.723410 46.820518
v -6.886297 -34.056381 30.089724
v -6.886297 -34.056381 44.160275
v -6.886297 -31.227953 27.261297
v -6.886297 -31.227953 46.988705
v -6.826859 -34.115818 30.344639
v -6.826859 -34.115818 43.905361
v -6.826859 -30.973038 27.201859
v -6.826859 -30.973038 47.048141
v -6.784221 -34.158455 30.602896
v -6.784221 -34.158455 43.647106
v -6.784221 -30.714781 27.159222
v -6.784221 -30.714781 47.090778
v -6.758564 -34.184113 30.863388
v -6.758564 -34.184113 43.386612
v -6.758564 -30.454288 27.133564
v -6.758564 -30.454288 47.116436
v -6.750000 -34.192677 31.125000
v -6.750000 -34.192677 43.125000
v -6.750000 -30.192677 27.125000
v -6.750000 -30.192677 47.125000
v -6.750000 0.000000 47.125000
v -6.750000 0.000000 27.125000
v -6.750000 0.922684 27.167658
v -6.750000 0.922684 47.082340
v -6.750000 1.837495 27.295269
v -6.750000 1.837495 46.954731
v -6.750000 2.736630 27.506744
v -6.750000 2.736630 46.743256
v -6.750000 3.612417 27.800278
v -6.750000 3.612417 46.449722
v -6.750000 4.457384 28.173367
v -6.750000 4.457384 46.076633
v -6.750000 5.264322 28.622829
v -6.750000 5.264322 45.627171
v -6.750000 6.026346 29.144829
v -6.750000 6.026346 45.105171
v -6.750000 6.736957 29.734911
v -6.750000 6.736957 44.515091
v -6.750000 7.390089 30.388044
v -6.750000 7.390089 43.861958
v -6.750000 7.980172 31.098654
v -6.750000 7.980172 43.151348
v -6.750000 8.502172 31.860678
v -6.750000 8.502172 42.389320
v -6.750000 8.951632 32.667618
v -6.750000 8.951632 41.582382
v -6.750000 9.324722 33.512585
v -6.750000 9.324722 40.737415
v -6.750000 9.618257 34.388371
v -6.750000 9.618257 39.861629
v -6.750000 9.829731 35.287506
v -6.750000 9.829731 38.962494
v -6.750000 9.957342 36.202316
v -6.750000 9.957342 38.047684
v -6.750000 10.000000 37.125000
v -4.250000 -3.166954 36.395000
v -4.250000 -3.166954 37.855000
v -4.250000 3.166954 36.395000
v -4.250000 3.166954 37.855000
v -3.750000 -3.249094 37.048275
v -3.750000 -3.249094 37.201725
v -3.750000 -3.241851 36.895000
v -3.750000 -3.241851 37.355000
v -3.750000 3.241851 36.895000
v -3.750000 3.241851 37.355000
v -3.750000 3.249094 37.048275
v -3.750000 3.249094 37.201725
v -1.250000 -6.000000 37.125000
v -1.250000 -5.956253 36.401779
v -1.250000 -5.956253 37.848221
v -1.250000 -5.825651 35.689106
v -1.250000 -5.825651 38.560894
v -1.250000 -5.610097 34.997372
v -1.250000 -5.610097 39.252628
v -1.250000 -5.312736 34.336662
v -1.250000 -5.312736 39.913338
v -1.250000 -4.937903 33.716610
v -1.250000 -4.937903 40.533390
v -1.250000 -4.491065 33.146263
v -1.250000 -4.491065 41.103737
v -1.250000 -3.978736 32.633934
v -1.250000 -3.978736 41.616066
v -1.250000 -3.408388 32.187096
v -1.250000 -3.408388 42.062904
v -1.250000 -3.243915 36.926220
v -1.250000 -3.232391 37.462864
v -1.250000 -3.166954 36.395000
v -1.250000 -3.132695 37.990288
v -1.250000 -3.003607 35.883694
v -1.250000 -2.947547 38.494110
v -1.250000 -2.788339 31.812263
v -1.250000 -2.788339 42.437737
v -1.250000 -2.758329 35.406246
v -1.250000 -2.681998 38.960590
v -1.250000 -2.437812 34.975681
v -1.250000 -2.343291 39.376995
v -1.250000 -2.127629 31.514902
v -1.250000 -2.127629 42.735096
v -1.250000 -2.050797 34.603745
v -1.250000 -1.940666 39.731976
v -1.250000 -1.607841 34.300579
v -1.250000 -1.485103 40.015842
v -1.250000 -1.435894 31.299349
v -1.250000 -1.435894 42.950649
v -1.250000 -1.121028 34.074459
v -1.250000 -0.989032 40.220856
v -1.250000 -0.723220 31.168747
v -1.250000 -0.723220 43.081253
v -1.250000 -0.603637 33.931549
v -1.250000 -0.465982 40.341419
v -1.250000 -0.069779 33.875748
v -1.250000 0.000000 43.125000
v -1.250000 0.000000 31.125000
v -1.250000 0.069779 40.374252
v -1.250000 0.465982 33.908581
v -1.250000 0.603637 40.318451
v -1.250000 0.723220 31.168747
v -1.250000 0.723220 43.081253
v -1.250000 0.989032 34.029144
v -1.250000 1.121028 40.175541
v -1.250000 1.435894 31.299349
v -1.250000 1.435894 42.950649
v -1.250000 1.485103 34.234158
v -1.250000 1.607841 39.949421
v -1.250000 1.940666 34.518024
v -1.250000 2.050797 39.646255
v -1.250000 2.127629 31.514902
v -1.250000 2.127629 42.735096
v -1.250000 2.343291 34.873005
v -1.250000 2.437812 39.274319
v -1.250000 2.681998 35.289413
v -1.250000 2.758329 38.843754
v -1.250000 2.788339 31.812263
v -1.250000 2.788339 42.437737
v -1.250000 2.947547 35.755890
v -1.250000 3.003607 38.366306
v -1.250000 3.132695 36.259712
v -1.250000 3.166954 37.855000
v -1.250000 3.232391 36.787140
v -1.250000 3.243915 37.323780
v -1.250000 3.408388 32.187096
v -1.250000 3.408388 42.062904
v -1.250000 3.978736 32.633934
v -1.250000 3.978736 41.616066
v -1.250000 4.491065 33.146263
v -1.250000 4.491065 41.103737
v -1.250000 4.937903 33.716610
v -1.250000 4.937903 40.533390
v -1.250000 5.312736 34.336662
v -1.250000 5.312736 39.913338
v -1.250000 5.610097 34.997372
v -1.250000 5.610097 39.252628
v -1.250000 5.825651 35.689106
v -1.250000 5.825651 38.560894
v -1.250000 5.956253 36.401779
v -1.250000 5.956253 37.848221
v -1.250000 6.000000 37.125000
v 3.250000 -13.831652 27.125000
v 3.250000 -13.831652 47.125000
v 3.250000 -6.000000 37.125000
v 3.250000 -5.956253 36.401779
v 3.250000 -5.956253 37.848221
v 3.250000 -5.825651 35.689106
v 3.250000 -5.825651 38.560894
v 3.250000 -5.610097 34.997372
v 3.250000 -5.610097 39.252628
v 3.250000 -5.312736 34.336662
v 3.250000 -5.312736 39.913338
v 3.250000 -4.937903 33.716610
v 3.250000 -4.937903 40.533390
v 3.250000 -4.491065 33.146263
v 3.250000 -4.491065 41.103737
v 3.250000 -3.978736 32.633934
v 3.250000 -3.978736 41.616066
v 3.250000 -3.408388 32.187096
v 3.250000 -3.408388 42.062904
v 3.250000 -2.788339 31.812263
v 3.250000 -2.788339 42.437737
v 3.250000 -2.127629 31.514902
v 3.250000 -2.127629 42.735096
v 3.250000 -1.435894 31.299349
v 3.250000 -1.435894 42.950649
v 3.250000 -0.723220 31.168747
v 3.250000 -0.723220 43.081253
v 3.250000 0.000000 47.125000
v 3.250000 0.000000 43.125000
v 3.250000 0.000000 27.125000
v 3.250000 0.000000 31.125000
v 3.250000 0.723220 31.168747
v 3.250000 0.723220 43.081253
v 3.250000 0.922684 27.167658
v 3.250000 0.922684 47.082340
v 3.250000 1.435894 31.299349
v 3.250000 1.435894 42.950649
v 3.250000 1.837495 27.295269
v 3.250000 1.837495 46.954731
v 3.250000 2.127629 31.514902
v 3.250000 2.127629 42.735096
v 3.250000 2.736630 27.506744
v 3.250000 2.736630 46.743256
v 3.250000 2.788339 31.812263
v 3.250000 2.788339 42.437737
v 3.250000 3.408388 32.187096
v 3.250000 3.408388 42.062904
v 3.250000 3.612417 27.800278
v 3.250000 3.612417 46.449722
v 3.250000 3.978736 32.633934
v 3.250000 3.978736 41.616066
v 3.250000 4.457384 28.173367
v 3.250000 4.457384 46.076633
v 3.250000 4.491065 33.146263
v 3.250000 4.491065 41.103737
v 3.250000 4.937903 33.716610
v 3.250000 4.937903 40.533390
v 3.250000 5.264322 28.622829
v 3.250000 5.264322 45.627171
v 3.250000 5.312736 34.336662
v 3.250000 5.312736 39.913338
v 3.250000 5.610097 34.997372
v 3.250000 5.610097 39.252628
v 3.250000 5.825651 35.689106
v 3.250000 5.825651 38.560894
v 3.250000 5.956253 36.401779
v 3.250000 5.956253 37.848221
v 3.250000 6.000000 37.125000
v 3.250000 6.026346 29.144829
v 3.250000 6.026346 45.105171
v 3.250000 6.736957 29.734911
v 3.250000 6.736957 44.515091
v 3.250000 7.390089 30.388044
v 3.250000 7.390089 43.861958
v 3.250000 7.980172 31.098654
v 3.250000 7.980172 43.151348
v 3.250000 8.502172 31.860678
v 3.250000 8.502172 42.389320
v 3.250000 8.951632 32.667618
v 3.250000 8.951632 41.582382
v 3.250000 9.324722 33.512585
v 3.250000 9.324722 40.737415
v 3.250000 9.618257 34.388371
v 3.250000 9.618257 39.861629
v 3.250000 9.829731 35.287506
v 3.250000 9.829731 38.962494
v 3.250000 9.957342 36.202316
v 3.250000 9.957342 38.047684
v 3.250000 10.000000 37.125000
v 3.500000 -55.000000 37.125000
v 3.500000 -54.957340 36.202316
v 3.500000 -54.957340 38.047684
v 3.500000 -54.829731 35.287506
v 3.500000 -54.829731 38.962494
v 3.500000 -54.618256 34.388371
v 3.500000 -54.618256 39.861629
v 3.500000 -54.324722 33.512585
v 3.500000 -54.324722 40.737415
v 3.500000 -53.951633 32.667618
v 3.500000 -53.951633 41.582382
v 3.500000 -53.502171 31.860678
v 3.500000 -53.502171 42.389320
v 3.500000 -52.980171 31.098654
v 3.500000 -52.980171 43.151348
v 3.500000 -52.390091 30.388044
v 3.500000 -52.390091 43.861958
v 3.500000 -51.736958 29.734911
v 3.500000 -51.736958 44.515091
v 3.500000 -51.026348 29.144829
v 3.500000 -51.026348 45.105171
v 3.500000 -50.264320 28.622829
v 3.500000 -50.264320 45.627171
v 3.500000 -49.457382 28.173367
v 3.500000 -49.457382 46.076633
v 3.500000 -48.750000 37.125000
v 3.500000 -48.706051 36.552567
v 3.500000 -48.706051 37.697433
v 3.500000 -48.612415 27.800278
v 3.500000 -48.612415 46.449722
v 3.500000 -48.575237 35.993549
v 3.500000 -48.575237 38.256451
v 3.500000 -48.360622 35.461052
v 3.500000 -48.360622 38.788948
v 3.500000 -48.067234 34.967556
v 3.500000 -48.067234 39.282444
v 3.500000 -47.736629 27.506744
v 3.500000 -47.736629 46.743256
v 3.500000 -47.701958 34.524628
v 3.500000 -47.701958 39.725372
v 3.500000 -47.273346 34.142651
v 3.500000 -47.273346 40.107349
v 3.500000 -46.837494 27.295269
v 3.500000 -46.837494 46.954731
v 3.500000 -46.791451 33.830578
v 3.500000 -46.791451 40.419422
v 3.500000 -46.267563 33.595726
v 3.500000 -46.267563 40.654274
v 3.500000 -45.922684 27.167658
v 3.500000 -45.922684 47.082340
v 3.500000 -45.713966 33.443596
v 3.500000 -45.713966 40.806408
v 3.500000 -45.143635 33.377750
v 3.500000 -45.143635 40.872250
v 3.500000 -45.000000 27.125000
v 3.500000 -45.000000 47.125000
v 3.500000 -44.569939 33.399742
v 3.500000 -44.569939 40.850258
v 3.500000 -44.006321 33.509048
v 3.500000 -44.006321 40.740952
v 3.500000 -43.465992 33.703110
v 3.500000 -43.465992 40.546890
v 3.500000 -42.961620 33.977379
v 3.500000 -42.961620 40.272621
v 3.500000 -42.505028 34.325424
v 3.500000 -42.505028 39.924576
v 3.500000 -42.106915 34.739090
v 3.500000 -42.106915 39.510910
v 3.500000 -41.776615 35.208679
v 3.500000 -41.776615 39.041321
v 3.500000 -41.521866 35.723186
v 3.500000 -41.521866 38.526814
v 3.500000 -41.348640 36.270550
v 3.500000 -41.348640 37.979450
v 3.500000 -41.261002 36.837940
v 3.500000 -41.261002 37.412060
v 3.500000 -34.192677 31.125000
v 3.500000 -34.192677 43.125000
v 3.500000 -34.151962 30.555740
v 3.500000 -34.151962 43.694260
v 3.500000 -34.030647 29.998070
v 3.500000 -34.030647 44.251930
v 3.500000 -33.831203 29.463341
v 3.500000 -33.831203 44.786659
v 3.500000 -33.557690 28.962437
v 3.500000 -33.557690 45.287563
v 3.500000 -33.215675 28.505558
v 3.500000 -33.215675 45.744442
v 3.500000 -32.812119 28.102001
v 3.500000 -32.812119 46.147999
v 3.500000 -32.355240 27.759987
v 3.500000 -32.355240 46.490013
v 3.500000 -31.854338 27.486473
v 3.500000 -31.854338 46.763527
v 3.500000 -31.319607 27.287027
v 3.500000 -31.319607 46.962971
v 3.500000 -30.761936 27.165714
v 3.500000 -30.761936 47.084286
v 3.500000 -30.192677 27.125000
v 3.500000 -30.192677 47.125000
v 5.500000 -46.299999 43.200001
v 5.500000 -46.299999 47.040142
v 5.500000 -45.868031 47.087254
v 5.500000 -45.434425 47.115559
v 5.500000 -45.000000 47.125000
v 5.500000 -43.700001 43.200001
v 5.500000 -43.700001 47.125000
v 6.000000 -54.995819 37.414124
v 6.000000 -54.978764 36.473618
v 6.000000 -54.924431 38.352070
v 6.000000 -54.873409 35.538876
v 6.000000 -54.765224 39.279160
v 6.000000 -54.680691 34.618168
v 6.000000 -54.519611 40.187187
v 6.000000 -54.402317 33.719643
v 6.000000 -54.189766 41.068123
v 6.000000 -54.040745 32.851250
v 6.000000 -53.778606 41.914165
v 6.000000 -53.599174 32.020672
v 6.000000 -53.289768 42.717831
v 6.000000 -53.081520 31.235258
v 6.000000 -52.727577 43.472012
v 6.000000 -52.492352 30.501961
v 6.000000 -52.097012 44.170029
v 6.000000 -51.836891 29.827267
v 6.000000 -51.403648 44.805710
v 6.000000 -51.120934 29.217146
v 6.000000 -50.653625 45.373425
v 6.000000 -50.350819 28.676996
v 6.000000 -49.853573 45.868160
v 6.000000 -49.533352 28.211599
v 6.000000 -49.010578 46.285530
v 6.000000 -48.675777 27.825071
v 6.000000 -48.132092 46.621841
v 6.000000 -47.785675 27.520834
v 6.000000 -47.225895 46.874123
v 6.000000 -46.870926 27.301577
v 6.000000 -46.299999 47.040142
v 6.000000 -45.939621 27.169243
v 6.000000 -45.000000 27.125000
v 6.000000 -43.700001 47.125000
v 6.000000 -13.831652 27.125000
v 6.000000 -13.831652 47.125000
v 6.398706 -46.299999 46.637878
v 6.780969 -46.299999 46.251915
v 7.500000 -53.497784 37.319038
v 7.500000 -53.474964 36.473080
v 7.500000 -53.436375 38.163071
v 7.500000 -53.368134 35.633587
v 7.500000 -53.291340 38.996811
v 7.500000 -53.178360 34.808876
v 7.500000 -53.064121 39.812000
v 7.500000 -52.907516 34.007122
v 7.500000 -52.756966 40.600555
v 7.500000 -52.558296 33.236275
v 7.500000 -52.372921 41.354660
v 7.500000 -52.134151 32.503975
v 7.500000 -51.915794 42.066841
v 7.500000 -51.639294 31.817478
v 7.500000 -51.390118 42.730034
v 7.500000 -51.078621 31.183590
v 7.500000 -50.801098 43.337669
v 7.500000 -50.457699 30.608597
v 7.500000 -50.154579 43.883720
v 7.500000 -49.782681 30.098196
v 7.500000 -49.456966 44.362782
v 7.500000 -49.060249 29.657446
v 7.500000 -48.750000 37.125000
v 7.500000 -48.715172 44.770096
v 7.500000 -48.706051 36.552567
v 7.500000 -48.706051 37.697433
v 7.500000 -48.575237 35.993549
v 7.500000 -48.575237 38.256451
v 7.500000 -48.360622 35.461052
v 7.500000 -48.360622 38.788948
v 7.500000 -48.297577 29.290718
v 7.500000 -48.067234 34.967556
v 7.500000 -48.067234 39.282444
v 7.500000 -47.936554 45.101631
v 7.500000 -47.701958 34.524628
v 7.500000 -47.701958 39.725372
v 7.500000 -47.502216 29.001644
v 7.500000 -47.273346 34.142651
v 7.500000 -47.273346 40.107349
v 7.500000 -47.128826 45.354099
v 7.500000 -46.791451 33.830578
v 7.500000 -46.791451 40.419422
v 7.500000 -46.682053 28.793091
v 7.500000 -46.299999 43.200001
v 7.500000 -46.299999 45.525002
v 7.500000 -46.267563 33.595726
v 7.500000 -46.267563 40.654274
v 7.500000 -45.845215 28.667128
v 7.500000 -45.713966 33.443596
v 7.500000 -45.713966 40.806408
v 7.500000 -45.143635 33.377750
v 7.500000 -45.143635 40.872250
v 7.500000 -45.000000 28.625000
v 7.500000 -44.569939 33.399742
v 7.500000 -44.569939 40.850258
v 7.500000 -44.006321 33.509048
v 7.500000 -44.006321 40.740952
v 7.500000 -43.700001 43.200001
v 7.500000 -43.700001 45.625000
v 7.500000 -43.465992 33.703110
v 7.500000 -43.465992 40.546890
v 7.500000 -42.961620 33.977379
v 7.500000 -42.961620 40.272621
v 7.500000 -42.505028 34.325424
v 7.500000 -42.505028 39.924576
v 7.500000 -42.106915 34.739090
v 7.500000 -42.106915 39.510910
v 7.500000 -41.776615 35.208679
v 7.500000 -41.776615 39.041321
v 7.500000 -41.521866 35.723186
v 7.500000 -41.521866 38.526814
v 7.500000 -41.348640 36.270550
v 7.500000 -41.348640 37.979450
v 7.500000 -41.261002 36.837940
v 7.500000 -41.261002 37.412060
v 7.500000 -13.831652 28.625000
v 7.500000 -13.831652 45.625000
vn 0.705061 -0.125159 0.698015
vn -0.000000 -1.000000 -0.000000
vn -0.000000 -1.000000 -0.000000
vn 0.709057 -0.142405 0.690622
vn 0.704826 -0.190253 0.683392
vn 0.709293 -0.210299 0.672814
vn 0.704652 -0.253684 0.662654
vn 0.709459 -0.276094 0.648414
vn 0.704539 -0.314878 0.635984
vn 0.709553 -0.339155 0.617664
vn 0.704487 -0.373271 0.603628
vn 0.709576 -0.398883 0.580856
vn 0.704497 -0.428329 0.565877
vn 0.709530 -0.454692 0.538351
vn 0.704568 -0.479559 0.523074
vn 0.709413 -0.506055 0.490552
vn 0.704701 -0.526488 0.475612
vn 0.709225 -0.552475 0.437917
vn 0.704894 -0.568694 0.423923
vn 0.708966 -0.593501 0.380950
vn 0.705149 -0.605794 0.368481
vn 0.708637 -0.628735 0.320197
vn 0.705464 -0.637456 0.309791
vn 0.708235 -0.657834 0.256237
vn 0.705839 -0.663395 0.248392
vn 0.707762 -0.680511 0.189680
vn 0.706275 -0.683379 0.184848
vn 0.707217 -0.696536 0.121167
vn 0.706771 -0.697236 0.119734
vn 0.706660 -0.705512 0.053697
vn 0.707339 -0.705011 0.051294
vn 0.706177 -0.707918 -0.012838
vn 0.707869 -0.706087 -0.019047
vn 0.705754 -0.703999 -0.079347
vn 0.708327 -0.700238 -0.089110
vn 0.705392 -0.693782 -0.145219
vn 0.708712 -0.687530 -0.158207
vn 0.705089 -0.677356 -0.209853
vn 0.709028 -0.668090 -0.225690
vn 0.704848 -0.654861 -0.272664
vn 0.709271 -0.642115 -0.290900
vn 0.704667 -0.626503 -0.333075
vn 0.709444 -0.609854 -0.353225
vn 0.704548 -0.592535 -0.390531
vn 0.709546 -0.571626 -0.412054
vn 0.704490 -0.553261 -0.444518
vn 0.709577 -0.527794 -0.466833
vn 0.704493 -0.509045 -0.494533
vn 0.709539 -0.478785 -0.517030
vn 0.704558 -0.460283 -0.540128
vn 0.709429 -0.425068 -0.562164
vn 0.704684 -0.407425 -0.580884
vn 0.709249 -0.367154 -0.601801
vn 0.704871 -0.350947 -0.616436
vn 0.708997 -0.305604 -0.635554
vn 0.705119 -0.291374 -0.646459
vn 0.708675 -0.241003 -0.663097
vn 0.705427 -0.229241 -0.670687
vn 0.708281 -0.173969 -0.684158
vn 0.705796 -0.165124 -0.688902
vn 0.707816 -0.105144 -0.698528
vn 0.706226 -0.099601 -0.700946
vn 0.707278 -0.035192 -0.706059
vn 0.706715 -0.033276 -0.706715
vn 0.000000 1.000000 0.000000
vn 0.000000 1.000000 0.000000
vn 0.000000 1.000000 0.000000
vn 0.000000 1.000000 0.000000
vn 0.000000 1.000000 0.000000
vn 0.707107 0.000000 -0.707107
vn 0.707107 0.000000 -0.707107
vn 1.000000 0.000000 0.000000
vn 1.000000 0.000000 0.000000
vn 1.000000 0.000000 0.000000
vn 1.000000 0.000000 0.000000
vn 1.000000 0.000000 0.000000
vn 1.000000 0.000000 0.000000
vn 0.707107 0.000000 0.707107
vn 0.707107 0.000000 0.707107
vn 1.000000 0.000000 0.000000
vn 1.000000 0.000000 0.000000
vn 1.000000 0.000000 0.000000
vn 1.000000 0.000000 0.000000
vn 1.000000 0.000000 0.000000
vn 1.000000 0.000000 -0.000000
vn 1.000000 0.000000 -0.000000
vn 1.000000 -0.000000 0.000000
vn 1.000000 0.000000 -0.000000
vn 1.000000 -0.000000 0.000000
vn 1.000000 0.000000 -0.000000
vn 1.000000 -0.000000 0.000000
vn 1.000000 0.000000 -0.000000
vn 1.000000 0.000000 -0.000000
vn 1.000000 -0.000000 0.000000
vn 1.000000 0.000000 -0.000000
vn 1.000000 -0.000000 0.000000
vn 1.000000 0.000000 -0.000000
vn 1.000000 -0.000000 0.000000
vn 1.000000 0.000000 -0.000000
vn 1.000000 0.000000 -0.000000
vn 1.000000 -0.000000 0.000000
vn 1.000000 0.000000 -0.000000
vn 1.000000 -0.000000 0.000000
vn 1.000000 0.000000 -0.000000
vn 1.000000 -0.000000 0.000000
vn 1.000000 0.000000 -0.000000
vn 1.000000 -0.000000 0.000000
vn 1.000000 0.000000 0.000000
vn 1.000000 -0.000000 0.000000
vn 1.000000 0.000000 0.000000
vn 1.000000 -0.000000 0.000000
vn 1.000000 -0.000000 0.000000
vn 1.000000 0.000000 0.000000
vn 1.000000 -0.000000 0.000000
vn 1.000000 0.000000 0.000000
vn 1.000000 -0.000000 0.000000
vn 1.000000 0.000000 0.000000
vn 1.000000 -0.000000 0.000000
vn 1.000000 -0.000000 0.000000
vn 1.000000 0.000000 0.000000
vn 1.000000 -0.000000 0.000000
vn 1.000000 0.000000 0.000000
vn 1.000000 -0.000000 0.000000
vn 1.000000 0.000000 0.000000
vn 1.000000 -0.000000 0.000000
vn 1.000000 0.000000 0.000000
vn 1.000000 0.000000 0.000000
vn 1.000000 0.000000 0.000000
vn 1.000000 0.000000 0.000000
vn 1.000000 0.000000 0.000000
vn 1.000000 0.000000 0.000000
vn 1.000000 0.000000 0.000000
vn 1.000000 0.000000 0.000000
vn 1.000000 0.000000 0.000000
vn 1.000000 0.000000 0.000000
vn 1.000000 0.000000 0.000000
vn 1.000000 0.000000 0.000000
vn 1.000000 0.000000 0.000000
vn 1.000000 0.000000 0.000000
vn 1.000000 0.000000 0.000000
vn 1.000000 0.000000 0.000000
vn 1.000000 0.000000 0.000000
vn 1.000000 0.000000 0.000000
vn 1.000000 0.000000 0.000000
vn 1.000000 0.000000 0.000000
vn 1.000000 0.000000 0.000000
vn 1.000000 0.000000 0.000000
vn 1.000000 0.000000 0.000000
vn 1.000000 0.000000 0.000000
vn 1.000000 0.000000 0.000000
vn 1.000000 0.000000 0.000000
vn 1.000000 0.000000 0.000000
vn 1.000000 0.000000 -0.000000
vn 1.000000 0.000000 0.000000
vn 1.000000 0.000000 -0.000000
vn 1.000000 0.000000 0.000000
vn 1.000000 0.000000 0.000000
vn 1.000000 0.000000 -0.000000
vn 1.000000 0.000000 0.000000
vn 1.000000 0.000000 -0.000000
vn 1.000000 0.000000 0.000000
vn 1.000000 0.000000 -0.000000
vn 1.000000 0.000000 0.000000
vn 1.000000 0.000000 0.000000
vn 1.000000 0.000000 -0.000000
vn 1.000000 0.000000 0.000000
vn 1.000000 0.000000 -0.000000
vn 1.000000 0.000000 0.000000
vn 1.000000 0.000000 -0.000000
vn 0.000000 -0.000000 -1.000000
vn 0.000000 0.000000 -1.000000
vn 0.000000 -0.000000 1.000000
vn 0.000000 0.000000 1.000000
vn 1.000000 0.000000 0.000000
vn 1.000000 0.000000 0.000000
vn 1.000000 0.000000 0.000000
vn 1.000000 -0.000000 0.000000
vn 1.000000 0.000000 0.000000
vn 1.000000 -0.000000 0.000000
vn 1.000000 0.000000 0.000000
vn 1.000000 -0.000000 0.000000
vn 1.000000 0.000000 0.000000
vn 1.000000 -0.000000 0.000000
vn 1.000000 0.000000 0.000000
vn 1.000000 -0.000000 0.000000
vn 1.000000 0.000000 0.000000
vn 1.000000 -0.000000 0.000000
vn 1.000000 0.000000 0.000000
vn 1.000000 -0.000000 0.000000
vn 1.000000 0.000000 0.000000
vn 1.000000 0.000000 -0.000000
vn 1.000000 0.000000 -0.000000
vn 1.000000 0.000000 -0.000000
vn 1.000000 0.000000 -0.000000
vn 1.000000 0.000000 -0.000000
vn 1.000000 0.000000 -0.000000
vn 1.000000 0.000000 -0.000000
vn 1.000000 0.000000 -0.000000
vn 1.000000 0.000000 -0.000000
vn 1.000000 0.000000 -0.000000
vn 1.000000 0.000000 -0.000000
vn 1.000000 0.000000 -0.000000
vn 1.000000 0.000000 -0.000000
vn 1.000000 0.000000 -0.000000
vn 1.000000 0.000000 -0.000000
vn 0.707107 -0.000000 0.707107
vn 0.707107 -0.000000 0.707107
vn 0.707107 0.000000 -0.707107
vn 0.707107 0.000000 -0.707107
vn 0.000000 0.000000 -1.000000
vn 0.000000 0.000000 -1.000000
vn 0.000000 0.000000 -1.000000
vn 0.000000 -0.000000 -1.000000
vn 0.000000 0.000000 -1.000000
vn -0.000000 -0.000000 -1.000000
vn 0.000000 -0.999465 0.032718
vn 0.000987 -0.997452 0.071339
vn 0.000179 -0.995183 0.098039
vn -0.000124 -0.986647 0.162871
vn 0.000925 -0.977146 0.212567
vn 0.000408 -0.973856 0.227164
vn -0.000489 -0.946966 0.321333
vn 0.000728 -0.936949 0.349464
vn -0.000645 -0.896921 0.442191
vn 0.000855 -0.877679 0.479248
vn -0.000747 -0.831509 0.555510
vn 0.000931 -0.800542 0.599277
vn -0.000797 -0.751856 0.659327
vn 0.000956 -0.707106 0.707106
vn -0.000797 -0.659327 0.751856
vn 0.000931 -0.599277 0.800542
vn -0.000747 -0.555510 0.831509
vn 0.000855 -0.479250 0.877678
vn -0.000645 -0.442189 0.896922
vn 0.000728 -0.349463 0.936950
vn -0.000489 -0.321336 0.946965
vn 0.000408 -0.227163 0.973857
vn 0.000925 -0.212567 0.977146
vn -0.000124 -0.162870 0.986648
vn 0.000179 -0.098040 0.995183
vn 0.000987 -0.071339 0.997452
vn 0.000000 -0.032718 0.999465
vn -0.720086 -0.026715 0.693370
vn -0.731434 -0.053911 0.679778
vn -0.743715 -0.080027 0.663689
vn -0.764166 -0.133010 0.631157
vn -0.772333 -0.159883 0.614768
vn -0.781338 -0.185406 0.595932
vn -0.795168 -0.237017 0.558150
vn -0.799998 -0.263137 0.539224
vn -0.805591 -0.287611 0.517980
vn -0.812565 -0.336971 0.475594
vn -0.813950 -0.361889 0.454447
vn -0.816059 -0.384893 0.431166
vn -0.816059 -0.431167 0.384893
vn -0.813950 -0.454447 0.361889
vn -0.812565 -0.475592 0.336973
vn -0.805591 -0.517980 0.287611
vn -0.799998 -0.539224 0.263137
vn -0.795168 -0.558150 0.237017
vn -0.781339 -0.595931 0.185407
vn -0.772333 -0.614768 0.159884
vn -0.764164 -0.631161 0.133002
vn -0.743718 -0.663686 0.080032
vn -0.720086 -0.693371 0.026715
vn -0.731434 -0.679778 0.053911
vn -0.000000 -1.000000 0.000000
vn 0.000000 -1.000000 0.000000
vn -0.707146 -0.707067 -0.000004
vn -0.707081 -0.707133 0.000005
vn -0.707099 -0.707115 0.000001
vn -0.707107 -0.707107 -0.000001
vn -0.707107 -0.707107 0.000000
vn -0.707107 -0.707107 0.000000
vn -0.707106 -0.707107 0.000001
vn -0.707099 -0.707115 -0.000001
vn -0.707081 -0.707133 -0.000005
vn -0.707146 -0.707067 0.000004
vn -1.000000 0.000000 0.000000
vn -1.000000 -0.000000 0.000000
vn -1.000000 0.000000 0.000000
vn -1.000000 -0.000000 -0.000000
vn -1.000000 -0.000000 -0.000000
vn -1.000000 -0.000000 -0.000000
vn -1.000000 -0.000000 -0.000000
vn -1.000000 -0.000000 -0.000000
vn -1.000000 -0.000000 -0.000000
vn -1.000000 -0.000000 -0.000000
vn -1.000000 -0.000000 -0.000000
vn -1.000000 0.000000 0.000000
vn -1.000000 0.000000 -0.000000
vn -1.000000 0.000000 -0.000000
vn -1.000000 0.000000 0.000000
vn -1.000000 0.000000 -0.000000
vn -1.000000 0.000000 -0.000000
vn -1.000000 0.000000 0.000000
vn -1.000000 0.000000 -0.000000
vn -1.000000 0.000000 -0.000000
vn -1.000000 0.000000 0.000000
vn -1.000000 0.000000 -0.000000
vn -1.000000 0.000000 -0.000000
vn -1.000000 0.000000 0.000000
vn -1.000000 0.000000 -0.000000
vn -1.000000 0.000000 0.000000
vn -1.000000 0.000000 0.000000
vn -1.000000 0.000000 0.000000
vn -1.000000 0.000000 0.000000
vn -1.000000 0.000000 0.000000
vn -1.000000 -0.000000 0.000000
vn -1.000000 -0.000000 0.000000
vn -1.000000 0.000000 0.000000
vn -1.000000 -0.000000 0.000000
vn -1.000000 0.000000 0.000000
vn -1.000000 -0.000000 0.000000
vn -1.000000 -0.000000 0.000000
vn -1.000000 0.000000 0.000000
vn -1.000000 -0.000000 0.000000
vn -1.000000 -0.000000 0.000000
vn -1.000000 0.000000 0.000000
vn -1.000000 -0.000000 0.000000
vn -1.000000 -0.000000 0.000000
vn -1.000000 0.000000 0.000000
vn -1.000000 0.000000 0.000000
vn -1.000000 0.000000 0.000000
vn -1.000000 0.000000 0.000000
vn -1.000000 0.000000 0.000000
vn -1.000000 0.000000 0.000000
vn -1.000000 0.000000 0.000000
vn -1.000000 0.000000 0.000000
vn -1.000000 0.000000 0.000000
vn -1.000000 0.000000 0.000000
vn -1.000000 0.000000 0.000000
vn -1.000000 0.000000 0.000000
vn -1.000000 0.000000 0.000000
vn -1.000000 0.000000 0.000000
vn -1.000000 0.000000 0.000000
vn -1.000000 0.000000 0.000000
vn -0.720086 -0.693371 -0.026715
vn -0.731434 -0.679778 -0.053911
vn -0.743717 -0.663687 -0.080031
vn -0.764164 -0.631161 -0.133002
vn -0.772333 -0.614768 -0.159883
vn -0.781339 -0.595931 -0.185407
vn -0.795168 -0.558150 -0.237017
vn -0.799998 -0.539223 -0.263138
vn -0.805591 -0.517978 -0.287614
vn -0.812565 -0.475592 -0.336973
vn -0.813950 -0.454448 -0.361888
vn -0.816059 -0.431169 -0.384891
vn -0.816059 -0.384893 -0.431166
vn -0.813950 -0.361889 -0.454447
vn -0.812565 -0.336973 -0.475592
vn -0.805591 -0.287611 -0.517980
vn -0.799998 -0.263136 -0.539225
vn -0.795167 -0.237017 -0.558150
vn -0.781338 -0.185406 -0.595932
vn -0.772333 -0.159885 -0.614767
vn -0.764165 -0.133006 -0.631159
vn -0.743717 -0.080031 -0.663687
vn -0.720086 -0.026715 -0.693371
vn -0.731433 -0.053909 -0.679779
vn 0.000000 -0.032718 -0.999465
vn 0.000987 -0.071339 -0.997452
vn 0.000179 -0.098040 -0.995183
vn -0.000124 -0.162870 -0.986648
vn 0.000925 -0.212564 -0.977147
vn 0.000408 -0.227169 -0.973855
vn -0.000490 -0.321332 -0.946966
vn 0.000728 -0.349466 -0.936949
vn -0.000645 -0.442192 -0.896920
vn 0.000855 -0.479250 -0.877678
vn -0.000747 -0.555508 -0.831511
vn 0.000931 -0.599277 -0.800542
vn -0.000797 -0.659327 -0.751856
vn 0.000956 -0.707106 -0.707106
vn -0.000797 -0.751857 -0.659325
vn 0.000931 -0.800542 -0.599277
vn -0.000747 -0.831508 -0.555512
vn 0.000855 -0.877679 -0.479248
vn -0.000645 -0.896922 -0.442189
vn 0.000728 -0.936949 -0.349464
vn -0.000489 -0.946965 -0.321336
vn 0.000408 -0.973857 -0.227163
vn 0.000925 -0.977146 -0.212567
vn -0.000124 -0.986648 -0.162870
vn 0.000179 -0.995183 -0.098040
vn 0.000987 -0.997452 -0.071339
vn 0.000000 -0.999465 -0.032718
vn -0.707106 0.000001 0.707107
vn -0.707099 -0.000001 0.707115
vn -0.707081 -0.000005 0.707133
vn -0.707146 0.000004 0.707067
vn -0.707107 0.000000 0.707107
vn -0.707107 0.000000 0.707107
vn -0.706729 0.032674 -0.706729
vn -0.707622 0.042663 -0.705302
vn -0.706246 0.097810 -0.701178
vn -0.708067 0.127286 -0.694579
vn -0.706192 0.162102 -0.689214
vn -0.707800 0.210160 -0.674427
vn -0.706568 0.224883 -0.670961
vn -0.706917 0.285692 -0.647031
vn -0.707399 0.290086 -0.644544
vn -0.706326 0.344461 -0.618425
vn -0.708022 0.365338 -0.604345
vn -0.706165 0.400144 -0.584137
vn -0.707933 0.435576 -0.555972
vn -0.706434 0.452162 -0.544519
vn -0.707131 0.499983 -0.499983
vn -0.707131 0.499983 -0.499982
vn -0.706434 0.544518 -0.452163
vn -0.707933 0.555971 -0.435576
vn -0.706165 0.584137 -0.400144
vn -0.708022 0.604345 -0.365337
vn -0.706326 0.618426 -0.344460
vn -0.707399 0.644544 -0.290086
vn -0.706917 0.647030 -0.285692
vn -0.706568 0.670961 -0.224884
vn -0.707800 0.674427 -0.210160
vn -0.706192 0.689214 -0.162101
vn -0.708067 0.694579 -0.127286
vn -0.706246 0.701178 -0.097811
vn -0.707622 0.705302 -0.042663
vn -0.706729 0.706729 -0.032674
vn -0.706729 0.706729 0.032674
vn -0.707622 0.705302 0.042663
vn -0.706246 0.701178 0.097811
vn -0.708067 0.694579 0.127286
vn -0.706192 0.689214 0.162101
vn -0.707800 0.674427 0.210160
vn -0.706568 0.670961 0.224884
vn -0.706917 0.647030 0.285692
vn -0.707399 0.644544 0.290086
vn -0.706326 0.618425 0.344460
vn -0.708022 0.604345 0.365337
vn -0.706165 0.584138 0.400142
vn -0.707933 0.555971 0.435576
vn -0.706434 0.544518 0.452163
vn -0.707131 0.499983 0.499983
vn -0.707131 0.499983 0.499982
vn -0.706434 0.452161 0.544520
vn -0.707933 0.435576 0.555972
vn -0.706165 0.400144 0.584137
vn -0.708022 0.365338 0.604345
vn -0.706326 0.344461 0.618425
vn -0.707399 0.290084 0.644545
vn -0.706917 0.285692 0.647031
vn -0.706568 0.224883 0.670961
vn -0.707800 0.210160 0.674427
vn -0.706192 0.162102 0.689214
vn -0.708067 0.127288 0.694578
vn -0.706246 0.097809 0.701178
vn -0.707622 0.042663 0.705302
vn -0.706729 0.032675 0.706729
vn -0.707118 0.000003 -0.707095
vn -0.707107 -0.000000 -0.707107
vn -0.707107 -0.000000 -0.707107
vn -0.707107 -0.000000 -0.707107
vn -0.707146 0.000004 -0.707067
vn -0.707081 -0.000005 -0.707133
vn 0.000000 -0.000000 1.000000
vn 0.000000 0.000000 1.000000
vn 0.000000 -0.000000 1.000000
vn -0.000000 0.000000 1.000000
vn -0.000000 0.000000 1.000000
vn 0.000000 0.000000 1.000000
vn 0.000000 0.000000 1.000000
vn 0.000000 0.000000 1.000000
vn -0.000000 -0.952571 -0.304317
vn 0.000000 -0.988966 -0.148141
vn -0.000973 -0.989667 -0.143379
vn 0.000235 -0.998885 -0.047202
vn -0.002072 -0.999998 0.000000
vn -0.000504 -0.889490 -0.456955
vn 0.000252 -0.894372 -0.447324
vn -0.000269 -0.953027 -0.302884
vn 0.000000 -0.953660 -0.300885
vn 0.000480 -0.812765 -0.582591
vn -0.000720 -0.802146 -0.597127
vn 0.000684 -0.710870 -0.703323
vn -0.000912 -0.692922 -0.721012
vn 0.000864 -0.591231 -0.806502
vn -0.001080 -0.564799 -0.825228
vn 0.001020 -0.456842 -0.889547
vn -0.001224 -0.421264 -0.906937
vn 0.001152 -0.311050 -0.950393
vn -0.001344 -0.266243 -0.963905
vn 0.001260 -0.157486 -0.987520
vn -0.001440 -0.103958 -0.994581
vn 0.001344 0.000000 -0.999999
vn -0.001512 0.061168 -0.998126
vn 0.001403 0.157486 -0.987520
vn -0.001560 0.224611 -0.974447
vn 0.001439 0.311049 -0.950393
vn -0.001583 0.381941 -0.924185
vn 0.001451 0.456842 -0.889547
vn -0.001582 0.528846 -0.848716
vn 0.001438 0.591231 -0.806501
vn -0.001558 0.661330 -0.750093
vn 0.001402 0.710869 -0.703323
vn -0.001510 0.775768 -0.631016
vn 0.001341 0.812765 -0.582591
vn -0.001437 0.869053 -0.494718
vn 0.001256 0.894371 -0.447324
vn -0.001340 0.938627 -0.344932
vn 0.001148 0.953660 -0.300885
vn 0.000000 0.969400 -0.245485
vn -0.002845 0.982596 -0.185734
vn 0.002541 0.989332 -0.145656
vn -0.001743 0.998884 -0.047202
vn -0.004437 0.999760 -0.021470
vn -0.002072 0.999998 0.000000
vn 0.000235 0.998885 0.047202
vn -0.000973 0.989667 0.143379
vn -0.000000 0.988966 0.148141
vn 0.000000 0.952571 0.304317
vn -0.000269 0.953027 0.302884
vn 0.000252 0.894372 0.447324
vn -0.000504 0.889490 0.456955
vn 0.000480 0.812765 0.582591
vn -0.000720 0.802146 0.597127
vn 0.000684 0.710870 0.703323
vn -0.000912 0.692922 0.721012
vn 0.000864 0.591231 0.806502
vn -0.001080 0.564799 0.825228
vn 0.001020 0.456842 0.889547
vn -0.001224 0.421264 0.906937
vn 0.001152 0.311050 0.950393
vn -0.001344 0.266243 0.963905
vn 0.001260 0.157486 0.987520
vn -0.001440 0.103958 0.994581
vn 0.001344 0.000000 0.999999
vn -0.001512 -0.061168 0.998126
vn 0.001403 -0.157486 0.987520
vn -0.001560 -0.224611 0.974447
vn 0.001439 -0.311049 0.950393
vn -0.001583 -0.381941 0.924185
vn 0.001451 -0.456842 0.889547
vn -0.001582 -0.528846 0.848716
vn 0.001438 -0.591231 0.806501
vn -0.001558 -0.661330 0.750093
vn 0.001402 -0.710869 0.703323
vn -0.001510 -0.775771 0.631013
vn 0.001341 -0.812765 0.582591
vn -0.001437 -0.869051 0.494721
vn 0.001256 -0.894371 0.447324
vn -0.001340 -0.938627 0.344932
vn 0.001148 -0.953660 0.300885
vn 0.000000 -0.969400 0.245485
vn -0.002845 -0.982596 0.185733
vn 0.002540 -0.989332 0.145656
vn -0.001744 -0.998884 0.047202
vn -0.004437 -0.999760 0.021470
vn 0.000000 0.953660 0.300885
vn 0.000000 -1.000000 0.000000
vn 0.000000 -1.000000 -0.000000
vn 0.000000 -1.000000 0.000000
vn 0.000000 0.000000 1.000000
vn -0.000000 0.000000 1.000000
vn 1.000000 0.000000 0.000000
vn 1.000000 -0.000000 0.000000
vn 1.000000 -0.000000 0.000000
vn 1.000000 -0.000000 0.000000
vn 1.000000 0.000000 0.000000
vn -1.000000 0.000000 -0.000000
vn -1.000000 0.000000 0.000000
vn -1.000000 0.000000 -0.000000
vn -1.000000 0.000000 0.000000
vn -1.000000 -0.000000 0.000000
vn -1.000000 0.000000 0.000000
vn -1.000000 -0.000000 0.000000
vn -1.000000 0.000000 0.000000
vn -1.000000 -0.000000 0.000000
vn -1.000000 0.000000 0.000000
vn -1.000000 0.000000 0.000000
vn -1.000000 -0.000000 0.000000
vn -1.000000 0.000000 0.000000
vn -1.000000 -0.000000 0.000000
vn -1.000000 0.000000 0.000000
vn -1.000000 0.000000 0.000000
vn -1.000000 -0.000000 0.000000
vn -1.000000 0.000000 0.000000
vn -1.000000 -0.000000 0.000000
vn -1.000000 0.000000 0.000000
vn -1.000000 0.000000 0.000000
vn -1.000000 0.000000 0.000000
vn -1.000000 -0.000000 0.000000
vn -1.000000 0.000000 0.000000
vn -1.000000 0.000000 0.000000
vn -1.000000 -0.000000 0.000000
vn -1.000000 0.000000 0.000000
vn -1.000000 0.000000 0.000000
vn -1.000000 0.000000 0.000000
vn -1.000000 0.000000 0.000000
vn -1.000000 0.000000 0.000000
vn -1.000000 -0.000000 0.000000
vn -1.000000 -0.000000 0.000000
vn -1.000000 0.000000 0.000000
vn -1.000000 -0.000000 -0.000000
vn -1.000000 0.000000 -0.000000
vn -1.000000 0.000000 -0.000000
vn -1.000000 0.000000 0.000000
vn -1.000000 0.000000 -0.000000
vn -1.000000 0.000000 -0.000000
vn -1.000000 0.000000 0.000000
vn -1.000000 0.000000 0.000000
vn -1.000000 0.000000 -0.000000
vn -1.000000 0.000000 0.000000
vn -1.000000 0.000000 0.000000
vn -1.000000 0.000000 0.000000
vn -1.000000 0.000000 0.000000
vn -1.000000 0.000000 0.000000
vn -1.000000 0.000000 0.000000
vn -1.000000 0.000000 0.000000
vn -1.000000 0.000000 0.000000
vn -1.000000 0.000000 0.000000
vn -1.000000 0.000000 0.000000
vn -1.000000 0.000000 0.000000
vn -1.000000 0.000000 -0.000000
vn -1.000000 0.000000 0.000000
vn -1.000000 0.000000 0.000000
vn -1.000000 0.000000 0.000000
vn -1.000000 0.000000 0.000000
vn -1.000000 0.000000 0.000000
vn -1.000000 0.000000 0.000000
vn -1.000000 0.000000 0.000000
vn -1.000000 0.000000 0.000000
vn -1.000000 0.000000 0.000000
vn -1.000000 0.000000 0.000000
vn -1.000000 0.000000 0.000000
vn -1.000000 0.000000 0.000000
vn -1.000000 0.000000 0.000000
vn -1.000000 0.000000 0.000000
vn -1.000000 0.000000 0.000000
vn -1.000000 0.000000 0.000000
vn -1.000000 0.000000 0.000000
vn -1.000000 0.000000 0.000000
vn -1.000000 0.000000 0.000000
vn -1.000000 0.000000 0.000000
vn -1.000000 0.000000 0.000000
vn -1.000000 0.000000 0.000000
vn -1.000000 0.000000 0.000000
vn -1.000000 0.000000 0.000000
vn -1.000000 0.000000 0.000000
vn -1.000000 0.000000 0.000000
vn -1.000000 0.000000 -0.000000
vn -1.000000 0.000000 -0.000000
vn -1.000000 0.000000 -0.000000
vn -1.000000 0.000000 -0.000000
vn -1.000000 0.000000 -0.000000
vn -1.000000 0.000000 -0.000000
vn -1.000000 0.000000 -0.000000
vn -1.000000 0.000000 -0.000000
vn -1.000000 0.000000 -0.000000
vn -1.000000 0.000000 0.000000
vn -1.000000 0.000000 0.000000
vn -1.000000 0.000000 0.000000
vn -1.000000 0.000000 0.000000
vn -1.000000 0.000000 0.000000
vn -1.000000 0.000000 0.000000
vn -1.000000 0.000000 0.000000
vn -1.000000 0.000000 0.000000
vn -1.000000 0.000000 0.000000
vn -1.000000 0.000000 0.000000
vn 0.000000 1.000000 0.000000
vn 0.000000 1.000000 0.000000
vn -0.000000 1.000000 0.000000
vn 0.000000 1.000000 0.000000
vn 1.000000 0.000000 0.000000
vn 1.000000 0.000000 -0.000000
vn 1.000000 0.000000 -0.000000
vn 1.000000 0.000000 0.000000
vn 1.000000 0.000000 -0.000000
vn 1.000000 0.000000 -0.000000
vn 1.000000 0.000000 -0.000000
vn 1.000000 -0.000000 0.000000
vn 1.000000 -0.000000 0.000000
vn 1.000000 0.000000 0.000000
vn 1.000000 -0.000000 0.000000
vn 1.000000 -0.000000 0.000000
vn 1.000000 0.000000 0.000000
vn 1.000000 0.000000 0.000000
vn 1.000000 0.000000 0.000000
vn 1.000000 0.000000 0.000000
vn 1.000000 0.000000 -0.000000
vn 1.000000 -0.000000 0.000000
vn 1.000000 0.000000 -0.000000
vn 1.000000 -0.000000 0.000000
vn 1.000000 0.000000 -0.000000
vn 1.000000 -0.000000 0.000000
vn 1.000000 0.000000 -0.000000
vn 1.000000 0.000000 -0.000000
vn 1.000000 -0.000000 0.000000
vn 1.000000 0.000000 -0.000000
vn 1.000000 0.000000 0.000000
vn 1.000000 0.000000 -0.000000
vn 1.000000 0.000000 0.000000
vn 1.000000 0.000000 -0.000000
vn 1.000000 0.000000 -0.000000
vn 1.000000 0.000000 0.000000
vn 1.000000 0.000000 0.000000
vn 1.000000 0.000000 -0.000000
vn 1.000000 0.000000 0.000000
vn 1.000000 0.000000 -0.000000
vn 1.000000 0.000000 0.000000
vn 1.000000 0.000000 -0.000000
vn 1.000000 0.000000 0.000000
vn 1.000000 0.000000 -0.000000
vn 1.000000 0.000000 0.000000
vn 1.000000 0.000000 0.000000
vn 1.000000 0.000000 -0.000000
vn 1.000000 0.000000 0.000000
vn 1.000000 0.000000 -0.000000
vn 1.000000 0.000000 0.000000
vn 1.000000 0.000000 -0.000000
vn 1.000000 0.000000 -0.000000
vn 1.000000 0.000000 0.000000
vn 1.000000 0.000000 -0.000000
vn 1.000000 0.000000 -0.000000
vn 1.000000 0.000000 0.000000
vn 1.000000 0.000000 0.000000
vn 1.000000 0.000000 -0.000000
vn 1.000000 0.000000 -0.000000
vn 1.000000 0.000000 0.000000
vn 1.000000 0.000000 -0.000000
vn 1.000000 0.000000 0.000000
vn 1.000000 0.000000 0.000000
vn 1.000000 0.000000 0.000000
vn 1.000000 0.000000 0.000000
vn 1.000000 0.000000 0.000000
vn 1.000000 0.000000 0.000000
vn 1.000000 0.000000 0.000000
vn 1.000000 0.000000 0.000000
vn 1.000000 0.000000 0.000000
vn 1.000000 0.000000 0.000000
vn 1.000000 0.000000 0.000000
vn 1.000000 0.000000 0.000000
vn 1.000000 -0.000000 0.000000
vn 1.000000 -0.000000 0.000000
vn 1.000000 -0.000000 0.000000
vn 1.000000 -0.000000 0.000000
vn 1.000000 0.000000 0.000000
vn 1.000000 0.000000 0.000000
vn 1.000000 0.000000 0.000000
vn 1.000000 0.000000 0.000000
vn 1.000000 0.000000 0.000000
vn 1.000000 0.000000 0.000000
vn 1.000000 0.000000 0.000000
vn 1.000000 0.000000 0.000000
vn 1.000000 0.000000 0.000000
vn 1.000000 0.000000 0.000000
vn 1.000000 0.000000 0.000000
vn 1.000000 0.000000 0.000000
vn 1.000000 0.000000 0.000000
vn 1.000000 0.000000 0.000000
vn 1.000000 0.000000 0.000000
vn 1.000000 0.000000 0.000000
vn 1.000000 0.000000 0.000000
vn 1.000000 0.000000 0.000000
vn 1.000000 0.000000 0.000000
vn 1.000000 0.000000 0.000000
vn 1.000000 0.000000 0.000000
vn 1.000000 0.000000 0.000000
vn 1.000000 0.000000 0.000000
vn 1.000000 0.000000 0.000000
vn 1.000000 0.000000 0.000000
vn 1.000000 0.000000 0.000000
vn 1.000000 0.000000 0.000000
vn 1.000000 0.000000 0.000000
vn 1.000000 0.000000 0.000000
vn 1.000000 0.000000 0.000000
vn 1.000000 0.000000 0.000000
vn 1.000000 0.000000 0.000000
vn 1.000000 0.000000 0.000000
vn 1.000000 0.000000 0.000000
vn 1.000000 0.000000 0.000000
vn 1.000000 0.000000 0.000000
vn 1.000000 0.000000 0.000000
vn 1.000000 0.000000 0.000000
vn 1.000000 0.000000 0.000000
vn 1.000000 0.000000 0.000000
vn 1.000000 0.000000 0.000000
vn 1.000000 0.000000 0.000000
vn 1.000000 0.000000 0.000000
vn 1.000000 -0.000000 0.000000
vn 1.000000 0.000000 0.000000
vn 1.000000 -0.000000 0.000000
vn 1.000000 0.000000 0.000000
vn 1.000000 -0.000000 0.000000
vn 1.000000 0.000000 0.000000
vn 1.000000 -0.000000 0.000000
vn 1.000000 0.000000 0.000000
vn 1.000000 -0.000000 0.000000
vn 1.000000 0.000000 0.000000
vn 1.000000 -0.000000 0.000000
vn 1.000000 0.000000 0.000000
vn 1.000000 0.000000 0.000000
vn 1.000000 -0.000000 0.000000
vn 1.000000 0.000000 0.000000
vn 1.000000 -0.000000 0.000000
vn 1.000000 0.000000 0.000000
vn 1.000000 -0.000000 0.000000
vn 1.000000 0.000000 0.000000
vn 1.000000 0.000000 0.000000
vn 1.000000 -0.000000 0.000000
vn 1.000000 0.000000 0.000000
vn 1.000000 -0.000000 0.000000
vn 1.000000 0.000000 0.000000
vn 1.000000 0.000000 0.000000
vn 1.000000 -0.000000 0.000000
vn 1.000000 0.000000 0.000000
vn 1.000000 -0.000000 0.000000
vn 1.000000 0.000000 0.000000
vn 1.000000 0.000000 0.000000
vn 1.000000 0.000000 0.000000
vn 1.000000 0.000000 0.000000
vn 1.000000 0.000000 0.000000
vn 1.000000 -0.000000 0.000000
vn 1.000000 0.000000 -0.000000
vn 1.000000 0.000000 -0.000000
vn 1.000000 0.000000 -0.000000
vn 1.000000 0.000000 -0.000000
vn 1.000000 0.000000 -0.000000
vn 1.000000 0.000000 -0.000000
vn 1.000000 0.000000 -0.000000
vn 1.000000 0.000000 0.000000
vn 1.000000 0.000000 0.000000
vn 1.000000 0.000000 0.000000
vn 1.000000 0.000000 0.000000
vn 1.000000 0.000000 0.000000
vn 1.000000 0.000000 0.000000
vn 1.000000 0.000000 0.000000
vn 1.000000 0.000000 0.000000
vn 1.000000 0.000000 0.000000
vn 0.000000 0.997066 -0.076551
vn 0.000000 0.997066 -0.076551
vn 0.000000 0.997066 0.076551
vn 0.000000 0.997066 0.076551
vn 0.000000 0.973696 0.227851
vn 0.000000 0.973696 0.227851
vn 0.000000 0.927503 0.373816
vn 0.000000 0.927503 0.373816
vn 0.000000 0.859568 0.511022
vn 0.000000 0.859568 0.511022
vn 0.000000 0.771493 0.636238
vn 0.000000 0.771493 0.636238
vn 0.000000 0.665325 0.746553
vn 0.000000 0.665325 0.746553
vn 0.000000 0.543568 0.839365
vn 0.000000 0.543568 0.839365
vn 0.000000 0.409064 0.912506
vn 0.000000 0.409064 0.912506
vn 0.000000 0.264980 0.964254
vn 0.000000 0.264980 0.964254
vn 0.000000 0.114689 0.993401
vn 0.000000 0.114689 0.993401
vn 0.000000 -0.038305 0.999266
vn 0.000000 -0.038305 0.999266
vn 0.000000 -0.190390 0.981709
vn 0.000000 -0.190390 0.981709
vn 0.000000 -0.338014 0.941141
vn 0.000000 -0.338014 0.941141
vn 0.000000 -0.477720 0.878512
vn 0.000000 -0.477720 0.878512
vn 0.000000 -0.606225 0.795293
vn 0.000000 -0.606225 0.795293
vn 0.000000 -0.720522 0.693432
vn 0.000000 -0.720522 0.693432
vn 0.000000 -0.817931 0.575316
vn 0.000000 -0.817931 0.575316
vn 0.000000 -0.896165 0.443721
vn 0.000000 -0.896165 0.443721
vn 0.000000 -0.953395 0.301723
vn 0.000000 -0.953395 0.301723
vn 0.000000 -0.988280 0.152649
vn 0.000000 -0.988280 0.152649
vn 0.000000 -1.000000 0.000000
vn -0.000000 -1.000000 -0.000000
vn 0.000000 -0.988280 -0.152649
vn -0.000000 -0.988280 -0.152649
vn 0.000000 -0.953395 -0.301723
vn -0.000000 -0.953395 -0.301723
vn 0.000000 -0.896165 -0.443721
vn -0.000000 -0.896165 -0.443721
vn 0.000000 -0.817931 -0.575316
vn -0.000000 -0.817931 -0.575316
vn 0.000000 -0.720522 -0.693432
vn -0.000000 -0.720522 -0.693432
vn 0.000000 -0.606225 -0.795293
vn -0.000000 -0.606225 -0.795293
vn 0.000000 -0.477720 -0.878512
vn -0.000000 -0.477720 -0.878512
vn 0.000000 -0.338014 -0.941141
vn -0.000000 -0.338014 -0.941141
vn 0.000000 -0.190390 -0.981709
vn -0.000000 -0.190390 -0.981709
vn 0.000000 -0.038305 -0.999266
vn -0.000000 -0.038305 -0.999266
vn 0.000000 0.114683 -0.993402
vn 0.000000 0.114683 -0.993402
vn 0.000000 0.264986 -0.964252
vn 0.000000 0.264986 -0.964252
vn 0.000000 0.409064 -0.912506
vn 0.000000 0.409064 -0.912506
vn 0.000000 0.543568 -0.839365
vn 0.000000 0.543568 -0.839365
vn 0.000000 0.665325 -0.746553
vn 0.000000 0.665325 -0.746553
vn 0.000000 0.771493 -0.636238
vn 0.000000 0.771493 -0.636238
vn 0.000000 0.859568 -0.511022
vn 0.000000 0.859568 -0.511022
vn 0.000000 0.927503 -0.373816
vn 0.000000 0.927503 -0.373816
vn 0.000000 0.973696 -0.227851
vn 0.000000 0.973696 -0.227851
vn 0.000000 -0.046183 -0.998933
vn 0.000315 -0.047034 -0.998893
vn -0.000308 -0.138157 -0.990410
vn 0.000617 -0.140682 -0.990055
vn -0.000606 -0.228951 -0.973438
vn 0.000908 -0.233089 -0.972455
vn -0.000891 -0.317791 -0.948160
vn 0.001187 -0.323429 -0.946252
vn -0.001165 -0.403920 -0.914793
vn 0.001456 -0.410912 -0.911674
vn -0.001427 -0.486605 -0.873621
vn 0.001711 -0.494754 -0.869032
vn -0.001678 -0.565134 -0.824997
vn 0.001957 -0.574224 -0.818696
vn -0.001916 -0.638845 -0.769333
vn 0.002190 -0.648607 -0.761120
vn -0.002143 -0.707105 -0.707105
vn 0.002412 -0.717254 -0.696807
vn -0.002359 -0.769333 -0.638844
vn 0.002621 -0.779552 -0.626332
vn -0.002565 -0.824994 -0.565135
vn 0.002821 -0.834957 -0.550308
vn -0.002756 -0.873619 -0.486603
vn 0.003007 -0.882968 -0.469423
vn -0.002938 -0.914790 -0.403919
vn 0.003182 -0.923170 -0.384380
vn -0.003108 -0.948156 -0.317789
vn 0.003347 -0.955203 -0.295933
vn -0.003266 -0.973433 -0.228950
vn 0.003499 -0.978782 -0.204874
vn -0.003413 -0.990405 -0.138154
vn 0.003639 -0.993702 -0.112000
vn -0.003548 -0.998927 -0.046185
vn 0.003769 -0.999828 -0.018131
vn -0.003671 -0.998926 0.046185
vn 0.003886 -0.997109 0.075891
vn -0.003783 -0.990404 0.138154
vn 0.003992 -0.985565 0.169248
vn -0.003883 -0.973431 0.228949
vn 0.004087 -0.965302 0.261105
vn -0.003971 -0.948153 0.317788
vn 0.004170 -0.936498 0.350649
vn -0.004049 -0.914787 0.403917
vn 0.004241 -0.899406 0.437093
vn -0.004115 -0.873614 0.486601
vn 0.004300 -0.854356 0.519671
vn -0.004168 -0.824991 0.565130
vn 0.004349 -0.801747 0.597648
vn -0.004210 -0.769328 0.638840
vn 0.004386 -0.742043 0.670337
vn -0.004240 -0.707100 0.707100
vn 0.004411 -0.675775 0.737095
vn -0.004260 -0.638840 0.769328
vn 0.004424 -0.603525 0.797332
vn -0.004268 -0.565130 0.824991
vn 0.004425 -0.525938 0.850511
vn -0.004265 -0.486601 0.873614
vn 0.004415 -0.443696 0.896167
vn -0.004250 -0.403917 0.914786
vn 0.004394 -0.357523 0.933894
vn -0.004222 -0.317788 0.948152
vn 0.004362 -0.268194 0.963355
vn -0.004183 -0.228949 0.973429
vn 0.004715 -0.174023 0.984730
vn -0.005167 -0.138153 0.990397
vn 0.000521 -0.108419 0.994105
vn -0.000671 -0.065140 0.997876
vn 0.000000 -0.176492 0.984302
vn 0.000000 -0.021728 0.999764
vn -0.005316 -0.046184 0.998919
vn 0.000000 0.998176 -0.060379
vn 0.000000 0.998176 -0.060379
vn 0.000000 0.998176 0.060379
vn 0.000000 0.998176 0.060379
vn 0.000000 0.983620 0.180255
vn 0.000000 0.983620 0.180255
vn 0.000000 0.954721 0.297503
vn 0.000000 0.954721 0.297503
vn 0.000000 0.911900 0.410413
vn 0.000000 0.911900 0.410413
vn 0.000000 0.855783 0.517336
vn 0.000000 0.855783 0.517336
vn 0.000000 0.787183 0.616719
vn 0.000000 0.787183 0.616719
vn 0.000000 0.707107 0.707106
vn 0.000000 0.707107 0.707106
vn 0.000000 0.616719 0.787184
vn 0.000000 0.616719 0.787184
vn 0.000000 0.517337 0.855782
vn 0.000000 0.517337 0.855782
vn 0.000000 0.410413 0.911900
vn 0.000000 0.410413 0.911900
vn 0.000000 0.297503 0.954721
vn 0.000000 0.297503 0.954721
vn 0.000000 0.180254 0.983620
vn 0.000000 0.180254 0.983620
vn 0.000000 0.060379 0.998176
vn 0.000000 0.060379 0.998176
vn 0.000000 -0.060379 0.998176
vn 0.000000 -0.060379 0.998176
vn 0.000000 -0.180254 0.983620
vn 0.000000 -0.180254 0.983620
vn 0.000000 -0.297503 0.954721
vn 0.000000 -0.297503 0.954721
vn 0.000000 -0.410413 0.911900
vn 0.000000 -0.410413 0.911900
vn 0.000000 -0.517337 0.855782
vn 0.000000 -0.517337 0.855782
vn 0.000000 -0.616719 0.787184
vn 0.000000 -0.616719 0.787184
vn 0.000000 -0.707107 0.707106
vn 0.000000 -0.707107 0.707106
vn 0.000000 -0.787183 0.616719
vn 0.000000 -0.787183 0.616719
vn 0.000000 -0.855783 0.517336
vn 0.000000 -0.855783 0.517336
vn 0.000000 -0.911900 0.410413
vn 0.000000 -0.911900 0.410413
vn 0.000000 -0.954721 0.297503
vn 0.000000 -0.954721 0.297503
vn 0.000000 -0.983620 0.180255
vn 0.000000 -0.983620 0.180255
vn 0.000000 -0.998176 0.060379
vn 0.000000 -0.998176 0.060379
vn 0.000000 -0.998176 -0.060379
vn -0.000000 -0.998176 -0.060379
vn 0.000000 -0.983620 -0.180255
vn -0.000000 -0.983620 -0.180255
vn 0.000000 -0.954721 -0.297503
vn -0.000000 -0.954721 -0.297503
vn 0.000000 -0.911900 -0.410413
vn -0.000000 -0.911900 -0.410413
vn 0.000000 -0.855783 -0.517336
vn -0.000000 -0.855783 -0.517336
vn 0.000000 -0.787183 -0.616719
vn -0.000000 -0.787183 -0.616719
vn 0.000000 -0.707107 -0.707106
vn -0.000000 -0.707107 -0.707106
vn 0.000000 -0.616719 -0.787184
vn -0.000000 -0.616719 -0.787184
vn 0.000000 -0.517337 -0.855782
vn -0.000000 -0.517337 -0.855782
vn 0.000000 -0.410411 -0.911901
vn -0.000000 -0.410411 -0.911901
vn 0.000000 -0.297503 -0.954721
vn -0.000000 -0.297503 -0.954721
vn 0.000000 -0.180257 -0.983620
vn -0.000000 -0.180257 -0.983620
vn 0.000000 -0.060379 -0.998176
vn -0.000000 -0.060379 -0.998176
vn 0.000000 0.060379 -0.998176
vn 0.000000 0.060379 -0.998176
vn 0.000000 0.180257 -0.983620
vn 0.000000 0.180257 -0.983620
vn 0.000000 0.297503 -0.954721
vn 0.000000 0.297503 -0.954721
vn 0.000000 0.410411 -0.911901
vn 0.000000 0.410411 -0.911901
vn 0.000000 0.517337 -0.855782
vn 0.000000 0.517337 -0.855782
vn 0.000000 0.616719 -0.787184
vn 0.000000 0.616719 -0.787184
vn 0.000000 0.707107 -0.707106
vn 0.000000 0.707107 -0.707106
vn 0.000000 0.787183 -0.616719
vn 0.000000 0.787183 -0.616719
vn 0.000000 0.855783 -0.517336
vn 0.000000 0.855783 -0.517336
vn 0.000000 0.911900 -0.410413
vn 0.000000 0.911900 -0.410413
vn 0.000000 0.954721 -0.297503
vn 0.000000 0.954721 -0.297503
vn 0.000000 0.983620 -0.180255
vn 0.000000 0.983620 -0.180255
vn 0.000000 0.046183 -0.998933
vn 0.000000 0.046183 -0.998933
vn 0.000000 0.138157 -0.990410
vn 0.000000 0.138157 -0.990410
vn 0.000000 0.228951 -0.973438
vn 0.000000 0.228951 -0.973438
vn 0.000000 0.317791 -0.948161
vn 0.000000 0.317791 -0.948161
vn 0.000000 0.403921 -0.914794
vn 0.000000 0.403921 -0.914794
vn 0.000000 0.486606 -0.873622
vn 0.000000 0.486606 -0.873622
vn 0.000000 0.565137 -0.824997
vn 0.000000 0.565137 -0.824997
vn 0.000000 0.638846 -0.769335
vn 0.000000 0.638846 -0.769335
vn 0.000000 0.707107 -0.707106
vn 0.000000 0.707107 -0.707106
vn 0.000000 0.769334 -0.638847
vn 0.000000 0.769334 -0.638847
vn 0.000000 0.824997 -0.565137
vn 0.000000 0.824997 -0.565137
vn 0.000000 0.873623 -0.486603
vn 0.000000 0.873623 -0.486603
vn 0.000000 0.914794 -0.403921
vn 0.000000 0.914794 -0.403921
vn 0.000000 0.948161 -0.317792
vn 0.000000 0.948161 -0.317792
vn 0.000000 0.973438 -0.228950
vn 0.000000 0.973438 -0.228950
vn 0.000000 0.990410 -0.138157
vn 0.000000 0.990410 -0.138157
vn 0.000000 0.998933 -0.046183
vn 0.000000 0.998933 -0.046183
vn 0.000000 0.998933 0.046183
vn -0.000000 0.998933 0.046183
vn 0.000000 0.990410 0.138157
vn -0.000000 0.990410 0.138157
vn 0.000000 0.973438 0.228950
vn -0.000000 0.973438 0.228950
vn 0.000000 0.948161 0.317792
vn -0.000000 0.948161 0.317792
vn 0.000000 0.914794 0.403921
vn -0.000000 0.914794 0.403921
vn 0.000000 0.873623 0.486604
vn -0.000000 0.873623 0.486604
vn 0.000000 0.824998 0.565135
vn -0.000000 0.824998 0.565135
vn 0.000000 0.769334 0.638847
vn -0.000000 0.769334 0.638847
vn 0.000000 0.707107 0.707106
vn -0.000000 0.707107 0.707106
vn 0.000000 0.638845 0.769336
vn -0.000000 0.638845 0.769336
vn 0.000000 0.565137 0.824997
vn -0.000000 0.565137 0.824997
vn 0.000000 0.486606 0.873622
vn -0.000000 0.486606 0.873622
vn 0.000000 0.403921 0.914794
vn -0.000000 0.403921 0.914794
vn 0.000000 0.317791 0.948161
vn -0.000000 0.317791 0.948161
vn 0.000000 0.228951 0.973438
vn -0.000000 0.228951 0.973438
vn 0.000000 0.138155 0.990411
vn -0.000000 0.138155 0.990411
vn 0.000000 0.046185 0.998933
vn 0.000000 0.046185 0.998933
f 495//1 493//1 547//1
f 502//2 495//2 547//2
f 501//3 495//3 502//3
f 542//4 547//4 493//4
f 491//5 542//5 493//5
f 536//6 542//6 491//6
f 489//7 536//7 491//7
f 526//8 536//8 489//8
f 487//9 526//9 489//9
f 523//10 526//10 487//10
f 485//11 523//11 487//11
f 521//12 523//12 485//12
f 483//13 521//13 485//13
f 519//14 521//14 483//14
f 481//15 519//15 483//15
f 517//16 519//16 481//16
f 479//17 517//17 481//17
f 515//18 517//18 479//18
f 477//19 515//19 479//19
f 513//20 515//20 477//20
f 475//21 513//21 477//21
f 511//22 513//22 475//22
f 473//23 511//23 475//23
f 509//24 511//24 473//24
f 471//25 509//25 473//25
f 507//26 509//26 471//26
f 469//27 507//27 471//27
f 505//28 507//28 469//28
f 467//29 505//29 469//29
f 465//30 505//30 467//30
f 503//31 505//31 465//31
f 466//32 503//32 465//32
f 504//33 503//33 466//33
f 468//34 504//34 466//34
f 506//35 504//35 468//35
f 470//36 506//36 468//36
f 508//37 506//37 470//37
f 472//38 508//38 470//38
f 510//39 508//39 472//39
f 474//40 510//40 472//40
f 512//41 510//41 474//41
f 476//42 512//42 474//42
f 514//43 512//43 476//43
f 478//44 514//44 476//44
f 516//45 514//45 478//45
f 480//46 516//46 478//46
f 518//47 516//47 480//47
f 482//48 518//48 480//48
f 520//49 518//49 482//49
f 484//50 520//50 482//50
f 522//51 520//51 484//51
f 486//52 522//52 484//52
f 524//53 522//53 486//53
f 488//54 524//54 486//54
f 533//55 524//55 488//55
f 490//56 533//56 488//56
f 539//57 533//57 490//57
f 492//58 539//58 490//58
f 545//59 539//59 492//59
f 494//60 545//60 492//60
f 550//61 545//61 494//61
f 496//62 550//62 494//62
f 555//63 550//63 496//63
f 497//64 555//64 496//64
f 458//65 459//65 495//65
f 501//66 458//66 495//66
f 502//67 458//67 501//67
f 502//68 547//68 546//68
f 458//69 502//69 546//69
f 169//70 175//70 173//70
f 167//71 169//71 173//71
f 171//72 173//72 175//72
f 177//73 171//73 175//73
f 172//74 171//74 177//74
f 178//75 172//75 177//75
f 174//76 172//76 178//76
f 176//77 174//77 178//77
f 170//78 168//78 174//78
f 176//79 170//79 174//79
f 249//80 251//80 267//80
f 265//81 249//81 267//81
f 263//82 249//82 265//82
f 268//83 267//83 251//83
f 250//84 268//84 251//84
f 266//85 268//85 250//85
f 264//86 266//86 250//86
f 248//87 264//87 250//87
f 262//88 264//88 248//88
f 246//89 262//89 248//89
f 260//90 262//90 246//90
f 242//91 260//91 246//91
f 258//92 260//92 242//92
f 256//93 258//93 242//93
f 240//94 256//94 242//94
f 254//95 256//95 240//95
f 236//96 254//96 240//96
f 252//97 254//97 236//97
f 234//98 252//98 236//98
f 244//99 252//99 234//99
f 238//100 244//100 234//100
f 230//101 238//101 234//101
f 232//102 238//102 230//102
f 226//103 232//103 230//103
f 228//104 232//104 226//104
f 222//105 228//105 226//105
f 224//106 228//106 222//106
f 218//107 224//107 222//107
f 220//108 218//108 222//108
f 214//109 218//109 220//109
f 216//110 214//110 220//110
f 208//111 214//111 216//111
f 202//112 208//112 216//112
f 212//113 202//113 216//113
f 194//114 202//114 212//114
f 210//115 194//115 212//115
f 192//116 194//116 210//116
f 206//117 192//117 210//117
f 190//118 192//118 206//118
f 188//119 190//119 206//119
f 204//120 188//120 206//120
f 186//121 188//121 204//121
f 200//122 186//122 204//122
f 184//123 186//123 200//123
f 198//124 184//124 200//124
f 182//125 184//125 198//125
f 180//126 182//126 198//126
f 196//127 180//127 198//127
f 179//128 180//128 196//128
f 197//129 179//129 196//129
f 181//130 179//130 197//130
f 183//131 181//131 197//131
f 199//132 183//132 197//132
f 185//133 183//133 199//133
f 201//134 185//134 199//134
f 187//135 185//135 201//135
f 205//136 187//136 201//136
f 189//137 187//137 205//137
f 191//138 189//138 205//138
f 207//139 191//139 205//139
f 193//140 191//140 207//140
f 211//141 193//141 207//141
f 195//142 193//142 211//142
f 213//143 195//143 211//143
f 203//144 195//144 213//144
f 209//145 203//145 213//145
f 217//146 209//146 213//146
f 215//147 209//147 217//147
f 221//148 215//148 217//148
f 219//149 215//149 221//149
f 225//150 219//150 221//150
f 223//151 219//151 225//151
f 229//152 223//152 225//152
f 227//153 229//153 225//153
f 233//154 229//154 227//154
f 231//155 233//155 227//155
f 239//156 233//156 231//156
f 245//157 239//157 231//157
f 235//158 245//158 231//158
f 253//159 245//159 235//159
f 237//160 253//160 235//160
f 255//161 253//161 237//161
f 241//162 255//162 237//162
f 257//163 255//163 241//163
f 259//164 257//164 241//164
f 243//165 259//165 241//165
f 261//166 259//166 243//166
f 247//167 261//167 243//167
f 263//168 261//168 247//168
f 249//169 263//169 247//169
f 169//170 167//170 62//170
f 96//171 169//171 62//171
f 168//172 170//172 97//172
f 63//173 168//173 97//173
f 65//174 63//174 97//174
f 95//175 65//175 97//175
f 93//176 65//176 95//176
f 67//177 65//177 93//177
f 91//178 67//178 93//178
f 69//179 67//179 91//179
f 89//180 69//180 91//180
f 71//181 69//181 89//181
f 87//182 71//182 89//182
f 73//183 71//183 87//183
f 85//184 73//184 87//184
f 75//185 73//185 85//185
f 83//186 75//186 85//186
f 77//187 75//187 83//187
f 81//188 77//188 83//188
f 79//189 77//189 81//189
f 96//190 62//190 64//190
f 94//191 96//191 64//191
f 92//192 94//192 64//192
f 66//193 92//193 64//193
f 90//194 92//194 66//194
f 68//195 90//195 66//195
f 88//196 90//196 68//196
f 70//197 88//197 68//197
f 86//198 88//198 70//198
f 72//199 86//199 70//199
f 84//200 86//200 72//200
f 74//201 84//201 72//201
f 82//202 84//202 74//202
f 76//203 82//203 74//203
f 80//204 82//204 76//204
f 78//205 80//205 76//205
f 561//206 579//206 500//206
f 498//207 561//207 500//207
f 497//208 499//208 578//208
f 555//209 497//209 578//209
f 456//210 269//210 499//210
f 497//211 456//211 499//211
f 412//212 456//212 497//212
f 269//213 456//213 130//213
f 133//214 269//214 130//214
f 298//215 269//215 133//215
f 125//216 129//216 435//216
f 437//217 125//217 435//217
f 121//218 125//218 437//218
f 117//219 121//219 437//219
f 439//220 117//220 437//220
f 113//221 117//221 439//221
f 109//222 113//222 439//222
f 441//223 109//223 439//223
f 105//224 109//224 441//224
f 443//225 105//225 441//225
f 101//226 105//226 443//226
f 445//227 101//227 443//227
f 99//228 101//228 445//228
f 447//229 99//229 445//229
f 103//230 99//230 447//230
f 449//231 103//231 447//231
f 107//232 103//232 449//232
f 451//233 107//233 449//233
f 111//234 107//234 451//234
f 453//235 111//235 451//235
f 115//236 111//236 453//236
f 119//237 115//237 453//237
f 455//238 119//238 453//238
f 123//239 119//239 455//239
f 127//240 123//240 455//240
f 457//241 127//241 455//241
f 131//242 127//242 457//242
f 115//243 34//243 32//243
f 111//244 115//244 32//244
f 30//245 111//245 32//245
f 28//246 111//246 30//246
f 107//247 111//247 28//247
f 26//248 107//248 28//248
f 24//249 107//249 26//249
f 103//250 107//250 24//250
f 22//251 103//251 24//251
f 20//252 103//252 22//252
f 99//253 103//253 20//253
f 18//254 99//254 20//254
f 16//255 99//255 18//255
f 101//256 99//256 16//256
f 14//257 101//257 16//257
f 12//258 101//258 14//258
f 105//259 101//259 12//259
f 10//260 105//260 12//260
f 8//261 105//261 10//261
f 109//262 105//262 8//262
f 6//263 109//263 8//263
f 4//264 109//264 6//264
f 4//265 2//265 113//265
f 109//266 4//266 113//266
f 435//267 129//267 128//267
f 434//268 435//268 128//268
f 129//269 125//269 121//269
f 117//270 129//270 121//270
f 113//271 129//271 117//271
f 129//272 113//272 2//272
f 1//273 129//273 2//273
f 128//274 129//274 1//274
f 112//275 128//275 1//275
f 116//276 128//276 112//276
f 128//277 116//277 120//277
f 124//278 128//278 120//278
f 2//279 4//279 34//279
f 35//280 2//280 34//280
f 54//281 2//281 35//281
f 52//282 54//282 35//282
f 50//283 52//283 35//283
f 48//284 50//284 35//284
f 46//285 48//285 35//285
f 44//286 46//286 35//286
f 42//287 44//287 35//287
f 40//288 42//288 35//288
f 38//289 40//289 35//289
f 34//290 4//290 6//290
f 8//291 34//291 6//291
f 10//292 34//292 8//292
f 34//293 10//293 12//293
f 14//294 34//294 12//294
f 16//295 34//295 14//295
f 34//296 16//296 18//296
f 20//297 34//297 18//297
f 22//298 34//298 20//298
f 34//299 22//299 24//299
f 26//300 34//300 24//300
f 28//301 34//301 26//301
f 34//302 28//302 30//302
f 32//303 34//303 30//303
f 2//304 54//304 56//304
f 58//305 2//305 56//305
f 60//306 2//306 58//306
f 2//307 60//307 61//307
f 1//308 2//308 61//308
f 59//309 1//309 61//309
f 57//310 1//310 59//310
f 1//311 57//311 55//311
f 53//312 1//312 55//312
f 36//313 1//313 53//313
f 51//314 36//314 53//314
f 49//315 36//315 51//315
f 36//316 49//316 47//316
f 45//317 36//317 47//317
f 43//318 36//318 45//318
f 36//319 43//319 41//319
f 39//320 36//320 41//320
f 37//321 36//321 39//321
f 1//322 36//322 33//322
f 3//323 1//323 33//323
f 5//324 3//324 33//324
f 7//325 5//325 33//325
f 9//326 7//326 33//326
f 11//327 9//327 33//327
f 13//328 11//328 33//328
f 15//329 13//329 33//329
f 17//330 15//330 33//330
f 19//331 17//331 33//331
f 21//332 19//332 33//332
f 23//333 21//333 33//333
f 25//334 23//334 33//334
f 27//335 25//335 33//335
f 29//336 27//336 33//336
f 31//337 29//337 33//337
f 112//338 1//338 3//338
f 108//339 112//339 3//339
f 5//340 108//340 3//340
f 7//341 108//341 5//341
f 104//342 108//342 7//342
f 9//343 104//343 7//343
f 11//344 104//344 9//344
f 100//345 104//345 11//345
f 13//346 100//346 11//346
f 15//347 100//347 13//347
f 98//348 100//348 15//348
f 17//349 98//349 15//349
f 19//350 98//350 17//350
f 102//351 98//351 19//351
f 21//352 102//352 19//352
f 23//353 102//353 21//353
f 106//354 102//354 23//354
f 25//355 106//355 23//355
f 27//356 106//356 25//356
f 110//357 106//357 27//357
f 29//358 110//358 27//358
f 31//359 110//359 29//359
f 31//360 33//360 114//360
f 110//361 31//361 114//361
f 126//362 130//362 456//362
f 454//363 126//363 456//363
f 122//364 126//364 454//364
f 118//365 122//365 454//365
f 452//366 118//366 454//366
f 114//367 118//367 452//367
f 110//368 114//368 452//368
f 450//369 110//369 452//369
f 106//370 110//370 450//370
f 448//371 106//371 450//371
f 102//372 106//372 448//372
f 446//373 102//373 448//373
f 98//374 102//374 446//374
f 444//375 98//375 446//375
f 100//376 98//376 444//376
f 442//377 100//377 444//377
f 104//378 100//378 442//378
f 440//379 104//379 442//379
f 108//380 104//380 440//380
f 438//381 108//381 440//381
f 112//382 108//382 438//382
f 116//383 112//383 438//383
f 436//384 116//384 438//384
f 120//385 116//385 436//385
f 124//386 120//386 436//386
f 434//387 124//387 436//387
f 128//388 124//388 434//388
f 131//389 34//389 115//389
f 119//390 131//390 115//390
f 123//391 131//391 119//391
f 131//392 123//392 127//392
f 34//393 131//393 132//393
f 35//394 34//394 132//394
f 134//395 133//395 36//395
f 37//396 134//396 36//396
f 136//397 134//397 37//397
f 39//398 136//398 37//398
f 138//399 136//399 39//399
f 41//400 138//400 39//400
f 140//401 138//401 41//401
f 142//402 140//402 41//402
f 43//403 142//403 41//403
f 144//404 142//404 43//404
f 45//405 144//405 43//405
f 146//406 144//406 45//406
f 47//407 146//407 45//407
f 148//408 146//408 47//408
f 49//409 148//409 47//409
f 150//410 148//410 49//410
f 152//411 150//411 49//411
f 51//412 152//412 49//412
f 154//413 152//413 51//413
f 53//414 154//414 51//414
f 156//415 154//415 53//415
f 55//416 156//416 53//416
f 158//417 156//417 55//417
f 160//418 158//418 55//418
f 57//419 160//419 55//419
f 162//420 160//420 57//420
f 59//421 162//421 57//421
f 164//422 162//422 59//422
f 61//423 164//423 59//423
f 166//424 164//424 61//424
f 165//425 166//425 61//425
f 60//426 165//426 61//426
f 163//427 165//427 60//427
f 58//428 163//428 60//428
f 161//429 163//429 58//429
f 56//430 161//430 58//430
f 159//431 161//431 56//431
f 157//432 159//432 56//432
f 54//433 157//433 56//433
f 155//434 157//434 54//434
f 52//435 155//435 54//435
f 153//436 155//436 52//436
f 50//437 153//437 52//437
f 151//438 153//438 50//438
f 48//439 151//439 50//439
f 149//440 151//440 48//440
f 147//441 149//441 48//441
f 46//442 147//442 48//442
f 145//443 147//443 46//443
f 44//444 145//444 46//444
f 143//445 145//445 44//445
f 42//446 143//446 44//446
f 141//447 143//447 42//447
f 139//448 141//448 42//448
f 40//449 139//449 42//449
f 137//450 139//450 40//450
f 38//451 137//451 40//451
f 135//452 137//452 38//452
f 35//453 135//453 38//453
f 132//454 135//454 35//454
f 130//455 118//455 114//455
f 33//456 130//456 114//456
f 133//457 130//457 33//457
f 36//458 133//458 33//458
f 130//459 126//459 122//459
f 118//460 130//460 122//460
f 464//461 498//461 457//461
f 413//462 464//462 457//462
f 462//463 464//463 413//463
f 457//464 498//464 500//464
f 270//465 457//465 500//465
f 131//466 457//466 270//466
f 132//467 131//467 270//467
f 296//468 132//468 270//468
f 249//469 247//469 170//469
f 176//470 249//470 170//470
f 251//471 249//471 176//471
f 178//472 251//472 176//472
f 177//473 251//473 178//473
f 247//474 243//474 93//474
f 95//475 247//475 93//475
f 170//476 247//476 95//476
f 97//477 170//477 95//477
f 91//478 93//478 243//478
f 241//479 91//479 243//479
f 89//480 91//480 241//480
f 237//481 89//481 241//481
f 87//482 89//482 237//482
f 235//483 87//483 237//483
f 85//484 87//484 235//484
f 231//485 85//485 235//485
f 83//486 85//486 231//486
f 227//487 83//487 231//487
f 81//488 83//488 227//488
f 225//489 81//489 227//489
f 79//490 81//490 225//490
f 221//491 79//491 225//491
f 77//492 79//492 221//492
f 217//493 77//493 221//493
f 75//494 77//494 217//494
f 213//495 75//495 217//495
f 73//496 75//496 213//496
f 211//497 73//497 213//497
f 71//498 73//498 211//498
f 207//499 71//499 211//499
f 69//500 71//500 207//500
f 205//501 69//501 207//501
f 67//502 69//502 205//502
f 201//503 67//503 205//503
f 65//504 67//504 201//504
f 199//505 65//505 201//505
f 63//506 65//506 199//506
f 168//507 63//507 199//507
f 197//508 168//508 199//508
f 174//509 168//509 197//509
f 172//510 174//510 197//510
f 196//511 172//511 197//511
f 171//512 172//512 196//512
f 173//513 171//513 196//513
f 198//514 173//514 196//514
f 167//515 173//515 198//515
f 200//516 167//516 198//516
f 64//517 167//517 200//517
f 66//518 64//518 200//518
f 204//519 66//519 200//519
f 68//520 66//520 204//520
f 206//521 68//521 204//521
f 70//522 68//522 206//522
f 210//523 70//523 206//523
f 72//524 70//524 210//524
f 212//525 72//525 210//525
f 74//526 72//526 212//526
f 216//527 74//527 212//527
f 76//528 74//528 216//528
f 220//529 76//529 216//529
f 78//530 76//530 220//530
f 222//531 78//531 220//531
f 80//532 78//532 222//532
f 226//533 80//533 222//533
f 82//534 80//534 226//534
f 230//535 82//535 226//535
f 84//536 82//536 230//536
f 234//537 84//537 230//537
f 86//538 84//538 234//538
f 236//539 86//539 234//539
f 88//540 86//540 236//540
f 240//541 88//541 236//541
f 90//542 88//542 240//542
f 242//543 90//543 240//543
f 92//544 90//544 242//544
f 246//545 92//545 242//545
f 94//546 92//546 246//546
f 248//547 94//547 246//547
f 96//548 94//548 248//548
f 169//549 96//549 248//549
f 250//550 169//550 248//550
f 175//551 169//551 250//551
f 177//552 175//552 250//552
f 251//553 177//553 250//553
f 167//554 64//554 62//554
f 463//555 560//555 561//555
f 498//556 463//556 561//556
f 464//557 463//557 498//557
f 458//558 546//558 560//558
f 463//559 458//559 560//559
f 458//560 463//560 462//560
f 461//561 458//561 462//561
f 460//562 458//562 461//562
f 462//563 463//563 464//563
f 458//564 460//564 459//564
f 383//565 384//565 359//565
f 358//566 383//566 359//566
f 360//567 383//567 358//567
f 361//568 359//568 384//568
f 388//569 361//569 384//569
f 363//570 361//570 388//570
f 390//571 363//571 388//571
f 365//572 363//572 390//572
f 392//573 365//573 390//573
f 367//574 365//574 392//574
f 369//575 367//575 392//575
f 396//576 369//576 392//576
f 371//577 369//577 396//577
f 398//578 371//578 396//578
f 373//579 371//579 398//579
f 375//580 373//580 398//580
f 402//581 375//581 398//581
f 377//582 375//582 402//582
f 404//583 377//583 402//583
f 379//584 377//584 404//584
f 381//585 379//585 404//585
f 386//586 381//586 404//586
f 408//587 386//587 404//587
f 394//588 386//588 408//588
f 400//589 394//589 408//589
f 410//590 400//590 408//590
f 406//591 400//591 410//591
f 412//592 406//592 410//592
f 414//593 412//593 410//593
f 416//594 412//594 414//594
f 412//595 416//595 418//595
f 436//596 412//596 418//596
f 438//597 412//597 436//597
f 436//598 418//598 420//598
f 434//599 436//599 420//599
f 422//600 434//600 420//600
f 424//601 434//601 422//601
f 434//602 424//602 426//602
f 428//603 434//603 426//603
f 430//604 434//604 428//604
f 434//605 430//605 432//605
f 433//606 434//606 432//606
f 435//607 434//607 433//607
f 431//608 435//608 433//608
f 429//609 435//609 431//609
f 435//610 429//610 427//610
f 425//611 435//611 427//611
f 423//612 435//612 425//612
f 435//613 423//613 421//613
f 437//614 435//614 421//614
f 419//615 437//615 421//615
f 413//616 437//616 419//616
f 417//617 413//617 419//617
f 415//618 413//618 417//618
f 413//619 415//619 411//619
f 407//620 413//620 411//620
f 401//621 407//621 411//621
f 409//622 401//622 411//622
f 395//623 401//623 409//623
f 387//624 395//624 409//624
f 405//625 387//625 409//625
f 382//626 387//626 405//626
f 380//627 382//627 405//627
f 378//628 380//628 405//628
f 403//629 378//629 405//629
f 376//630 378//630 403//630
f 399//631 376//631 403//631
f 374//632 376//632 399//632
f 372//633 374//633 399//633
f 397//634 372//634 399//634
f 370//635 372//635 397//635
f 393//636 370//636 397//636
f 368//637 370//637 393//637
f 366//638 368//638 393//638
f 391//639 366//639 393//639
f 364//640 366//640 391//640
f 389//641 364//641 391//641
f 362//642 364//642 389//642
f 385//643 362//643 389//643
f 360//644 362//644 385//644
f 383//645 360//645 385//645
f 454//646 456//646 412//646
f 452//647 454//647 412//647
f 450//648 452//648 412//648
f 448//649 450//649 412//649
f 446//650 448//650 412//650
f 444//651 446//651 412//651
f 442//652 444//652 412//652
f 440//653 442//653 412//653
f 438//654 440//654 412//654
f 413//655 457//655 455//655
f 453//656 413//656 455//656
f 451//657 413//657 453//657
f 413//658 451//658 449//658
f 447//659 413//659 449//659
f 445//660 413//660 447//660
f 413//661 445//661 443//661
f 441//662 413//662 443//662
f 439//663 413//663 441//663
f 413//664 439//664 437//664
f 500//665 579//665 578//665
f 499//666 500//666 578//666
f 270//667 500//667 499//667
f 269//668 270//668 499//668
f 579//669 561//669 560//669
f 567//670 579//670 560//670
f 569//671 579//671 567//671
f 560//672 546//672 554//672
f 557//673 560//673 554//673
f 559//674 560//674 557//674
f 546//675 547//675 542//675
f 536//676 546//676 542//676
f 526//677 546//677 536//677
f 546//678 526//678 523//678
f 521//679 546//679 523//679
f 519//680 546//680 521//680
f 546//681 519//681 517//681
f 549//682 546//682 517//682
f 552//683 546//683 549//683
f 549//684 517//684 515//684
f 544//685 549//685 515//685
f 513//686 544//686 515//686
f 541//687 544//687 513//687
f 511//688 541//688 513//688
f 538//689 541//689 511//689
f 509//690 538//690 511//690
f 535//691 538//691 509//691
f 532//692 535//692 509//692
f 507//693 532//693 509//693
f 530//694 532//694 507//694
f 505//695 530//695 507//695
f 528//696 530//696 505//696
f 503//697 528//697 505//697
f 525//698 528//698 503//698
f 504//699 525//699 503//699
f 527//700 525//700 504//700
f 529//701 527//701 504//701
f 506//702 529//702 504//702
f 531//703 529//703 506//703
f 508//704 531//704 506//704
f 534//705 531//705 508//705
f 510//706 534//706 508//706
f 537//707 534//707 510//707
f 512//708 537//708 510//708
f 540//709 537//709 512//709
f 543//710 540//710 512//710
f 514//711 543//711 512//711
f 548//712 543//712 514//712
f 516//713 548//713 514//713
f 551//714 548//714 516//714
f 518//715 551//715 516//715
f 520//716 551//716 518//716
f 553//717 551//717 520//717
f 522//718 553//718 520//718
f 524//719 553//719 522//719
f 553//720 524//720 533//720
f 556//721 553//721 533//721
f 539//722 556//722 533//722
f 545//723 556//723 539//723
f 556//724 545//724 550//724
f 555//725 556//725 550//725
f 558//726 556//726 555//726
f 562//727 558//727 555//727
f 564//728 562//728 555//728
f 578//729 564//729 555//729
f 566//730 564//730 578//730
f 568//731 566//731 578//731
f 570//732 568//732 578//732
f 572//733 570//733 578//733
f 574//734 572//734 578//734
f 576//735 574//735 578//735
f 577//736 576//736 578//736
f 579//737 577//737 578//737
f 575//738 577//738 579//738
f 573//739 575//739 579//739
f 571//740 573//740 579//740
f 569//741 571//741 579//741
f 546//742 552//742 554//742
f 560//743 559//743 563//743
f 565//744 560//744 563//744
f 567//745 560//745 565//745
f 270//746 269//746 271//746
f 273//747 270//747 271//747
f 275//748 270//748 273//748
f 269//749 298//749 288//749
f 286//750 269//750 288//750
f 284//751 269//751 286//751
f 298//752 302//752 299//752
f 294//753 298//753 299//753
f 292//754 298//754 294//754
f 300//755 299//755 302//755
f 306//756 300//756 302//756
f 304//757 300//757 306//757
f 310//758 304//758 306//758
f 316//759 304//759 310//759
f 308//760 304//760 316//760
f 320//761 308//761 316//761
f 312//762 308//762 320//762
f 326//763 312//763 320//763
f 337//764 312//764 326//764
f 314//765 312//765 337//765
f 339//766 314//766 337//766
f 318//767 314//767 339//767
f 341//768 318//768 339//768
f 322//769 318//769 341//769
f 343//770 322//770 341//770
f 345//771 322//771 343//771
f 324//772 322//772 345//772
f 347//773 324//773 345//773
f 328//774 324//774 347//774
f 349//775 328//775 347//775
f 330//776 328//776 349//776
f 351//777 330//777 349//777
f 332//778 330//778 351//778
f 353//779 332//779 351//779
f 334//780 332//780 353//780
f 355//781 334//781 353//781
f 336//782 334//782 355//782
f 357//783 336//783 355//783
f 356//784 336//784 357//784
f 335//785 336//785 356//785
f 354//786 335//786 356//786
f 333//787 335//787 354//787
f 352//788 333//788 354//788
f 331//789 333//789 352//789
f 350//790 331//790 352//790
f 329//791 331//791 350//791
f 348//792 329//792 350//792
f 325//793 329//793 348//793
f 346//794 325//794 348//794
f 323//795 325//795 346//795
f 344//796 323//796 346//796
f 342//797 323//797 344//797
f 319//798 323//798 342//798
f 340//799 319//799 342//799
f 315//800 319//800 340//800
f 338//801 315//801 340//801
f 313//802 315//802 338//802
f 327//803 313//803 338//803
f 321//804 313//804 327//804
f 309//805 313//805 321//805
f 317//806 309//806 321//806
f 305//807 309//807 317//807
f 311//808 305//808 317//808
f 307//809 305//809 311//809
f 301//810 305//810 307//810
f 303//811 301//811 307//811
f 297//812 301//812 303//812
f 296//813 297//813 303//813
f 295//814 297//814 296//814
f 293//815 295//815 296//815
f 291//816 293//816 296//816
f 289//817 291//817 296//817
f 270//818 289//818 296//818
f 287//819 289//819 270//819
f 285//820 287//820 270//820
f 283//821 285//821 270//821
f 281//822 283//822 270//822
f 279//823 281//823 270//823
f 277//824 279//824 270//824
f 275//825 277//825 270//825
f 298//826 292//826 290//826
f 288//827 298//827 290//827
f 269//828 284//828 282//828
f 280//829 269//829 282//829
f 278//830 269//830 280//830
f 269//831 278//831 276//831
f 274//832 269//832 276//832
f 272//833 269//833 274//833
f 269//834 272//834 271//834
f 383//835 385//835 528//835
f 525//836 383//836 528//836
f 384//837 383//837 525//837
f 527//838 384//838 525//838
f 388//839 384//839 527//839
f 529//840 388//840 527//840
f 390//841 388//841 529//841
f 531//842 390//842 529//842
f 392//843 390//843 531//843
f 534//844 392//844 531//844
f 396//845 392//845 534//845
f 537//846 396//846 534//846
f 398//847 396//847 537//847
f 540//848 398//848 537//848
f 402//849 398//849 540//849
f 543//850 402//850 540//850
f 404//851 402//851 543//851
f 548//852 404//852 543//852
f 408//853 404//853 548//853
f 551//854 408//854 548//854
f 410//855 408//855 551//855
f 553//856 410//856 551//856
f 414//857 410//857 553//857
f 556//858 414//858 553//858
f 416//859 414//859 556//859
f 558//860 416//860 556//860
f 418//861 416//861 558//861
f 562//862 418//862 558//862
f 420//863 418//863 562//863
f 564//864 420//864 562//864
f 422//865 420//865 564//865
f 566//866 422//866 564//866
f 424//867 422//867 566//867
f 568//868 424//868 566//868
f 426//869 424//869 568//869
f 570//870 426//870 568//870
f 428//871 426//871 570//871
f 572//872 428//872 570//872
f 430//873 428//873 572//873
f 574//874 430//874 572//874
f 432//875 430//875 574//875
f 576//876 432//876 574//876
f 433//877 432//877 576//877
f 577//878 433//878 576//878
f 431//879 433//879 577//879
f 575//880 431//880 577//880
f 429//881 431//881 575//881
f 573//882 429//882 575//882
f 427//883 429//883 573//883
f 571//884 427//884 573//884
f 425//885 427//885 571//885
f 569//886 425//886 571//886
f 423//887 425//887 569//887
f 567//888 423//888 569//888
f 421//889 423//889 567//889
f 565//890 421//890 567//890
f 419//891 421//891 565//891
f 563//892 419//892 565//892
f 417//893 419//893 563//893
f 559//894 417//894 563//894
f 415//895 417//895 559//895
f 557//896 415//896 559//896
f 411//897 415//897 557//897
f 554//898 411//898 557//898
f 409//899 411//899 554//899
f 552//900 409//900 554//900
f 405//901 409//901 552//901
f 549//902 405//902 552//902
f 403//903 405//903 549//903
f 544//904 403//904 549//904
f 399//905 403//905 544//905
f 541//906 399//906 544//906
f 397//907 399//907 541//907
f 538//908 397//908 541//908
f 393//909 397//909 538//909
f 535//910 393//910 538//910
f 391//911 393//911 535//911
f 532//912 391//912 535//912
f 389//913 391//913 532//913
f 530//914 389//914 532//914
f 385//915 389//915 530//915
f 528//916 385//916 530//916
f 406//917 412//917 497//917
f 496//918 406//918 497//918
f 400//919 406//919 496//919
f 494//920 400//920 496//920
f 394//921 400//921 494//921
f 492//922 394//922 494//922
f 386//923 394//923 492//923
f 490//924 386//924 492//924
f 381//925 386//925 490//925
f 488//926 381//926 490//926
f 379//927 381//927 488//927
f 486//928 379//928 488//928
f 377//929 379//929 486//929
f 484//930 377//930 486//930
f 375//931 377//931 484//931
f 482//932 375//932 484//932
f 373//933 375//933 482//933
f 480//934 373//934 482//934
f 371//935 373//935 480//935
f 478//936 371//936 480//936
f 369//937 371//937 478//937
f 476//938 369//938 478//938
f 367//939 369//939 476//939
f 474//940 367//940 476//940
f 365//941 367//941 474//941
f 472//942 365//942 474//942
f 363//943 365//943 472//943
f 470//944 363//944 472//944
f 361//945 363//945 470//945
f 468//946 361//946 470//946
f 359//947 361//947 468//947
f 466//948 359//948 468//948
f 358//949 359//949 466//949
f 465//950 358//950 466//950
f 360//951 358//951 465//951
f 467//952 360//952 465//952
f 362//953 360//953 467//953
f 469//954 362//954 467//954
f 364//955 362//955 469//955
f 471//956 364//956 469//956
f 366//957 364//957 471//957
f 473//958 366//958 471//958
f 368//959 366//959 473//959
f 475//960 368//960 473//960
f 370//961 368//961 475//961
f 477//962 370//962 475//962
f 372//963 370//963 477//963
f 479//964 372//964 477//964
f 374//965 372//965 479//965
f 481//966 374//966 479//966
f 376//967 374//967 481//967
f 483//968 376//968 481//968
f 378//969 376//969 483//969
f 485//970 378//970 483//970
f 380//971 378//971 485//971
f 487//972 380//972 485//972
f 382//973 380//973 487//973
f 489//974 382//974 487//974
f 387//975 382//975 489//975
f 491//976 387//976 489//976
f 395//977 387//977 491//977
f 493//978 395//978 491//978
f 401//979 395//979 493//979
f 459//980 401//980 493//980
f 407//981 401//981 459//981
f 460//982 407//982 459//982
f 461//983 407//983 460//983
f 459//984 493//984 495//984
f 461//985 462//985 413//985
f 407//986 461//986 413//986
f 179//987 181//987 273//987
f 271//988 179//988 273//988
f 180//989 179//989 271//989
f 272//990 180//990 271//990
f 182//991 180//991 272//991
f 274//992 182//992 272//992
f 184//993 182//993 274//993
f 276//994 184//994 274//994
f 186//995 184//995 276//995
f 278//996 186//996 276//996
f 188//997 186//997 278//997
f 280//998 188//998 278//998
f 190//999 188//999 280//999
f 282//1000 190//1000 280//1000
f 192//1001 190//1001 282//1001
f 284//1002 192//1002 282//1002
f 194//1003 192//1003 284//1003
f 286//1004 194//1004 284//1004
f 202//1005 194//1005 286//1005
f 288//1006 202//1006 286//1006
f 208//1007 202//1007 288//1007
f 290//1008 208//1008 288//1008
f 214//1009 208//1009 290//1009
f 292//1010 214//1010 290//1010
f 218//1011 214//1011 292//1011
f 294//1012 218//1012 292//1012
f 224//1013 218//1013 294//1013
f 299//1014 224//1014 294//1014
f 228//1015 224//1015 299//1015
f 300//1016 228//1016 299//1016
f 232//1017 228//1017 300//1017
f 304//1018 232//1018 300//1018
f 238//1019 232//1019 304//1019
f 308//1020 238//1020 304//1020
f 244//1021 238//1021 308//1021
f 312//1022 244//1022 308//1022
f 252//1023 244//1023 312//1023
f 314//1024 252//1024 312//1024
f 254//1025 252//1025 314//1025
f 318//1026 254//1026 314//1026
f 256//1027 254//1027 318//1027
f 322//1028 256//1028 318//1028
f 258//1029 256//1029 322//1029
f 324//1030 258//1030 322//1030
f 260//1031 258//1031 324//1031
f 328//1032 260//1032 324//1032
f 262//1033 260//1033 328//1033
f 330//1034 262//1034 328//1034
f 264//1035 262//1035 330//1035
f 332//1036 264//1036 330//1036
f 266//1037 264//1037 332//1037
f 334//1038 266//1038 332//1038
f 268//1039 266//1039 334//1039
f 336//1040 268//1040 334//1040
f 267//1041 268//1041 336//1041
f 335//1042 267//1042 336//1042
f 265//1043 267//1043 335//1043
f 333//1044 265//1044 335//1044
f 263//1045 265//1045 333//1045
f 331//1046 263//1046 333//1046
f 261//1047 263//1047 331//1047
f 329//1048 261//1048 331//1048
f 259//1049 261//1049 329//1049
f 325//1050 259//1050 329//1050
f 257//1051 259//1051 325//1051
f 323//1052 257//1052 325//1052
f 255//1053 257//1053 323//1053
f 319//1054 255//1054 323//1054
f 253//1055 255//1055 319//1055
f 315//1056 253//1056 319//1056
f 245//1057 253//1057 315//1057
f 313//1058 245//1058 315//1058
f 239//1059 245//1059 313//1059
f 309//1060 239//1060 313//1060
f 233//1061 239//1061 309//1061
f 305//1062 233//1062 309//1062
f 229//1063 233//1063 305//1063
f 301//1064 229//1064 305//1064
f 223//1065 229//1065 301//1065
f 297//1066 223//1066 301//1066
f 219//1067 223//1067 297//1067
f 295//1068 219//1068 297//1068
f 215//1069 219//1069 295//1069
f 293//1070 215//1070 295//1070
f 209//1071 215//1071 293//1071
f 291//1072 209//1072 293//1072
f 203//1073 209//1073 291//1073
f 289//1074 203//1074 291//1074
f 195//1075 203//1075 289//1075
f 287//1076 195//1076 289//1076
f 193//1077 195//1077 287//1077
f 285//1078 193//1078 287//1078
f 191//1079 193//1079 285//1079
f 283//1080 191//1080 285//1080
f 189//1081 191//1081 283//1081
f 281//1082 189//1082 283//1082
f 187//1083 189//1083 281//1083
f 279//1084 187//1084 281//1084
f 185//1085 187//1085 279//1085
f 277//1086 185//1086 279//1086
f 183//1087 185//1087 277//1087
f 275//1088 183//1088 277//1088
f 181//1089 183//1089 275//1089
f 273//1090 181//1090 275//1090
f 302//1091 298//1091 133//1091
f 134//1092 302//1092 133//1092
f 306//1093 302//1093 134//1093
f 136//1094 306//1094 134//1094
f 310//1095 306//1095 136//1095
f 138//1096 310//1096 136//1096
f 316//1097 310//1097 138//1097
f 140//1098 316//1098 138//1098
f 320//1099 316//1099 140//1099
f 142//1100 320//1100 140//1100
f 326//1101 320//1101 142//1101
f 144//1102 326//1102 142//1102
f 337//1103 326//1103 144//1103
f 146//1104 337//1104 144//1104
f 339//1105 337//1105 146//1105
f 148//1106 339//1106 146//1106
f 341//1107 339//1107 148//1107
f 150//1108 341//1108 148//1108
f 343//1109 341//1109 150//1109
f 152//1110 343//1110 150//1110
f 345//1111 343//1111 152//1111
f 154//1112 345//1112 152//1112
f 347//1113 345//1113 154//1113
f 156//1114 347//1114 154//1114
f 349//1115 347//1115 156//1115
f 158//1116 349//1116 156//1116
f 351//1117 349//1117 158//1117
f 160//1118 351//1118 158//1118
f 353//1119 351//1119 160//1119
f 162//1120 353//1120 160//1120
f 355//1121 353//1121 162//1121
f 164//1122 355//1122 162//1122
f 357//1123 355//1123 164//1123
f 166//1124 357//1124 164//1124
f 356//1125 357//1125 166//1125
f 165//1126 356//1126 166//1126
f 354//1127 356//1127 165//1127
f 163//1128 354//1128 165//1128
f 352//1129 354//1129 163//1129
f 161//1130 352//1130 163//1130
f 350//1131 352//1131 161//1131
f 159//1132 350//1132 161//1132
f 348//1133 350//1133 159//1133
f 157//1134 348//1134 159//1134
f 346//1135 348//1135 157//1135
f 155//1136 346//1136 157//1136
f 344//1137 346//1137 155//1137
f 153//1138 344//1138 155//1138
f 342//1139 344//1139 153//1139
f 151//1140 342//1140 153//1140
f 340//1141 342//1141 151//1141
f 149//1142 340//1142 151//1142
f 338//1143 340//1143 149//1143
f 147//1144 338//1144 149//1144
f 327//1145 338//1145 147//1145
f 145//1146 327//1146 147//1146
f 321//1147 327//1147 145//1147
f 143//1148 321//1148 145//1148
f 317//1149 321//1149 143//1149
f 141//1150 317//1150 143//1150
f 311//1151 317//1151 141//1151
f 139//1152 311//1152 141//1152
f 307//1153 311//1153 139//1153
f 137//1154 307//1154 139//1154
f 303//1155 307//1155 137//1155
f 135//1156 303//1156 137//1156
f 296//1157 303//1157 135//1157
f 132//1158 296//1158 135//1158
