# Created by FreeCAD <https://www.freecad.org>
v -251.083252 -76.000000 -136.538055
v -251.083252 -75.000000 -136.538055
v -251.053650 -76.000000 -135.596207
v -251.053650 -75.000000 -135.596207
v -250.964966 -76.000000 -134.658066
v -250.964966 -75.000000 -134.658066
v -250.817551 -76.000000 -133.727341
v -250.817551 -75.000000 -133.727341
v -250.612000 -76.000000 -132.807709
v -250.612000 -75.000000 -132.807709
v -250.531799 -74.453850 -136.929291
v -250.349091 -76.000000 -131.902802
v -250.349091 -75.000000 -131.902802
v -250.029892 -76.000000 -131.016190
v -250.029892 -75.000000 -131.016190
v -250.001770 -73.939659 -137.305328
v -249.655655 -76.000000 -130.151367
v -249.655655 -75.000000 -130.151367
v -249.491348 -73.455589 -137.667465
v -249.227844 -76.000000 -129.311752
v -249.227844 -75.000000 -129.311752
v -248.998856 -73.000000 -138.016876
v -248.748169 -76.000000 -128.500656
v -248.748169 -75.000000 -128.500656
v -248.507172 -72.480896 -137.729233
v -248.218506 -76.000000 -127.721283
v -248.218506 -75.000000 -127.721283
v -248.022842 -71.974525 -137.451996
v -247.640945 -76.000000 -126.976700
v -247.640945 -75.000000 -126.976700
v -247.545898 -71.480896 -137.185120
v -247.076309 -71.000000 -136.928650
v -247.074829 -71.000000 -136.107925
v -247.017776 -76.000000 -126.269852
v -247.017776 -75.000000 -126.269852
v -247.012177 -71.000000 -135.289597
v -246.888672 -71.000000 -134.478226
v -246.705017 -71.000000 -133.678314
v -246.462219 -71.000000 -132.894318
v -246.351456 -76.000000 -125.603531
v -246.351456 -75.000000 -125.603531
v -246.161667 -71.000000 -132.130615
v -245.804993 -71.000000 -131.391449
v -245.644608 -76.000000 -124.980362
v -245.644608 -75.000000 -124.980362
v -245.394211 -71.000000 -130.680923
v -244.931580 -71.000000 -130.003006
v -244.900024 -76.000000 -124.402802
v -244.900024 -75.000000 -124.402802
v -244.419708 -71.000000 -129.361465
v -244.120651 -76.000000 -123.873138
v -244.120651 -75.000000 -123.873138
v -243.861420 -71.000000 -128.759888
v -243.309555 -76.000000 -123.393456
v -243.309555 -75.000000 -123.393456
v -243.259842 -71.000000 -128.201599
v -242.618301 -71.000000 -127.689720
v -242.469940 -76.000000 -122.965652
v -242.469940 -75.000000 -122.965652
v -241.940384 -71.000000 -127.227104
v -241.605118 -76.000000 -122.591415
v -241.605118 -75.000000 -122.591415
v -241.229858 -71.000000 -126.816315
v -240.718506 -76.000000 -122.272209
v -240.718506 -75.000000 -122.272209
v -240.490692 -71.000000 -126.459648
v -239.813599 -76.000000 -122.009315
v -239.813599 -75.000000 -122.009315
v -239.726990 -71.000000 -126.159081
v -238.942993 -71.000000 -125.916298
v -238.893967 -76.000000 -121.803749
v -238.893967 -75.000000 -121.803749
v -238.143082 -71.000000 -125.732643
v -237.963242 -76.000000 -121.656342
v -237.963242 -75.000000 -121.656342
v -237.331711 -71.000000 -125.609138
v -237.025101 -76.000000 -121.567657
v -237.025101 -75.000000 -121.567657
v -236.513382 -71.000000 -125.546471
v -236.083252 -76.000000 -121.538055
v -236.083252 -75.000000 -121.538055
v -235.692657 -71.000000 -125.544998
v -235.692017 -74.453850 -122.089508
v -235.436188 -71.480896 -125.075417
v -235.315979 -73.939659 -122.619530
v -235.169312 -71.974525 -124.598457
v -234.953842 -73.455589 -123.129951
v -234.892075 -72.480896 -124.114136
v -234.604431 -73.000000 -123.622444
v -223.554352 -76.000000 -152.066956
v -223.554352 -72.250000 -152.066956
v -223.523819 -76.000000 -152.493896
v -223.523819 -76.000000 -151.640015
v -223.523819 -72.250000 -152.493896
v -223.523819 -72.250000 -151.640015
v -223.447540 -76.000000 -156.144882
v -223.447540 -73.000000 -156.144882
v -223.432831 -76.000000 -152.912155
v -223.432831 -76.000000 -151.221756
v -223.432831 -72.250000 -152.912155
v -223.432831 -72.250000 -151.221756
v -223.283249 -76.000000 -153.313202
v -223.283249 -76.000000 -150.820709
v -223.283249 -72.250000 -153.313202
v -223.283249 -72.250000 -150.820709
v -223.206467 -72.991608 -156.305618
v -223.078110 -76.000000 -153.688873
v -223.078110 -76.000000 -150.445038
v -223.078110 -72.250000 -153.688873
v -223.078110 -72.250000 -150.445038
v -222.972778 -76.000000 -156.443176
v -222.956497 -72.966446 -156.452118
v -222.821594 -76.000000 -154.031540
v -222.821594 -76.000000 -150.102371
v -222.821594 -72.250000 -154.031540
v -222.821594 -72.250000 -150.102371
v -222.698456 -72.924614 -156.583908
v -222.518936 -76.000000 -154.334213
v -222.518936 -76.000000 -149.799713
v -222.518936 -72.250000 -154.334213
v -222.518936 -72.250000 -149.799713
v -222.467606 -76.000000 -156.686417
v -222.433228 -72.866241 -156.700516
v -222.204346 -72.250000 -152.066956
v -222.204346 -71.000000 -152.066956
v -222.176270 -76.000000 -154.590714
v -222.176270 -76.000000 -149.543198
v -222.176270 -72.250000 -154.590714
v -222.176270 -72.250000 -149.543198
v -222.172653 -72.250000 -152.388855
v -222.172653 -72.250000 -151.745056
v -222.172653 -71.000000 -152.388855
v -222.172653 -71.000000 -151.745056
v -222.161682 -72.791534 -156.801559
v -222.078751 -72.250000 -152.698380
v -222.078751 -72.250000 -151.435532
v -222.078751 -71.000000 -152.698380
v -222.078751 -71.000000 -151.435532
v -221.938370 -76.000000 -156.871582
v -221.926270 -72.250000 -152.983643
v -221.926270 -72.250000 -151.150269
v -221.926270 -71.000000 -152.983643
v -221.926270 -71.000000 -151.150269
v -221.884735 -72.700737 -156.886719
v -221.800598 -76.000000 -154.795853
v -221.800598 -76.000000 -149.338058
v -221.800598 -72.250000 -154.795853
v -221.800598 -72.250000 -149.338058
v -221.721069 -72.250000 -153.233688
v -221.721069 -72.250000 -150.900238
v -221.721069 -71.000000 -153.233688
v -221.721069 -71.000000 -150.900238
v -221.603317 -72.594147 -156.955688
v -221.471039 -72.250000 -153.438889
v -221.471039 -72.250000 -150.695038
v -221.471039 -71.000000 -153.438889
v -221.471039 -71.000000 -150.695038
v -221.399551 -76.000000 -154.945435
v -221.399551 -76.000000 -149.188477
v -221.399551 -72.250000 -154.945435
v -221.399551 -72.250000 -149.188477
v -221.391739 -76.000000 -156.996338
v -221.318390 -72.472137 -157.008240
v -221.185776 -72.250000 -153.591354
v -221.185776 -72.250000 -150.542557
v -221.185776 -71.000000 -153.591354
v -221.185776 -71.000000 -150.542557
v -221.030884 -72.335106 -157.044189
v -220.981293 -76.000000 -155.036423
v -220.981293 -76.000000 -149.097488
v -220.981293 -72.250000 -155.036423
v -220.981293 -72.250000 -149.097488
v -220.876251 -72.250000 -153.685257
v -220.876251 -72.250000 -150.448654
v -220.876251 -71.000000 -153.685257
v -220.876251 -71.000000 -150.448654
v -220.834579 -76.000000 -157.059097
v -220.741791 -72.183517 -157.063446
v -220.554352 -76.000000 -155.066956
v -220.554352 -76.000000 -149.066956
v -220.554352 -72.250000 -155.066956
v -220.554352 -72.250000 -153.716965
v -220.554352 -72.250000 -150.416962
v -220.554352 -72.250000 -149.066956
v -220.554352 -71.000000 -153.716965
v -220.554352 -71.000000 -150.416962
v -220.452057 -72.017883 -157.065918
v -220.273895 -76.000000 -157.059082
v -220.232452 -72.250000 -153.685257
v -220.232452 -72.250000 -150.448654
v -220.232452 -71.000000 -153.685257
v -220.232452 -71.000000 -150.448654
v -220.162674 -71.838760 -157.051590
v -220.127411 -76.000000 -155.036423
v -220.127411 -76.000000 -149.097488
v -220.127411 -72.250000 -155.036423
v -220.127411 -72.250000 -149.097488
v -219.922928 -72.250000 -153.591354
v -219.922928 -72.250000 -150.542557
v -219.922928 -71.000000 -153.591354
v -219.922928 -71.000000 -150.542557
v -219.874603 -71.646744 -157.020538
v -219.716721 -76.000000 -156.996292
v -219.709152 -76.000000 -154.945435
v -219.709152 -76.000000 -149.188477
v -219.709152 -72.250000 -154.945435
v -219.709152 -72.250000 -149.188477
v -219.637665 -72.250000 -153.438889
v -219.637665 -72.250000 -150.695038
v -219.637665 -71.000000 -153.438889
v -219.637665 -71.000000 -150.695038
v -219.588821 -71.442482 -156.972839
v -219.387619 -72.250000 -153.233688
v -219.387619 -72.250000 -150.900238
v -219.387619 -71.000000 -153.233688
v -219.387619 -71.000000 -150.900238
v -219.308105 -76.000000 -154.795853
v -219.308105 -76.000000 -149.338058
v -219.308105 -72.250000 -154.795853
v -219.308105 -72.250000 -149.338058
v -219.306274 -71.226654 -156.908676
v -219.182419 -72.250000 -152.983643
v -219.182419 -72.250000 -151.150269
v -219.182419 -71.000000 -152.983643
v -219.182419 -71.000000 -151.150269
v -219.170105 -76.000000 -156.871521
v -219.029953 -72.250000 -152.698380
v -219.029953 -72.250000 -151.435532
v -219.029953 -71.000000 -152.698380
v -219.029953 -71.000000 -151.435532
v -219.027924 -71.000000 -156.828262
v -218.936050 -72.250000 -152.388855
v -218.936050 -72.250000 -151.745056
v -218.936050 -71.000000 -152.388855
v -218.936050 -71.000000 -151.745056
v -218.932434 -76.000000 -154.590714
v -218.932434 -76.000000 -149.543198
v -218.932434 -72.250000 -154.590714
v -218.932434 -72.250000 -149.543198
v -218.904343 -72.250000 -152.066956
v -218.904343 -71.000000 -152.066956
v -218.640884 -76.000000 -156.686325
v -218.589767 -76.000000 -154.334213
v -218.589767 -76.000000 -149.799713
v -218.589767 -72.250000 -154.334213
v -218.589767 -72.250000 -149.799713
v -218.534607 -71.000000 -156.640869
v -218.287094 -76.000000 -154.031540
v -218.287094 -76.000000 -150.102371
v -218.287094 -72.250000 -154.031540
v -218.287094 -72.250000 -150.102371
v -218.135712 -76.000000 -156.443054
v -218.063782 -71.000000 -156.402512
v -218.030594 -76.000000 -153.688873
v -218.030594 -76.000000 -150.445038
v -218.030594 -72.250000 -153.688873
v -218.030594 -72.250000 -150.445038
v -217.825455 -76.000000 -153.313202
v -217.825455 -76.000000 -150.820709
v -217.825455 -72.250000 -153.313202
v -217.825455 -72.250000 -150.820709
v -217.675873 -76.000000 -152.912155
v -217.675873 -76.000000 -151.221756
v -217.675873 -72.250000 -152.912155
v -217.675873 -72.250000 -151.221756
v -217.660980 -76.000000 -156.144745
v -217.620712 -71.000000 -156.115875
v -217.584885 -76.000000 -152.493896
v -217.584885 -76.000000 -151.640015
v -217.584885 -72.250000 -152.493896
v -217.584885 -72.250000 -151.640015
v -217.554352 -76.000000 -152.066956
v -217.554352 -72.250000 -152.066956
v -217.222610 -76.000000 -155.795166
v -217.210312 -71.000000 -155.784134
v -216.837173 -71.000000 -155.410995
v -216.826141 -76.000000 -155.398697
v -216.505432 -71.000000 -155.000595
v -216.476562 -76.000000 -154.960327
v -216.476425 -76.000000 -149.173767
v -216.476425 -73.000000 -149.173767
v -216.315689 -72.991608 -149.414841
v -216.218796 -71.000000 -154.557526
v -216.178253 -76.000000 -154.485596
v -216.178131 -76.000000 -149.648529
v -216.169189 -72.966446 -149.664810
v -216.037399 -72.924614 -149.922852
v -215.980438 -71.000000 -154.086700
v -215.934982 -76.000000 -153.980423
v -215.934891 -76.000000 -150.153702
v -215.920792 -72.866241 -150.188080
v -215.819748 -72.791534 -150.459625
v -215.793045 -71.000000 -153.593384
v -215.749786 -76.000000 -153.451202
v -215.749725 -76.000000 -150.682938
v -215.734589 -72.700737 -150.736572
v -215.712631 -71.226654 -153.315033
v -215.665619 -72.594147 -151.017990
v -215.648468 -71.442482 -153.032486
v -215.625015 -76.000000 -152.904587
v -215.624969 -76.000000 -151.229568
v -215.613068 -72.472137 -151.302917
v -215.600769 -71.646744 -152.746704
v -215.577118 -72.335106 -151.590424
v -215.569717 -71.838760 -152.458633
v -215.562225 -76.000000 -152.347412
v -215.562210 -76.000000 -151.786728
v -215.557861 -72.183517 -151.879517
v -215.555389 -72.017883 -152.169250
vn 0.960806 0.000430 -0.277221
vn 0.943875 -0.001226 -0.330300
vn 0.934825 0.000951 -0.355106
vn 0.900974 -0.001031 -0.433873
vn 0.892184 0.000737 -0.451672
vn 0.846711 -0.000789 -0.532052
vn 0.839618 0.000473 -0.543177
vn 0.781839 -0.000507 -0.623479
vn 0.777697 0.000170 -0.628640
vn 0.707107 -0.000179 -0.707107
vn 0.707107 -0.000179 -0.707107
vn 0.628640 0.000170 -0.777697
vn 0.623479 -0.000507 -0.781839
vn 0.543177 0.000473 -0.839618
vn 0.532052 -0.000789 -0.846711
vn 0.451672 0.000737 -0.892184
vn 0.433873 -0.001031 -0.900974
vn 0.355106 0.000951 -0.934825
vn 0.330300 -0.001226 -0.943875
vn 0.277221 0.000429 -0.960806
vn 0.222355 -0.001246 -0.974965
vn 0.222537 -0.001228 -0.974923
vn 0.164306 0.000465 -0.986409
vn 0.108233 -0.001612 -0.994124
vn 0.111984 -0.001204 -0.993709
vn 0.049153 0.000485 -0.998791
vn 0.000027 -0.001715 -0.999999
vn -0.007991 -0.000945 -0.999968
vn -0.066716 0.000485 -0.997772
vn -0.111934 -0.001953 -0.993714
vn -0.123710 -0.000776 -0.992318
vn -0.181568 0.000457 -0.983378
vn -0.222505 -0.002187 -0.974929
vn -0.237824 -0.000590 -0.971308
vn -0.294030 0.000395 -0.955796
vn -0.330243 -0.002385 -0.943893
vn -0.348650 -0.000392 -0.937253
vn -0.402525 0.000297 -0.915409
vn -0.433827 -0.002533 -0.900993
vn -0.454820 -0.000184 -0.890583
vn -0.505644 0.000171 -0.862742
vn -0.532006 -0.002609 -0.846736
vn -0.554749 -0.000000 -0.832018
vn 0.974923 -0.001240 -0.222537
vn 0.974969 -0.001222 -0.222338
vn 0.986409 0.000465 -0.164306
vn 0.993709 -0.001473 -0.111984
vn 0.994162 -0.001094 -0.107892
vn 0.998791 0.000485 -0.049152
vn 0.999999 -0.001715 -0.000027
vn 0.999968 -0.000945 0.007991
vn 0.997772 0.000485 0.066716
vn 0.993714 -0.001953 0.111934
vn 0.992318 -0.000776 0.123710
vn 0.983378 0.000457 0.181568
vn 0.974929 -0.002187 0.222505
vn 0.971308 -0.000590 0.237824
vn 0.955796 0.000395 0.294030
vn 0.943893 -0.002385 0.330243
vn 0.937253 -0.000392 0.348650
vn 0.915409 0.000297 0.402525
vn 0.900993 -0.002533 0.433827
vn 0.890583 -0.000184 0.454820
vn 0.862742 0.000171 0.505644
vn 0.832018 0.000000 0.554749
vn 0.846736 -0.002609 0.532006
vn 0.000000 1.000000 0.000000
vn 0.000000 1.000000 0.000000
vn 0.000000 1.000000 0.000000
vn 0.000000 1.000000 0.000000
vn -0.000000 1.000000 0.000000
vn 0.000000 1.000000 -0.000000
vn 0.000000 1.000000 -0.000000
vn -0.000000 1.000000 0.000000
vn 0.000000 1.000000 -0.000000
vn -0.000000 1.000000 0.000000
vn 0.000000 1.000000 -0.000000
vn 0.000000 1.000000 -0.000000
vn -0.000000 1.000000 0.000000
vn 0.000000 1.000000 -0.000000
vn 0.000000 1.000000 -0.000000
vn 0.000000 1.000000 0.000000
vn 0.000000 1.000000 0.000000
vn 0.000000 1.000000 0.000000
vn 0.000000 1.000000 0.000000
vn 0.000000 1.000000 0.000000
vn 0.000000 1.000000 -0.000000
vn 0.000000 1.000000 0.000000
vn -0.000000 1.000000 0.000000
vn -0.000000 1.000000 0.000000
vn 0.000000 1.000000 0.000000
vn -0.000000 1.000000 0.000000
vn -0.000000 1.000000 0.000000
vn 0.000000 1.000000 0.000000
vn -0.000000 1.000000 0.000000
vn -0.000000 1.000000 0.000000
vn 0.000000 1.000000 0.000000
vn -0.000000 1.000000 0.000000
vn -0.000000 1.000000 0.000000
vn 0.000000 1.000000 0.000000
vn -0.000000 1.000000 0.000000
vn -0.000000 1.000000 0.000000
vn 0.000000 1.000000 0.000000
vn -0.000000 1.000000 0.000000
vn -0.000000 1.000000 0.000000
vn 0.000000 1.000000 0.000000
vn -0.000000 1.000000 0.000000
vn 0.000000 1.000000 0.000000
vn -0.000000 1.000000 -0.000000
vn -0.000000 1.000000 -0.000000
vn 0.000000 1.000000 0.000000
vn 0.000000 1.000000 0.000000
vn 0.000000 1.000000 0.000000
vn 0.000000 1.000000 0.000000
vn 0.000000 1.000000 0.000000
vn 0.000000 1.000000 0.000000
vn 0.000000 1.000000 0.000000
vn 0.000000 1.000000 0.000000
vn 0.000000 1.000000 0.000000
vn 0.000000 1.000000 0.000000
vn 0.000000 1.000000 0.000000
vn 0.000000 1.000000 0.000000
vn 0.000000 1.000000 0.000000
vn 0.000000 1.000000 0.000000
vn -0.000000 1.000000 -0.000000
vn 0.000000 1.000000 -0.000000
vn 0.000000 1.000000 0.000000
vn 0.000000 1.000000 -0.000000
vn 0.000000 1.000000 -0.000000
vn 0.000000 1.000000 0.000000
vn 0.000000 1.000000 -0.000000
vn 0.576911 0.706878 0.409264
vn 0.576810 0.706993 0.409209
vn 0.576751 0.707057 0.409181
vn 0.576617 0.707198 0.409126
vn 0.576713 0.707100 0.409159
vn 0.576703 0.707110 0.409156
vn 0.576712 0.707099 0.409162
vn 0.576705 0.707107 0.409158
vn 0.576687 0.707130 0.409145
vn 0.576714 0.707097 0.409164
vn 0.576732 0.707074 0.409177
vn 0.576705 0.707108 0.409157
vn 0.576689 0.707128 0.409146
vn 0.576696 0.707119 0.409151
vn 0.576710 0.707101 0.409161
vn 0.576699 0.707115 0.409153
vn 0.576713 0.707098 0.409163
vn 0.576709 0.707102 0.409160
vn 0.576713 0.707098 0.409163
vn 0.576703 0.707110 0.409156
vn -0.409163 0.707098 -0.576713
vn -0.409159 0.707106 -0.576707
vn -0.409163 0.707098 -0.576713
vn -0.409153 0.707115 -0.576699
vn -0.409161 0.707101 -0.576710
vn -0.409154 0.707113 -0.576701
vn -0.409146 0.707127 -0.576689
vn -0.409157 0.707108 -0.576705
vn -0.409176 0.707077 -0.576730
vn -0.409162 0.707100 -0.576711
vn -0.409143 0.707133 -0.576685
vn -0.409158 0.707107 -0.576706
vn -0.409162 0.707099 -0.576712
vn -0.409156 0.707110 -0.576703
vn -0.409158 0.707107 -0.576706
vn -0.409159 0.707100 -0.576713
vn -0.409126 0.707199 -0.576616
vn -0.409181 0.707057 -0.576751
vn -0.409209 0.706993 -0.576810
vn -0.409264 0.706878 -0.576911
vn 0.071321 0.706473 0.704137
vn 0.061428 0.707252 0.704287
vn 0.049682 0.706856 0.705611
vn 0.046778 0.707063 0.705602
vn 0.032600 0.707115 0.706347
vn -0.001267 0.707781 0.706431
vn 0.009110 0.707246 0.706909
vn 0.029283 0.706974 0.706633
vn -0.022233 0.706481 0.707383
vn -0.053950 0.707660 0.704490
vn -0.066592 0.706637 0.704436
vn -0.106371 0.707356 0.698808
vn -0.110640 0.706929 0.698578
vn -0.154291 0.706936 0.690243
vn -0.158177 0.707347 0.688941
vn -0.197402 0.706642 0.679478
vn -0.209009 0.707656 0.674936
vn -0.239739 0.706482 0.665889
vn -0.258713 0.707780 0.657355
vn -0.281080 0.706459 0.649546
vn -0.307027 0.707720 0.636291
vn -0.321261 0.706572 0.630514
vn -0.353735 0.707476 0.611841
vn -0.360094 0.706819 0.608884
vn -0.397479 0.707062 0.584871
vn -0.398518 0.707207 0.583988
vn -0.433627 0.706723 0.559026
vn -0.440722 0.707575 0.552360
vn -0.468006 0.706519 0.530850
vn -0.480559 0.707760 0.517821
vn -0.500463 0.706452 0.500463
vn -0.517821 0.707760 0.480559
vn -0.530850 0.706519 0.468006
vn -0.552363 0.707575 0.440718
vn -0.559026 0.706723 0.433627
vn -0.583981 0.707208 0.398526
vn -0.584871 0.707061 0.397479
vn -0.608887 0.706818 0.360090
vn -0.611844 0.707476 0.353730
vn -0.630512 0.706571 0.321266
vn -0.636289 0.707720 0.307032
vn -0.649546 0.706458 0.281080
vn -0.657360 0.707780 0.258702
vn -0.665890 0.706483 0.239734
vn -0.674932 0.707656 0.209021
vn -0.679475 0.706641 0.197413
vn -0.688941 0.707347 0.158177
vn -0.690246 0.706935 0.154280
vn -0.698578 0.706927 0.110646
vn -0.698809 0.707355 0.106371
vn -0.704437 0.706636 0.066592
vn -0.704491 0.707661 0.053937
vn -0.707382 0.706481 0.022233
vn -0.706431 0.707781 0.001274
vn -0.706909 0.707246 -0.009110
vn -0.706579 0.706920 -0.031791
vn -0.706518 0.707103 -0.028959
vn -0.705602 0.707061 -0.046814
vn -0.705611 0.706856 -0.049682
vn -0.704290 0.707252 -0.061402
vn -0.704139 0.706470 -0.071329
vn 0.815585 0.000000 0.578637
vn 0.815585 -0.000010 0.578637
vn 0.815585 -0.000001 0.578637
vn 0.815585 -0.000000 0.578637
vn 0.815585 0.000009 0.578637
vn 0.815585 -0.000000 0.578637
vn 0.997452 0.000000 -0.071333
vn 0.997452 0.000000 -0.071333
vn 0.997452 0.000000 0.071333
vn 0.997452 -0.000000 0.071333
vn 0.977146 0.000000 0.212569
vn 0.977146 0.000000 -0.212569
vn 0.977146 0.000000 -0.212569
vn 0.936950 0.000000 -0.349463
vn 0.936950 0.000000 -0.349463
vn 0.877672 0.000000 -0.479262
vn 0.877672 0.000000 -0.479262
vn 0.800543 0.000000 -0.599275
vn 0.800543 0.000000 -0.599275
vn 0.707107 0.000000 -0.707107
vn 0.707107 0.000000 -0.707107
vn 0.599275 0.000000 -0.800543
vn 0.599275 0.000000 -0.800543
vn 0.479262 0.000000 -0.877672
vn 0.479262 0.000000 -0.877672
vn 0.349463 0.000000 -0.936950
vn 0.349463 0.000000 -0.936950
vn 0.212569 0.000000 -0.977146
vn 0.212569 0.000000 -0.977146
vn 0.071333 0.000000 -0.997452
vn 0.071333 0.000000 -0.997452
vn -0.071333 0.000000 -0.997452
vn -0.071333 0.000000 -0.997452
vn -0.212569 0.000000 -0.977146
vn -0.212569 0.000000 -0.977146
vn -0.349463 0.000000 -0.936950
vn -0.349463 0.000000 -0.936950
vn -0.479262 0.000000 -0.877672
vn -0.479262 0.000000 -0.877672
vn -0.599275 0.000000 -0.800543
vn -0.599275 0.000000 -0.800543
vn -0.707089 0.000000 -0.707125
vn -0.707089 0.000000 -0.707125
vn -0.800560 0.000000 -0.599253
vn -0.800560 0.000000 -0.599253
vn -0.877672 0.000000 -0.479262
vn -0.877672 0.000000 -0.479262
vn -0.936950 0.000000 -0.349463
vn -0.936950 0.000000 -0.349463
vn -0.977146 0.000000 -0.212569
vn -0.977146 0.000000 -0.212569
vn -0.997452 0.000000 -0.071333
vn -0.997452 0.000000 -0.071333
vn -0.997452 0.000000 0.071333
vn -0.997452 0.000000 0.071333
vn -0.977146 0.000000 0.212569
vn -0.977146 0.000000 0.212569
vn -0.936950 0.000000 0.349463
vn -0.936950 0.000000 0.349463
vn -0.877672 0.000000 0.479262
vn -0.877672 0.000000 0.479262
vn -0.800560 0.000000 0.599253
vn -0.800560 0.000000 0.599253
vn -0.707107 0.000000 0.707107
vn -0.707107 0.000000 0.707107
vn -0.599253 0.000000 0.800560
vn -0.599253 0.000000 0.800560
vn -0.479262 0.000000 0.877672
vn -0.479262 0.000000 0.877672
vn -0.349463 0.000000 0.936950
vn -0.349463 0.000000 0.936950
vn -0.212569 0.000000 0.977146
vn -0.212569 0.000000 0.977146
vn -0.071333 0.000000 0.997452
vn -0.071333 0.000000 0.997452
vn 0.071333 0.000000 0.997452
vn 0.071333 -0.000000 0.997452
vn 0.212569 0.000000 0.977146
vn 0.212569 -0.000000 0.977146
vn 0.349463 0.000000 0.936950
vn 0.349463 -0.000000 0.936950
vn 0.479262 0.000000 0.877672
vn 0.479262 -0.000000 0.877672
vn 0.599253 0.000000 0.800560
vn 0.599253 -0.000000 0.800560
vn 0.707125 0.000000 0.707089
vn 0.707125 -0.000000 0.707089
vn 0.800543 0.000000 0.599275
vn 0.800543 -0.000000 0.599275
vn 0.877672 0.000000 0.479262
vn 0.877672 -0.000000 0.479262
vn 0.936950 0.000000 0.349463
vn 0.936950 -0.000000 0.349463
vn 0.977146 0.000000 0.212569
vn 0.000000 -1.000000 0.000000
vn 0.000000 -1.000000 0.000000
vn 0.000000 -1.000000 0.000000
vn 0.000000 -1.000000 -0.000000
vn -0.000000 -1.000000 0.000000
vn 0.000000 -1.000000 -0.000000
vn -0.000000 -1.000000 0.000000
vn 0.000000 -1.000000 -0.000000
vn 0.000000 -1.000000 -0.000000
vn -0.000000 -1.000000 0.000000
vn 0.000000 -1.000000 -0.000000
vn -0.000000 -1.000000 0.000000
vn 0.000000 -1.000000 -0.000000
vn 0.000000 -1.000000 -0.000000
vn -0.000000 -1.000000 0.000000
vn 0.000000 -1.000000 -0.000000
vn -0.000000 -1.000000 0.000000
vn 0.000000 -1.000000 -0.000000
vn -0.000000 -1.000000 0.000000
vn 0.000000 -1.000000 -0.000000
vn -0.000000 -1.000000 0.000000
vn 0.000000 -1.000000 0.000000
vn -0.000000 -1.000000 0.000000
vn 0.000000 -1.000000 0.000000
vn -0.000000 -1.000000 0.000000
vn 0.000000 -1.000000 0.000000
vn -0.000000 -1.000000 0.000000
vn -0.000000 -1.000000 0.000000
vn 0.000000 -1.000000 0.000000
vn -0.000000 -1.000000 0.000000
vn 0.000000 -1.000000 0.000000
vn -0.000000 -1.000000 0.000000
vn -0.000000 -1.000000 0.000000
vn 0.000000 -1.000000 0.000000
vn -0.000000 -1.000000 0.000000
vn 0.000000 -1.000000 0.000000
vn -0.000000 -1.000000 0.000000
vn 0.000000 -1.000000 0.000000
vn 0.000000 -1.000000 0.000000
vn 0.000000 -1.000000 0.000000
vn 0.000000 -1.000000 0.000000
vn 0.000000 -1.000000 0.000000
vn 0.000000 -1.000000 0.000000
vn 0.000000 -1.000000 0.000000
vn 0.000000 -1.000000 0.000000
vn 0.000000 -1.000000 0.000000
vn 0.000000 -1.000000 0.000000
vn 0.000000 -1.000000 0.000000
vn 0.000000 -1.000000 0.000000
vn 0.000000 -1.000000 0.000000
vn 0.000000 -1.000000 0.000000
vn 0.000000 -1.000000 0.000000
vn 0.000000 -1.000000 0.000000
vn 0.000000 -1.000000 0.000000
vn 0.000000 -1.000000 0.000000
vn 0.000000 -1.000000 0.000000
vn 0.000000 -1.000000 0.000000
vn 0.000000 -1.000000 0.000000
vn 0.000000 -1.000000 0.000000
vn 0.000000 -1.000000 -0.000000
vn 0.000000 -1.000000 0.000000
vn 0.000000 -1.000000 -0.000000
vn 0.000000 -1.000000 0.000000
vn 0.000000 -1.000000 -0.000000
vn 0.000000 -1.000000 0.000000
vn 0.000000 -1.000000 0.000000
vn 0.000000 -1.000000 -0.000000
vn 0.000000 -1.000000 0.000000
vn 0.000000 -1.000000 -0.000000
vn 0.000000 -1.000000 0.000000
vn 0.000000 -1.000000 0.000000
vn 0.000000 -1.000000 -0.000000
vn 0.000000 -1.000000 0.000000
vn 0.000000 -1.000000 -0.000000
vn 0.000000 -1.000000 0.000000
vn 0.000000 -1.000000 -0.000000
vn 0.995188 0.000000 0.097981
vn 0.995188 0.000000 0.097981
vn 0.995188 0.000000 -0.097981
vn 0.995188 0.000000 -0.097981
vn 0.956932 0.000000 -0.290311
vn 0.956932 0.000000 -0.290311
vn 0.881915 0.000000 -0.471408
vn 0.881915 0.000000 -0.471408
vn 0.773002 0.000000 -0.634403
vn 0.773002 0.000000 -0.634403
vn 0.634403 0.000000 -0.773002
vn 0.634403 0.000000 -0.773002
vn 0.471408 0.000000 -0.881915
vn 0.471408 0.000000 -0.881915
vn 0.290311 0.000000 -0.956932
vn 0.290311 0.000000 -0.956932
vn 0.097981 0.000000 -0.995188
vn 0.097981 0.000000 -0.995188
vn -0.097981 0.000000 -0.995188
vn -0.097981 -0.000000 -0.995188
vn -0.290311 0.000000 -0.956932
vn -0.290311 -0.000000 -0.956932
vn -0.471408 0.000000 -0.881915
vn -0.471408 -0.000000 -0.881915
vn -0.634380 0.000000 -0.773021
vn -0.634380 -0.000000 -0.773021
vn -0.773002 0.000000 -0.634403
vn -0.773002 -0.000000 -0.634403
vn -0.881935 0.000000 -0.471372
vn -0.881935 -0.000000 -0.471372
vn -0.956932 0.000000 -0.290311
vn -0.956932 -0.000000 -0.290311
vn -0.995184 0.000000 -0.098028
vn -0.995184 -0.000000 -0.098028
vn -0.995184 0.000000 0.098028
vn -0.995184 0.000000 0.098028
vn -0.956932 0.000000 0.290311
vn -0.956932 0.000000 0.290311
vn -0.881935 0.000000 0.471372
vn -0.881935 0.000000 0.471372
vn -0.773021 0.000000 0.634380
vn -0.773021 0.000000 0.634380
vn -0.634380 0.000000 0.773021
vn -0.634380 0.000000 0.773021
vn -0.471372 0.000000 0.881935
vn -0.471372 0.000000 0.881935
vn -0.290311 0.000000 0.956932
vn -0.290311 0.000000 0.956932
vn -0.098028 0.000000 0.995184
vn -0.098028 0.000000 0.995184
vn 0.098028 0.000000 0.995184
vn 0.098028 0.000000 0.995184
vn 0.290311 0.000000 0.956932
vn 0.290311 0.000000 0.956932
vn 0.471372 0.000000 0.881935
vn 0.471372 0.000000 0.881935
vn 0.634403 0.000000 0.773002
vn 0.634403 0.000000 0.773002
vn 0.773021 0.000000 0.634380
vn 0.773021 0.000000 0.634380
vn 0.881915 0.000000 0.471408
vn 0.881915 0.000000 0.471408
vn 0.956932 0.000000 0.290311
vn 0.956932 0.000000 0.290311
vn -0.578637 -0.000000 -0.815585
vn -0.578637 -0.000010 -0.815585
vn -0.578637 0.000008 -0.815585
vn -0.578637 0.000000 -0.815585
vn -0.578637 0.000009 -0.815585
vn -0.578637 0.000000 -0.815585
vn -0.031414 0.000000 0.999506
vn -0.031414 0.000000 0.999506
vn -0.094112 0.000000 0.995562
vn -0.094112 0.000000 0.995562
vn -0.156429 0.000000 0.987689
vn -0.156429 0.000000 0.987689
vn -0.218148 0.000000 0.975916
vn -0.218148 0.000000 0.975916
vn -0.278985 0.000000 0.960295
vn -0.278985 0.000000 0.960295
vn -0.338744 0.000000 0.940879
vn -0.338744 0.000000 0.940879
vn -0.397143 0.000000 0.917757
vn -0.397143 0.000000 0.917757
vn -0.453989 0.000000 0.891007
vn -0.453989 0.000000 0.891007
vn -0.509043 0.000000 0.860741
vn -0.509043 0.000000 0.860741
vn -0.562085 0.000000 0.827080
vn -0.562085 0.000000 0.827080
vn -0.612909 0.000000 0.790154
vn -0.612909 0.000000 0.790154
vn -0.661311 0.000000 0.750112
vn -0.661311 0.000000 0.750112
vn -0.707107 0.000000 0.707107
vn -0.707107 0.000000 0.707107
vn -0.750112 0.000000 0.661311
vn -0.750112 0.000000 0.661311
vn -0.790154 0.000000 0.612909
vn -0.790154 0.000000 0.612909
vn -0.827080 0.000000 0.562085
vn -0.827080 0.000000 0.562085
vn -0.860745 0.000000 0.509037
vn -0.860745 0.000000 0.509037
vn -0.891004 0.000000 0.453995
vn -0.891004 0.000000 0.453995
vn -0.917757 0.000000 0.397143
vn -0.917757 0.000000 0.397143
vn -0.940881 0.000000 0.338737
vn -0.940881 0.000000 0.338737
vn -0.960291 0.000000 0.279000
vn -0.960291 0.000000 0.279000
vn -0.975919 0.000000 0.218132
vn -0.975919 0.000000 0.218132
vn -0.987688 0.000000 0.156437
vn -0.987688 0.000000 0.156437
vn -0.995562 0.000000 0.094112
vn -0.995562 0.000000 0.094112
vn -0.999506 0.000000 0.031414
vn -0.999506 0.000000 0.031414
vn 0.000000 -1.000000 0.000000
vn -0.000000 -1.000000 0.000000
vn -0.000000 -1.000000 0.000000
vn 0.000000 -1.000000 0.000000
vn -0.000000 -1.000000 0.000000
vn -0.000000 -1.000000 0.000000
vn 0.000000 -1.000000 0.000000
vn 0.000000 -1.000000 -0.000000
vn 0.000000 -1.000000 -0.000000
vn 0.000000 -1.000000 -0.000000
vn 0.000000 -1.000000 -0.000000
vn 0.000000 -1.000000 -0.000000
vn 0.000000 -1.000000 -0.000000
vn 0.000000 -1.000000 -0.000000
vn 0.000000 -1.000000 -0.000000
vn 0.000000 -1.000000 -0.000000
vn 0.000000 -1.000000 -0.000000
vn 0.000000 -1.000000 -0.000000
vn 0.000000 -1.000000 -0.000000
vn 0.000000 -1.000000 -0.000000
vn 0.000000 -1.000000 -0.000000
vn 0.000000 -1.000000 -0.000000
vn 0.000000 -1.000000 -0.000000
vn 0.000000 -1.000000 -0.000000
vn 0.000000 -1.000000 -0.000000
vn 0.000000 -1.000000 -0.000000
vn 0.000000 -1.000000 -0.000000
vn 0.000000 -1.000000 -0.000000
vn 0.000000 -1.000000 -0.000000
vn 0.000000 -1.000000 -0.000000
vn 0.000000 -1.000000 -0.000000
vn 0.000000 -1.000000 -0.000000
vn -0.000000 -1.000000 0.000000
vn -0.000000 -1.000000 0.000000
vn 0.000000 -1.000000 0.000000
vn -0.000000 -1.000000 0.000000
vn -0.000000 -1.000000 0.000000
vn 0.000000 -1.000000 0.000000
vn 0.000000 -1.000000 0.000000
vn 0.000000 -1.000000 0.000000
vn 0.000000 -1.000000 0.000000
vn 0.000000 -1.000000 0.000000
vn 0.000000 -1.000000 0.000000
vn 0.000000 -1.000000 0.000000
vn 0.000000 -1.000000 0.000000
vn -0.000000 -1.000000 0.000000
vn 0.000000 -1.000000 0.000000
vn -0.000000 -1.000000 0.000000
vn 0.000000 -1.000000 0.000000
vn -0.000000 -1.000000 0.000000
vn 0.000000 -1.000000 0.000000
vn 0.000000 -1.000000 0.000000
vn 0.000000 -1.000000 0.000000
vn 0.000000 -1.000000 0.000000
vn 0.000000 -1.000000 0.000000
vn 0.000000 -1.000000 0.000000
vn 0.000000 -1.000000 0.000000
vn 0.000000 -1.000000 0.000000
vn 0.000000 -1.000000 0.000000
vn 0.000000 -1.000000 0.000000
vn 0.000000 -1.000000 0.000000
vn 0.000000 -1.000000 0.000000
vn 0.000000 -1.000000 0.000000
vn 0.000000 -1.000000 0.000000
vn 0.000000 -1.000000 0.000000
vn 0.000000 -1.000000 0.000000
vn 0.000000 -1.000000 0.000000
vn 0.000000 -1.000000 0.000000
vn 0.000000 -1.000000 0.000000
vn 0.000000 -1.000000 0.000000
vn 0.000000 -1.000000 0.000000
vn 0.000000 -1.000000 0.000000
vn 0.000000 -1.000000 0.000000
vn 0.000000 -1.000000 0.000000
vn 0.000000 -1.000000 0.000000
vn 0.000000 -1.000000 0.000000
vn 0.000000 -1.000000 0.000000
vn 0.000000 -1.000000 0.000000
vn 0.000000 -1.000000 0.000000
vn 0.000000 -1.000000 0.000000
vn 0.000000 -1.000000 0.000000
vn 0.000000 -1.000000 0.000000
vn 0.000000 -1.000000 0.000000
vn 0.000000 -1.000000 0.000000
vn 0.000000 -1.000000 0.000000
vn 0.000000 -1.000000 -0.000000
vn 0.000000 -1.000000 0.000000
vn 0.000000 -1.000000 -0.000000
vn 0.000000 -1.000000 0.000000
vn 0.000000 -1.000000 -0.000000
vn 0.000000 -1.000000 -0.000000
vn 0.000000 -1.000000 0.000000
vn 0.000000 -1.000000 -0.000000
vn 0.000000 -1.000000 -0.000000
vn 0.000000 -1.000000 0.000000
vn 0.000000 -1.000000 0.000000
f 293//1 297//1 294//1
f 289//2 293//2 294//2
f 288//3 293//3 289//3
f 284//4 288//4 289//4
f 283//5 288//5 284//5
f 279//6 283//6 284//6
f 278//7 283//7 279//7
f 277//8 278//8 279//8
f 276//9 278//9 277//9
f 275//10 276//10 277//10
f 274//11 275//11 277//11
f 267//12 275//12 274//12
f 266//13 267//13 274//13
f 253//14 267//14 266//14
f 252//15 253//15 266//15
f 247//16 253//16 252//16
f 242//17 247//17 252//17
f 231//18 247//18 242//18
f 226//19 231//19 242//19
f 221//20 231//20 226//20
f 212//21 221//21 226//21
f 203//22 212//22 226//22
f 202//23 212//23 203//23
f 193//24 202//24 203//24
f 188//25 193//25 203//25
f 187//26 193//26 188//26
f 177//27 187//27 188//27
f 178//28 187//28 177//28
f 168//29 178//29 177//29
f 162//30 168//30 177//30
f 163//31 168//31 162//31
f 153//32 163//32 162//32
f 139//33 153//33 162//33
f 144//34 153//34 139//34
f 134//35 144//35 139//35
f 122//36 134//36 139//36
f 123//37 134//37 122//37
f 117//38 123//38 122//38
f 111//39 117//39 122//39
f 112//40 117//40 111//40
f 106//41 112//41 111//41
f 96//42 106//42 111//42
f 97//43 106//43 96//43
f 300//44 294//44 297//44
f 299//45 300//45 297//45
f 303//46 300//46 299//46
f 306//47 300//47 303//47
f 305//48 306//48 303//48
f 309//49 306//49 305//49
f 307//50 306//50 309//50
f 308//51 307//51 309//51
f 304//52 307//52 308//52
f 301//53 307//53 304//53
f 302//54 301//54 304//54
f 298//55 301//55 302//55
f 295//56 301//56 298//56
f 296//57 295//57 298//57
f 292//58 295//58 296//58
f 290//59 295//59 292//59
f 291//60 290//60 292//60
f 287//61 290//61 291//61
f 285//62 290//62 287//62
f 286//63 285//63 287//63
f 282//64 285//64 286//64
f 282//65 281//65 280//65
f 285//66 282//66 280//66
f 293//67 288//67 229//67
f 234//68 293//68 229//68
f 241//69 293//69 234//69
f 229//70 288//70 283//70
f 224//71 229//71 283//71
f 278//72 224//72 283//72
f 276//73 224//73 278//73
f 215//74 224//74 276//74
f 275//75 215//75 276//75
f 210//76 215//76 275//76
f 267//77 210//77 275//77
f 253//78 210//78 267//78
f 200//79 210//79 253//79
f 247//80 200//80 253//80
f 231//81 200//81 247//81
f 231//82 32//82 151//82
f 156//83 231//83 151//83
f 166//84 231//84 156//84
f 32//85 33//85 82//85
f 152//86 32//86 82//86
f 143//87 32//87 152//87
f 82//88 33//88 36//88
f 37//89 82//89 36//89
f 38//90 82//90 37//90
f 82//91 38//91 39//91
f 42//92 82//92 39//92
f 43//93 82//93 42//93
f 82//94 43//94 46//94
f 47//95 82//95 46//95
f 50//96 82//96 47//96
f 82//97 50//97 53//97
f 56//98 82//98 53//98
f 57//99 82//99 56//99
f 82//100 57//100 60//100
f 63//101 82//101 60//101
f 66//102 82//102 63//102
f 82//103 66//103 69//103
f 70//104 82//104 69//104
f 73//105 82//105 70//105
f 82//106 73//106 76//106
f 79//107 82//107 76//107
f 82//108 293//108 216//108
f 211//109 82//109 216//109
f 201//110 82//110 211//110
f 32//111 133//111 125//111
f 132//112 32//112 125//112
f 137//113 32//113 132//113
f 32//114 137//114 142//114
f 151//115 32//115 142//115
f 231//116 166//116 175//116
f 185//117 231//117 175//117
f 191//118 231//118 185//118
f 231//119 191//119 200//119
f 293//120 241//120 235//120
f 230//121 293//121 235//121
f 225//122 293//122 230//122
f 293//123 225//123 216//123
f 82//124 201//124 192//124
f 186//125 82//125 192//125
f 176//126 82//126 186//126
f 82//127 176//127 167//127
f 157//128 82//128 167//128
f 152//129 82//129 157//129
f 32//130 143//130 138//130
f 133//131 32//131 138//131
f 281//132 282//132 286//132
f 287//133 281//133 286//133
f 291//134 281//134 287//134
f 281//135 291//135 292//135
f 296//136 281//136 292//136
f 88//137 281//137 296//137
f 298//138 88//138 296//138
f 302//139 88//139 298//139
f 88//140 302//140 304//140
f 86//141 88//141 304//141
f 308//142 86//142 304//142
f 309//143 86//143 308//143
f 86//144 309//144 305//144
f 84//145 86//145 305//145
f 303//146 84//146 305//146
f 299//147 84//147 303//147
f 84//148 299//148 297//148
f 82//149 84//149 297//149
f 293//150 82//150 297//150
f 281//151 88//151 89//151
f 32//152 231//152 221//152
f 31//153 32//153 221//153
f 212//154 31//154 221//154
f 202//155 31//155 212//155
f 31//156 202//156 193//156
f 28//157 31//157 193//157
f 187//158 28//158 193//158
f 178//159 28//159 187//159
f 28//160 178//160 168//160
f 25//161 28//161 168//161
f 163//162 25//162 168//162
f 153//163 25//163 163//163
f 25//164 153//164 144//164
f 97//165 25//165 144//165
f 22//166 25//166 97//166
f 97//167 144//167 134//167
f 123//168 97//168 134//168
f 117//169 97//169 123//169
f 97//170 117//170 112//170
f 106//171 97//171 112//171
f 87//172 89//172 88//172
f 86//173 87//173 88//173
f 85//174 87//174 86//174
f 84//175 85//175 86//175
f 82//176 85//176 84//176
f 82//177 79//177 81//177
f 83//178 82//178 81//178
f 85//179 82//179 83//179
f 78//180 81//180 79//180
f 76//181 78//181 79//181
f 75//182 78//182 76//182
f 73//183 75//183 76//183
f 72//184 75//184 73//184
f 68//185 72//185 73//185
f 70//186 68//186 73//186
f 65//187 68//187 70//187
f 69//188 65//188 70//188
f 62//189 65//189 69//189
f 66//190 62//190 69//190
f 59//191 62//191 66//191
f 63//192 59//192 66//192
f 55//193 59//193 63//193
f 60//194 55//194 63//194
f 52//195 55//195 60//195
f 49//196 52//196 60//196
f 57//197 49//197 60//197
f 45//198 49//198 57//198
f 56//199 45//199 57//199
f 41//200 45//200 56//200
f 53//201 41//201 56//201
f 35//202 41//202 53//202
f 50//203 35//203 53//203
f 30//204 35//204 50//204
f 47//205 30//205 50//205
f 27//206 30//206 47//206
f 46//207 27//207 47//207
f 24//208 27//208 46//208
f 21//209 24//209 46//209
f 43//210 21//210 46//210
f 18//211 21//211 43//211
f 42//212 18//212 43//212
f 15//213 18//213 42//213
f 39//214 15//214 42//214
f 13//215 15//215 39//215
f 38//216 13//216 39//216
f 10//217 13//217 38//217
f 37//218 10//218 38//218
f 8//219 10//219 37//219
f 6//220 8//220 37//220
f 36//221 6//221 37//221
f 4//222 6//222 36//222
f 33//223 4//223 36//223
f 2//224 4//224 33//224
f 32//225 2//225 33//225
f 11//226 2//226 32//226
f 31//227 11//227 32//227
f 16//228 11//228 31//228
f 28//229 16//229 31//229
f 19//230 16//230 28//230
f 25//231 19//231 28//231
f 22//232 19//232 25//232
f 281//233 89//233 87//233
f 85//234 281//234 87//234
f 83//235 281//235 85//235
f 280//236 281//236 83//236
f 81//237 280//237 83//237
f 80//238 280//238 81//238
f 91//239 95//239 93//239
f 90//240 91//240 93//240
f 94//241 91//241 90//241
f 92//242 94//242 90//242
f 98//243 94//243 92//243
f 93//244 95//244 101//244
f 99//245 93//245 101//245
f 105//246 99//246 101//246
f 103//247 99//247 105//247
f 110//248 103//248 105//248
f 108//249 103//249 110//249
f 116//250 108//250 110//250
f 114//251 108//251 116//251
f 121//252 114//252 116//252
f 119//253 114//253 121//253
f 129//254 119//254 121//254
f 127//255 119//255 129//255
f 148//256 127//256 129//256
f 146//257 127//257 148//257
f 161//258 146//258 148//258
f 159//259 146//259 161//259
f 172//260 159//260 161//260
f 170//261 159//261 172//261
f 184//262 170//262 172//262
f 180//263 170//263 184//263
f 197//264 180//264 184//264
f 195//265 180//265 197//265
f 207//266 195//266 197//266
f 205//267 195//267 207//267
f 220//268 205//268 207//268
f 218//269 205//269 220//269
f 239//270 218//270 220//270
f 237//271 218//271 239//271
f 246//272 237//272 239//272
f 244//273 237//273 246//273
f 251//274 244//274 246//274
f 249//275 244//275 251//275
f 257//276 249//276 251//276
f 255//277 249//277 257//277
f 261//278 255//278 257//278
f 259//279 255//279 261//279
f 265//280 259//280 261//280
f 263//281 259//281 265//281
f 271//282 263//282 265//282
f 269//283 263//283 271//283
f 273//284 269//284 271//284
f 272//285 269//285 273//285
f 270//286 272//286 273//286
f 268//287 272//287 270//287
f 264//288 268//288 270//288
f 262//289 268//289 264//289
f 260//290 262//290 264//290
f 258//291 262//291 260//291
f 256//292 258//292 260//292
f 254//293 258//293 256//293
f 250//294 254//294 256//294
f 248//295 254//295 250//295
f 245//296 248//296 250//296
f 243//297 248//297 245//297
f 238//298 243//298 245//298
f 236//299 243//299 238//299
f 219//300 236//300 238//300
f 217//301 236//301 219//301
f 206//302 217//302 219//302
f 204//303 217//303 206//303
f 196//304 204//304 206//304
f 194//305 204//305 196//305
f 181//306 194//306 196//306
f 179//307 194//307 181//307
f 171//308 179//308 181//308
f 169//309 179//309 171//309
f 160//310 169//310 171//310
f 158//311 169//311 160//311
f 147//312 158//312 160//312
f 145//313 158//313 147//313
f 128//314 145//314 147//314
f 126//315 145//315 128//315
f 120//316 126//316 128//316
f 118//317 126//317 120//317
f 115//318 118//318 120//318
f 113//319 118//319 115//319
f 109//320 113//320 115//320
f 107//321 113//321 109//321
f 104//322 107//322 109//322
f 102//323 107//323 104//323
f 100//324 102//324 104//324
f 98//325 102//325 100//325
f 94//326 98//326 100//326
f 124//327 131//327 95//327
f 91//328 124//328 95//328
f 94//329 124//329 91//329
f 101//330 95//330 131//330
f 136//331 101//331 131//331
f 105//332 101//332 136//332
f 141//333 105//333 136//333
f 110//334 105//334 141//334
f 116//335 110//335 141//335
f 150//336 116//336 141//336
f 121//337 116//337 150//337
f 155//338 121//338 150//338
f 129//339 121//339 155//339
f 148//340 129//340 155//340
f 165//341 148//341 155//341
f 161//342 148//342 165//342
f 174//343 161//343 165//343
f 172//344 161//344 174//344
f 183//345 172//345 174//345
f 184//346 172//346 183//346
f 197//347 184//347 183//347
f 190//348 197//348 183//348
f 207//349 197//349 190//349
f 199//350 207//350 190//350
f 220//351 207//351 199//351
f 209//352 220//352 199//352
f 239//353 220//353 209//353
f 246//354 239//354 209//354
f 214//355 246//355 209//355
f 251//356 246//356 214//356
f 223//357 251//357 214//357
f 257//358 251//358 223//358
f 261//359 257//359 223//359
f 228//360 261//360 223//360
f 265//361 261//361 228//361
f 233//362 265//362 228//362
f 271//363 265//363 233//363
f 240//364 271//364 233//364
f 273//365 271//365 240//365
f 270//366 273//366 240//366
f 232//367 270//367 240//367
f 264//368 270//368 232//368
f 227//369 264//369 232//369
f 260//370 264//370 227//370
f 222//371 260//371 227//371
f 256//372 260//372 222//372
f 250//373 256//373 222//373
f 213//374 250//374 222//374
f 245//375 250//375 213//375
f 208//376 245//376 213//376
f 238//377 245//377 208//377
f 219//378 238//378 208//378
f 198//379 219//379 208//379
f 206//380 219//380 198//380
f 189//381 206//381 198//381
f 196//382 206//382 189//382
f 182//383 196//383 189//383
f 181//384 196//384 182//384
f 171//385 181//385 182//385
f 173//386 171//386 182//386
f 160//387 171//387 173//387
f 164//388 160//388 173//388
f 147//389 160//389 164//389
f 154//390 147//390 164//390
f 128//391 147//391 154//391
f 120//392 128//392 154//392
f 149//393 120//393 154//393
f 115//394 120//394 149//394
f 140//395 115//395 149//395
f 109//396 115//396 140//396
f 104//397 109//397 140//397
f 135//398 104//398 140//398
f 100//399 104//399 135//399
f 130//400 100//400 135//400
f 94//401 100//401 130//401
f 124//402 94//402 130//402
f 124//403 130//403 132//403
f 125//404 124//404 132//404
f 131//405 124//405 125//405
f 133//406 131//406 125//406
f 136//407 131//407 133//407
f 138//408 136//408 133//408
f 141//409 136//409 138//409
f 143//410 141//410 138//410
f 150//411 141//411 143//411
f 152//412 150//412 143//412
f 155//413 150//413 152//413
f 157//414 155//414 152//414
f 165//415 155//415 157//415
f 167//416 165//416 157//416
f 174//417 165//417 167//417
f 176//418 174//418 167//418
f 183//419 174//419 176//419
f 186//420 183//420 176//420
f 190//421 183//421 186//421
f 192//422 190//422 186//422
f 199//423 190//423 192//423
f 201//424 199//424 192//424
f 209//425 199//425 201//425
f 211//426 209//426 201//426
f 214//427 209//427 211//427
f 216//428 214//428 211//428
f 223//429 214//429 216//429
f 225//430 223//430 216//430
f 228//431 223//431 225//431
f 230//432 228//432 225//432
f 233//433 228//433 230//433
f 235//434 233//434 230//434
f 240//435 233//435 235//435
f 241//436 240//436 235//436
f 232//437 240//437 241//437
f 234//438 232//438 241//438
f 227//439 232//439 234//439
f 229//440 227//440 234//440
f 222//441 227//441 229//441
f 224//442 222//442 229//442
f 213//443 222//443 224//443
f 215//444 213//444 224//444
f 208//445 213//445 215//445
f 210//446 208//446 215//446
f 198//447 208//447 210//447
f 200//448 198//448 210//448
f 189//449 198//449 200//449
f 191//450 189//450 200//450
f 182//451 189//451 191//451
f 185//452 182//452 191//452
f 173//453 182//453 185//453
f 175//454 173//454 185//454
f 164//455 173//455 175//455
f 166//456 164//456 175//456
f 154//457 164//457 166//457
f 156//458 154//458 166//458
f 149//459 154//459 156//459
f 151//460 149//460 156//460
f 140//461 149//461 151//461
f 142//462 140//462 151//462
f 135//463 140//463 142//463
f 137//464 135//464 142//464
f 130//465 135//465 137//465
f 132//466 130//466 137//466
f 19//467 22//467 97//467
f 16//468 19//468 97//468
f 11//469 16//469 97//469
f 96//470 11//470 97//470
f 2//471 11//471 96//471
f 1//472 2//472 96//472
f 77//473 80//473 81//473
f 78//474 77//474 81//474
f 75//475 77//475 78//475
f 74//476 77//476 75//476
f 72//477 74//477 75//477
f 71//478 74//478 72//478
f 68//479 71//479 72//479
f 67//480 71//480 68//480
f 65//481 67//481 68//481
f 64//482 67//482 65//482
f 62//483 64//483 65//483
f 61//484 64//484 62//484
f 59//485 61//485 62//485
f 58//486 61//486 59//486
f 55//487 58//487 59//487
f 54//488 58//488 55//488
f 52//489 54//489 55//489
f 51//490 54//490 52//490
f 49//491 51//491 52//491
f 48//492 51//492 49//492
f 45//493 48//493 49//493
f 44//494 48//494 45//494
f 41//495 44//495 45//495
f 40//496 44//496 41//496
f 35//497 40//497 41//497
f 34//498 40//498 35//498
f 30//499 34//499 35//499
f 29//500 34//500 30//500
f 27//501 29//501 30//501
f 26//502 29//502 27//502
f 24//503 26//503 27//503
f 23//504 26//504 24//504
f 21//505 23//505 24//505
f 20//506 23//506 21//506
f 18//507 20//507 21//507
f 17//508 20//508 18//508
f 15//509 17//509 18//509
f 14//510 17//510 15//510
f 13//511 14//511 15//511
f 12//512 14//512 13//512
f 10//513 12//513 13//513
f 9//514 12//514 10//514
f 8//515 9//515 10//515
f 7//516 9//516 8//516
f 6//517 7//517 8//517
f 5//518 7//518 6//518
f 4//519 5//519 6//519
f 3//520 5//520 4//520
f 1//521 3//521 4//521
f 2//522 1//522 4//522
f 1//523 92//523 90//523
f 93//524 1//524 90//524
f 99//525 1//525 93//525
f 1//526 99//526 103//526
f 108//527 1//527 103//527
f 114//528 1//528 108//528
f 1//529 114//529 119//529
f 3//530 1//530 119//530
f 5//531 3//531 119//531
f 7//532 5//532 119//532
f 9//533 7//533 119//533
f 12//534 9//534 119//534
f 14//535 12//535 119//535
f 17//536 14//536 119//536
f 20//537 17//537 119//537
f 23//538 20//538 119//538
f 26//539 23//539 119//539
f 29//540 26//540 119//540
f 34//541 29//541 119//541
f 40//542 34//542 119//542
f 44//543 40//543 119//543
f 48//544 44//544 119//544
f 51//545 48//545 119//545
f 54//546 51//546 119//546
f 58//547 54//547 119//547
f 61//548 58//548 119//548
f 64//549 61//549 119//549
f 67//550 64//550 119//550
f 71//551 67//551 119//551
f 74//552 71//552 119//552
f 77//553 74//553 119//553
f 80//554 77//554 119//554
f 127//555 80//555 119//555
f 146//556 80//556 127//556
f 80//557 146//557 159//557
f 170//558 80//558 159//558
f 180//559 80//559 170//559
f 80//560 180//560 195//560
f 280//561 80//561 195//561
f 205//562 280//562 195//562
f 218//563 280//563 205//563
f 280//564 218//564 237//564
f 244//565 280//565 237//565
f 249//566 280//566 244//566
f 280//567 249//567 255//567
f 285//568 280//568 255//568
f 259//569 285//569 255//569
f 290//570 285//570 259//570
f 263//571 290//571 259//571
f 295//572 290//572 263//572
f 301//573 295//573 263//573
f 269//574 301//574 263//574
f 307//575 301//575 269//575
f 272//576 307//576 269//576
f 306//577 307//577 272//577
f 268//578 306//578 272//578
f 300//579 306//579 268//579
f 262//580 300//580 268//580
f 294//581 300//581 262//581
f 289//582 294//582 262//582
f 258//583 289//583 262//583
f 284//584 289//584 258//584
f 254//585 284//585 258//585
f 279//586 284//586 254//586
f 248//587 279//587 254//587
f 277//588 279//588 248//588
f 243//589 277//589 248//589
f 274//590 277//590 243//590
f 266//591 274//591 243//591
f 236//592 266//592 243//592
f 252//593 266//593 236//593
f 217//594 252//594 236//594
f 242//595 252//595 217//595
f 204//596 242//596 217//596
f 226//597 242//597 204//597
f 203//598 226//598 204//598
f 194//599 203//599 204//599
f 188//600 203//600 194//600
f 179//601 188//601 194//601
f 177//602 188//602 179//602
f 169//603 177//603 179//603
f 162//604 177//604 169//604
f 158//605 162//605 169//605
f 139//606 162//606 158//606
f 122//607 139//607 158//607
f 145//608 122//608 158//608
f 111//609 122//609 145//609
f 126//610 111//610 145//610
f 96//611 111//611 126//611
f 118//612 96//612 126//612
f 113//613 96//613 118//613
f 96//614 113//614 107//614
f 102//615 96//615 107//615
f 98//616 96//616 102//616
f 96//617 98//617 92//617
f 1//618 96//618 92//618
